<?xml version="1.0" encoding="utf-8"?>
<!-- Uploaded to: SVG Repo, www.svgrepo.com, Generator: SVG Repo Mixer Tools -->
<svg width="800px" height="800px" viewBox="0 0 128 128" xmlns="http://www.w3.org/2000/svg" xmlns:xlink="http://www.w3.org/1999/xlink" aria-hidden="true" role="img" class="iconify iconify--noto" preserveAspectRatio="xMidYMid meet">
<linearGradient id="IconifyId17ecdb2904d178eab10083" gradientUnits="userSpaceOnUse" x1="50.039" y1="68.904" x2="58.797" y2="68.904" gradientTransform="rotate(45.001 55.992 74.727) scale(1 1.1165)">
<stop offset=".595" stop-color="#616161">
</stop>
<stop offset=".775" stop-color="#565656">
</stop>
<stop offset="1" stop-color="#424242">
</stop>
</linearGradient>
<path fill="url(#IconifyId17ecdb2904d178eab10083)" d="M10.8 123.89l-6.19-6.2l91.23-91.23l6.19 6.19z">
</path>
<linearGradient id="IconifyId17ecdb2904d178eab10084" gradientUnits="userSpaceOnUse" x1="88.88" y1="34.518" x2="95.665" y2="41.304">
<stop offset=".262" stop-color="#f5f5f5">
</stop>
<stop offset=".466" stop-color="#eaeaea">
</stop>
<stop offset=".822" stop-color="#cdcdcd">
</stop>
<stop offset=".989" stop-color="#bdbdbd">
</stop>
</linearGradient>
<path d="M100.04 28.46c-2.25-2.25-4.19-2-4.19-2L79.73 42.58c.95-.21 2.62.6 4.11 2.08c1.48 1.48 2.29 3.15 2.08 4.11l16.12-16.12c-.01 0 .25-1.93-2-4.19z" fill="url(#IconifyId17ecdb2904d178eab10084)">
</path>
<linearGradient id="IconifyId17ecdb2904d178eab10085" gradientUnits="userSpaceOnUse" x1="13.913" y1="109.476" x2="20.715" y2="116.277">
<stop offset=".262" stop-color="#f5f5f5">
</stop>
<stop offset=".466" stop-color="#eaeaea">
</stop>
<stop offset=".822" stop-color="#cdcdcd">
</stop>
<stop offset=".989" stop-color="#bdbdbd">
</stop>
</linearGradient>
<path d="M25.1 103.4c-2.25-2.25-4.19-2-4.19-2L4.74 117.56c.95-.21 2.67.56 4.16 2.04c1.48 1.48 2.25 3.21 2.04 4.16l16.16-16.17s.25-1.94-2-4.19z" fill="url(#IconifyId17ecdb2904d178eab10085)">
</path>
<ellipse transform="rotate(-45.001 7.798 120.7)" cx="7.8" cy="120.7" rx="1.94" ry="4.38" fill="#9e9e9e">
</ellipse>
<linearGradient id="IconifyId17ecdb2904d178eab10086" gradientUnits="userSpaceOnUse" x1="68.386" y1="60.107" x2="102.984" y2="25.509">
<stop offset="0" stop-color="#fada80" stop-opacity="0">
</stop>
<stop offset="1" stop-color="#fada80">
</stop>
</linearGradient>
<path d="M95.82 26.48L27.88 94.43c-.76.76.01 2.76 1.72 4.46c1.71 1.71 3.71 2.48 4.46 1.72l67.95-67.95s.42-1.88-1.98-4.21s-4.21-1.97-4.21-1.97z" opacity=".85" fill="url(#IconifyId17ecdb2904d178eab10086)">
</path>
<linearGradient id="IconifyId17ecdb2904d178eab10087" gradientUnits="userSpaceOnUse" x1="-2.51" y1="131.003" x2="21.434" y2="107.059">
<stop offset="0" stop-color="#1a237e">
</stop>
<stop offset=".186" stop-color="#1d2a87" stop-opacity=".814">
</stop>
<stop offset=".49" stop-color="#243da0" stop-opacity=".51">
</stop>
<stop offset=".873" stop-color="#2f5cc7" stop-opacity=".127">
</stop>
<stop offset="1" stop-color="#3367d6" stop-opacity="0">
</stop>
</linearGradient>
<path d="M72.59 49.71L4.65 117.66c-.76.76.01 2.76 1.72 4.46c1.71 1.71 3.71 2.48 4.46 1.72L78.79 55.9s.42-1.88-1.98-4.21c-2.41-2.32-4.22-1.98-4.22-1.98z" opacity=".22" fill="url(#IconifyId17ecdb2904d178eab10087)">
</path>
<radialGradient id="IconifyId17ecdb2904d178eab10088" cx="75.918" cy="23.046" r="14.784" gradientTransform="rotate(2.144 75.14 23.029)" gradientUnits="userSpaceOnUse">
<stop offset="0" stop-color="#ffeb3b">
</stop>
<stop offset="1" stop-color="#fbc02d">
</stop>
</radialGradient>
<path d="M68.37 18.82l5.98-5.96c.33-.33.9-.06.85.41l-.77 6.99c-.03.27.16.52.44.55l8.56 1.02c.5.06.61.74.14.95l-8.92 3.99c-.13.06-.23.18-.27.32l-2.58 8.85c-.12.43-.7.49-.91.1l-3.99-7.25a.51.51 0 0 0-.48-.26l-7.66.62a.497.497 0 0 1-.39-.85l5.08-4.95c.15-.14.19-.37.11-.56l-2.69-6.15c-.18-.42.25-.85.67-.65l6.29 2.94c.17.08.39.04.54-.11z" fill="url(#IconifyId17ecdb2904d178eab10088)">
</path>
<radialGradient id="IconifyId17ecdb2904d178eab10089" cx="99.385" cy="64.955" r="11.883" gradientTransform="rotate(-20.089 97.619 67.899)" gradientUnits="userSpaceOnUse">
<stop offset="0" stop-color="#ffeb3b">
</stop>
<stop offset="1" stop-color="#fbc02d">
</stop>
</radialGradient>
<path d="M90.09 63.26l4.74 2.19c.12.06.26.04.36-.04l4.75-3.59c.25-.19.59.01.57.31l-.45 5.9c-.01.13.05.26.17.33l4.53 2.8c.27.17.2.59-.12.65l-5.68 1.17c-.14.03-.25.13-.28.27l-1.21 5.35c-.07.32-.5.38-.66.09l-2.52-4.61a.358.358 0 0 0-.32-.19l-5.96.19c-.31.01-.48-.35-.29-.59l3.84-4.59c.09-.1.11-.24.06-.37l-2.02-4.82c-.11-.29.2-.59.49-.45z" fill="url(#IconifyId17ecdb2904d178eab10089)">
</path>
<radialGradient id="IconifyId17ecdb2904d178eab10090" cx="134.587" cy="-6.354" r="16.452" gradientTransform="matrix(-.2474 .9423 -1.0398 -.1868 134.717 -108.97)" gradientUnits="userSpaceOnUse">
<stop offset=".325" stop-color="#ffeb3b">
</stop>
<stop offset="1" stop-color="#fbc02d">
</stop>
</radialGradient>
<path d="M109.65 11.65l8.43-3.74c.42-.19.79.23.57.63l-4.17 7.68c-.1.18-.08.4.05.54l9.03 8.76c.27.28.04.78-.37.8l-11.08-1.95c-.17.01-.33.11-.42.27l-5.83 10.67c-.22.39-.78.35-.87-.06l-1.14-10.39a.438.438 0 0 0-.39-.33l-9.15-1.49c-.39-.03-.54-.5-.24-.79l7.65-5.88c.11-.11.17-.26.15-.41L100.5 4.38c-.04-.44.51-.73.82-.43l7.82 7.62c.13.12.33.15.51.08z" fill="url(#IconifyId17ecdb2904d178eab10090)">
</path>
<g>
<path d="M96.29 26.87c-3.74.96-7.53 1.79-11.4 2.11c-3.87.35-7.8.07-11.62-.62c-3.82-.71-7.57-1.6-11.35-2.3c-3.78-.7-7.58-1.26-11.4-1.7c-1.91-.22-3.83-.38-5.74-.57c-1.87-.18-3.72-.13-5.48.28c-1.73.44-3.34 1.27-4.38 2.63c-1.05 1.34-1.55 3.08-1.55 4.87c-.02 3.61 1.43 7.21 3.27 10.46c1.85 3.27 4.28 6.24 6.71 9.21c4.84 5.96 10.07 11.63 15.26 17.34c2.6 2.86 5.2 5.71 7.76 8.61c2.58 2.88 5.07 5.85 7.45 8.91c2.39 3.05 4.66 6.24 6.51 9.7c.46.84.97 1.77 1.12 2.89c.05.57-.01 1.2-.33 1.76s-.85.91-1.36 1.14c-1.05.42-2.09.45-3.09.4c-1-.06-1.98-.22-2.94-.44c-3.82-.93-7.39-2.52-10.83-4.31c-1.72-.9-3.4-1.86-5.05-2.87c-1.64-1.02-3.25-2.1-4.83-3.2c3.28 2.04 6.64 3.94 10.11 5.59c3.47 1.64 7.08 3.07 10.79 3.82c.93.17 1.86.31 2.78.34c.92.03 1.85-.05 2.59-.37c.36-.17.66-.39.81-.69c.15-.29.19-.66.15-1.05c-.12-.8-.55-1.6-1.04-2.43c-1.87-3.3-4.16-6.38-6.6-9.34c-9.76-11.84-20.88-22.6-30.8-34.54c-2.43-3.01-4.89-6.07-6.82-9.54c-1.9-3.44-3.47-7.26-3.42-11.43c.02-2.06.62-4.23 1.98-5.93c1.35-1.73 3.37-2.73 5.36-3.21c2.01-.44 4.07-.49 6.04-.26c1.92.24 3.85.44 5.77.71c3.84.54 7.66 1.2 11.45 1.99c3.79.8 7.54 1.76 11.29 2.57c3.74.82 7.56 1.25 11.4 1.05c3.83-.18 7.64-.83 11.43-1.58z" fill="#fdd835">
</path>
</g>
<radialGradient id="IconifyId17ecdb2904d178eab10091" cx="92.761" cy="70.093" r="93.729" gradientTransform="matrix(.8599 .5105 -.306 .5153 34.446 -13.385)" gradientUnits="userSpaceOnUse">
<stop offset="0" stop-color="#ffee58" stop-opacity="0">
</stop>
<stop offset="1" stop-color="#fdd835">
</stop>
</radialGradient>
<path d="M67.78 35.64c-11.25 2.62-24.16-5-36.08-3.66c-4.55.6-6.42 6.04-2.05 14.66c8.58 14.77 21.1 23.49 25.72 28.9c-6.21-3.48-18.97-12.65-27.84-21.28c-13.35-12.8-10.88-28.8 1.5-28.75c4.15-.4 12.18 1.6 15.54 2.83c3.31 1.33 14.58 6.24 23.21 7.3z" fill="url(#IconifyId17ecdb2904d178eab10091)">
</path>
</svg>