/* XPM */
static char * TZConnection.xpm_xpm[] = {
"24 24 449 2",
"  	c #4C7CB5",
". 	c #4F7EB6",
"+ 	c #5381B8",
"@ 	c #5683BA",
"# 	c #5A86BB",
"$ 	c #5E89BC",
"% 	c #618CBE",
"& 	c #6D8DB3",
"* 	c #798DA1",
"= 	c #818C94",
"- 	c #858B8A",
"; 	c #878A86",
"> 	c #868B8B",
", 	c #868F96",
"' 	c #8696A6",
") 	c #88A1BE",
"! 	c #8CABCF",
"~ 	c #8FADD1",
"{ 	c #93B0D3",
"] 	c #97B3D4",
"^ 	c #9BB6D5",
"/ 	c #9FB8D7",
"( 	c None",
"_ 	c #5783B9",
": 	c #5E8ABC",
"< 	c #698BB2",
"[ 	c #7E8B95",
"} 	c #979994",
"| 	c #A1A29E",
"1 	c #B1B2AF",
"2 	c #AEAEAB",
"3 	c #B2B2AF",
"4 	c #A6A6A3",
"5 	c #A3A3A0",
"6 	c #C0C1BE",
"7 	c #ACADA9",
"8 	c #89939A",
"9 	c #90A8C2",
"0 	c #97B2D4",
"a 	c #9BB5D5",
"b 	c #9EB8D7",
"c 	c #A6BEDA",
"d 	c #5684B9",
"e 	c #5A87BB",
"f 	c #6F8BA9",
"g 	c #8A8C87",
"h 	c #B6B6B3",
"i 	c #B4B4B2",
"j 	c #90928F",
"k 	c #8D8E8B",
"l 	c #888986",
"m 	c #838481",
"n 	c #818280",
"o 	c #898B88",
"p 	c #8F908D",
"q 	c #B2B3B0",
"r 	c #94A5B7",
"s 	c #9FB9D7",
"t 	c #A2BBD8",
"u 	c #AAC1DC",
"v 	c #5784B9",
"w 	c #5E89BD",
"x 	c #6A8BB1",
"y 	c #8C8D89",
"z 	c #BABAB7",
"A 	c #8B8C8A",
"B 	c #868784",
"C 	c #848583",
"D 	c #828481",
"E 	c #818380",
"F 	c #7E7F7C",
"G 	c #7B7C79",
"H 	c #B7B7B4",
"I 	c #9CB0C5",
"J 	c #AAC1DB",
"K 	c #AEC3DD",
"L 	c #5B86BB",
"M 	c #7D8B97",
"N 	c #B9BAB7",
"O 	c #878885",
"P 	c #8A8B88",
"Q 	c #888A87",
"R 	c #868885",
"S 	c #848683",
"T 	c #838582",
"U 	c #828380",
"V 	c #80827E",
"W 	c #7E807D",
"X 	c #7D7E7B",
"Y 	c #7B7C7A",
"Z 	c #797A78",
"` 	c #7A7B78",
" .	c #9D9E9B",
"..	c #8B9296",
"+.	c #AAC0DC",
"@.	c #ADC3DE",
"#.	c #B1C6DE",
"$.	c #628CBE",
"%.	c #668FC0",
"&.	c #868A88",
"*.	c #898A87",
"=.	c #878986",
"-.	c #848582",
";.	c #80827F",
">.	c #7F807D",
",.	c #7D7F7B",
"'.	c #787A77",
").	c #767775",
"!.	c #757673",
"~.	c #858884",
"{.	c #B1C6DF",
"].	c #B5C9E0",
"^.	c #658FC0",
"/.	c #6991C1",
"(.	c #7B7E7B",
"_.	c #A0A19E",
":.	c #7C7D7B",
"<.	c #7A7B79",
"[.	c #777875",
"}.	c #757674",
"|.	c #737572",
"1.	c #727370",
"2.	c #959693",
"3.	c #7A7D79",
"4.	c #B5C9E1",
"5.	c #B9CCE2",
"6.	c #6992C2",
"7.	c #6E95C3",
"8.	c #767976",
"9.	c #9FA09D",
"0.	c #838482",
"a.	c #81827F",
"b.	c #7F817E",
"c.	c #7E807C",
"d.	c #787B77",
"e.	c #777975",
"f.	c #757774",
"g.	c #747572",
"h.	c #727371",
"i.	c #71726E",
"j.	c #6E716D",
"k.	c #B9CBE2",
"l.	c #BDCFE4",
"m.	c #6992C1",
"n.	c #6D95C3",
"o.	c #7197C4",
"p.	c #797C78",
"q.	c #969794",
"r.	c #7F827E",
"s.	c #7D7F7D",
"t.	c #7C7E7B",
"u.	c #7B7D79",
"v.	c #797B78",
"w.	c #787976",
"x.	c #747672",
"y.	c #727571",
"z.	c #71736F",
"A.	c #6F716E",
"B.	c #6D6F6B",
"C.	c #90918E",
"D.	c #797A77",
"E.	c #7C7F7B",
"F.	c #A4BAD8",
"G.	c #A7BDD9",
"H.	c #6D95C2",
"I.	c #759AC6",
"J.	c #7D807C",
"K.	c #8B8C89",
"L.	c #8C928F",
"M.	c #8F9D9E",
"N.	c #929897",
"O.	c #848684",
"P.	c #787A76",
"Q.	c #737471",
"R.	c #717370",
"S.	c #6E706D",
"T.	c #8E908D",
"U.	c #9EA09C",
"V.	c #717B83",
"W.	c #2A4F88",
"X.	c #9DB5D4",
"Y.	c #809BC0",
"Z.	c #749AC6",
"`.	c #799CC7",
" +	c #6B6E6D",
".+	c #929695",
"++	c #879597",
"@+	c #B6BCBC",
"#+	c #9BAAAB",
"$+	c #959C9B",
"%+	c #A1A3A0",
"&+	c #979895",
"*+	c #999C97",
"=+	c #A6A7A4",
"-+	c #9A9B98",
";+	c #8C8E8A",
">+	c #677482",
",+	c #666967",
"'+	c #BECFE4",
")+	c #6F93CF",
"!+	c #5679AD",
"~+	c #799DC8",
"{+	c #7B9FC8",
"]+	c #7C8180",
"^+	c #76888A",
"/+	c #BAC0C1",
"(+	c #C3C5C4",
"_+	c #BABFBE",
":+	c #95A3A6",
"<+	c #7B8280",
"[+	c #81837F",
"}+	c #797B77",
"|+	c #6C757E",
"1+	c #A8C0E7",
"2+	c #8CA3C2",
"3+	c #3D69A6",
"4+	c #365D97",
"5+	c #789DC7",
"6+	c #7B9EC8",
"7+	c #7B9FC5",
"8+	c #809194",
"9+	c #BAC3C4",
"0+	c #ACB5B6",
"a+	c #AAB6B8",
"b+	c #B7C2C2",
"c+	c #B4BFBF",
"d+	c #8A9C9F",
"e+	c #757C7B",
"f+	c #747673",
"g+	c #73787B",
"h+	c #82A2DA",
"i+	c #486CA3",
"j+	c #82A0D4",
"k+	c #335C95",
"l+	c #7C9FC9",
"m+	c #7CA1C7",
"n+	c #83A7C4",
"o+	c #ACB5B7",
"p+	c #BBBEBE",
"q+	c #AC9B9B",
"r+	c #9A7676",
"s+	c #96696A",
"t+	c #99787A",
"u+	c #A19E9F",
"v+	c #84989B",
"w+	c #787F7E",
"x+	c #777976",
"y+	c #636D76",
"z+	c #9FBAE4",
"A+	c #86A2DA",
"B+	c #577DB4",
"C+	c #2D558E",
"D+	c #7EA2CA",
"E+	c #86ABC9",
"F+	c #AEC4D6",
"G+	c #B1B9BA",
"H+	c #A7AEAE",
"I+	c #9D9B9C",
"J+	c #9A9596",
"K+	c #9A797A",
"L+	c #974A4B",
"M+	c #8E3A3B",
"N+	c #948E90",
"O+	c #6D8286",
"P+	c #465153",
"Q+	c #434848",
"R+	c #6288BE",
"S+	c #517BB1",
"T+	c #587EB9",
"U+	c #6084BA",
"V+	c #5D81B0",
"W+	c #678BC0",
"X+	c #8AAECC",
"Y+	c #B3C9DC",
"Z+	c #B7C9DA",
"`+	c #A2AFB3",
" @	c #ACBABC",
".@	c #859A9F",
"+@	c #6A858B",
"@@	c #8BA7AA",
"#@	c #A98283",
"$@	c #B55656",
"%@	c #AD7E7F",
"&@	c #C2CCCD",
"*@	c #9EADB0",
"=@	c #949D9A",
"-@	c #919BA4",
";@	c #5179B2",
">@	c #7493BE",
",@	c #BCCEE1",
"'@	c #C1D1E1",
")@	c #B7CADB",
"!@	c #A2B6C2",
"~@	c #647F86",
"{@	c #6C878F",
"]@	c #768E93",
"^@	c #88A6AC",
"/@	c #B27C7C",
"(@	c #AD4A4A",
"_@	c #9F8686",
":@	c #BAC2C2",
"<@	c #BDC2C0",
"[@	c #95A3A5",
"}@	c #787F7D",
"|@	c #2B518A",
"1@	c #7190BB",
"2@	c #CBD7E6",
"3@	c #BDD0E2",
"4@	c #C3D3E3",
"5@	c #B6C8D9",
"6@	c #5A89A1",
"7@	c #638B9B",
"8@	c #74898E",
"9@	c #74969C",
"0@	c #A5888A",
"a@	c #BD6162",
"b@	c #9C7878",
"c@	c #A6B6B6",
"d@	c #B5BBBB",
"e@	c #B7BBBA",
"f@	c #8D9A9D",
"g@	c #767C7B",
"h@	c #6E7881",
"i@	c #ACB5C0",
"j@	c #C7CFDA",
"k@	c #D7DFE9",
"l@	c #E2E9F2",
"m@	c #91B3CF",
"n@	c #BCCFE1",
"o@	c #A3BBCF",
"p@	c #4B85A1",
"q@	c #6E97AE",
"r@	c #95AAB6",
"s@	c #A17377",
"t@	c #AA6364",
"u@	c #8D8A8D",
"v@	c #9CADAF",
"w@	c #A9B3B3",
"x@	c #B3B9B9",
"y@	c #8C9B9E",
"z@	c #777E7D",
"A@	c #6B6E6C",
"B@	c #656866",
"C@	c #5E6161",
"D@	c #596570",
"E@	c #C3CCD7",
"F@	c #D4DCE6",
"G@	c #E0E9F1",
"H@	c #E6EDF5",
"I@	c #90AFD0",
"J@	c #96B6D1",
"K@	c #B3C8D8",
"L@	c #4E8AA7",
"M@	c #6399B2",
"N@	c #8EA7B9",
"O@	c #9E9DAA",
"P@	c #97ADB6",
"Q@	c #92A5AA",
"R@	c #9BA5A9",
"S@	c #A0A9AA",
"T@	c #6C7F83",
"U@	c #455052",
"V@	c #414647",
"W@	c #4A4E51",
"X@	c #61676A",
"Y@	c #757C82",
"Z@	c #9BA4AE",
"`@	c #9AAABD",
" #	c #D5DDE7",
".#	c #DEE6EF",
"+#	c #E7EDF5",
"@#	c #EAF0F7",
"##	c #97B4D4",
"$#	c #9CBCD3",
"%#	c #9FBBCD",
"&#	c #6A9CB5",
"*#	c #609BB4",
"=#	c #6C9EB5",
"-#	c #80A4B6",
";#	c #9EB1BC",
">#	c #B3BFC9",
",#	c #8EA5B1",
"'#	c #798A98",
")#	c #838E9B",
"!#	c #8C96A3",
"~#	c #97A0AD",
"{#	c #A8B1BD",
"]#	c #B3BCC8",
"^#	c #C0CAD5",
"/#	c #CFD9E3",
"(#	c #D8E1EA",
"_#	c #DEE7EF",
":#	c #EAEFF7",
"<#	c #EEF2F8",
"[#	c #9EB9D7",
"}#	c #A0BFD6",
"|#	c #C7D6E4",
"1#	c #CCD7E3",
"2#	c #CBD7E2",
"3#	c #CFDBE6",
"4#	c #CDDAE5",
"5#	c #ADC6D5",
"6#	c #AEC2D5",
"7#	c #B5C4D6",
"8#	c #B9C7D8",
"9#	c #BECADA",
"0#	c #C2CEDC",
"a#	c #CBD6E3",
"b#	c #D1DBE7",
"c#	c #D6E0EB",
"d#	c #DCE4EF",
"e#	c #E1E9F2",
"f#	c #EAF0F6",
"g#	c #F2F6FA",
"h#	c #A5BFDA",
"i#	c #A5C1D7",
"j#	c #CADAE7",
"k#	c #D9E3EE",
"l#	c #D3E0EB",
"m#	c #B3CBDB",
"n#	c #B8CDE1",
"o#	c #C3D3E6",
"p#	c #C8D7E8",
"q#	c #CCD9E9",
"r#	c #D0DCEC",
"s#	c #D3DFED",
"t#	c #D7E2EE",
"u#	c #DBE5F0",
"v#	c #DFE7F2",
"w#	c #E2EBF3",
"x#	c #EEF3F7",
"y#	c #F2F6F9",
"z#	c #F6F8FB",
"A#	c #A6BEDB",
"B#	c #A9C1DC",
"C#	c #ACC4DD",
"D#	c #ACC6D9",
"E#	c #D0DEEA",
"F#	c #B6CEDF",
"G#	c #B8CEE2",
"H#	c #CCDAE9",
"I#	c #D4DFED",
"J#	c #D7E1EF",
"K#	c #DFE8F1",
"L#	c #E3EAF3",
"M#	c #E7EDF4",
"N#	c #F2F5F9",
"O#	c #F5F8FB",
"P#	c #FAFBFC",
"  . + @ # $ % & * = - ; ; > , ' ) ! ~ { ] ^ / ( ",
". + _ # : < [ } | 1 2 3 4 5 6 7 } 8 9 0 a b ( c ",
"+ d e $ f g h i j k l m n m o p q h g r s t c u ",
"v # w x y z p n A o l B C D E F G l H y I c J K ",
"L $ % M N m O P Q R S T U V W X Y Z `  ...+.@.#.",
"$ $.%.&.N R *.=.B -.U ;.>.,.Y ` '.).!. .~.K {.].",
"$.^./.(._.=.B -.D n >.F :.<.'.[.}.|.1.2.3.{.4.5.",
"^.6.7.8.9.S 0.a.b.c.:.G d.e.f.g.h.i.j.P (.].k.l.",
"m.n.o.p.q.P r.s.t.u.v.w.).x.y.z.A.B.C.D.E.5.F.G.",
"H.o.I.J.K.L.M.N.O.P.[.!.Q.R.A.S.T.U.V.W.c.l.X.Y.",
"o.Z.`. +.+++@+#+$+%+_.&+&+*+=+-+;+>+W.W.,+'+)+!+",
"I.~+{+]+^+/+(+_+:+<+W >.[+a.}+[.|+W.1+W.,.2+3+4+",
"5+6+7+8+9+0+a+b+c+d+e+f+Q.Q.[.g+W.1+h+i+W.W.j+k+",
"l+m+n+o+p+q+r+s+t+u+v+w+x+D.y+W.z+h+h+A+A+A+B+C+",
"D+E+F+G+H+I+J+K+L+M+N+O+P+Q+W.1+R+S+S+T+U+V+W+W.",
"X+Y+Z+`+ @.@+@@@#@$@%@&@*@=@-@W.W+3+;@W+W+W+W.>@",
",@'@)@!@~@{@]@^@/@(@_@:@<@[@}@|+|@W+;@i+W.W.1@2@",
"3@4@5@6@7@8@9@0@a@b@c@d@e@f@g@D.h@W.W+W.i@j@k@l@",
"m@n@o@p@q@r@s@t@u@v@w@x@y@z@A@B@C@D@W.W.E@F@G@H@",
"I@J@K@L@M@N@O@P@Q@R@S@T@U@V@W@X@Y@Z@`@W. #.#+#@#",
"0 ##$#%#&#*#=#-#;#>#,#'#)#!#~#{#]#^#/#(#_#+#:#<#",
"^ / [#}#|#1#2#3#4#5#6#7#8#9#0#a#b#c#d#e#H@f#<#g#",
"s t c h#i#j#k#l#m#n#o#p#q#r#s#t#u#v#w#+#f#x#y#z#",
"( A#B#K C#D#E#F#G#o#p#H#r#I#J#u#K#L#M#:#<#N#O#P#"};
