/* XPM */
static char * TZIBEventAlerter.xpm_xpm[] = {
"24 24 509 2",
"  	c #4C7CB5",
". 	c #4F7EB6",
"+ 	c #5381B8",
"@ 	c #5683BA",
"# 	c #5A86BB",
"$ 	c #5E89BC",
"% 	c #618CBE",
"& 	c #6D8DB3",
"* 	c #798DA1",
"= 	c #818C94",
"- 	c #858B8A",
"; 	c #878A86",
"> 	c #888A85",
", 	c #878A85",
"' 	c #878B89",
") 	c #879094",
"! 	c #889CB2",
"~ 	c #8CABCF",
"{ 	c #8FADD1",
"] 	c #93B0D3",
"^ 	c #97B3D4",
"/ 	c #9BB6D5",
"( 	c #9FB8D7",
"_ 	c None",
": 	c #5783B9",
"< 	c #5E8ABC",
"[ 	c #698BB2",
"} 	c #7E8B95",
"| 	c #979994",
"1 	c #A1A29E",
"2 	c #B1B2AF",
"3 	c #AEAEAB",
"4 	c #B2B1AD",
"5 	c #A6A6A3",
"6 	c #A3A3A0",
"7 	c #BDA993",
"8 	c #C7620D",
"9 	c #C65102",
"0 	c #C74F00",
"a 	c #C35B0C",
"b 	c #9D9AAA",
"c 	c #9BB5D5",
"d 	c #9EB8D7",
"e 	c #A6BEDA",
"f 	c #5684B9",
"g 	c #5A87BB",
"h 	c #6F8BA9",
"i 	c #8A8C87",
"j 	c #B6B6B3",
"k 	c #B4B4B2",
"l 	c #90928F",
"m 	c #8D8E8B",
"n 	c #888986",
"o 	c #838481",
"p 	c #818280",
"q 	c #9E7454",
"r 	c #CE7724",
"s 	c #E49128",
"t 	c #EC941C",
"u 	c #ED9319",
"v 	c #E99527",
"w 	c #CF7F2E",
"x 	c #B59486",
"y 	c #A2BBD8",
"z 	c #AAC1DC",
"A 	c #5784B9",
"B 	c #5E89BD",
"C 	c #6A8BB1",
"D 	c #8C8D89",
"E 	c #BABAB7",
"F 	c #8F908D",
"G 	c #8B8C8A",
"H 	c #898B88",
"I 	c #868784",
"J 	c #9E7557",
"K 	c #E17911",
"L 	c #F9AE3C",
"M 	c #FC9F36",
"N 	c #FEAD5C",
"O 	c #FFB166",
"P 	c #FD9E3C",
"Q 	c #FBA93D",
"R 	c #E5851A",
"S 	c #BF9076",
"T 	c #AAC1DB",
"U 	c #AEC3DD",
"V 	c #5B86BB",
"W 	c #7D8B97",
"X 	c #B9BAB7",
"Y 	c #878885",
"Z 	c #8A8B88",
"` 	c #888A87",
" .	c #868885",
"..	c #848683",
"+.	c #8D7863",
"@.	c #CD7521",
"#.	c #F89639",
"$.	c #F58722",
"%.	c #FDF9F8",
"&.	c #FEFFFF",
"*.	c #F69942",
"=.	c #F78E2E",
"-.	c #FCAC43",
";.	c #DD7F1A",
">.	c #AFB2C1",
",.	c #B1C6DE",
"'.	c #628CBE",
").	c #668FC0",
"!.	c #868A88",
"~.	c #898A87",
"{.	c #878986",
"].	c #848582",
"^.	c #828380",
"/.	c #C45E07",
"(.	c #E58F27",
"_.	c #FDA43F",
":.	c #F68F33",
"<.	c #F58B24",
"[.	c #FAD3AD",
"}.	c #FCE3CC",
"|.	c #F79C44",
"1.	c #F69133",
"2.	c #FC9D41",
"3.	c #EA982B",
"4.	c #BE9476",
"5.	c #B5C9E0",
"6.	c #658FC0",
"7.	c #6991C1",
"8.	c #7B7E7B",
"9.	c #A0A19E",
"0.	c #828481",
"a.	c #7F807D",
"b.	c #C55101",
"c.	c #ED9A2E",
"d.	c #FC9E41",
"e.	c #F6963D",
"f.	c #F48B26",
"g.	c #FAC593",
"h.	c #FBD8B5",
"i.	c #F68D29",
"j.	c #F68C23",
"k.	c #FA973E",
"l.	c #F1A23A",
"m.	c #C5834D",
"n.	c #B9CCE2",
"o.	c #6992C2",
"p.	c #6E95C3",
"q.	c #767976",
"r.	c #9FA09D",
"s.	c #838482",
"t.	c #81827F",
"u.	c #7F817E",
"v.	c #7E807C",
"w.	c #7C7D7B",
"x.	c #C64F00",
"y.	c #EE9C2D",
"z.	c #FD9D3D",
"A.	c #F58922",
"B.	c #F57700",
"C.	c #F47E0A",
"D.	c #F5861C",
"E.	c #F57100",
"F.	c #F37300",
"G.	c #F97D0B",
"H.	c #F09B2C",
"I.	c #C78148",
"J.	c #BDCFE4",
"K.	c #6992C1",
"L.	c #6D95C3",
"M.	c #7197C4",
"N.	c #797C78",
"O.	c #969794",
"P.	c #7F827E",
"Q.	c #7D7F7D",
"R.	c #7C7E7B",
"S.	c #7B7D79",
"T.	c #797B78",
"U.	c #C15806",
"V.	c #E98D1C",
"W.	c #FB8407",
"X.	c #F36F00",
"Y.	c #F36B00",
"Z.	c #FAC897",
"`.	c #FCE1C7",
" +	c #F57800",
".+	c #F47500",
"++	c #F97400",
"@+	c #EA921E",
"#+	c #C5926A",
"$+	c #C0D1E5",
"%+	c #6D95C2",
"&+	c #759AC6",
"*+	c #7D807C",
"=+	c #8B8C89",
"-+	c #8C928F",
";+	c #8F9D9E",
">+	c #929897",
",+	c #848684",
"'+	c #787A76",
")+	c #777875",
"!+	c #846957",
"~+	c #CA7621",
"{+	c #FA9416",
"]+	c #F57200",
"^+	c #F36C00",
"/+	c #FAD1A4",
"(+	c #FCECD9",
"_+	c #F37800",
":+	c #F66D00",
"<+	c #F7921B",
"[+	c #DE8A2B",
"}+	c #C2B4B1",
"|+	c #C5D4E7",
"1+	c #749AC6",
"2+	c #799CC7",
"3+	c #6B6E6D",
"4+	c #929695",
"5+	c #879597",
"6+	c #B6BCBC",
"7+	c #9BAAAB",
"8+	c #959C9B",
"9+	c #A1A3A0",
"0+	c #979895",
"a+	c #B1805D",
"b+	c #E88316",
"c+	c #FC9719",
"d+	c #FB7900",
"e+	c #F66300",
"f+	c #F66000",
"g+	c #FA7400",
"h+	c #F99217",
"i+	c #E1891B",
"j+	c #CF8E5C",
"k+	c #C4D4E7",
"l+	c #C8D7E9",
"m+	c #799DC8",
"n+	c #7B9FC8",
"o+	c #7C8180",
"p+	c #76888A",
"q+	c #BAC0C1",
"r+	c #C3C5C4",
"s+	c #BABFBE",
"t+	c #95A3A6",
"u+	c #7B8280",
"v+	c #7E807D",
"w+	c #81837F",
"x+	c #A4693F",
"y+	c #DC7B15",
"z+	c #E78F1E",
"A+	c #F19724",
"B+	c #F09725",
"C+	c #E79121",
"D+	c #D27C1E",
"E+	c #B46D30",
"F+	c #C5CDDD",
"G+	c #C8D7E8",
"H+	c #CCDAEA",
"I+	c #789DC7",
"J+	c #7B9EC8",
"K+	c #7B9FC5",
"L+	c #809194",
"M+	c #BAC3C4",
"N+	c #ACB5B6",
"O+	c #AAB6B8",
"P+	c #B7C2C2",
"Q+	c #B4BFBF",
"R+	c #8A9C9F",
"S+	c #757C7B",
"T+	c #747673",
"U+	c #737471",
"V+	c #7A6B5F",
"W+	c #986539",
"X+	c #B1692B",
"Y+	c #AD6222",
"Z+	c #975C2A",
"`+	c #957C67",
" @	c #C5D3E4",
".@	c #CAD7E8",
"+@	c #D0DCEB",
"@@	c #7C9FC9",
"#@	c #7CA1C7",
"$@	c #83A7C4",
"%@	c #ACB5B7",
"&@	c #BBBEBE",
"*@	c #AC9B9B",
"=@	c #9A7676",
"-@	c #96696A",
";@	c #99787A",
">@	c #A19E9F",
",@	c #84989B",
"'@	c #787F7E",
")@	c #777976",
"!@	c #797A77",
"~@	c #6E706E",
"{@	c #676A69",
"]@	c #6A6D6C",
"^@	c #737673",
"/@	c #C2CEDE",
"(@	c #CCD9E8",
"_@	c #D4DFED",
":@	c #7EA2CA",
"<@	c #86ABC9",
"[@	c #AEC4D6",
"}@	c #B1B9BA",
"|@	c #A7AEAE",
"1@	c #9D9B9C",
"2@	c #9A9596",
"3@	c #9A797A",
"4@	c #974A4B",
"5@	c #8E3A3B",
"6@	c #948E90",
"7@	c #6D8286",
"8@	c #465153",
"9@	c #434848",
"0@	c #5E615F",
"a@	c #6B6F6D",
"b@	c #939490",
"c@	c #90918E",
"d@	c #8F918D",
"e@	c #7E817D",
"f@	c #C2CDDB",
"g@	c #CFDAE8",
"h@	c #D8E2EE",
"i@	c #8AAECC",
"j@	c #B3C9DC",
"k@	c #B7C9DA",
"l@	c #A2AFB3",
"m@	c #ACBABC",
"n@	c #859A9F",
"o@	c #6A858B",
"p@	c #8BA7AA",
"q@	c #A98283",
"r@	c #B55656",
"s@	c #AD7E7F",
"t@	c #C2CCCD",
"u@	c #9EADB0",
"v@	c #949D9A",
"w@	c #9A9B98",
"x@	c #8E8F8B",
"y@	c #7E7F7C",
"z@	c #7D7E7B",
"A@	c #959693",
"B@	c #727677",
"C@	c #C4CFDC",
"D@	c #D3DDE9",
"E@	c #DBE5F0",
"F@	c #BCCEE1",
"G@	c #C1D1E1",
"H@	c #B7CADB",
"I@	c #A2B6C2",
"J@	c #647F86",
"K@	c #6C878F",
"L@	c #768E93",
"M@	c #88A6AC",
"N@	c #B27C7C",
"O@	c #AD4A4A",
"P@	c #9F8686",
"Q@	c #BAC2C2",
"R@	c #BDC2C0",
"S@	c #95A3A5",
"T@	c #7C8381",
"U@	c #80817E",
"V@	c #676B69",
"W@	c #ACB4BC",
"X@	c #C9D3DF",
"Y@	c #D6DFEB",
"Z@	c #DFE8F2",
"`@	c #BDD0E2",
" #	c #C3D3E3",
".#	c #B6C8D9",
"+#	c #5A89A1",
"@#	c #638B9B",
"##	c #74898E",
"$#	c #74969C",
"%#	c #A5888A",
"&#	c #BD6162",
"*#	c #9C7878",
"=#	c #A6B6B6",
"-#	c #B5BBBB",
";#	c #B7BBBA",
">#	c #8D9A9D",
",#	c #767C7B",
"'#	c #7C7D7A",
")#	c #646766",
"!#	c #9AA1A6",
"~#	c #BFC9D4",
"{#	c #D0D9E4",
"]#	c #DBE4EE",
"^#	c #E3EAF3",
"/#	c #91B3CF",
"(#	c #BCCFE1",
"_#	c #A3BBCF",
":#	c #4B85A1",
"<#	c #6E97AE",
"[#	c #95AAB6",
"}#	c #A17377",
"|#	c #AA6364",
"1#	c #8D8A8D",
"2#	c #9CADAF",
"3#	c #A9B3B3",
"4#	c #B3B9B9",
"5#	c #8C9B9E",
"6#	c #777E7D",
"7#	c #6D706E",
"8#	c #727676",
"9#	c #9AA1A9",
"0#	c #B9C2CE",
"a#	c #CDD6E1",
"b#	c #D9E1EC",
"c#	c #E1EAF2",
"d#	c #E6EDF5",
"e#	c #90AFD0",
"f#	c #96B6D1",
"g#	c #B3C8D8",
"h#	c #4E8AA7",
"i#	c #6399B2",
"j#	c #8EA7B9",
"k#	c #9E9DAA",
"l#	c #97ADB6",
"m#	c #92A5AA",
"n#	c #9BA5A9",
"o#	c #A0A9AA",
"p#	c #6C7F83",
"q#	c #455052",
"r#	c #404546",
"s#	c #54585A",
"t#	c #5F6568",
"u#	c #848B91",
"v#	c #A3ADB8",
"w#	c #B9C2CD",
"x#	c #CDD6E0",
"y#	c #D8E1EB",
"z#	c #E0E8F1",
"A#	c #E7EDF5",
"B#	c #EAF0F7",
"C#	c #97B2D4",
"D#	c #97B4D4",
"E#	c #9CBCD3",
"F#	c #9FBBCD",
"G#	c #6A9CB5",
"H#	c #609BB4",
"I#	c #6C9EB5",
"J#	c #80A4B6",
"K#	c #9EB1BC",
"L#	c #B3BFC9",
"M#	c #8EA5B1",
"N#	c #798A98",
"O#	c #555D65",
"P#	c #5E646D",
"Q#	c #919AA7",
"R#	c #A0A9B5",
"S#	c #B6BFCB",
"T#	c #C2CCD8",
"U#	c #D0DAE4",
"V#	c #DAE3EC",
"W#	c #EAEFF7",
"X#	c #EEF2F8",
"Y#	c #9EB9D7",
"Z#	c #A0BFD6",
"`#	c #C7D6E4",
" $	c #CCD7E3",
".$	c #CBD7E2",
"+$	c #CFDBE6",
"@$	c #CDDAE5",
"#$	c #ADC6D5",
"$$	c #AEC2D5",
"%$	c #B5C4D6",
"&$	c #ADBAC9",
"*$	c #B3BECD",
"=$	c #C4D0DF",
"-$	c #CAD4E1",
";$	c #CED9E4",
">$	c #D6E0EB",
",$	c #DDE5F0",
"'$	c #E1E9F2",
")$	c #EAF0F6",
"!$	c #F2F6FA",
"~$	c #9FB9D7",
"{$	c #A5BFDA",
"]$	c #A5C1D7",
"^$	c #CADAE7",
"/$	c #D9E3EE",
"($	c #D3E0EB",
"_$	c #B3CBDB",
":$	c #B8CDE1",
"<$	c #C3D3E6",
"[$	c #CCD9E9",
"}$	c #D0DCEC",
"|$	c #D3DFED",
"1$	c #D7E2EE",
"2$	c #DFE7F2",
"3$	c #E2EBF3",
"4$	c #EEF3F7",
"5$	c #F2F6F9",
"6$	c #F6F8FB",
"7$	c #A6BEDB",
"8$	c #A9C1DC",
"9$	c #ACC4DD",
"0$	c #ACC6D9",
"a$	c #D0DEEA",
"b$	c #B6CEDF",
"c$	c #B8CEE2",
"d$	c #CCDAE9",
"e$	c #D7E1EF",
"f$	c #DFE8F1",
"g$	c #E7EDF4",
"h$	c #F2F5F9",
"i$	c #F5F8FB",
"j$	c #FAFBFC",
"  . + @ # $ % & * = - ; > , ' ) ! ~ { ] ^ / ( _ ",
". + : # < [ } | 1 2 3 4 5 6 7 8 9 0 a b c d _ e ",
"+ f g $ h i j k l m n o p q r s t u v w x y e z ",
"A # B C D E F p G H n I J K L M N O P Q R S T U ",
"V $ % W X o Y Z `  ...+.@.L #.$.%.&.*.=.-.;.>.,.",
"$ '.).!.X  .~.{.I ].^./.(._.:.<.[.}.|.1.2.3.4.5.",
"'.6.7.8.9.{.I ].0.p a.b.c.d.e.f.g.h.i.j.k.l.m.n.",
"6.o.p.q.r...s.t.u.v.w.x.y.z.A.B.C.D.E.F.G.H.I.J.",
"K.L.M.N.O.Z P.Q.R.S.T.U.V.W.X.Y.Z.`. +.+++@+#+$+",
"%+M.&+*+=+-+;+>+,+'+)+!+~+{+]+^+/+(+_+:+<+[+}+|+",
"M.1+2+3+4+5+6+7+8+9+9.0+a+b+c+d+e+f+g+h+i+j+k+l+",
"&+m+n+o+p+q+r+s+t+u+v+a.w+x+y+z+A+B+C+D+E+F+G+H+",
"I+J+K+L+M+N+O+P+Q+R+S+T+U+U+V+W+X+Y+Z+`+'+ @.@+@",
"@@#@$@%@&@*@=@-@;@>@,@'@)@!@~@{@]@^@~.O.S./@(@_@",
":@<@[@}@|@1@2@3@4@5@6@7@8@9@0@a@b@c@d@=+e@f@g@h@",
"i@j@k@l@m@n@o@p@q@r@s@t@u@v@9+w@x@y@z@A@B@C@D@E@",
"F@G@H@I@J@K@L@M@N@O@P@Q@R@S@T@n U@I m V@W@X@Y@Z@",
"`@ #.#+#@###$#%#&#*#=#-#;#>#,#'#a.{@)#!#~#{#]#^#",
"/#(#_#:#<#[#}#|#1#2#3#4#5#6#7#{@]@8#9#0#a#b#c#d#",
"e#f#g#h#i#j#k#l#m#n#o#p#q#r#s#t#u#v#w#x#y#z#A#B#",
"C#D#E#F#G#H#I#J#K#L#M#N#O#P#Q#R#S#T#U#V#c#A#W#X#",
"/ ( Y#Z#`# $.$+$@$#$$$%$&$*$=$-$;$>$,$'$d#)$X#!$",
"~$y e {$]$^$/$($_$:$<$G+[$}$|$1$E@2$3$A#)$4$5$6$",
"_ 7$8$U 9$0$a$b$c$<$G+d$}$_@e$E@f$^#g$W#X#h$i$j$"};
