/* XPM */
static char * TZReadOnlyQuery.xpm_xpm[] = {
"24 24 366 2",
"  	c #4C7CB5",
". 	c #4F7EB6",
"+ 	c #5381B8",
"@ 	c #5683BA",
"# 	c #5A86BB",
"$ 	c #5E89BC",
"% 	c #618CBE",
"& 	c #668FC0",
"* 	c #6A92C1",
"= 	c #6D95C3",
"- 	c #7197C4",
"; 	c #759AC5",
"> 	c #799CC7",
", 	c #7D9FC9",
"' 	c #80A2CA",
") 	c #84A5CC",
"! 	c #88A8CE",
"~ 	c #8CABCF",
"{ 	c #8FADD1",
"] 	c #93B0D3",
"^ 	c #97B3D4",
"/ 	c #9BB6D5",
"( 	c #9FB8D7",
"_ 	c None",
": 	c #5783B9",
"< 	c #5E8ABC",
"[ 	c #628CBE",
"} 	c #658FBF",
"| 	c #6D94C3",
"1 	c #759AC6",
"2 	c #80A2CB",
"3 	c #7991AC",
"4 	c #66717A",
"5 	c #5B6161",
"6 	c #5A5F5E",
"7 	c #5C6161",
"8 	c #6F7A83",
"9 	c #8CA0B6",
"0 	c #9EB6D3",
"a 	c #A6BEDA",
"b 	c #5684B9",
"c 	c #5A87BB",
"d 	c #6A91C1",
"e 	c #7CA0C9",
"f 	c #84A4CD",
"g 	c #708295",
"h 	c #555753",
"i 	c #7D7D7D",
"j 	c #909090",
"k 	c #AAAAAA",
"l 	c #9B9B9B",
"m 	c #555754",
"n 	c #798590",
"o 	c #AAC1DC",
"p 	c #5784B9",
"q 	c #5E89BD",
"r 	c #88A8CD",
"s 	c #989898",
"t 	c #B4B4B4",
"u 	c #939393",
"v 	c #8C8C8C",
"w 	c #848484",
"x 	c #AEC3DD",
"y 	c #5B86BB",
"z 	c #204A87",
"A 	c #B7B7B7",
"B 	c #888888",
"C 	c #808080",
"D 	c #6E6E6D",
"E 	c #9C9C9C",
"F 	c #B1C6DE",
"G 	c #729FCF",
"H 	c #A3A3A3",
"I 	c #A84D4D",
"J 	c #B92121",
"K 	c #B41C1B",
"L 	c #B8201F",
"M 	c #BF2626",
"N 	c #AE1514",
"O 	c #BF6F7B",
"P 	c #3465A4",
"Q 	c #AEAEAE",
"R 	c #ADADAD",
"S 	c #C22A2A",
"T 	c #E8E0DE",
"U 	c #E0DFDE",
"V 	c #C85237",
"W 	c #E2DDDB",
"X 	c #CFBCB8",
"Y 	c #C73338",
"Z 	c #658FC0",
"` 	c #888A85",
" .	c #DEDFDB",
"..	c #BABDB6",
"+.	c #B1B1B1",
"@.	c #777777",
"#.	c #B61E1E",
"$.	c #DBDAD9",
"%.	c #DCDCDC",
"&.	c #DACFCC",
"*.	c #E4E4E4",
"=.	c #D2CECB",
"-.	c #C83339",
";.	c #6992C1",
">.	c #EEEEEC",
",.	c #EBECEB",
"'.	c #F7F7F6",
").	c #EFEFED",
"!.	c #F0F0EE",
"~.	c #F0F1EF",
"{.	c #F2F1F0",
"].	c #F3F3F1",
"^.	c #A9A9A9",
"/.	c #9E9E9E",
"(.	c #BD2424",
"_.	c #CC573C",
":.	c #DDD4D3",
"<.	c #D8D8D8",
"[.	c #E0D5D2",
"}.	c #BC472B",
"|.	c #C83439",
"1.	c #6D95C2",
"2.	c #B4BBB6",
"3.	c #CCDDE0",
"4.	c #E8F0F1",
"5.	c #EFEEED",
"6.	c #F1F1EF",
"7.	c #F2F2F0",
"8.	c #F4F4F3",
"9.	c #A7A7A7",
"0.	c #717271",
"a.	c #B21918",
"b.	c #D7D2D0",
"c.	c #D7D7D7",
"d.	c #D6C9C7",
"e.	c #D2D0CE",
"f.	c #CA3539",
"g.	c #B3BBB6",
"h.	c #ACBFC0",
"i.	c #D8DFDF",
"j.	c #B4C6C8",
"k.	c #B1BBB7",
"l.	c #B9BCB6",
"m.	c #A8ABA4",
"n.	c #5B5D59",
"o.	c #A0A0A0",
"p.	c #BC2323",
"q.	c #E0D8D7",
"r.	c #DCD9D8",
"s.	c #CE593E",
"t.	c #E1CEC9",
"u.	c #CA353A",
"v.	c #E5EAEA",
"w.	c #C7DADE",
"x.	c #D4DDDD",
"y.	c #F4F6F6",
"z.	c #EEF3F4",
"A.	c #C9DBE1",
"B.	c #E2EAEB",
"C.	c #F2F2F1",
"D.	c #F6F6F5",
"E.	c #F6F7F6",
"F.	c #A0A39D",
"G.	c #9D9D9B",
"H.	c #C32A2A",
"I.	c #BA2221",
"J.	c #CC7881",
"K.	c #789DC7",
"L.	c #E5E9E9",
"M.	c #C4D8DD",
"N.	c #DFEBED",
"O.	c #DAE5E4",
"P.	c #E6F4F6",
"Q.	c #EBF8FA",
"R.	c #E7F5F6",
"S.	c #C8DEE3",
"T.	c #E4EBEC",
"U.	c #F4F4F2",
"V.	c #F7F8F7",
"W.	c #F9F9F8",
"X.	c #F9FAF8",
"Y.	c #FAF9F9",
"Z.	c #D0DCEB",
"`.	c #7C9FC9",
" +	c #858B88",
".+	c #BACFD2",
"++	c #CDD9DA",
"@+	c #D0D4D4",
"#+	c #C4AEAE",
"$+	c #BA8B8B",
"%+	c #BA8080",
"&+	c #C09596",
"*+	c #C5C1C2",
"=+	c #AFC9CA",
"-+	c #B0BBB7",
";+	c #D4DFED",
">+	c #7DA2CA",
",+	c #8CA1A4",
"'+	c #DDE8EA",
")+	c #E1EAEC",
"!+	c #CDD4D6",
"~+	c #AEACAD",
"{+	c #B9B2B5",
"]+	c #BA9093",
"^+	c #CB6668",
"/+	c #C65A5C",
"(+	c #D0C6C9",
"_+	c #C7DEE2",
":+	c #E1E8EA",
"<+	c #F3F3F2",
"[+	c #B9BCB5",
"}+	c #F4F5F3",
"|+	c #F5F5F4",
"1+	c #F6F6F4",
"2+	c #D8E2EE",
"3+	c #8CB1CC",
"4+	c #C2CCCD",
"5+	c #E6EDEE",
"6+	c #DAE6E9",
"7+	c #CDDFE2",
"8+	c #9AB5BA",
"9+	c #86A8B1",
"0+	c #AACDD3",
"a+	c #C79497",
"b+	c #8F5C7B",
"c+	c #2765B1",
"d+	c #87ABCD",
"e+	c #E4ECED",
"f+	c #A4BCD8",
"g+	c #ABC0DA",
"h+	c #316DB7",
"i+	c #3B73B3",
"j+	c #DBE5F0",
"k+	c #CAD9E7",
"l+	c #D0D4D3",
"m+	c #E0E8E9",
"n+	c #BCCBCD",
"o+	c #7C9EA5",
"p+	c #70939D",
"q+	c #81A0A7",
"r+	c #9BC3C9",
"s+	c #CC8888",
"t+	c #2C69B4",
"u+	c #A8C1D7",
"v+	c #B5C7C9",
"w+	c #3773BD",
"x+	c #DEE7F1",
"y+	c #CAD8E5",
"z+	c #D1D5D5",
"A+	c #DFE6E8",
"B+	c #6E9DAA",
"C+	c #80AAB7",
"D+	c #92ACB1",
"E+	c #A3CCD4",
"F+	c #D4AEB2",
"G+	c #F47E81",
"H+	c #326EB8",
"I+	c #D4E2EE",
"J+	c #DCE8F1",
"K+	c #D3E4E9",
"L+	c #326FBA",
"M+	c #FEFEFE",
"N+	c #316EB9",
"O+	c #FEFEFF",
"P+	c #8A8B83",
"Q+	c #D7DEE6",
"R+	c #88AAC1",
"S+	c #C5CDCE",
"T+	c #C3D3D7",
"U+	c #548FA1",
"V+	c #84AEBA",
"W+	c #BACCCF",
"X+	c #D6989C",
"Y+	c #E38689",
"Z+	c #C1BBBE",
"`+	c #91B5D5",
" @	c #87ACCF",
".@	c #DFE6E7",
"+@	c #C7CDD4",
"@@	c #7D9AB7",
"#@	c #8EA1A4",
"$@	c #B5C1C1",
"%@	c #337385",
"&@	c #508797",
"*@	c #8CA1A8",
"=@	c #A79C9E",
"-@	c #A7BDC1",
";@	c #B0C4C7",
">@	c #BCC8CC",
",@	c #88A8C8",
"'@	c #3C77C0",
")@	c #3D78C1",
"!@	c #878A85",
"~@	c #C8CED4",
"{@	c #8DA6C6",
"]@	c #7D95B1",
"^@	c #86A4B5",
"/@	c #93ADB9",
"(@	c #4D869B",
"_@	c #41849B",
":@	c #548DA1",
"<@	c #7198A8",
"[@	c #9EB2BB",
"}@	c #BCCAD1",
"|@	c #90ABB9",
"1@	c #427FC4",
"2@	c #88929E",
"3@	c #447DC4",
"4@	c #8E959E",
"5@	c #427CC4",
"6@	c #9EA4AB",
"7@	c #BDC1C7",
"8@	c #DFE2E8",
"9@	c #9AB5D4",
"0@	c #9AB2D0",
"a@	c #97B2CF",
"b@	c #9ABACF",
"c@	c #CEDAE4",
"d@	c #D2DAE1",
"e@	c #D0DAE2",
"f@	c #D6E0E8",
"g@	c #D3E0E7",
"h@	c #4984C7",
"i@	c #93B1D0",
"j@	c #BFCBDB",
"k@	c #4A84C6",
"l@	c #4981C7",
"m@	c #D4DCE4",
"n@	c #E5E9EF",
"o@	c #F1F5F9",
"p@	c #9FB9D7",
"q@	c #A2BBD8",
"r@	c #A4BFD9",
"s@	c #A2C1D5",
"t@	c #D1E0EA",
"u@	c #E3EBF2",
"v@	c #DBE5EE",
"w@	c #B0CBD9",
"x@	c #8DB1D7",
"y@	c #5089CA",
"z@	c #4F89CB",
"A@	c #91B3DB",
"B@	c #D0DCEC",
"C@	c #99B9DE",
"D@	c #9BBBDF",
"E@	c #E7EDF5",
"F@	c #4E88CA",
"G@	c #A6BEDB",
"H@	c #A9C1DC",
"I@	c #ABC3DC",
"J@	c #A9C6D8",
"K@	c #D7E4EC",
"L@	c #B4CDDE",
"M@	c #B6CDE2",
"N@	c #C3D3E6",
"O@	c #C8D7E8",
"P@	c #CCDAE9",
"Q@	c #D7E1EF",
"R@	c #DFE8F1",
"S@	c #A0BFE2",
"T@	c #558ECF",
"U@	c #EAEFF7",
"V@	c #EEF2F8",
"W@	c #F2F5F9",
"X@	c #F5F8FB",
"Y@	c #FAFBFC",
"  . + @ # $ % & * = - ; > , ' ) ! ~ { ] ^ / ( _ ",
". + : # < [ } * | - 1 > , 2 ) 3 4 5 6 7 8 9 0 a ",
"+ b c $ [ & d | - ; > e 2 f g h i j k l h m n o ",
"p # q [ } d | - 1 > , 2 ) r h s t u v w s u h x ",
"y z z z z z z z z z z z z z h A s j B C D E h F ",
"$ z G G G G G G G G G G G G h t H I J K L M N O ",
"[ z G P P P P P P P P P P P h Q R S T U V W X Y ",
"Z `  .......................h +.@.#.$.%.&.*.=.-.",
";.` >.>.>...,.'.).).!.~.{.].h ^./.(._.:.<.[.}.|.",
"1.` >.>.>.2.3.4.5.~.6.7.{.8.h 9.0.a.b.c.d.*.e.f.",
"- `  ...g.h.i.j.k.l.........m.n.o.p.q.r.s.=.t.u.",
"1 ` >.v.w.x.y.z.A.B.C.8.{.D.E.F.G.N N N N H.I.J.",
"K.` L.M.N.O.P.Q.R.S.T.U.{.'.V...W.X.W.X.Y.>.` Z.",
"`. +.+++@+#+$+%+&+*+=+-+l................. .` ;+",
">+,+'+)+!+~+{+]+^+/+(+_+:+7.<+[+}+|+}+|+1+>.` 2+",
"3+4+5+6+7+8+9+0+a+b+c+c+d+e+f+c+c+c+g+D.h+i+` j+",
"k+l+m+n+o+p+q+r+s+t+t+u+t+v+t+t+t+t+t+..w+w+` x+",
"y+z+A+B+C+D+E+F+G+H+H+I+J+K+H+L+M+L+N+O+h+i+P+Q+",
"R+S+T+U+V+W+X+Y+Z+`+w+w+ @.@w+w+>.w+w+>.w+w+` +@",
"@@#@$@%@&@*@=@-@;@>@,@'@)@!@)@)@` )@)@` )@)@` ~@",
"{@]@^@/@(@_@:@<@[@}@|@1@1@2@3@3@4@1@5@6@1@1@7@8@",
"9@0@a@b@c@d@e@f@g@h@i@h@h@j@h@k@h@l@h@m@h@h@n@o@",
"p@q@a r@s@t@u@v@w@x@y@z@A@B@C@z@z@z@D@E@z@z@z@F@",
"_ G@H@x I@J@K@L@M@N@O@P@B@;+Q@j+R@S@T@U@V@W@X@Y@"};
