/* XPM */
static char * TZSequence.xpm_xpm[] = {
"24 24 489 2",
"  	c #4C7CB5",
". 	c #4F7EB6",
"+ 	c #5381B8",
"@ 	c #5683BA",
"# 	c #5A86BB",
"$ 	c #5E89BC",
"% 	c #618CBE",
"& 	c #6D8DB3",
"* 	c #798DA1",
"= 	c #818C94",
"- 	c #858B8A",
"; 	c #878A86",
"> 	c #888A85",
", 	c #878A85",
"' 	c #878B89",
") 	c #879094",
"! 	c #889CB2",
"~ 	c #8CABCF",
"{ 	c #8FADD1",
"] 	c #93B0D3",
"^ 	c #97B3D4",
"/ 	c #9BB6D5",
"( 	c #9FB8D7",
"_ 	c None",
": 	c #5783B9",
"< 	c #5E8ABC",
"[ 	c #698BB2",
"} 	c #7E8B95",
"| 	c #979994",
"1 	c #A1A29E",
"2 	c #B1B2AF",
"3 	c #AEAEAB",
"4 	c #B2B2AF",
"5 	c #A6A6A3",
"6 	c #A3A29F",
"7 	c #C0C1BE",
"8 	c #ACADA9",
"9 	c #935E5B",
"0 	c #940E0E",
"a 	c #950303",
"b 	c #95404D",
"c 	c #9BB5D5",
"d 	c #9EB8D7",
"e 	c #A1BAD8",
"f 	c #A6BEDA",
"g 	c #5684B9",
"h 	c #5A87BB",
"i 	c #6F8BA9",
"j 	c #8A8C87",
"k 	c #B6B6B3",
"l 	c #B4B4B2",
"m 	c #90928F",
"n 	c #8D8E8B",
"o 	c #888986",
"p 	c #838481",
"q 	c #818280",
"r 	c #9F3A39",
"s 	c #D15252",
"t 	c #D22120",
"u 	c #CD1213",
"v 	c #DB5858",
"w 	c #B6353A",
"x 	c #A09CB4",
"y 	c #AAC1DC",
"z 	c #5784B9",
"A 	c #5E89BD",
"B 	c #6A8BB1",
"C 	c #8C8D89",
"D 	c #BABAB7",
"E 	c #8F908D",
"F 	c #8B8C8A",
"G 	c #898B88",
"H 	c #868784",
"I 	c #848583",
"J 	c #828481",
"K 	c #993534",
"L 	c #E46D6C",
"M 	c #E65B5B",
"N 	c #FAE5E5",
"O 	c #FFFFFF",
"P 	c #D93432",
"Q 	c #ED6060",
"R 	c #BB2223",
"S 	c #A7B9D2",
"T 	c #AEC3DD",
"U 	c #5B86BB",
"V 	c #7D8B97",
"W 	c #B9BAB7",
"X 	c #878885",
"Y 	c #8A8B88",
"Z 	c #888A87",
"` 	c #868885",
" .	c #848683",
"..	c #838582",
"+.	c #828380",
"@.	c #85504D",
"#.	c #CC4C4C",
"$.	c #E55959",
"%.	c #C50000",
"&.	c #CE0D0D",
"*.	c #CE1313",
"=.	c #E44D4D",
"-.	c #A95F6C",
";.	c #B1C6DE",
">.	c #628CBE",
",.	c #668FC0",
"'.	c #868A88",
").	c #898A87",
"!.	c #878986",
"~.	c #848582",
"{.	c #80827F",
"].	c #7F807D",
"^.	c #930D0D",
"/.	c #D01F1F",
"(.	c #FDF5F5",
"_.	c #FCF4F4",
":.	c #DC5758",
"<.	c #B4373B",
"[.	c #B5C9E0",
"}.	c #658FC0",
"|.	c #6991C1",
"1.	c #7B7E7B",
"2.	c #A0A19E",
"3.	c #7E7F7C",
"4.	c #7C7D7B",
"5.	c #950202",
"6.	c #CD0F0F",
"7.	c #DF6C6B",
"8.	c #B52D31",
"9.	c #B9CCE2",
"0.	c #6992C2",
"a.	c #6E95C3",
"b.	c #767976",
"c.	c #9FA09D",
"d.	c #838482",
"e.	c #81827F",
"f.	c #7F817E",
"g.	c #7E807C",
"h.	c #7B7C79",
"i.	c #787B77",
"j.	c #892C2A",
"k.	c #D94C4C",
"l.	c #D82D2D",
"m.	c #CD0A0A",
"n.	c #FDF4F4",
"o.	c #D52B2B",
"p.	c #CC0C0D",
"q.	c #E32F2F",
"r.	c #B14B53",
"s.	c #BDCFE4",
"t.	c #6992C1",
"u.	c #6D95C3",
"v.	c #7197C4",
"w.	c #797C78",
"x.	c #969794",
"y.	c #7F827E",
"z.	c #7D7F7D",
"A.	c #7C7E7B",
"B.	c #7B7D79",
"C.	c #797B78",
"D.	c #787976",
"E.	c #767775",
"F.	c #747672",
"G.	c #AC2525",
"H.	c #EC5252",
"I.	c #CD0B0B",
"J.	c #E02021",
"K.	c #CF2121",
"L.	c #B3A2B3",
"M.	c #C0D1E5",
"N.	c #6D95C2",
"O.	c #759AC6",
"P.	c #7D807C",
"Q.	c #8B8C89",
"R.	c #8C928F",
"S.	c #8F9D9E",
"T.	c #929897",
"U.	c #848684",
"V.	c #787A76",
"W.	c #777875",
"X.	c #757673",
"Y.	c #737471",
"Z.	c #717370",
"`.	c #7D6562",
" +	c #B91B1B",
".+	c #E44140",
"++	c #DB5454",
"@+	c #DE6B6B",
"#+	c #E22A2A",
"$+	c #CF2020",
"%+	c #AF6974",
"&+	c #C5D4E7",
"*+	c #749AC6",
"=+	c #799CC7",
"-+	c #6B6E6D",
";+	c #929695",
">+	c #879597",
",+	c #B6BCBC",
"'+	c #9BAAAB",
")+	c #959C9B",
"!+	c #A1A3A0",
"~+	c #979895",
"{+	c #989B96",
"]+	c #A2A3A0",
"^+	c #979492",
"/+	c #9A4644",
"(+	c #AA2725",
"_+	c #AE2020",
":+	c #A53837",
"<+	c #735655",
"[+	c #C0D1E6",
"}+	c #C3D3E6",
"|+	c #C8D7E9",
"1+	c #799DC8",
"2+	c #7B9FC8",
"3+	c #7C8180",
"4+	c #76888A",
"5+	c #BAC0C1",
"6+	c #C3C5C4",
"7+	c #BABFBE",
"8+	c #95A3A6",
"9+	c #7B8280",
"0+	c #7E807D",
"a+	c #81837F",
"b+	c #7D7F7B",
"c+	c #80817E",
"d+	c #676B69",
"e+	c #7F817D",
"f+	c #C4D3E6",
"g+	c #C8D7E8",
"h+	c #CCDAEA",
"i+	c #789DC7",
"j+	c #7B9EC8",
"k+	c #7B9FC5",
"l+	c #809194",
"m+	c #BAC3C4",
"n+	c #ACB5B6",
"o+	c #AAB6B8",
"p+	c #B7C2C2",
"q+	c #B4BFBF",
"r+	c #8A9C9F",
"s+	c #757C7B",
"t+	c #747673",
"u+	c #7C7D7A",
"v+	c #676A69",
"w+	c #646766",
"x+	c #C5D3E4",
"y+	c #CBD8E9",
"z+	c #D0DCEB",
"A+	c #7C9FC9",
"B+	c #7CA1C7",
"C+	c #83A7C4",
"D+	c #ACB5B7",
"E+	c #BBBEBE",
"F+	c #AC9B9B",
"G+	c #9A7676",
"H+	c #96696A",
"I+	c #99787A",
"J+	c #A19E9F",
"K+	c #84989B",
"L+	c #787F7E",
"M+	c #777976",
"N+	c #797A77",
"O+	c #6E706E",
"P+	c #6A6D6C",
"Q+	c #737673",
"R+	c #C2CEDE",
"S+	c #CCD9E8",
"T+	c #D4DFED",
"U+	c #7EA2CA",
"V+	c #86ABC9",
"W+	c #AEC4D6",
"X+	c #B1B9BA",
"Y+	c #A7AEAE",
"Z+	c #9D9B9C",
"`+	c #9A9596",
" @	c #9A797A",
".@	c #974A4B",
"+@	c #8E3A3B",
"@@	c #948E90",
"#@	c #6D8286",
"$@	c #465153",
"%@	c #434848",
"&@	c #5E615F",
"*@	c #5D6A74",
"=@	c #8D8F8E",
"-@	c #6189BA",
";@	c #5B90D3",
">@	c #828689",
",@	c #66798B",
"'@	c #C2CDDB",
")@	c #CDD8E7",
"!@	c #D8E2EE",
"~@	c #8AAECC",
"{@	c #B3C9DC",
"]@	c #B7C9DA",
"^@	c #A2AFB3",
"/@	c #ACBABC",
"(@	c #859A9F",
"_@	c #6A858B",
":@	c #8BA7AA",
"<@	c #A98283",
"[@	c #B55656",
"}@	c #AD7E7F",
"|@	c #C2CCCD",
"1@	c #9EADB0",
"2@	c #949D9A",
"3@	c #8C97A1",
"4@	c #8DAFDA",
"5@	c #628EC2",
"6@	c #628CBF",
"7@	c #9EBBDD",
"8@	c #3D6DA9",
"9@	c #98B7E0",
"0@	c #8BACD6",
"a@	c #D3DDE9",
"b@	c #DBE5F0",
"c@	c #BCCEE1",
"d@	c #C1D1E1",
"e@	c #B7CADB",
"f@	c #A2B6C2",
"g@	c #647F86",
"h@	c #6C878F",
"i@	c #768E93",
"j@	c #88A6AC",
"k@	c #B27C7C",
"l@	c #AD4A4A",
"m@	c #9F8686",
"n@	c #BAC2C2",
"o@	c #BDC2C0",
"p@	c #95A3A5",
"q@	c #777F7F",
"r@	c #628DC2",
"s@	c #B1C7E1",
"t@	c #8AADD8",
"u@	c #85A9D6",
"v@	c #A9C1E1",
"w@	c #88A9D3",
"x@	c #87A5CA",
"y@	c #D6DFEB",
"z@	c #DFE8F2",
"A@	c #BDD0E2",
"B@	c #C3D3E3",
"C@	c #B6C8D9",
"D@	c #5A89A1",
"E@	c #638B9B",
"F@	c #74898E",
"G@	c #74969C",
"H@	c #A5888A",
"I@	c #BD6162",
"J@	c #9C7878",
"K@	c #A6B6B6",
"L@	c #B5BBBB",
"M@	c #B7BBBA",
"N@	c #8D9A9D",
"O@	c #5982B4",
"P@	c #628BBF",
"Q@	c #8AACD7",
"R@	c #355C8A",
"S@	c #435971",
"T@	c #648EC2",
"U@	c #81A4D1",
"V@	c #5886C1",
"W@	c #C4D4E7",
"X@	c #E3EAF3",
"Y@	c #91B3CF",
"Z@	c #BCCFE1",
"`@	c #A3BBCF",
" #	c #4B85A1",
".#	c #6E97AE",
"+#	c #95AAB6",
"@#	c #A17377",
"##	c #AA6364",
"$#	c #8D8A8D",
"%#	c #9CADAF",
"&#	c #A9B3B3",
"*#	c #B3B9B9",
"=#	c #8C9B9E",
"-#	c #777E7D",
";#	c #598ED1",
">#	c #9EB9DD",
",#	c #84A7D5",
"'#	c #516D8D",
")#	c #7E8894",
"!#	c #5687C3",
"~#	c #A9C2DF",
"{#	c #729DD3",
"]#	c #BCCFE5",
"^#	c #E6EDF5",
"/#	c #90AFD0",
"(#	c #96B6D1",
"_#	c #B3C8D8",
":#	c #4E8AA7",
"<#	c #6399B2",
"[#	c #8EA7B9",
"}#	c #9E9DAA",
"|#	c #97ADB6",
"1#	c #92A5AA",
"2#	c #9BA5A9",
"3#	c #A0A9AA",
"4#	c #6C7F83",
"5#	c #455052",
"6#	c #404546",
"7#	c #50585E",
"8#	c #3666A4",
"9#	c #BACDE4",
"0#	c #5F8DC6",
"a#	c #5786C2",
"b#	c #A6BEDD",
"c#	c #608EC7",
"d#	c #99B1CE",
"e#	c #E7EDF5",
"f#	c #EAF0F7",
"g#	c #97B2D4",
"h#	c #97B4D4",
"i#	c #9CBCD3",
"j#	c #9FBBCD",
"k#	c #6A9CB5",
"l#	c #609BB4",
"m#	c #6C9EB5",
"n#	c #80A4B6",
"o#	c #9EB1BC",
"p#	c #B3BFC9",
"q#	c #8EA5B1",
"r#	c #798A98",
"s#	c #555D65",
"t#	c #5E646D",
"u#	c #758DAC",
"v#	c #96B7DF",
"w#	c #85A7D2",
"x#	c #81A5D1",
"y#	c #BED1EB",
"z#	c #6F9EDA",
"A#	c #EAEFF7",
"B#	c #EEF2F8",
"C#	c #9EB9D7",
"D#	c #A0BFD6",
"E#	c #C7D6E4",
"F#	c #CCD7E3",
"G#	c #CBD7E2",
"H#	c #CFDBE6",
"I#	c #CDDAE5",
"J#	c #ADC6D5",
"K#	c #AEC2D5",
"L#	c #B5C4D6",
"M#	c #ADBAC9",
"N#	c #B3BECD",
"O#	c #C4D0DF",
"P#	c #8EAFD9",
"Q#	c #8AA8CD",
"R#	c #5987C2",
"S#	c #729CD3",
"T#	c #99B2CF",
"U#	c #6E9EDA",
"V#	c #EAF0F6",
"W#	c #EBF0F7",
"X#	c #F2F6FA",
"Y#	c #9FB9D7",
"Z#	c #A2BBD8",
"`#	c #A5BFDA",
" $	c #A5C1D7",
".$	c #CADAE7",
"+$	c #D9E3EE",
"@$	c #D3E0EB",
"#$	c #B3CBDB",
"$$	c #B8CDE1",
"%$	c #CCD9E9",
"&$	c #D0DCEC",
"*$	c #D1DDEC",
"=$	c #D7E2EE",
"-$	c #C7D6EA",
";$	c #BDD0E6",
">$	c #EBF1F6",
",$	c #F2F6F9",
"'$	c #F6F8FB",
")$	c #A6BEDB",
"!$	c #A9C1DC",
"~$	c #ACC4DD",
"{$	c #ACC6D9",
"]$	c #D0DEEA",
"^$	c #B6CEDF",
"/$	c #B8CEE2",
"($	c #CCDAE9",
"_$	c #D7E1EF",
":$	c #DFE8F1",
"<$	c #E7EDF4",
"[$	c #F2F5F9",
"}$	c #F5F8FB",
"|$	c #FAFBFC",
"  . + @ # $ % & * = - ; > , ' ) ! ~ { ] ^ / ( _ ",
". + : # < [ } | 1 2 3 4 5 6 7 8 9 0 a b c d e f ",
"+ g h $ i j k l m n o p q p o r s t u v w x f y ",
"z # A B C D E q F G o H I J K L M N O P Q R S T ",
"U $ % V W p X Y Z `  ...+.@.#.$.%.N O &.*.=.-.;.",
"$ >.,.'.W ` ).!.H ~.+.{.].^./.N N (.O _._.:.<.[.",
">.}.|.1.2.!.H ~.J q ].3.4.5.6.O O O O O O 7.8.9.",
"}.0.a.b.c. .d.e.f.g.4.h.i.j.k.l.m.n.O o.p.q.r.s.",
"t.u.v.w.x.Y y.z.A.B.C.D.E.F.G.H.&.n.O I.J.K.L.M.",
"N.v.O.P.Q.R.S.T.U.V.W.X.Y.Z.`. +.+++@+#+$+%+M.&+",
"v.*+=+-+;+>+,+'+)+!+2.~+~+{+]+^+/+(+_+:+<+[+}+|+",
"O.1+2+3+4+5+6+7+8+9+0+].a+e.b+o c+H n d+e+f+g+h+",
"i+j+k+l+m+n+o+p+q+r+s+t+Y.Y.W.u+].v+w+x.V.x+y+z+",
"A+B+C+D+E+F+G+H+I+J+K+L+M+N+O+v+P+Q+).x.B.R+S+T+",
"U+V+W+X+Y+Z+`+ @.@+@@@#@$@%@&@*@=@-@;@>@,@'@)@!@",
"~@{@]@^@/@(@_@:@<@[@}@|@1@2@3@4@5@6@7@8@9@0@a@b@",
"c@d@e@f@g@h@i@j@k@l@m@n@o@p@q@r@s@t@u@v@w@x@y@z@",
"A@B@C@D@E@F@G@H@I@J@K@L@M@N@O@P@Q@R@S@T@U@V@W@X@",
"Y@Z@`@ #.#+#@###$#%#&#*#=#-#;#>#,#'#)#!#~#{#]#^#",
"/#(#_#:#<#[#}#|#1#2#3#4#5#6#7#8#9#0#a#b#c#d#e#f#",
"g#h#i#j#k#l#m#n#o#p#q#r#s#t#u#v#w#x#~#c#y#z#A#B#",
"/ ( C#D#E#F#G#H#I#J#K#L#M#N#O#P#Q#R#S#T#U#V#W#X#",
"Y#Z#f `# $.$+$@$#$$$}+g+%$&$*$=$b@-$;$e#V#>$,$'$",
"_ )$!$T ~${$]$^$/$}+g+($&$T+_$b@:$X@<$A#B#[$}$|$"};
