/* XPM */
static char * TZSqlMetaData.xpm_xpm[] = {
"24 24 396 2",
"  	c #4C7CB5",
". 	c #4F7EB6",
"+ 	c #5381B8",
"@ 	c #5683BA",
"# 	c #5A86BB",
"$ 	c #5E89BC",
"% 	c #618CBE",
"& 	c #6D8DB3",
"* 	c #798DA1",
"= 	c #818C94",
"- 	c #858B8A",
"; 	c #878A86",
"> 	c #888A85",
", 	c #878A85",
"' 	c #878B89",
") 	c #879094",
"! 	c #889CB2",
"~ 	c #8CABCF",
"{ 	c #8FADD1",
"] 	c #93B0D3",
"^ 	c #97B3D4",
"/ 	c #9BB6D5",
"( 	c #9FB8D7",
"_ 	c None",
": 	c #5783B9",
"< 	c #5E8ABC",
"[ 	c #698BB2",
"} 	c #7E8B95",
"| 	c #979994",
"1 	c #A1A29E",
"2 	c #B1B2AF",
"3 	c #AEAEAB",
"4 	c #B2B2AF",
"5 	c #A6A6A3",
"6 	c #A3A3A0",
"7 	c #C0C1BE",
"8 	c #ACADA9",
"9 	c #9F9353",
"0 	c #BBA01D",
"a 	c #C4A000",
"b 	c #BDA323",
"c 	c #ACAE82",
"d 	c #A6BEDA",
"e 	c #5684B9",
"f 	c #5A87BB",
"g 	c #6F8BA9",
"h 	c #8A8C87",
"i 	c #B6B6B3",
"j 	c #B4B4B2",
"k 	c #90928F",
"l 	c #8D8E8B",
"m 	c #888986",
"n 	c #838481",
"o 	c #818280",
"p 	c #898B88",
"q 	c #8F908D",
"r 	c #B9AB6A",
"s 	c #FCE94F",
"t 	c #B1B284",
"u 	c #AAC1DC",
"v 	c #5784B9",
"w 	c #5E89BD",
"x 	c #6A8BB1",
"y 	c #8C8D89",
"z 	c #BABAB7",
"A 	c #8B8C8A",
"B 	c #868784",
"C 	c #848583",
"D 	c #828481",
"E 	c #818380",
"F 	c #7E7F7C",
"G 	c #B79A13",
"H 	c #EDD400",
"I 	c #BFA524",
"J 	c #AEC3DD",
"K 	c #5B86BB",
"L 	c #7D8B97",
"M 	c #B9BAB7",
"N 	c #878885",
"O 	c #8A8B88",
"P 	c #888A87",
"Q 	c #868885",
"R 	c #848683",
"S 	c #838582",
"T 	c #A40000",
"U 	c #B1C6DE",
"V 	c #628CBE",
"W 	c #668FC0",
"X 	c #868A88",
"Y 	c #898A87",
"Z 	c #878986",
"` 	c #848582",
" .	c #828380",
"..	c #80827F",
"+.	c #EF2929",
"@.	c #204A87",
"#.	c #A3A230",
"$.	c #C0A624",
"%.	c #B5C9E0",
"&.	c #658FC0",
"*.	c #6991C1",
"=.	c #7B7E7B",
"-.	c #A0A19E",
";.	c #7F807D",
">.	c #CC0000",
",.	c #709DCD",
"'.	c #BAB888",
").	c #B9CCE2",
"!.	c #6992C2",
"~.	c #6E95C3",
"{.	c #767976",
"].	c #9FA09D",
"^.	c #838482",
"/.	c #81827F",
"(.	c #7F817E",
"_.	c #7E807C",
":.	c #7C7D7B",
"<.	c #7B7C79",
"[.	c #804550",
"}.	c #5A87BA",
"|.	c #7E7B41",
"1.	c #B9CBE2",
"2.	c #BDCFE4",
"3.	c #6992C1",
"4.	c #6D95C3",
"5.	c #7197C4",
"6.	c #797C78",
"7.	c #969794",
"8.	c #7F827E",
"9.	c #7D7F7D",
"0.	c #7C7E7B",
"a.	c #7B7D79",
"b.	c #797B78",
"c.	c #787976",
"d.	c #729FCF",
"e.	c #4070AC",
"f.	c #BCCEE4",
"g.	c #C0D1E5",
"h.	c #6D95C2",
"i.	c #759AC6",
"j.	c #7D807C",
"k.	c #8B8C89",
"l.	c #8C928F",
"m.	c #8F9D9E",
"n.	c #929897",
"o.	c #848684",
"p.	c #787A76",
"q.	c #777875",
"r.	c #757673",
"s.	c #6C465B",
"t.	c #3D68A0",
"u.	c #5280B8",
"v.	c #3465A4",
"w.	c #37629B",
"x.	c #8A9FBB",
"y.	c #C5D4E7",
"z.	c #749AC6",
"A.	c #799CC7",
"B.	c #6B6E6D",
"C.	c #929695",
"D.	c #879597",
"E.	c #B6BCBC",
"F.	c #9BAAAB",
"G.	c #959C9B",
"H.	c #A1A3A0",
"I.	c #979895",
"J.	c #C4D4E7",
"K.	c #C8D7E9",
"L.	c #799DC8",
"M.	c #7B9FC8",
"N.	c #7C8180",
"O.	c #76888A",
"P.	c #BAC0C1",
"Q.	c #C3C5C4",
"R.	c #BABFBE",
"S.	c #95A3A6",
"T.	c #7B8280",
"U.	c #7E807D",
"V.	c #81837F",
"W.	c #7D7F7B",
"X.	c #C8D7E8",
"Y.	c #CCDAEA",
"Z.	c #789DC7",
"`.	c #7B9EC8",
" +	c #7B9FC5",
".+	c #809194",
"++	c #BAC3C4",
"@+	c #ACB5B6",
"#+	c #AAB6B8",
"$+	c #B7C2C2",
"%+	c #B4BFBF",
"&+	c #8A9C9F",
"*+	c #757C7B",
"=+	c #747673",
"-+	c #737471",
";+	c #7C7D7A",
">+	c #676A69",
",+	c #646766",
"'+	c #C5D3E4",
")+	c #CBD8E9",
"!+	c #D0DCEB",
"~+	c #7C9FC9",
"{+	c #7CA1C7",
"]+	c #83A7C4",
"^+	c #ACB5B7",
"/+	c #BBBEBE",
"(+	c #AC9B9B",
"_+	c #9A7676",
":+	c #96696A",
"<+	c #99787A",
"[+	c #A19E9F",
"}+	c #84989B",
"|+	c #787F7E",
"1+	c #777976",
"2+	c #797A77",
"3+	c #6E706E",
"4+	c #6A6D6C",
"5+	c #737673",
"6+	c #C2CEDE",
"7+	c #CCD9E8",
"8+	c #D4DFED",
"9+	c #7EA2CA",
"0+	c #86ABC9",
"a+	c #AEC4D6",
"b+	c #B1B9BA",
"c+	c #A7AEAE",
"d+	c #9D9B9C",
"e+	c #9A9596",
"f+	c #9A797A",
"g+	c #974A4B",
"h+	c #8E3A3B",
"i+	c #938D90",
"j+	c #6C8186",
"k+	c #455153",
"l+	c #434848",
"m+	c #5E615F",
"n+	c #6A6E6D",
"o+	c #939490",
"p+	c #90918E",
"q+	c #8F918D",
"r+	c #7E817D",
"s+	c #C2CDDB",
"t+	c #CFDAE8",
"u+	c #D8E2EE",
"v+	c #8AAECC",
"w+	c #B3C9DC",
"x+	c #B7C9DA",
"y+	c #A2AFB3",
"z+	c #ACBABC",
"A+	c #859A9F",
"B+	c #6A858B",
"C+	c #8BA7AA",
"D+	c #A98283",
"E+	c #7E5B78",
"F+	c #2765B1",
"G+	c #6D8FB0",
"H+	c #949D9A",
"I+	c #718AA6",
"J+	c #5F758D",
"K+	c #959693",
"L+	c #316DB7",
"M+	c #3B73B3",
"N+	c #D3DDE9",
"O+	c #DBE5F0",
"P+	c #BCCEE1",
"Q+	c #C1D1E1",
"R+	c #B7CADB",
"S+	c #A2B6C2",
"T+	c #647F86",
"U+	c #6C878F",
"V+	c #768E93",
"W+	c #88A6AC",
"X+	c #B27C7C",
"Y+	c #2C69B4",
"Z+	c #8FA7BD",
"`+	c #95A3A5",
" @	c #676B69",
".@	c #3773BD",
"+@	c #D6DFEB",
"@@	c #DFE8F2",
"#@	c #BDD0E2",
"$@	c #C3D3E3",
"%@	c #B6C8D9",
"&@	c #5A89A1",
"*@	c #638B9B",
"=@	c #74898E",
"-@	c #74969C",
";@	c #A5888A",
">@	c #BD6162",
",@	c #326EB8",
"'@	c #A2B0BA",
")@	c #A8B2BA",
"!@	c #8D9A9D",
"~@	c #326FBA",
"{@	c #316EB9",
"]@	c #9AA1A6",
"^@	c #DBE4EA",
"/@	c #E3EAF3",
"(@	c #91B3CF",
"_@	c #BCCFE1",
":@	c #A3BBCF",
"<@	c #4B85A1",
"[@	c #6E97AE",
"}@	c #95AAB6",
"|@	c #A17377",
"1@	c #AA6364",
"2@	c #8D8A8D",
"3@	c #7395B4",
"4@	c #6689AB",
"5@	c #777E7D",
"6@	c #B9C2CE",
"7@	c #E1EAF2",
"8@	c #E6EDF5",
"9@	c #90AFD0",
"0@	c #96B6D1",
"a@	c #B3C8D8",
"b@	c #4E8AA7",
"c@	c #6399B2",
"d@	c #8EA7B9",
"e@	c #9E9DAA",
"f@	c #97ADB6",
"g@	c #92A5AA",
"h@	c #98A3A9",
"i@	c #7593B3",
"j@	c #3C77C0",
"k@	c #3D78C1",
"l@	c #404546",
"m@	c #848B91",
"n@	c #CDD6E0",
"o@	c #E7EDF5",
"p@	c #EAF0F7",
"q@	c #97B2D4",
"r@	c #97B4D4",
"s@	c #9CBCD3",
"t@	c #9FBBCD",
"u@	c #6A9CB5",
"v@	c #609BB4",
"w@	c #6C9EB5",
"x@	c #80A4B6",
"y@	c #9EB1BC",
"z@	c #B1BEC8",
"A@	c #8AA3B1",
"B@	c #427FC4",
"C@	c #5E646D",
"D@	c #447DC4",
"E@	c #B6BFCB",
"F@	c #427CC4",
"G@	c #DAE3EC",
"H@	c #EAEFF7",
"I@	c #EEF2F8",
"J@	c #9EB9D7",
"K@	c #A0BFD6",
"L@	c #C7D6E4",
"M@	c #CCD7E3",
"N@	c #CBD7E2",
"O@	c #CFDBE6",
"P@	c #CDDAE5",
"Q@	c #4984C7",
"R@	c #95B2D1",
"S@	c #B3BECD",
"T@	c #4A84C6",
"U@	c #4981C7",
"V@	c #E1E9F2",
"W@	c #F2F6FA",
"X@	c #9FB9D7",
"Y@	c #A2BBD8",
"Z@	c #A5BFDA",
"`@	c #A5C1D7",
" #	c #CADAE7",
".#	c #D9E3EE",
"+#	c #D3E0EB",
"@#	c #B3CBDB",
"##	c #8EB2D8",
"$#	c #5089CA",
"%#	c #4F89CB",
"&#	c #91B3DB",
"*#	c #D0DCEC",
"=#	c #99B9DE",
"-#	c #9BBBDF",
";#	c #4E88CA",
">#	c #A6BEDB",
",#	c #A9C1DC",
"'#	c #ACC4DD",
")#	c #ACC6D9",
"!#	c #D0DEEA",
"~#	c #B6CEDF",
"{#	c #B8CEE2",
"]#	c #C3D3E6",
"^#	c #CCDAE9",
"/#	c #D7E1EF",
"(#	c #DFE8F1",
"_#	c #A0BFE2",
":#	c #558ECF",
"<#	c #F2F5F9",
"[#	c #F5F8FB",
"}#	c #FAFBFC",
"  . + @ # $ % & * = - ; > , ' ) ! ~ { ] ^ / ( _ ",
". + : # < [ } | 1 2 3 4 5 6 7 8 | 9 0 a b c _ d ",
"+ e f $ g h i j k l m n o n p q r a s s s a t u ",
"v # w x y z q o A p m B C D E F G s H H H s I J ",
"K $ % L M n N O P Q R S T T T T T T H H H s a U ",
"$ V W X M Q Y Z B `  ...T +.+.+.+.T @.#.H s $.%.",
"V &.*.=.-.Z B ` D o ;.F T +.>.>.+.@.,.@.s a '.).",
"&.!.~.{.].R ^./.(._.:.<.T +.>.>.[.@.}.@.|.'.1.2.",
"3.4.5.6.7.O 8.9.0.a.b.c.T +.>.>.@.d.e.d.@.).f.g.",
"h.5.i.j.k.l.m.n.o.p.q.r.T +.+.s.t.u.v.u.w.x.g.y.",
"5.z.A.B.C.D.E.F.G.H.-.I.T T T @.d.d.d.d.d.@.J.K.",
"i.L.M.N.O.P.Q.R.S.T.U.;.V./.W.@.@.@.@.@.@.@.X.Y.",
"Z.`. +.+++@+#+$+%+&+*+=+-+-+q.;+;.>+,+7.p.'+)+!+",
"~+{+]+^+/+(+_+:+<+[+}+|+1+2+3+>+4+5+Y 7.a.6+7+8+",
"9+0+a+b+c+d+e+f+g+h+i+j+k+l+m+n+o+p+q+k.r+s+t+u+",
"v+w+x+y+z+A+B+C+D+E+F+F+G+H+I+F+F+F+J+K+L+M+N+O+",
"P+Q+R+S+T+U+V+W+X+Y+Y+Z+Y+`+Y+Y+Y+Y+Y+ @.@.@+@@@",
"#@$@%@&@*@=@-@;@>@,@,@'@)@!@,@~@;.~@{@]@L+M+^@/@",
"(@_@:@<@[@}@|@1@2@3@.@.@4@5@.@.@4+.@.@6@.@.@7@8@",
"9@0@a@b@c@d@e@f@g@h@i@j@k@l@k@k@m@k@k@n@k@k@o@p@",
"q@r@s@t@u@v@w@x@y@z@A@B@B@C@D@D@E@B@F@G@B@B@H@I@",
"/ ( J@K@L@M@N@O@P@Q@R@Q@Q@S@Q@T@Q@U@Q@V@Q@Q@I@W@",
"X@Y@d Z@`@ #.#+#@###$#%#&#*#=#%#%#%#-#o@%#%#%#;#",
"_ >#,#J '#)#!#~#{#]#X.^#*#8+/#O+(#_#:#H@I@<#[#}#"};
