/* XPM */
static char * TZSqlProcessor.xpm_xpm[] = {
"24 24 348 2",
"  	c #4C7CB5",
". 	c #4F7EB6",
"+ 	c #5381B8",
"@ 	c #5683BA",
"# 	c #5A86BB",
"$ 	c #5E89BC",
"% 	c #618CBE",
"& 	c #668FC0",
"* 	c #6A92C1",
"= 	c #6D95C3",
"- 	c #7197C4",
"; 	c #759AC5",
"> 	c #799CC7",
", 	c #7D9FC9",
"' 	c #80A2CA",
") 	c #84A5CC",
"! 	c #88A8CE",
"~ 	c #8CABCF",
"{ 	c #8FADD1",
"] 	c #93B0D3",
"^ 	c #97B3D4",
"/ 	c #9BB6D5",
"( 	c #9FB8D7",
"_ 	c None",
": 	c #5783B9",
"< 	c #5E8ABC",
"[ 	c #628CBE",
"} 	c #658FBF",
"| 	c #6D94C3",
"1 	c #759AC6",
"2 	c #80A2CB",
"3 	c #7991AC",
"4 	c #66717A",
"5 	c #5B6161",
"6 	c #5A5F5E",
"7 	c #5C6161",
"8 	c #6F7A83",
"9 	c #8CA0B6",
"0 	c #9EB6D3",
"a 	c #A6BEDA",
"b 	c #5684B9",
"c 	c #5A87BB",
"d 	c #73899F",
"e 	c #888A85",
"f 	c #70726E",
"g 	c #555753",
"h 	c #7D7D7D",
"i 	c #909090",
"j 	c #AAAAAA",
"k 	c #9B9B9B",
"l 	c #555754",
"m 	c #798590",
"n 	c #AAC1DC",
"o 	c #5784B9",
"p 	c #5E89BD",
"q 	c #FFFFFF",
"r 	c #989898",
"s 	c #B4B4B4",
"t 	c #939393",
"u 	c #8C8C8C",
"v 	c #848484",
"w 	c #AEC3DD",
"x 	c #5B86BB",
"y 	c #DEDEDE",
"z 	c #E1E1E1",
"A 	c #E0E0E0",
"B 	c #E2E2E2",
"C 	c #E3E3E3",
"D 	c #E4E4E4",
"E 	c #B7B7B7",
"F 	c #888888",
"G 	c #808080",
"H 	c #6E6E6D",
"I 	c #9C9C9C",
"J 	c #B1C6DE",
"K 	c #DFDFDF",
"L 	c #B6B6B6",
"M 	c #A3A3A3",
"N 	c #6F706F",
"O 	c #80817F",
"P 	c #9A9A9A",
"Q 	c #B5C9E0",
"R 	c #658FC0",
"S 	c #6991C1",
"T 	c #E6E6E6",
"U 	c #E7E7E7",
"V 	c #AEAEAE",
"W 	c #ADADAD",
"X 	c #A8A8A8",
"Y 	c #AFAFAF",
"Z 	c #8D8E8D",
"` 	c #858585",
" .	c #B9CCE2",
"..	c #6992C2",
"+.	c #6E95C3",
"@.	c #B1B1B1",
"#.	c #777777",
"$.	c #787878",
"%.	c #787978",
"&.	c #979797",
"*.	c #BDCFE4",
"=.	c #6992C1",
"-.	c #E3E4E5",
";.	c #E5E5E5",
">.	c #EAEAEA",
",.	c #A9A9A9",
"'.	c #9E9E9E",
").	c #CE5C00",
"!.	c #BE6319",
"~.	c #666666",
"{.	c #919191",
"].	c #C0D1E5",
"^.	c #6D95C2",
"/.	c #A7AEAD",
"(.	c #C6D7DC",
"_.	c #D8E0E1",
":.	c #B5B6B6",
"<.	c #A7A7A7",
"[.	c #717271",
"}.	c #F5D400",
"|.	c #FCAF3E",
"1.	c #A76027",
"2.	c #949494",
"3.	c #C5D4E7",
"4.	c #749AC6",
"5.	c #F4F9FA",
"6.	c #C4D5DA",
"7.	c #ECF3F5",
"8.	c #C8DADE",
"9.	c #DAE1E3",
"0.	c #E8E8E8",
"a.	c #CECECD",
"b.	c #5E605C",
"c.	c #CD5D02",
"d.	c #F57900",
"e.	c #C06F2E",
"f.	c #9B9C9A",
"g.	c #C8D7E9",
"h.	c #799DC8",
"i.	c #7CA0C9",
"j.	c #858B88",
"k.	c #D0E3E8",
"l.	c #E1E9EB",
"m.	c #F1F3F4",
"n.	c #E9EFEF",
"o.	c #B3C5CB",
"p.	c #B8BFC1",
"q.	c #C1C1C2",
"r.	c #C2C2C2",
"s.	c #CA630F",
"t.	c #BB5B0D",
"u.	c #5A5A54",
"v.	c #A9AAA8",
"w.	c #C8D7E8",
"x.	c #CCDAEA",
"y.	c #789DC7",
"z.	c #7C9FC9",
"A.	c #7DA2C9",
"B.	c #8CA1A4",
"C.	c #E4EFF2",
"D.	c #E7F1F2",
"E.	c #E3F1F3",
"F.	c #E6F4F6",
"G.	c #E5F2F4",
"H.	c #C4DAE0",
"I.	c #DBE3E5",
"J.	c #E9E9E9",
"K.	c #F47A03",
"L.	c #DBA273",
"M.	c #C9D7E8",
"N.	c #CCD9EA",
"O.	c #D0DCEB",
"P.	c #7DA3CA",
"Q.	c #88AFCA",
"R.	c #BECACC",
"S.	c #E5E8E9",
"T.	c #D1BBBD",
"U.	c #C8989A",
"V.	c #C88D8F",
"W.	c #CEA3A6",
"X.	c #D4CFD2",
"Y.	c #C7DFE4",
"Z.	c #DCE3E6",
"`.	c #EBEBEB",
" +	c #F47C07",
".+	c #D99156",
"++	c #EEEEEE",
"@+	c #FEFEFE",
"#+	c #CFDCEB",
"$+	c #D4DFED",
"%+	c #7DA2CA",
"&+	c #8AB0CC",
"*+	c #BFD3E1",
"=+	c #C2CCCE",
"-+	c #D2D9DC",
";+	c #ABA7AA",
">+	c #B7B0B4",
",+	c #B68B8F",
"'+	c #BA5557",
")+	c #B6494B",
"!+	c #BFB5B8",
"~+	c #ACC3C8",
"{+	c #ADB3B4",
"]+	c #F37802",
"^+	c #C57B3E",
"/+	c #B6B6B5",
"(+	c #FCFCFC",
"_+	c #D8E2EE",
":+	c #8CB1CC",
"<+	c #C2D5E3",
"[+	c #C9D9E6",
"}+	c #BBC8CA",
"|+	c #D2E4E8",
"1+	c #A7C1C9",
"2+	c #8BADB6",
"3+	c #A6C9CF",
"4+	c #C69296",
"5+	c #8F5B7A",
"6+	c #2765B1",
"7+	c #896653",
"8+	c #000000",
"9+	c #637280",
"0+	c #A4B9D4",
"a+	c #F4F4F4",
"b+	c #316DB7",
"c+	c #3B73B3",
"d+	c #DBE5F0",
"e+	c #CBD9E7",
"f+	c #D1DEE9",
"g+	c #C8D9E6",
"h+	c #ADBCBE",
"i+	c #90B1BA",
"j+	c #7EA0AC",
"k+	c #90AEB6",
"l+	c #AAD1D9",
"m+	c #CB8688",
"n+	c #2C69B4",
"o+	c #A6C0D7",
"p+	c #3773BD",
"q+	c #DBE4F0",
"r+	c #DFE8F2",
"s+	c #CBDAE8",
"t+	c #D3E0EB",
"u+	c #C4D4E0",
"v+	c #4E7D89",
"w+	c #83ADBA",
"x+	c #A0B9BF",
"y+	c #9FC9D1",
"z+	c #D0AAAE",
"A+	c #F07A7E",
"B+	c #326EB8",
"C+	c #D0DFEA",
"D+	c #DAE5ED",
"E+	c #CDDEE4",
"F+	c #326FBA",
"G+	c #316EB9",
"H+	c #DFE8EE",
"I+	c #E3EAF3",
"J+	c #92B5CF",
"K+	c #A9C1D0",
"L+	c #357282",
"M+	c #89B3C0",
"N+	c #BDCED3",
"O+	c #D5979C",
"P+	c #E28588",
"Q+	c #C0BABE",
"R+	c #90B5D6",
"S+	c #87ACD0",
"T+	c #DEE6E8",
"U+	c #ECECEC",
"V+	c #E2EBF3",
"W+	c #E6EDF5",
"X+	c #8FAFD0",
"Y+	c #96B8D0",
"Z+	c #BBCEDA",
"`+	c #337385",
" @	c #74AABC",
".@	c #A8BDC5",
"+@	c #C5B9BD",
"@@	c #C5DADF",
"#@	c #CEE2E6",
"$@	c #D9E5EA",
"%@	c #9AB9DA",
"&@	c #3C77C0",
"*@	c #3D78C1",
"=@	c #EFEFEF",
"-@	c #EDEDED",
";@	c #E7EDF5",
">@	c #EAF0F7",
",@	c #97B2D4",
"'@	c #9BBDD2",
")@	c #98ACB0",
"!@	c #76A9B8",
"~@	c #6AA8BA",
"{@	c #7CB1BF",
"]@	c #99BCC6",
"^@	c #C5D5D9",
"/@	c #E3ECEF",
"(@	c #C7DCE4",
"_@	c #427FC4",
":@	c #447DC4",
"<@	c #427CC4",
"[@	c #EAEFF7",
"}@	c #EEF2F8",
"|@	c #9DB9D7",
"1@	c #8FA9B4",
"2@	c #C6CDCD",
"3@	c #CBCDCB",
"4@	c #C7CCCB",
"5@	c #CDD2D2",
"6@	c #C9D0D0",
"7@	c #4984C7",
"8@	c #768A99",
"9@	c #4A84C6",
"0@	c #4981C7",
"a@	c #F2F6FA",
"b@	c #9FB9D7",
"c@	c #A2BBD8",
"d@	c #A4BFD9",
"e@	c #A2C1D5",
"f@	c #D1E0EA",
"g@	c #E3EBF2",
"h@	c #DBE5EE",
"i@	c #B0CBD9",
"j@	c #8DB1D7",
"k@	c #5089CA",
"l@	c #4F89CB",
"m@	c #91B3DB",
"n@	c #D0DCEC",
"o@	c #99B9DE",
"p@	c #9BBBDF",
"q@	c #4E88CA",
"r@	c #A6BEDB",
"s@	c #A9C1DC",
"t@	c #ABC3DC",
"u@	c #A9C6D8",
"v@	c #D7E4EC",
"w@	c #B4CDDE",
"x@	c #B6CDE2",
"y@	c #C3D3E6",
"z@	c #CCDAE9",
"A@	c #D7E1EF",
"B@	c #DFE8F1",
"C@	c #A0BFE2",
"D@	c #558ECF",
"E@	c #F2F5F9",
"F@	c #F5F8FB",
"G@	c #FAFBFC",
"  . + @ # $ % & * = - ; > , ' ) ! ~ { ] ^ / ( _ ",
". + : # < [ } * | - 1 > , 2 ) 3 4 5 6 7 8 9 0 a ",
"+ b c d e e e e e e e e e e f g h i j k g l m n ",
"o # p e q q q q q q q q q q g r s t u v r t g w ",
"x $ % e q y z A z B B C D D g E r i F G H I g J ",
"$ [ & e q K B z L L E E E E g s M u v N O P g Q ",
"[ R S e q A C B B T T T C U g V W X Y Z ` t g  .",
"R ..+.e q z D D L L L L L L g @.#.$.$.#.%.&.g *.",
"=.= - e q B -.D ;.;.>.;.;.>.g ,.'.M ).!.~.{.g ].",
"^.- 1 e q /.(._.:.L L L L L g <.[.).}.|.1.2.g 3.",
"- 4.> e 5.6.7.8.9.U 0.0.0.0.a.b.c.}.|.d.e.g f.g.",
"1 h.i.j.k.l.m.n.o.p.q.r.r.r.r.s.}.|.d.t.u.v.w.x.",
"y.z.A.B.C.D.E.F.G.H.I.J.>.>.).}.|.K.L.q e M.N.O.",
"z.P.Q.R.S.T.U.V.W.X.Y.Z.`.).}.|. +.+++@+e N.#+$+",
"%+&+*+=+-+;+>+,+'+)+!+~+{+).|.]+^+/+/+(+e O.$+_+",
":+<+[+}+|+1+2+3+4+5+6+6+7+8+9+6+6+6+0+a+b+c+_+d+",
"e+f+g+h+i+j+k+l+m+n+n+o+n+).n+n+n+n+n+q p+p+q+r+",
"s+t+u+v+w+x+y+z+A+B+B+C+D+E+B+F+`.F+G+q b+c+H+I+",
"J+g+K+L+M+N+O+P+Q+R+p+p+S+T+p+p+U+p+p+q p+p+V+W+",
"X+Y+Z+`+ @.@+@@@#@$@%@&@*@=@*@*@-@*@*@q *@*@;@>@",
",@^ '@)@!@~@{@]@^@/@(@_@_@q :@:@q _@<@q _@_@[@}@",
"/ ( |@1@2@3@4@5@6@7@8@7@7@e 7@9@7@0@7@e 7@7@}@a@",
"b@c@a d@e@f@g@h@i@j@k@l@m@n@o@l@l@l@p@;@l@l@l@q@",
"_ r@s@w t@u@v@w@x@y@w.z@n@$+A@d+B@C@D@[@}@E@F@G@"};
