/* XPM */
static char * TZSqlMonitor.xpm_xpm[] = {
"24 24 444 2",
"  	c #4C7CB5",
". 	c #4F7EB6",
"+ 	c #5381B8",
"@ 	c #5683BA",
"# 	c #5A86BB",
"$ 	c #5E89BC",
"% 	c #618CBE",
"& 	c #6D8DB3",
"* 	c #798DA1",
"= 	c #818C94",
"- 	c #858B8A",
"; 	c #878A86",
"> 	c #888A85",
", 	c #878A85",
"' 	c #878B89",
") 	c #879094",
"! 	c #889CB2",
"~ 	c #8CABCF",
"{ 	c #8FADD1",
"] 	c #93B0D3",
"^ 	c #97B3D4",
"/ 	c #9BB6D5",
"( 	c #9FB8D7",
"_ 	c None",
": 	c #5783B9",
"< 	c #5E8ABC",
"[ 	c #698BB2",
"} 	c #7E8B95",
"| 	c #979994",
"1 	c #A1A29E",
"2 	c #B1B2AF",
"3 	c #AEAEAB",
"4 	c #B2B2AF",
"5 	c #7D7E7B",
"6 	c #4D4E4B",
"7 	c #3E3F3E",
"8 	c #404040",
"9 	c #3D3E3F",
"0 	c #43443C",
"a 	c #7B8895",
"b 	c #A6BEDA",
"c 	c #5684B9",
"d 	c #5A87BB",
"e 	c #6F8BA9",
"f 	c #8A8C87",
"g 	c #B6B6B3",
"h 	c #B4B4B2",
"i 	c #90928F",
"j 	c #8D8E8B",
"k 	c #888986",
"l 	c #838481",
"m 	c #484A46",
"n 	c #A8A4A6",
"o 	c #E1DCE1",
"p 	c #D8D2DB",
"q 	c #D8D2DA",
"r 	c #D9D3DC",
"s 	c #D7D2D9",
"t 	c #969592",
"u 	c #4D5252",
"v 	c #AAC1DC",
"w 	c #5784B9",
"x 	c #5E89BD",
"y 	c #6A8BB1",
"z 	c #8C8D89",
"A 	c #BABAB7",
"B 	c #8F908D",
"C 	c #818280",
"D 	c #8B8C8A",
"E 	c #898B88",
"F 	c #868784",
"G 	c #84B455",
"H 	c #699A39",
"I 	c #72A145",
"J 	c #71A143",
"K 	c #72A144",
"L 	c #699A38",
"M 	c #85B556",
"N 	c #C3C4BF",
"O 	c #AEC3DD",
"P 	c #5B86BB",
"Q 	c #7D8B97",
"R 	c #B9BAB7",
"S 	c #878885",
"T 	c #8A8B88",
"U 	c #888A87",
"V 	c #868885",
"W 	c #848683",
"X 	c #838582",
"Y 	c #679B36",
"Z 	c #70A241",
"` 	c #6FA140",
" .	c #679E35",
"..	c #699A3A",
"+.	c #BABBB6",
"@.	c #404141",
"#.	c #B1C6DE",
"$.	c #628CBE",
"%.	c #668FC0",
"&.	c #868A88",
"*.	c #898A87",
"=.	c #878986",
"-.	c #848582",
";.	c #828380",
">.	c #80827F",
",.	c #3F403F",
"'.	c #DBD4DD",
").	c #73A145",
"!.	c #77A74B",
"~.	c #76A649",
"{.	c #77A64A",
"].	c #70A240",
"^.	c #BBBDB8",
"/.	c #B5C9E0",
"(.	c #658FC0",
"_.	c #6991C1",
":.	c #7B7E7B",
"<.	c #A0A19E",
"[.	c #828481",
"}.	c #7F807D",
"|.	c #7E7F7C",
"1.	c #404140",
"2.	c #D4CDD7",
"3.	c #78A54B",
"4.	c #79AA4B",
"5.	c #81AF56",
"6.	c #7FAE53",
"7.	c #7FAF54",
"8.	c #7AAC4C",
"9.	c #78A54C",
"0.	c #B6B7B3",
"a.	c #B9CCE2",
"b.	c #6992C2",
"c.	c #6E95C3",
"d.	c #767976",
"e.	c #9FA09D",
"f.	c #838482",
"g.	c #81827F",
"h.	c #7F817E",
"i.	c #7E807C",
"j.	c #7C7D7B",
"k.	c #7B7C79",
"l.	c #414141",
"m.	c #D1CCD2",
"n.	c #538B1D",
"o.	c #457F0D",
"p.	c #4F8619",
"q.	c #4C8517",
"r.	c #4D8618",
"s.	c #44800C",
"t.	c #538A1D",
"u.	c #B7B8B3",
"v.	c #BDCFE4",
"w.	c #6992C1",
"x.	c #6D95C3",
"y.	c #7197C4",
"z.	c #797C78",
"A.	c #969794",
"B.	c #7F827E",
"C.	c #7D7F7D",
"D.	c #7C7E7B",
"E.	c #7B7D79",
"F.	c #797B78",
"G.	c #787976",
"H.	c #3D3E3C",
"I.	c #CBC9CA",
"J.	c #DAECC8",
"K.	c #BCCDAD",
"L.	c #C4D4B5",
"M.	c #C3D2B3",
"N.	c #C4D2B3",
"O.	c #BFCFAE",
"P.	c #D9EBC7",
"Q.	c #B7B9B4",
"R.	c #C0D1E5",
"S.	c #6D95C2",
"T.	c #759AC6",
"U.	c #7D807C",
"V.	c #8B8C89",
"W.	c #8C928F",
"X.	c #8F9D9E",
"Y.	c #929897",
"Z.	c #848684",
"`.	c #787A76",
" +	c #777875",
".+	c #757673",
"++	c #424440",
"@+	c #959693",
"#+	c #FFFFFF",
"$+	c #FFF7FF",
"%+	c #FFF9FF",
"&+	c #FFFAFF",
"*+	c #FEFEFE",
"=+	c #91938F",
"-+	c #C5D4E7",
";+	c #749AC6",
">+	c #799CC7",
",+	c #6B6E6D",
"'+	c #929695",
")+	c #879597",
"!+	c #B6BCBC",
"~+	c #9BAAAB",
"{+	c #959C9B",
"]+	c #A1A3A0",
"^+	c #979895",
"/+	c #7F817D",
"(+	c #666864",
"_+	c #898B86",
":+	c #7F817C",
"<+	c #7E817B",
"[+	c #80827C",
"}+	c #898B87",
"|+	c #676C6C",
"1+	c #A0ACB9",
"2+	c #C8D7E9",
"3+	c #799DC8",
"4+	c #7B9FC8",
"5+	c #7C8180",
"6+	c #76888A",
"7+	c #BAC0C1",
"8+	c #C3C5C4",
"9+	c #BABFBE",
"0+	c #95A3A6",
"a+	c #7B8280",
"b+	c #7E807D",
"c+	c #81837F",
"d+	c #7D7F7B",
"e+	c #80817E",
"f+	c #676B69",
"g+	c #C4D3E6",
"h+	c #C8D7E8",
"i+	c #CCDAEA",
"j+	c #789DC7",
"k+	c #7B9EC8",
"l+	c #7B9FC5",
"m+	c #809194",
"n+	c #BAC3C4",
"o+	c #ACB5B6",
"p+	c #AAB6B8",
"q+	c #B7C2C2",
"r+	c #B4BFBF",
"s+	c #8A9C9F",
"t+	c #757C7B",
"u+	c #747673",
"v+	c #737471",
"w+	c #7C7D7A",
"x+	c #676A69",
"y+	c #646766",
"z+	c #C5D3E4",
"A+	c #CBD8E9",
"B+	c #D0DCEB",
"C+	c #7C9FC9",
"D+	c #7CA1C7",
"E+	c #83A7C4",
"F+	c #ACB5B7",
"G+	c #BBBEBE",
"H+	c #AC9B9B",
"I+	c #9A7676",
"J+	c #96696A",
"K+	c #99787A",
"L+	c #A19E9F",
"M+	c #84989B",
"N+	c #787F7E",
"O+	c #777976",
"P+	c #797A77",
"Q+	c #6E706E",
"R+	c #6A6D6C",
"S+	c #737673",
"T+	c #C2CEDE",
"U+	c #CCD9E8",
"V+	c #D4DFED",
"W+	c #7EA2CA",
"X+	c #86ABC9",
"Y+	c #AEC4D6",
"Z+	c #B1B9BA",
"`+	c #A7AEAE",
" @	c #9D9B9C",
".@	c #9A9596",
"+@	c #9A797A",
"@@	c #974A4B",
"#@	c #8E3A3B",
"$@	c #938D90",
"%@	c #6C8186",
"&@	c #455153",
"*@	c #434848",
"=@	c #5E615F",
"-@	c #6A6E6D",
";@	c #939490",
">@	c #90918E",
",@	c #8F918D",
"'@	c #7E817D",
")@	c #C2CDDB",
"!@	c #CFDAE8",
"~@	c #D8E2EE",
"{@	c #8AAECC",
"]@	c #B3C9DC",
"^@	c #B7C9DA",
"/@	c #A2AFB3",
"(@	c #ACBABC",
"_@	c #859A9F",
":@	c #6A858B",
"<@	c #8BA7AA",
"[@	c #A98283",
"}@	c #7E5B78",
"|@	c #2765B1",
"1@	c #6D8FB0",
"2@	c #949D9A",
"3@	c #718AA6",
"4@	c #5F758D",
"5@	c #316DB7",
"6@	c #3B73B3",
"7@	c #D3DDE9",
"8@	c #DBE5F0",
"9@	c #BCCEE1",
"0@	c #C1D1E1",
"a@	c #B7CADB",
"b@	c #A2B6C2",
"c@	c #647F86",
"d@	c #6C878F",
"e@	c #768E93",
"f@	c #88A6AC",
"g@	c #B27C7C",
"h@	c #2C69B4",
"i@	c #8FA7BD",
"j@	c #95A3A5",
"k@	c #3773BD",
"l@	c #D6DFEB",
"m@	c #DFE8F2",
"n@	c #BDD0E2",
"o@	c #C3D3E3",
"p@	c #B6C8D9",
"q@	c #5A89A1",
"r@	c #638B9B",
"s@	c #74898E",
"t@	c #74969C",
"u@	c #A5888A",
"v@	c #BD6162",
"w@	c #326EB8",
"x@	c #A2B0BA",
"y@	c #A8B2BA",
"z@	c #8D9A9D",
"A@	c #326FBA",
"B@	c #316EB9",
"C@	c #9AA1A6",
"D@	c #DBE4EA",
"E@	c #E3EAF3",
"F@	c #91B3CF",
"G@	c #BCCFE1",
"H@	c #A3BBCF",
"I@	c #4B85A1",
"J@	c #6E97AE",
"K@	c #95AAB6",
"L@	c #A17377",
"M@	c #AA6364",
"N@	c #8D8A8D",
"O@	c #7395B4",
"P@	c #6689AB",
"Q@	c #777E7D",
"R@	c #B9C2CE",
"S@	c #E1EAF2",
"T@	c #E6EDF5",
"U@	c #90AFD0",
"V@	c #96B6D1",
"W@	c #B3C8D8",
"X@	c #4E8AA7",
"Y@	c #6399B2",
"Z@	c #8EA7B9",
"`@	c #9E9DAA",
" #	c #97ADB6",
".#	c #92A5AA",
"+#	c #98A3A9",
"@#	c #7593B3",
"##	c #3C77C0",
"$#	c #3D78C1",
"%#	c #404546",
"&#	c #848B91",
"*#	c #CDD6E0",
"=#	c #E7EDF5",
"-#	c #EAF0F7",
";#	c #97B2D4",
">#	c #97B4D4",
",#	c #9CBCD3",
"'#	c #9FBBCD",
")#	c #6A9CB5",
"!#	c #609BB4",
"~#	c #6C9EB5",
"{#	c #80A4B6",
"]#	c #9EB1BC",
"^#	c #B1BEC8",
"/#	c #8AA3B1",
"(#	c #427FC4",
"_#	c #5E646D",
":#	c #447DC4",
"<#	c #B6BFCB",
"[#	c #427CC4",
"}#	c #DAE3EC",
"|#	c #EAEFF7",
"1#	c #EEF2F8",
"2#	c #9EB9D7",
"3#	c #A0BFD6",
"4#	c #C7D6E4",
"5#	c #CCD7E3",
"6#	c #CBD7E2",
"7#	c #CFDBE6",
"8#	c #CDDAE5",
"9#	c #4984C7",
"0#	c #95B2D1",
"a#	c #B3BECD",
"b#	c #4A84C6",
"c#	c #4981C7",
"d#	c #E1E9F2",
"e#	c #F2F6FA",
"f#	c #9FB9D7",
"g#	c #A2BBD8",
"h#	c #A5BFDA",
"i#	c #A5C1D7",
"j#	c #CADAE7",
"k#	c #D9E3EE",
"l#	c #D3E0EB",
"m#	c #B3CBDB",
"n#	c #8EB2D8",
"o#	c #5089CA",
"p#	c #4F89CB",
"q#	c #91B3DB",
"r#	c #D0DCEC",
"s#	c #99B9DE",
"t#	c #9BBBDF",
"u#	c #4E88CA",
"v#	c #A6BEDB",
"w#	c #A9C1DC",
"x#	c #ACC4DD",
"y#	c #ACC6D9",
"z#	c #D0DEEA",
"A#	c #B6CEDF",
"B#	c #B8CEE2",
"C#	c #C3D3E6",
"D#	c #CCDAE9",
"E#	c #D7E1EF",
"F#	c #DFE8F1",
"G#	c #A0BFE2",
"H#	c #558ECF",
"I#	c #F2F5F9",
"J#	c #F5F8FB",
"K#	c #FAFBFC",
"  . + @ # $ % & * = - ; > , ' ) ! ~ { ] ^ / ( _ ",
". + : # < [ } | 1 2 3 4 5 6 7 8 8 8 8 8 9 0 a b ",
"+ c d $ e f g h i j k l m n o p q r p s o t u v ",
"w # x y z A B C D E k F 7 o G H I J K L M N 7 O ",
"P $ % Q R l S T U V W X 8 p H Y Z ` Z  ...+.@.#.",
"$ $.%.&.R V *.=.F -.;.>.,.'.).` !.~.{.].).^.,./.",
"$.(._.:.<.=.F -.[.C }.|.1.2.3.4.5.6.7.8.9.0.1.a.",
"(.b.c.d.e.W f.g.h.i.j.k.l.m.n.o.p.q.r.s.t.u.l.v.",
"w.x.y.z.A.T B.C.D.E.F.G.H.I.J.K.L.M.N.O.P.Q.H.R.",
"S.y.T.U.V.W.X.Y.Z.`. +.+++@+#+$+%+%+%+&+*+=+++-+",
"y.;+>+,+'+)+!+~+{+]+<.^+/+(+_+:+<+<+<+[+}+|+1+2+",
"T.3+4+5+6+7+8+9+0+a+b+}.c+g.d+k e+F j f+/+g+h+i+",
"j+k+l+m+n+o+p+q+r+s+t+u+v+v+ +w+}.x+y+A.`.z+A+B+",
"C+D+E+F+G+H+I+J+K+L+M+N+O+P+Q+x+R+S+*.A.E.T+U+V+",
"W+X+Y+Z+`+ @.@+@@@#@$@%@&@*@=@-@;@>@,@V.'@)@!@~@",
"{@]@^@/@(@_@:@<@[@}@|@|@1@2@3@|@|@|@4@@+5@6@7@8@",
"9@0@a@b@c@d@e@f@g@h@h@i@h@j@h@h@h@h@h@f+k@k@l@m@",
"n@o@p@q@r@s@t@u@v@w@w@x@y@z@w@A@}.A@B@C@5@6@D@E@",
"F@G@H@I@J@K@L@M@N@O@k@k@P@Q@k@k@R+k@k@R@k@k@S@T@",
"U@V@W@X@Y@Z@`@ #.#+#@###$#%#$#$#&#$#$#*#$#$#=#-#",
";#>#,#'#)#!#~#{#]#^#/#(#(#_#:#:#<#(#[#}#(#(#|#1#",
"/ ( 2#3#4#5#6#7#8#9#0#9#9#a#9#b#9#c#9#d#9#9#1#e#",
"f#g#b h#i#j#k#l#m#n#o#p#q#r#s#p#p#p#t#=#p#p#p#u#",
"_ v#w#O x#y#z#A#B#C#h+D#r#V+E#8@F#G#H#|#1#I#J#K#"};
