/* XPM */
static char * TZStoredProc.xpm_xpm[] = {
"24 24 377 2",
"  	c #4C7CB5",
". 	c #4F7EB6",
"+ 	c #5381B8",
"@ 	c #5683BA",
"# 	c #5A86BB",
"$ 	c #5E89BC",
"% 	c #618CBE",
"& 	c #6D8DB3",
"* 	c #798DA1",
"= 	c #818C94",
"- 	c #858B8A",
"; 	c #878A86",
"> 	c #888A85",
", 	c #878A85",
"' 	c #878B89",
") 	c #879094",
"! 	c #457ABE",
"~ 	c #93B0D3",
"{ 	c #97B3D4",
"] 	c #9BB6D5",
"^ 	c #9FB8D7",
"/ 	c None",
"( 	c #5783B9",
"_ 	c #5E8ABC",
": 	c #698BB2",
"< 	c #7E8B95",
"[ 	c #979994",
"} 	c #A1A29E",
"| 	c #B1B2AF",
"1 	c #AEAEAB",
"2 	c #B2B2AF",
"3 	c #808A94",
"4 	c #848E98",
"5 	c #BCCDE3",
"6 	c #7691B4",
"7 	c #A6BEDA",
"8 	c #5684B9",
"9 	c #5A87BB",
"0 	c #6F8BA9",
"a 	c #8A8C87",
"b 	c #B6B6B3",
"c 	c #B4B4B2",
"d 	c #90928F",
"e 	c #8D8E8B",
"f 	c #888986",
"g 	c #838481",
"h 	c #86A7D2",
"i 	c #6490C7",
"j 	c #9DB8DA",
"k 	c #AAC1DC",
"l 	c #5784B9",
"m 	c #5E89BD",
"n 	c #6A8BB1",
"o 	c #8C8D89",
"p 	c #BABAB7",
"q 	c #8F908D",
"r 	c #818280",
"s 	c #8B8C8A",
"t 	c #898B88",
"u 	c #868784",
"v 	c #AEC3DD",
"w 	c #5B86BB",
"x 	c #7D8B97",
"y 	c #B9BAB7",
"z 	c #878885",
"A 	c #8A8B88",
"B 	c #888A87",
"C 	c #868885",
"D 	c #848683",
"E 	c #838582",
"F 	c #68737D",
"G 	c #7CA1CF",
"H 	c #487AB7",
"I 	c #5686C3",
"J 	c #82A5D1",
"K 	c #849DBA",
"L 	c #B1C6DE",
"M 	c #628CBE",
"N 	c #668FC0",
"O 	c #868A88",
"P 	c #898A87",
"Q 	c #878986",
"R 	c #848582",
"S 	c #828380",
"T 	c #536F90",
"U 	c #606B76",
"V 	c #556A83",
"W 	c #4E7EB7",
"X 	c #658FC0",
"Y 	c #6991C1",
"Z 	c #7B7E7B",
"` 	c #A0A19E",
" .	c #828481",
"..	c #7F807D",
"+.	c #606A75",
"@.	c #737572",
"#.	c #5E6872",
"$.	c #6992C2",
"%.	c #6E95C3",
"&.	c #767976",
"*.	c #9FA09D",
"=.	c #838482",
"-.	c #81827F",
";.	c #7F817E",
">.	c #7E807C",
",.	c #7C7D7B",
"'.	c #4D7EBA",
").	c #5B7FA9",
"!.	c #5D6771",
"~.	c #4D6F97",
"{.	c #6992C1",
"].	c #6D95C3",
"^.	c #7197C4",
"/.	c #797C78",
"(.	c #969794",
"_.	c #7F827E",
":.	c #7D7F7D",
"<.	c #7C7E7B",
"[.	c #7B7D79",
"}.	c #797B78",
"|.	c #787976",
"1.	c #4C7EBA",
"2.	c #497AB8",
"3.	c #8FAED5",
"4.	c #8EA4BE",
"5.	c #C0D1E5",
"6.	c #6D95C2",
"7.	c #759AC6",
"8.	c #7D807C",
"9.	c #8B8C89",
"0.	c #8C928F",
"a.	c #8F9D9E",
"b.	c #929897",
"c.	c #848684",
"d.	c #787A76",
"e.	c #777875",
"f.	c #757673",
"g.	c #C5D4E7",
"h.	c #749AC6",
"i.	c #799CC7",
"j.	c #6B6E6D",
"k.	c #929695",
"l.	c #879597",
"m.	c #B6BCBC",
"n.	c #9BAAAB",
"o.	c #959C9B",
"p.	c #A1A3A0",
"q.	c #979895",
"r.	c #C8D7E9",
"s.	c #799DC8",
"t.	c #7B9FC8",
"u.	c #7C8180",
"v.	c #76888A",
"w.	c #BAC0C1",
"x.	c #C3C5C4",
"y.	c #BABFBE",
"z.	c #95A3A6",
"A.	c #7B8280",
"B.	c #7E807D",
"C.	c #81837F",
"D.	c #6C7781",
"E.	c #57636E",
"F.	c #C8D7E8",
"G.	c #CCDAEA",
"H.	c #789DC7",
"I.	c #7B9EC8",
"J.	c #7B9FC5",
"K.	c #809194",
"L.	c #BAC3C4",
"M.	c #ACB5B6",
"N.	c #AAB6B8",
"O.	c #B7C2C2",
"P.	c #B4BFBF",
"Q.	c #8A9C9F",
"R.	c #757C7B",
"S.	c #747673",
"T.	c #737471",
"U.	c #7C7D7A",
"V.	c #C5D3E4",
"W.	c #CBD8E9",
"X.	c #D0DCEB",
"Y.	c #7C9FC9",
"Z.	c #7CA1C7",
"`.	c #83A7C4",
" +	c #ACB5B7",
".+	c #BBBEBE",
"++	c #AC9B9B",
"@+	c #9A7676",
"#+	c #96696A",
"$+	c #99787A",
"%+	c #A19E9F",
"&+	c #84989B",
"*+	c #787F7E",
"=+	c #777976",
"-+	c #797A77",
";+	c #6E706E",
">+	c #676A69",
",+	c #6A6D6C",
"'+	c #737673",
")+	c #C2CEDE",
"!+	c #CCD9E8",
"~+	c #D4DFED",
"{+	c #7EA2CA",
"]+	c #86ABC9",
"^+	c #AEC4D6",
"/+	c #B1B9BA",
"(+	c #A7AEAE",
"_+	c #9D9B9C",
":+	c #9A9596",
"<+	c #9A797A",
"[+	c #974A4B",
"}+	c #8E3A3B",
"|+	c #938D90",
"1+	c #6C8186",
"2+	c #455153",
"3+	c #434848",
"4+	c #5E615F",
"5+	c #6A6E6D",
"6+	c #939490",
"7+	c #90918E",
"8+	c #8F918D",
"9+	c #7E817D",
"0+	c #C2CDDB",
"a+	c #CFDAE8",
"b+	c #D8E2EE",
"c+	c #8AAECC",
"d+	c #B3C9DC",
"e+	c #B7C9DA",
"f+	c #A2AFB3",
"g+	c #ACBABC",
"h+	c #859A9F",
"i+	c #6A858B",
"j+	c #8BA7AA",
"k+	c #A98283",
"l+	c #7E5B78",
"m+	c #2765B1",
"n+	c #6D8FB0",
"o+	c #949D9A",
"p+	c #718AA6",
"q+	c #5F758D",
"r+	c #959693",
"s+	c #316DB7",
"t+	c #3B73B3",
"u+	c #D3DDE9",
"v+	c #DBE5F0",
"w+	c #BCCEE1",
"x+	c #C1D1E1",
"y+	c #B7CADB",
"z+	c #A2B6C2",
"A+	c #647F86",
"B+	c #6C878F",
"C+	c #768E93",
"D+	c #88A6AC",
"E+	c #B27C7C",
"F+	c #2C69B4",
"G+	c #8FA7BD",
"H+	c #95A3A5",
"I+	c #676B69",
"J+	c #3773BD",
"K+	c #D6DFEB",
"L+	c #DFE8F2",
"M+	c #BDD0E2",
"N+	c #C3D3E3",
"O+	c #B6C8D9",
"P+	c #5A89A1",
"Q+	c #638B9B",
"R+	c #74898E",
"S+	c #74969C",
"T+	c #A5888A",
"U+	c #BD6162",
"V+	c #326EB8",
"W+	c #A2B0BA",
"X+	c #A8B2BA",
"Y+	c #8D9A9D",
"Z+	c #326FBA",
"`+	c #316EB9",
" @	c #9AA1A6",
".@	c #DBE4EA",
"+@	c #E3EAF3",
"@@	c #91B3CF",
"#@	c #BCCFE1",
"$@	c #A3BBCF",
"%@	c #4B85A1",
"&@	c #6E97AE",
"*@	c #95AAB6",
"=@	c #A17377",
"-@	c #AA6364",
";@	c #8D8A8D",
">@	c #7395B4",
",@	c #6689AB",
"'@	c #777E7D",
")@	c #B9C2CE",
"!@	c #E1EAF2",
"~@	c #E6EDF5",
"{@	c #90AFD0",
"]@	c #96B6D1",
"^@	c #B3C8D8",
"/@	c #4E8AA7",
"(@	c #6399B2",
"_@	c #8EA7B9",
":@	c #9E9DAA",
"<@	c #97ADB6",
"[@	c #92A5AA",
"}@	c #98A3A9",
"|@	c #7593B3",
"1@	c #3C77C0",
"2@	c #3D78C1",
"3@	c #404546",
"4@	c #848B91",
"5@	c #CDD6E0",
"6@	c #E7EDF5",
"7@	c #EAF0F7",
"8@	c #97B2D4",
"9@	c #97B4D4",
"0@	c #9CBCD3",
"a@	c #9FBBCD",
"b@	c #6A9CB5",
"c@	c #609BB4",
"d@	c #6C9EB5",
"e@	c #80A4B6",
"f@	c #9EB1BC",
"g@	c #B1BEC8",
"h@	c #8AA3B1",
"i@	c #427FC4",
"j@	c #5E646D",
"k@	c #447DC4",
"l@	c #B6BFCB",
"m@	c #427CC4",
"n@	c #DAE3EC",
"o@	c #EAEFF7",
"p@	c #EEF2F8",
"q@	c #9EB9D7",
"r@	c #A0BFD6",
"s@	c #C7D6E4",
"t@	c #CCD7E3",
"u@	c #CBD7E2",
"v@	c #CFDBE6",
"w@	c #CDDAE5",
"x@	c #4984C7",
"y@	c #95B2D1",
"z@	c #B3BECD",
"A@	c #4A84C6",
"B@	c #4981C7",
"C@	c #E1E9F2",
"D@	c #F2F6FA",
"E@	c #9FB9D7",
"F@	c #A2BBD8",
"G@	c #A5BFDA",
"H@	c #A5C1D7",
"I@	c #CADAE7",
"J@	c #D9E3EE",
"K@	c #D3E0EB",
"L@	c #B3CBDB",
"M@	c #8EB2D8",
"N@	c #5089CA",
"O@	c #4F89CB",
"P@	c #91B3DB",
"Q@	c #D0DCEC",
"R@	c #99B9DE",
"S@	c #9BBBDF",
"T@	c #4E88CA",
"U@	c #A6BEDB",
"V@	c #A9C1DC",
"W@	c #ACC4DD",
"X@	c #ACC6D9",
"Y@	c #D0DEEA",
"Z@	c #B6CEDF",
"`@	c #B8CEE2",
" #	c #C3D3E6",
".#	c #CCDAE9",
"+#	c #D7E1EF",
"@#	c #DFE8F1",
"##	c #A0BFE2",
"$#	c #558ECF",
"%#	c #F2F5F9",
"&#	c #F5F8FB",
"*#	c #FAFBFC",
"  . + @ # $ % & * = - ; > , ' ) ! ! ! ~ { ] ^ / ",
". + ( # _ : < [ } | 1 2 3 ! ! 4 ! 5 ! 6 ! ! / 7 ",
"+ 8 9 $ 0 a b c d e f g ! 5 h ! i j i ! h 5 ! k ",
"l # m n o p q r s t f u ! h j j j j j j j h ! v ",
"w $ % x y g z A B C D E F ! j G H I H J j ! K L ",
"$ M N O y C P Q u R S ! ! i j H T U V W j i ! ! ",
"M X Y Z ` Q u R  .r ..! 5 j j I +.@.#.I j j 5 ! ",
"X $.%.&.*.D =.-.;.>.,.! ! i j '.).!.~.H j i ! ! ",
"{.].^./.(.A _.:.<.[.}.|.U ! 5 G 1.I 2.3.j ! 4.5.",
"6.^.7.8.9.0.a.b.c.d.e.f.! h j j j j j j j h ! g.",
"^.h.i.j.k.l.m.n.o.p.` q.! 5 h ! i j i ! h 5 ! r.",
"7.s.t.u.v.w.x.y.z.A.B...C.! ! D.! 5 ! E.! ! F.G.",
"H.I.J.K.L.M.N.O.P.Q.R.S.T.T.e.U.! ! ! (.d.V.W.X.",
"Y.Z.`. +.+++@+#+$+%+&+*+=+-+;+>+,+'+P (.[.)+!+~+",
"{+]+^+/+(+_+:+<+[+}+|+1+2+3+4+5+6+7+8+9.9+0+a+b+",
"c+d+e+f+g+h+i+j+k+l+m+m+n+o+p+m+m+m+q+r+s+t+u+v+",
"w+x+y+z+A+B+C+D+E+F+F+G+F+H+F+F+F+F+F+I+J+J+K+L+",
"M+N+O+P+Q+R+S+T+U+V+V+W+X+Y+V+Z+..Z+`+ @s+t+.@+@",
"@@#@$@%@&@*@=@-@;@>@J+J+,@'@J+J+,+J+J+)@J+J+!@~@",
"{@]@^@/@(@_@:@<@[@}@|@1@2@3@2@2@4@2@2@5@2@2@6@7@",
"8@9@0@a@b@c@d@e@f@g@h@i@i@j@k@k@l@i@m@n@i@i@o@p@",
"] ^ q@r@s@t@u@v@w@x@y@x@x@z@x@A@x@B@x@C@x@x@p@D@",
"E@F@7 G@H@I@J@K@L@M@N@O@P@Q@R@O@O@O@S@6@O@O@O@T@",
"/ U@V@v W@X@Y@Z@`@ #F..#Q@~++#v+@###$#o@p@%#&#*#"};
