/* XPM */
static char * TZTable.xpm_xpm[] = {
"24 24 369 2",
"  	c #4C7CB5",
". 	c #4F7EB6",
"+ 	c #5381B8",
"@ 	c #5683BA",
"# 	c #5A86BB",
"$ 	c #5E89BC",
"% 	c #618CBE",
"& 	c #668FC0",
"* 	c #6A92C1",
"= 	c #6D95C3",
"- 	c #7197C4",
"; 	c #759AC5",
"> 	c #799CC7",
", 	c #7D9FC9",
"' 	c #80A2CA",
") 	c #84A5CC",
"! 	c #88A8CE",
"~ 	c #8CABCF",
"{ 	c #8FADD1",
"] 	c #93B0D3",
"^ 	c #97B3D4",
"/ 	c #9BB6D5",
"( 	c #9FB8D7",
"_ 	c None",
": 	c #5783B9",
"< 	c #5E8ABC",
"[ 	c #628CBE",
"} 	c #658FBF",
"| 	c #6D94C3",
"1 	c #759AC6",
"2 	c #80A2CB",
"3 	c #7991AC",
"4 	c #66717A",
"5 	c #5B6161",
"6 	c #5A5F5E",
"7 	c #5C6161",
"8 	c #6F7A83",
"9 	c #8CA0B6",
"0 	c #9EB6D3",
"a 	c #A6BEDA",
"b 	c #5684B9",
"c 	c #5A87BB",
"d 	c #6A91C1",
"e 	c #7CA0C9",
"f 	c #84A4CD",
"g 	c #708295",
"h 	c #555753",
"i 	c #7D7D7D",
"j 	c #909090",
"k 	c #AAAAAA",
"l 	c #9B9B9B",
"m 	c #555754",
"n 	c #798590",
"o 	c #AAC1DC",
"p 	c #5784B9",
"q 	c #5E89BD",
"r 	c #88A8CD",
"s 	c #989898",
"t 	c #B4B4B4",
"u 	c #939393",
"v 	c #8C8C8C",
"w 	c #848484",
"x 	c #AEC3DD",
"y 	c #5B86BB",
"z 	c #204A87",
"A 	c #B7B7B7",
"B 	c #888888",
"C 	c #808080",
"D 	c #6E6E6D",
"E 	c #9C9C9C",
"F 	c #B1C6DE",
"G 	c #729FCF",
"H 	c #A3A3A3",
"I 	c #6F706F",
"J 	c #80817F",
"K 	c #9A9A9A",
"L 	c #B5C9E0",
"M 	c #3465A4",
"N 	c #AEAEAE",
"O 	c #ADADAD",
"P 	c #A8A8A8",
"Q 	c #AFAFAF",
"R 	c #8D8E8D",
"S 	c #858585",
"T 	c #B9CCE2",
"U 	c #658FC0",
"V 	c #888A85",
"W 	c #DEDFDB",
"X 	c #BABDB6",
"Y 	c #B1B1B1",
"Z 	c #777777",
"` 	c #787878",
" .	c #787978",
"..	c #979797",
"+.	c #BDCFE4",
"@.	c #6992C1",
"#.	c #EEEEEC",
"$.	c #EBECEB",
"%.	c #F7F7F6",
"&.	c #EFEFED",
"*.	c #F0F0EE",
"=.	c #F0F1EF",
"-.	c #F2F1F0",
";.	c #F3F3F1",
">.	c #A9A9A9",
",.	c #9E9E9E",
"'.	c #929292",
").	c #969696",
"!.	c #818180",
"~.	c #666666",
"{.	c #919191",
"].	c #C0D1E5",
"^.	c #6D95C2",
"/.	c #B4BBB6",
"(.	c #CCDDE0",
"_.	c #E8F0F1",
":.	c #EFEEED",
"<.	c #F1F1EF",
"[.	c #F2F2F0",
"}.	c #F4F4F3",
"|.	c #A7A7A7",
"1.	c #717271",
"2.	c #656663",
"3.	c #676866",
"4.	c #626361",
"5.	c #686868",
"6.	c #949494",
"7.	c #C5D4E7",
"8.	c #B3BBB6",
"9.	c #ACBFC0",
"0.	c #D8DFDF",
"a.	c #B4C6C8",
"b.	c #B1BBB7",
"c.	c #B9BCB6",
"d.	c #A8ABA4",
"e.	c #5B5D59",
"f.	c #A0A0A0",
"g.	c #8E8E8E",
"h.	c #7D7D7C",
"i.	c #9F9F9F",
"j.	c #9B9C9A",
"k.	c #C8D7E9",
"l.	c #E5EAEA",
"m.	c #C7DADE",
"n.	c #D4DDDD",
"o.	c #F4F6F6",
"p.	c #EEF3F4",
"q.	c #C9DBE1",
"r.	c #E2EAEB",
"s.	c #F2F2F1",
"t.	c #F6F6F5",
"u.	c #F6F7F6",
"v.	c #A0A39D",
"w.	c #9D9D9B",
"x.	c #A9AAA8",
"y.	c #CCDAEA",
"z.	c #789DC7",
"A.	c #E5E9E9",
"B.	c #C4D8DD",
"C.	c #DFEBED",
"D.	c #DAE5E4",
"E.	c #E6F4F6",
"F.	c #EBF8FA",
"G.	c #E7F5F6",
"H.	c #C8DEE3",
"I.	c #E4EBEC",
"J.	c #F4F4F2",
"K.	c #F7F8F7",
"L.	c #F9F9F8",
"M.	c #F9FAF8",
"N.	c #FAF9F9",
"O.	c #D0DCEB",
"P.	c #7C9FC9",
"Q.	c #858B88",
"R.	c #BACFD2",
"S.	c #CDD9DA",
"T.	c #D0D4D4",
"U.	c #C4AEAE",
"V.	c #BA8B8B",
"W.	c #BA8080",
"X.	c #C09596",
"Y.	c #C5C1C2",
"Z.	c #AFC9CA",
"`.	c #B0BBB7",
" +	c #D4DFED",
".+	c #7DA2CA",
"++	c #8CA1A4",
"@+	c #DDE8EA",
"#+	c #E1EAEC",
"$+	c #CDD4D6",
"%+	c #AEACAD",
"&+	c #B9B2B5",
"*+	c #BA9093",
"=+	c #CB6668",
"-+	c #C65A5C",
";+	c #D1C7CA",
">+	c #C8DFE3",
",+	c #E2E9EB",
"'+	c #F3F3F2",
")+	c #F4F5F3",
"!+	c #F5F5F4",
"~+	c #F6F6F4",
"{+	c #D8E2EE",
"]+	c #8CB1CC",
"^+	c #C2CCCD",
"/+	c #E6EDEE",
"(+	c #DAE6E9",
"_+	c #CDDFE2",
":+	c #9AB5BA",
"<+	c #86A8B1",
"[+	c #AACDD3",
"}+	c #C79497",
"|+	c #D1575A",
"1+	c #C98C8E",
"2+	c #E9F6F7",
"3+	c #E4ECED",
"4+	c #DBE5F0",
"5+	c #CAD9E7",
"6+	c #D0D4D3",
"7+	c #E0E8E9",
"8+	c #BCCBCD",
"9+	c #7C9EA5",
"0+	c #70939D",
"a+	c #81A0A7",
"b+	c #9BC3C9",
"c+	c #CC8888",
"d+	c #CD4E4E",
"e+	c #BA9A9A",
"f+	c #DDE7E7",
"g+	c #DFE5E3",
"h+	c #B5C7C9",
"i+	c #B2BCB8",
"j+	c #DEE7F1",
"k+	c #CAD8E5",
"l+	c #D1D5D5",
"m+	c #DFE6E8",
"n+	c #6E9DAA",
"o+	c #80AAB7",
"p+	c #92ACB1",
"q+	c #A3CCD4",
"r+	c #D4AEB2",
"s+	c #F47E81",
"t+	c #CD9EA0",
"u+	c #DBEDEF",
"v+	c #EFF6F7",
"w+	c #F2F7F8",
"x+	c #D3E4E9",
"y+	c #EEF6F7",
"z+	c #FEFEFE",
"A+	c #FEFEFF",
"B+	c #FFFFFF",
"C+	c #D7DEE6",
"D+	c #88AAC1",
"E+	c #C5CDCE",
"F+	c #C3D3D7",
"G+	c #548FA1",
"H+	c #84AEBA",
"I+	c #BACCCF",
"J+	c #D6989C",
"K+	c #E38689",
"L+	c #C1BBBE",
"M+	c #CFE4E7",
"N+	c #E2EEEE",
"O+	c #C8DADF",
"P+	c #DFE6E7",
"Q+	c #EDEDEB",
"R+	c #C7CDD4",
"S+	c #7D9AB7",
"T+	c #8EA1A4",
"U+	c #B5C1C1",
"V+	c #337385",
"W+	c #508797",
"X+	c #8CA1A8",
"Y+	c #A79C9E",
"Z+	c #A7BDC1",
"`+	c #B0C4C7",
" @	c #C0CBCD",
".@	c #C2CDCE",
"+@	c #97ACAF",
"@@	c #848D8B",
"#@	c #878A85",
"$@	c #C8CED4",
"%@	c #8DA6C6",
"&@	c #7D95B1",
"*@	c #86A4B5",
"=@	c #93ADB9",
"-@	c #4D869B",
";@	c #41849B",
">@	c #548DA1",
",@	c #7198A8",
"'@	c #9EB2BB",
")@	c #BECBD2",
"!@	c #94ADB9",
"~@	c #7F919F",
"{@	c #84909C",
"]@	c #88929E",
"^@	c #8B949F",
"/@	c #8D96A0",
"(@	c #8E959E",
"_@	c #9199A2",
":@	c #979EA5",
"<@	c #9EA4AB",
"[@	c #A0A6AC",
"}@	c #A7ABB1",
"|@	c #BDC1C7",
"1@	c #DFE2E8",
"2@	c #9AB5D4",
"3@	c #9AB2D0",
"4@	c #97B2CF",
"5@	c #9ABACF",
"6@	c #CEDAE4",
"7@	c #D2DAE1",
"8@	c #D0DAE2",
"9@	c #D6E0E8",
"0@	c #D3E0E7",
"a@	c #AAC5D4",
"b@	c #ABC1D3",
"c@	c #B7C6D8",
"d@	c #BBC9DA",
"e@	c #BFCBDB",
"f@	c #C2CFDD",
"g@	c #C7D1DF",
"h@	c #CAD4E0",
"i@	c #CDD6E0",
"j@	c #D1D8E2",
"k@	c #D4DCE4",
"l@	c #D8DFE6",
"m@	c #DCE1E7",
"n@	c #E5E9EF",
"o@	c #F1F5F9",
"p@	c #9FB9D7",
"q@	c #A2BBD8",
"r@	c #A4BFD9",
"s@	c #A2C1D5",
"t@	c #D1E0EA",
"u@	c #E3EBF2",
"v@	c #DBE5EE",
"w@	c #B0CBD9",
"x@	c #B6CCE0",
"y@	c #C3D3E6",
"z@	c #C8D7E8",
"A@	c #CCD9E9",
"B@	c #D0DCEC",
"C@	c #D3DFED",
"D@	c #D7E2EE",
"E@	c #DFE7F2",
"F@	c #E2EBF3",
"G@	c #E7EDF5",
"H@	c #EAF0F6",
"I@	c #EEF3F7",
"J@	c #F2F6F9",
"K@	c #F6F8FB",
"L@	c #A6BEDB",
"M@	c #A9C1DC",
"N@	c #ABC3DC",
"O@	c #A9C6D8",
"P@	c #D7E4EC",
"Q@	c #B4CDDE",
"R@	c #B6CDE2",
"S@	c #CCDAE9",
"T@	c #D7E1EF",
"U@	c #DFE8F1",
"V@	c #E3EAF3",
"W@	c #E7EDF4",
"X@	c #EAEFF7",
"Y@	c #EEF2F8",
"Z@	c #F2F5F9",
"`@	c #F5F8FB",
" #	c #FAFBFC",
"  . + @ # $ % & * = - ; > , ' ) ! ~ { ] ^ / ( _ ",
". + : # < [ } * | - 1 > , 2 ) 3 4 5 6 7 8 9 0 a ",
"+ b c $ [ & d | - ; > e 2 f g h i j k l h m n o ",
"p # q [ } d | - 1 > , 2 ) r h s t u v w s u h x ",
"y z z z z z z z z z z z z z h A s j B C D E h F ",
"$ z G G G G G G G G G G G G h t H v w I J K h L ",
"[ z G M M M M M M M M M M M h N O P Q R S u h T ",
"U V W X X X X X X X X X X X h Y Z ` ` Z  ...h +.",
"@.V #.#.#.X $.%.&.&.*.=.-.;.h >.,.'.).!.~.{.h ].",
"^.V #.#.#./.(._.:.=.<.[.-.}.h |.1.2.3.4.5.6.h 7.",
"- V W X 8.9.0.a.b.c.X X X X d.e.f.g.j h.i.h j.k.",
"1 V #.l.m.n.o.p.q.r.s.}.-.t.u.v.w.h h h h x.V y.",
"z.V A.B.C.D.E.F.G.H.I.J.-.%.K.X L.M.L.M.N.#.V O.",
"P.Q.R.S.T.U.V.W.X.Y.Z.`.c.X X X X X X X X W V  +",
".+++@+#+$+%+&+*+=+-+;+>+,+[.'+X )+!+)+!+~+#.V {+",
"]+^+/+(+_+:+<+[+}+|+1+2+q.3+J.X !+t.!+t.%.#.V 4+",
"5+6+7+8+9+0+a+b+c+d+e+f+g+h+i+X X X X X X W V j+",
"k+l+m+n+o+p+q+r+s+t+u+v+w+x+y+X z+A+z+A+B+#.V C+",
"D+E+F+G+H+I+J+K+L+M+N+/+O+P+Q+W #.#.#.#.#.#.V R+",
"S+T+U+V+W+X+Y+Z+`+ @.@+@@@#@V V V V V V V V V $@",
"%@&@*@=@-@;@>@,@'@)@!@~@{@]@^@/@(@_@:@<@[@}@|@1@",
"2@3@4@5@6@7@8@9@0@a@b@c@d@e@f@g@h@i@j@k@l@m@n@o@",
"p@q@a r@s@t@u@v@w@x@y@z@A@B@C@D@4+E@F@G@H@I@J@K@",
"_ L@M@x N@O@P@Q@R@y@z@S@B@ +T@4+U@V@W@X@Y@Z@`@ #"};
