/* XPM */
static char * TZUpdateSql.xpm_xpm[] = {
"24 24 408 2",
"  	c #4C7CB5",
". 	c #4F7EB6",
"+ 	c #5381B8",
"@ 	c #5683BA",
"# 	c #5A86BB",
"$ 	c #5E89BC",
"% 	c #618CBE",
"& 	c #668FC0",
"* 	c #6A92C1",
"= 	c #6D95C3",
"- 	c #7197C4",
"; 	c #759AC5",
"> 	c #799CC7",
", 	c #7D9FC9",
"' 	c #80A2CA",
") 	c #84A5CC",
"! 	c #88A8CE",
"~ 	c #8CABCF",
"{ 	c #8FADD1",
"] 	c #93B0D3",
"^ 	c #97B3D4",
"/ 	c #9BB6D5",
"( 	c #9FB8D7",
"_ 	c None",
": 	c #5783B9",
"< 	c #5E8ABC",
"[ 	c #628CBE",
"} 	c #658FBF",
"| 	c #6D94C3",
"1 	c #759AC6",
"2 	c #80A2CB",
"3 	c #668CAA",
"4 	c #18585B",
"5 	c #0A4847",
"6 	c #144D4B",
"7 	c #40504F",
"8 	c #5C6161",
"9 	c #6F7A83",
"0 	c #8CA0B6",
"a 	c #769DB2",
"b 	c #A6BEDA",
"c 	c #5684B9",
"d 	c #5A87BB",
"e 	c #6A91C1",
"f 	c #7CA0C9",
"g 	c #5C89A4",
"h 	c #257D80",
"i 	c #4AA19E",
"j 	c #61B2B1",
"k 	c #5AABAA",
"l 	c #388D8C",
"m 	c #457270",
"n 	c #51534F",
"o 	c #40504E",
"p 	c #346A6D",
"q 	c #AAC1DC",
"r 	c #5784B9",
"s 	c #5E89BD",
"t 	c #6F95B5",
"u 	c #208785",
"v 	c #63B4B3",
"w 	c #58ADAC",
"x 	c #71BCBA",
"y 	c #B3DDDC",
"z 	c #F9FCFC",
"A 	c #8CCAC9",
"B 	c #1C7674",
"C 	c #167E7D",
"D 	c #1C615E",
"E 	c #AEC3DD",
"F 	c #5B86BB",
"G 	c #204A87",
"H 	c #14607A",
"I 	c #1D8583",
"J 	c #0A6A68",
"K 	c #285655",
"L 	c #496B6B",
"M 	c #2E8281",
"N 	c #5EB1AF",
"O 	c #F7FAFA",
"P 	c #CBE8E8",
"Q 	c #BFE3E2",
"R 	c #206966",
"S 	c #B1C6DE",
"T 	c #729FCF",
"U 	c #20737C",
"V 	c #0A6C6A",
"W 	c #1E7674",
"X 	c #789D9D",
"Y 	c #A3A3A3",
"Z 	c #888888",
"` 	c #4D5E5E",
" .	c #2A8F8D",
"..	c #F3FAFA",
"+.	c #EEF7F7",
"@.	c #206765",
"#.	c #B5C9E0",
"$.	c #3465A4",
"%.	c #1F6988",
"&.	c #34739F",
"*.	c #555753",
"=.	c #AEAEAE",
"-.	c #ADADAD",
";.	c #A8A8A8",
">.	c #377272",
",.	c #45A2A0",
"'.	c #A7D7D7",
").	c #87C8C7",
"!.	c #1B6462",
"~.	c #B9CCE2",
"{.	c #658FC0",
"].	c #888A85",
"^.	c #DEDFDB",
"/.	c #BABDB6",
"(.	c #A98A85",
"_.	c #8E6663",
":.	c #58312F",
"<.	c #976262",
"[.	c #804B4A",
"}.	c #785454",
"|.	c #3A7271",
"1.	c #3B7473",
"2.	c #3D6564",
"3.	c #476E6E",
"4.	c #3A5855",
"5.	c #BDCFE4",
"6.	c #6992C1",
"7.	c #EEEEEC",
"8.	c #EBECEB",
"9.	c #F7F7F6",
"0.	c #EFEFED",
"a.	c #F0F0EE",
"b.	c #F0F1EF",
"c.	c #A74847",
"d.	c #D58E8E",
"e.	c #DFA7A7",
"f.	c #BB5757",
"g.	c #902929",
"h.	c #929292",
"i.	c #969696",
"j.	c #818180",
"k.	c #666666",
"l.	c #929191",
"m.	c #6B3533",
"n.	c #C0D1E5",
"o.	c #6D95C2",
"p.	c #B4BBB6",
"q.	c #CCDDE0",
"r.	c #E8F0F1",
"s.	c #EFEEED",
"t.	c #F1F1EF",
"u.	c #F2F2F0",
"v.	c #AF5A5A",
"w.	c #FAF0F0",
"x.	c #F8F2F2",
"y.	c #AD3D3D",
"z.	c #6B3E3D",
"A.	c #656663",
"B.	c #676866",
"C.	c #704C4B",
"D.	c #993838",
"E.	c #A03D3D",
"F.	c #7F1D1C",
"G.	c #C5D4E7",
"H.	c #B3BBB6",
"I.	c #ACBFC0",
"J.	c #D8DFDF",
"K.	c #B4C6C8",
"L.	c #B1BBB7",
"M.	c #B9BCB6",
"N.	c #9F4B48",
"O.	c #EFD1D1",
"P.	c #F2D9D9",
"Q.	c #FDF9F9",
"R.	c #BF5F5F",
"S.	c #974141",
"T.	c #855353",
"U.	c #832020",
"V.	c #8D0E0E",
"W.	c #941717",
"X.	c #944B4A",
"Y.	c #C8D7E9",
"Z.	c #E5EAEA",
"`.	c #C7DADE",
" +	c #D4DDDD",
".+	c #F4F6F6",
"++	c #EEF3F4",
"@+	c #C9DBE1",
"#+	c #E2EAEB",
"$+	c #F2F2F1",
"%+	c #F4F4F3",
"&+	c #B05656",
"*+	c #AB3A3A",
"=+	c #A13333",
"-+	c #D89595",
";+	c #F3DCDC",
">+	c #DC9F9F",
",+	c #C56B6B",
"'+	c #B85151",
")+	c #9F2727",
"!+	c #877975",
"~+	c #CCDAEA",
"{+	c #789DC7",
"]+	c #E5E9E9",
"^+	c #C4D8DD",
"/+	c #DFEBED",
"(+	c #DAE5E4",
"_+	c #E6F4F6",
":+	c #EBF8FA",
"<+	c #E7F5F6",
"[+	c #C8DEE3",
"}+	c #E4EBEC",
"|+	c #F4F4F2",
"1+	c #B87170",
"2+	c #D2A7A7",
"3+	c #F5F6F5",
"4+	c #9E5754",
"5+	c #B75E5E",
"6+	c #C36E6D",
"7+	c #C47070",
"8+	c #BF6767",
"9+	c #B65D5D",
"0+	c #D2AEAD",
"a+	c #D0DCEB",
"b+	c #7C9FC9",
"c+	c #858B88",
"d+	c #BACFD2",
"e+	c #CDD9DA",
"f+	c #D0D4D4",
"g+	c #C4AEAE",
"h+	c #BA8B8B",
"i+	c #BA8080",
"j+	c #C09596",
"k+	c #C5C1C2",
"l+	c #AFC9CA",
"m+	c #B0BBB7",
"n+	c #D4DFED",
"o+	c #7DA2CA",
"p+	c #8CA1A4",
"q+	c #DDE8EA",
"r+	c #E1EAEC",
"s+	c #CDD4D6",
"t+	c #AEACAD",
"u+	c #B9B2B5",
"v+	c #BA9093",
"w+	c #CB6668",
"x+	c #C65A5C",
"y+	c #D0C6C9",
"z+	c #C7DEE2",
"A+	c #E1E8EA",
"B+	c #F3F3F2",
"C+	c #B9BCB5",
"D+	c #F4F5F3",
"E+	c #F5F5F4",
"F+	c #F6F6F4",
"G+	c #D8E2EE",
"H+	c #8CB1CC",
"I+	c #C2CCCD",
"J+	c #E6EDEE",
"K+	c #DAE6E9",
"L+	c #CDDFE2",
"M+	c #9AB5BA",
"N+	c #86A8B1",
"O+	c #AACDD3",
"P+	c #C79497",
"Q+	c #8F5C7B",
"R+	c #2765B1",
"S+	c #87ABCD",
"T+	c #E4ECED",
"U+	c #A4BCD8",
"V+	c #ABC0DA",
"W+	c #F6F6F5",
"X+	c #316DB7",
"Y+	c #3B73B3",
"Z+	c #DBE5F0",
"`+	c #CAD9E7",
" @	c #D0D4D3",
".@	c #E0E8E9",
"+@	c #BCCBCD",
"@@	c #7C9EA5",
"#@	c #70939D",
"$@	c #81A0A7",
"%@	c #9BC3C9",
"&@	c #CC8888",
"*@	c #2C69B4",
"=@	c #A8C1D7",
"-@	c #B5C7C9",
";@	c #3773BD",
">@	c #DEE7F1",
",@	c #CAD8E5",
"'@	c #D1D5D5",
")@	c #DFE6E8",
"!@	c #6E9DAA",
"~@	c #80AAB7",
"{@	c #92ACB1",
"]@	c #A3CCD4",
"^@	c #D4AEB2",
"/@	c #F47E81",
"(@	c #326EB8",
"_@	c #D4E2EE",
":@	c #DCE8F1",
"<@	c #D3E4E9",
"[@	c #326FBA",
"}@	c #FEFEFE",
"|@	c #316EB9",
"1@	c #FEFEFF",
"2@	c #8A8B83",
"3@	c #D7DEE6",
"4@	c #88AAC1",
"5@	c #C5CDCE",
"6@	c #C3D3D7",
"7@	c #548FA1",
"8@	c #84AEBA",
"9@	c #BACCCF",
"0@	c #D6989C",
"a@	c #E38689",
"b@	c #C1BBBE",
"c@	c #91B5D5",
"d@	c #87ACCF",
"e@	c #DFE6E7",
"f@	c #C7CDD4",
"g@	c #7D9AB7",
"h@	c #8EA1A4",
"i@	c #B5C1C1",
"j@	c #337385",
"k@	c #508797",
"l@	c #8CA1A8",
"m@	c #A79C9E",
"n@	c #A7BDC1",
"o@	c #B0C4C7",
"p@	c #BCC8CC",
"q@	c #88A8C8",
"r@	c #3C77C0",
"s@	c #3D78C1",
"t@	c #878A85",
"u@	c #C8CED4",
"v@	c #8DA6C6",
"w@	c #7D95B1",
"x@	c #86A4B5",
"y@	c #93ADB9",
"z@	c #4D869B",
"A@	c #41849B",
"B@	c #548DA1",
"C@	c #7198A8",
"D@	c #9EB2BB",
"E@	c #BCCAD1",
"F@	c #90ABB9",
"G@	c #427FC4",
"H@	c #88929E",
"I@	c #447DC4",
"J@	c #8E959E",
"K@	c #427CC4",
"L@	c #9EA4AB",
"M@	c #BDC1C7",
"N@	c #DFE2E8",
"O@	c #9AB5D4",
"P@	c #9AB2D0",
"Q@	c #97B2CF",
"R@	c #9ABACF",
"S@	c #CEDAE4",
"T@	c #D2DAE1",
"U@	c #D0DAE2",
"V@	c #D6E0E8",
"W@	c #D3E0E7",
"X@	c #4984C7",
"Y@	c #93B1D0",
"Z@	c #BFCBDB",
"`@	c #4A84C6",
" #	c #4981C7",
".#	c #D4DCE4",
"+#	c #E5E9EF",
"@#	c #F1F5F9",
"##	c #9FB9D7",
"$#	c #A2BBD8",
"%#	c #A4BFD9",
"&#	c #A2C1D5",
"*#	c #D1E0EA",
"=#	c #E3EBF2",
"-#	c #DBE5EE",
";#	c #B0CBD9",
">#	c #8DB1D7",
",#	c #5089CA",
"'#	c #4F89CB",
")#	c #91B3DB",
"!#	c #D0DCEC",
"~#	c #99B9DE",
"{#	c #9BBBDF",
"]#	c #E7EDF5",
"^#	c #4E88CA",
"/#	c #A6BEDB",
"(#	c #A9C1DC",
"_#	c #ABC3DC",
":#	c #A9C6D8",
"<#	c #D7E4EC",
"[#	c #B4CDDE",
"}#	c #B6CDE2",
"|#	c #C3D3E6",
"1#	c #C8D7E8",
"2#	c #CCDAE9",
"3#	c #D7E1EF",
"4#	c #DFE8F1",
"5#	c #A0BFE2",
"6#	c #558ECF",
"7#	c #EAEFF7",
"8#	c #EEF2F8",
"9#	c #F2F5F9",
"0#	c #F5F8FB",
"a#	c #FAFBFC",
"  . + @ # $ % & * = - ; > , ' ) ! ~ { ] ^ / ( _ ",
". + : # < [ } * | - 1 > , 2 3 4 5 6 7 8 9 0 a b ",
"+ c d $ [ & e | - ; > f 2 g h i j k l m n o p q ",
"r # s [ } e | - 1 > , 2 t u v w x y z A B C D E ",
"F G G G G G G G G G G G H I J K L M N O P Q R S ",
"$ G T T T T T T T T T T U V W X Y Z `  ...+.@.#.",
"[ G T $.$.$.$.$.$.$.$.$.%.&.*.=.-.;.>.,.'.).!.~.",
"{.].^./././././././././.(._.:.<.[.}.|.1.2.3.4.5.",
"6.].7.7.7./.8.9.0.0.a.b.c.d.e.f.g.h.i.j.k.l.m.n.",
"o.].7.7.7.p.q.r.s.b.t.u.v.w.x.y.z.A.B.C.D.E.F.G.",
"- ].^./.H.I.J.K.L.M././.N.O.P.Q.R.S.T.U.V.W.X.Y.",
"1 ].7.Z.`. +.+++@+#+$+%+&+*+=+-+;+>+,+'+f.)+!+~+",
"{+].]+^+/+(+_+:+<+[+}+|+1+2+3+4+5+6+7+8+9+0+].a+",
"b+c+d+e+f+g+h+i+j+k+l+m+M././././././././.^.].n+",
"o+p+q+r+s+t+u+v+w+x+y+z+A+u.B+C+D+E+D+E+F+7.].G+",
"H+I+J+K+L+M+N+O+P+Q+R+R+S+T+U+R+R+R+V+W+X+Y+].Z+",
"`+ @.@+@@@#@$@%@&@*@*@=@*@-@*@*@*@*@*@/.;@;@].>@",
",@'@)@!@~@{@]@^@/@(@(@_@:@<@(@[@}@[@|@1@X+Y+2@3@",
"4@5@6@7@8@9@0@a@b@c@;@;@d@e@;@;@7.;@;@7.;@;@].f@",
"g@h@i@j@k@l@m@n@o@p@q@r@s@t@s@s@].s@s@].s@s@].u@",
"v@w@x@y@z@A@B@C@D@E@F@G@G@H@I@I@J@G@K@L@G@G@M@N@",
"O@P@Q@R@S@T@U@V@W@X@Y@X@X@Z@X@`@X@ #X@.#X@X@+#@#",
"##$#b %#&#*#=#-#;#>#,#'#)#!#~#'#'#'#{#]#'#'#'#^#",
"_ /#(#E _#:#<#[#}#|#1#2#!#n+3#Z+4#5#6#7#8#9#0#a#"};
