/* XPM */
static char * TUIBSecurity_xpm[] = {
"22 22 322 2",
"  	c #E0C000",
". 	c #E0CA00",
"+ 	c #E0E000",
"@ 	c #DFDF00",
"# 	c #DEDE00",
"$ 	c #DDDD00",
"% 	c #DEE000",
"& 	c #C7E000",
"* 	c #C0E000",
"= 	c #DCDC00",
"- 	c #C0CB12",
"; 	c #AABC1F",
"> 	c #BBC225",
", 	c #C0C329",
"' 	c #BCC127",
") 	c #B5BB17",
"! 	c #C0C000",
"~ 	c #D2D200",
"{ 	c #DADD00",
"] 	c #C9E000",
"^ 	c #B9C617",
"/ 	c #3F8B7D",
"( 	c #167CBB",
"_ 	c #A6CED1",
": 	c #D6EAD8",
"< 	c #D7EAD8",
"[ 	c #C3DFD4",
"} 	c #83AC99",
"| 	c #7F8C1E",
"1 	c #A9AC00",
"2 	c #BBD000",
"3 	c #BEDE00",
"4 	c #D9D900",
"5 	c #689F5B",
"6 	c #0070B8",
"7 	c #187FBE",
"8 	c #94C5CF",
"9 	c #B9DAD5",
"0 	c #B9DAD4",
"a 	c #AFD5D2",
"b 	c #70B0C8",
"c 	c #3A716E",
"d 	c #6A7600",
"e 	c #9EB900",
"f 	c #BBDA00",
"g 	c #D4D400",
"h 	c #629A5D",
"i 	c #0072BB",
"j 	c #147FC0",
"k 	c #7CB9CE",
"l 	c #9BCBD2",
"m 	c #9BCAD2",
"n 	c #93C5D0",
"o 	c #5EA7C7",
"p 	c #235E6F",
"q 	c #445000",
"r 	c #8CA400",
"s 	c #B8D700",
"t 	c #D1D100",
"u 	c #5F985E",
"v 	c #0074BD",
"w 	c #117EC2",
"x 	c #64ACCC",
"y 	c #7EBBCF",
"z 	c #7EBBD0",
"A 	c #7EBACF",
"B 	c #77B6CD",
"C 	c #4C9EC6",
"D 	c #1A576F",
"E 	c #374000",
"F 	c #849A00",
"G 	c #B6D400",
"H 	c #5F985F",
"I 	c #0276BF",
"J 	c #0F7EC3",
"K 	c #4EA1CB",
"L 	c #61ACCE",
"M 	c #5CA8CB",
"N 	c #3B95C5",
"O 	c #165570",
"P 	c #353E00",
"Q 	c #829700",
"R 	c #DDDD17",
"S 	c #C9CA85",
"T 	c #B9BC77",
"U 	c #B8BA76",
"V 	c #96A896",
"W 	c #7197B6",
"X 	c #7DA2BD",
"Y 	c #B2BFB6",
"Z 	c #C6C5A9",
"` 	c #4FA2CB",
" .	c #449ECE",
"..	c #449DCC",
"+.	c #3F99CA",
"@.	c #278BC5",
"#.	c #135471",
"$.	c #363F01",
"%.	c #DFDF0D",
"&.	c #CAD1A8",
"*.	c #9EB0C2",
"=.	c #868989",
"-.	c #5D605E",
";.	c #5D5F60",
">.	c #827D78",
",.	c #A59FA2",
"'.	c #B6B2A8",
").	c #F3BC6E",
"!.	c #9F9270",
"~.	c #218CCC",
"{.	c #218ACA",
"].	c #1F88C8",
"^.	c #1581C4",
"/.	c #125473",
"(.	c #384003",
"_.	c #829701",
":.	c #DDDD11",
"<.	c #B2B9C5",
"[.	c #83929F",
"}.	c #777779",
"|.	c #A4A4A5",
"1.	c #BEB1A2",
"2.	c #E0CFA5",
"3.	c #E2DBA3",
"4.	c #9EA2A8",
"5.	c #CF975B",
"6.	c #D28B38",
"7.	c #71899B",
"8.	c #1987CA",
"9.	c #1785C8",
"0.	c #1582C5",
"a.	c #165775",
"b.	c #3A4205",
"c.	c #839801",
"d.	c #DEDE10",
"e.	c #C9CACB",
"f.	c #DCDBE0",
"g.	c #D5D0D1",
"h.	c #E7CFBD",
"i.	c #FCE1C0",
"j.	c #FED998",
"k.	c #E5C977",
"l.	c #93939A",
"m.	c #B48346",
"n.	c #F7AB3F",
"o.	c #756853",
"p.	c #238CCB",
"q.	c #208AC9",
"r.	c #1D86C7",
"s.	c #1E5C78",
"t.	c #3E4709",
"u.	c #839902",
"v.	c #DFDF12",
"w.	c #DAD7DA",
"x.	c #D7D6DB",
"y.	c #A19C95",
"z.	c #D6C48D",
"A.	c #FFD07D",
"B.	c #E39640",
"C.	c #A08878",
"D.	c #978F7E",
"E.	c #DCAC64",
"F.	c #F9B551",
"G.	c #8D6B38",
"H.	c #7C8B96",
"I.	c #2E90CA",
"J.	c #2A8CC7",
"K.	c #27627B",
"L.	c #424A0D",
"M.	c #849904",
"N.	c #BEE000",
"O.	c #A2E000",
"P.	c #D8D8D8",
"Q.	c #CBCACD",
"R.	c #9C9E9E",
"S.	c #C4B78D",
"T.	c #FACA64",
"U.	c #EFA43F",
"V.	c #CDA95C",
"W.	c #EBD884",
"X.	c #FBB451",
"Y.	c #C98832",
"Z.	c #4C4438",
"`.	c #758F9F",
" +	c #3A97CA",
".+	c #3592C7",
"++	c #30687D",
"@+	c #454E11",
"#+	c #859A05",
"$+	c #BCE000",
"%+	c #A4E000",
"&+	c #A0E000",
"*+	c #E0E00E",
"=+	c #DBDCAC",
"-+	c #C4C4C4",
";+	c #C0BEC2",
">+	c #D8CDC2",
",+	c #ECC783",
"'+	c #FCBC52",
")+	c #F3CE67",
"!+	c #EDD574",
"~+	c #EDAC45",
"{+	c #C9892B",
"]+	c #6E6656",
"^+	c #479ECB",
"/+	c #439BC9",
"(+	c #389FCB",
"_+	c #28919E",
":+	c #367C4F",
"<+	c #64B444",
"[+	c #88DF40",
"}+	c #7EE840",
"|+	c #78E840",
"1+	c #DBDB14",
"2+	c #B9B981",
"3+	c #959495",
"4+	c #9E9B9E",
"5+	c #BFAD94",
"6+	c #D2AA60",
"7+	c #A47F40",
"8+	c #9C7B45",
"9+	c #E4B055",
"0+	c #E59D34",
"a+	c #A98845",
"b+	c #5E97B2",
"c+	c #489DC8",
"d+	c #2DBBD9",
"e+	c #12DCED",
"f+	c #2BAAD5",
"g+	c #CBCC0C",
"h+	c #878D2E",
"i+	c #929B64",
"j+	c #A7A6A5",
"k+	c #8F887B",
"l+	c #59544F",
"m+	c #5E7176",
"n+	c #C4AA7A",
"o+	c #EDB659",
"p+	c #D9A447",
"q+	c #79776A",
"r+	c #4A9CC6",
"s+	c #2EBBD8",
"t+	c #3595CA",
"u+	c #800080",
"v+	c #A85058",
"w+	c #891277",
"x+	c #DCE000",
"y+	c #CBE000",
"z+	c #BACC4A",
"A+	c #B1B1B1",
"B+	c #949796",
"C+	c #696A6B",
"D+	c #4F8CAB",
"E+	c #85ACBA",
"F+	c #D8BA75",
"G+	c #EEB85B",
"H+	c #817043",
"I+	c #588BA6",
"J+	c #2DB9D6",
"K+	c #DFBF20",
"L+	c #952A6B",
"M+	c #DDE000",
"N+	c #CAE000",
"O+	c #C1D351",
"P+	c #C2C2C2",
"Q+	c #ABABAB",
"R+	c #6C6C6C",
"S+	c #466261",
"T+	c #436768",
"U+	c #CBB385",
"V+	c #F1C574",
"W+	c #B19150",
"X+	c #666D6F",
"Y+	c #299797",
"Z+	c #C5D855",
"`+	c #CBCBCB",
" @	c #BBBABB",
".@	c #686A68",
"+@	c #535D21",
"@@	c #576118",
"#@	c #88883C",
"$@	c #D7B873",
"%@	c #B49C5A",
"&@	c #5C5D4B",
"*@	c #3A9663",
"=@	c #AA5555",
"-@	c #A3475C",
";@	c #C8DB58",
">@	c #D7D6D7",
",@	c #CCC9CC",
"'@	c #686968",
")@	c #7E9113",
"!@	c #93AA06",
"~@	c #92AA06",
"{@	c #A7B322",
"]@	c #645F45",
"^@	c #626F43",
"/@	c #55C858",
"(@	c #BF7F40",
"_@	c #B56A4B",
":@	c #C2DF0F",
"<@	c #AFBD5F",
"[@	c #7B7B7B",
"}@	c #434343",
"|@	c #99B00D",
"1@	c #BBDA01",
"2@	c #BAD901",
"3@	c #A8C70A",
"4@	c #96CE0B",
"5@	c #68E755",
"6@	c #8B1575",
"7@	c #C78E39",
"8@	c #EAD415",
"9@	c #84077C",
"0@	c #DB24A1",
"a@	c #BEDD06",
"b@	c #9DAA54",
"c@	c #858785",
"d@	c #B1CA21",
"e@	c #6BEA55",
"f@	c #860C7A",
"g@	c #83057D",
"    . + + + @ # $ $ $ $ $ $ $ # @ + % & * * ",
"  . + + + = - ; > , , , , ' ) ! ~ { ] * * * ",
". + + + $ ^ / ( _ : < < < [ } | 1 2 3 * * * ",
"+ + + + 4 5 6 7 8 9 9 9 0 a b c d e f * * * ",
"+ + + + g h i j k l l l m n o p q r s * * * ",
"+ + + + t u v w x y z z A B C D E F G * * * ",
"+ + + + t H I J K L L L L M N O P Q G * * * ",
"+ R S T U V W X Y Z `  ...+.@.#.$.Q G * * * ",
"%.&.*.=.-.;.>.,.'.).!.~.{.].^./.(._.G * * * ",
":.<.[.}.|.1.2.3.4.5.6.7.8.9.0.a.b.c.G * * * ",
"d.e.f.g.h.i.j.k.l.m.n.o.p.q.r.s.t.u.G * * * ",
"v.w.x.y.z.A.B.C.D.E.F.G.H.I.J.K.L.M.G * N.O.",
"v.P.Q.R.S.T.U.V.W.X.Y.Z.`. +.+++@+#+G $+%+&+",
"*+=+-+;+>+,+'+)+!+~+{+]+^+/+(+_+:+<+[+}+|+|+",
"+ 1+2+3+4+5+6+7+8+9+0+a+b+c+d+e+f+f+f+f+f+f+",
"+ + g+h+i+j+k+l+m+n+o+p+q+r+s+t+u+u+u+v+w+u+",
"+ + x+y+z+A+B+C+D+E+F+G+H+I+J+t+u+u+u+K+L+u+",
"+ M+N+* O+P+Q+R+S+T+U+V+W+X+Y+t+u+u+u+K+L+u+",
"% ] * * Z+`+ @.@+@@@#@$@%@&@*@t+=@-@u+K+L+u+",
"& * * * ;@>@,@'@)@!@~@{@]@^@/@t+(@_@u+K+L+u+",
"* * * * :@<@[@}@|@f 1@2@3@4@5@t+6@7@8@=@9@u+",
"0@* * * * a@b@c@d@* * N.O.&+e@t+u+f@6@g@u+u+"};
