/* XPM */
static char * TUIBEvents_xpm[] = {
"22 22 309 2",
"  	c #E0C000",
". 	c #E0CA00",
"+ 	c #E0E000",
"@ 	c #DFDF00",
"# 	c #DEDE00",
"$ 	c #DDDD00",
"% 	c #DEE000",
"& 	c #C7E000",
"* 	c #C0E000",
"= 	c #DCDC00",
"- 	c #C0CB12",
"; 	c #AABC1F",
"> 	c #BBC225",
", 	c #C0C329",
"' 	c #BCC127",
") 	c #B5BB17",
"! 	c #C0C000",
"~ 	c #D2D200",
"{ 	c #DADD00",
"] 	c #C9E000",
"^ 	c #B9C617",
"/ 	c #3F8B7D",
"( 	c #167CBB",
"_ 	c #A6CED1",
": 	c #D6EAD8",
"< 	c #D7EAD8",
"[ 	c #C3DFD4",
"} 	c #83AC99",
"| 	c #7F8C1E",
"1 	c #A9AC00",
"2 	c #BBD000",
"3 	c #BEDE00",
"4 	c #D9D900",
"5 	c #689F5B",
"6 	c #0070B8",
"7 	c #187FBE",
"8 	c #94C5CF",
"9 	c #B9DAD5",
"0 	c #B9DAD4",
"a 	c #AFD5D2",
"b 	c #70B0C8",
"c 	c #3A716E",
"d 	c #6A7600",
"e 	c #9EB900",
"f 	c #BBDA00",
"g 	c #D4D400",
"h 	c #629A5D",
"i 	c #0072BB",
"j 	c #147FC0",
"k 	c #7CB9CE",
"l 	c #9BCBD2",
"m 	c #9BCAD2",
"n 	c #93C5D0",
"o 	c #5EA7C7",
"p 	c #235E6F",
"q 	c #445000",
"r 	c #8CA400",
"s 	c #B8D700",
"t 	c #D1D100",
"u 	c #5F985E",
"v 	c #0074BD",
"w 	c #117EC2",
"x 	c #64ACCC",
"y 	c #7EBBCF",
"z 	c #7EBBD0",
"A 	c #7EBACF",
"B 	c #77B6CD",
"C 	c #4C9EC6",
"D 	c #1A576F",
"E 	c #374000",
"F 	c #849A00",
"G 	c #B6D400",
"H 	c #5F985F",
"I 	c #0276BF",
"J 	c #0F7EC3",
"K 	c #4EA1CB",
"L 	c #61ACCE",
"M 	c #5CA8CB",
"N 	c #3B95C5",
"O 	c #165570",
"P 	c #353E00",
"Q 	c #829700",
"R 	c #609A60",
"S 	c #0679C1",
"T 	c #0C7EC5",
"U 	c #3092CA",
"V 	c #429DCD",
"W 	c #449ECE",
"X 	c #449DCC",
"Y 	c #3F99CA",
"Z 	c #278BC5",
"` 	c #135471",
" .	c #363F01",
"..	c #B5B41F",
"+.	c #505E50",
"@.	c #2A4959",
"#.	c #365565",
"$.	c #4A6673",
"%.	c #2886BD",
"&.	c #218CCC",
"*.	c #218ACA",
"=.	c #1F88C8",
"-.	c #1581C4",
";.	c #125473",
">.	c #384003",
",.	c #829701",
"'.	c #C9C90F",
").	c #555759",
"!.	c #5A5B52",
"~.	c #545343",
"{.	c #404140",
"].	c #484948",
"^.	c #545654",
"/.	c #5F5F5F",
"(.	c #4D5E65",
"_.	c #1E84C4",
":.	c #1A88CC",
"<.	c #1987CA",
"[.	c #1785C8",
"}.	c #1582C5",
"|.	c #165775",
"1.	c #3A4205",
"2.	c #839801",
"3.	c #D3D308",
"4.	c #51546F",
"5.	c #9495B5",
"6.	c #959398",
"7.	c #404141",
"8.	c #585A58",
"9.	c #5B5D5B",
"0.	c #626462",
"a.	c #757775",
"b.	c #7F817F",
"c.	c #60676D",
"d.	c #248DCD",
"e.	c #238CCB",
"f.	c #208AC9",
"g.	c #1D86C7",
"h.	c #1E5C78",
"i.	c #3E4709",
"j.	c #839902",
"k.	c #D2D209",
"l.	c #585A82",
"m.	c #C7C7CA",
"n.	c #4B4B4B",
"o.	c #969896",
"p.	c #DEDFDE",
"q.	c #949394",
"r.	c #6C6B6C",
"s.	c #8B8C8B",
"t.	c #969796",
"u.	c #585B58",
"v.	c #3395CD",
"w.	c #3194CC",
"x.	c #2E90CA",
"y.	c #2A8CC7",
"z.	c #27627B",
"A.	c #424A0D",
"B.	c #849904",
"C.	c #BEE000",
"D.	c #A2E000",
"E.	c #4C4F7C",
"F.	c #8F8FAC",
"G.	c #525152",
"H.	c #9A999A",
"I.	c #A9A9A9",
"J.	c #828085",
"K.	c #5D5F5F",
"L.	c #9E9D9E",
"M.	c #A9AAA9",
"N.	c #595C59",
"O.	c #409CCE",
"P.	c #3E99CC",
"Q.	c #3A97CA",
"R.	c #3592C7",
"S.	c #30687D",
"T.	c #454E11",
"U.	c #859A05",
"V.	c #BCE000",
"W.	c #A4E000",
"X.	c #A0E000",
"Y.	c #D6D607",
"Z.	c #66675A",
"`.	c #69687A",
" +	c #515252",
".+	c #747278",
"++	c #7F7E87",
"@+	c #727385",
"#+	c #6B6E74",
"$+	c #AFB1AF",
"%+	c #B3B4B3",
"&+	c #5A5D5A",
"*+	c #4AA1CD",
"=+	c #479ECB",
"-+	c #439BC9",
";+	c #389FCB",
">+	c #28919E",
",+	c #367C4F",
"'+	c #64B444",
")+	c #88DF40",
"!+	c #7EE840",
"~+	c #78E840",
"{+	c #D2D20D",
"]+	c #7E7D4E",
"^+	c #505155",
"/+	c #565565",
"(+	c #63627B",
"_+	c #6A6C78",
":+	c #A4A5A4",
"<+	c #BEBFBE",
"[+	c #5E5F5E",
"}+	c #53A3CC",
"|+	c #65A2D5",
"1+	c #509ECC",
"2+	c #42BEE3",
"3+	c #12DCED",
"4+	c #2BAAD5",
"5+	c #BCBD14",
"6+	c #5B5D5D",
"7+	c #6E6D74",
"8+	c #74737D",
"9+	c #9A989D",
"0+	c #BBBBBB",
"a+	c #B7B8B7",
"b+	c #7B7D7B",
"c+	c #5E7B8B",
"d+	c #59A2CC",
"e+	c #96A5E8",
"f+	c #62A0D1",
"g+	c #6EC4F4",
"h+	c #3595CA",
"i+	c #800080",
"j+	c #A85058",
"k+	c #891277",
"l+	c #CACF0A",
"m+	c #7D893E",
"n+	c #808080",
"o+	c #AFAEAF",
"p+	c #BCBBBC",
"q+	c #BBBABB",
"r+	c #949594",
"s+	c #587B8A",
"t+	c #509CC2",
"u+	c #7EA3DC",
"v+	c #8B9ADA",
"w+	c #619ECF",
"x+	c #DFBF20",
"y+	c #952A6B",
"z+	c #DDE000",
"A+	c #CAE000",
"B+	c #B1CD0B",
"C+	c #849143",
"D+	c #747674",
"E+	c #787978",
"F+	c #858585",
"G+	c #57594C",
"H+	c #446261",
"I+	c #7C9ED4",
"J+	c #9293D3",
"K+	c #646C80",
"L+	c #849EDC",
"M+	c #64BAE8",
"N+	c #B0CC0B",
"O+	c #94A91B",
"P+	c #84961D",
"Q+	c #738025",
"R+	c #5E691A",
"S+	c #7C7F93",
"T+	c #9395D5",
"U+	c #727B58",
"V+	c #8688B4",
"W+	c #8C90B6",
"X+	c #4CA889",
"Y+	c #AA5555",
"Z+	c #A3475C",
"`+	c #BCDB00",
" @	c #B1CF01",
".@	c #9FAC7A",
"+@	c #969BB7",
"@@	c #9395D1",
"#@	c #9CAF43",
"$@	c #9498BA",
"%@	c #9496D9",
"&@	c #97A3AE",
"*@	c #55C858",
"=@	c #BF7F40",
"-@	c #B56A4B",
";@	c #BFDE00",
">@	c #BCD91B",
",@	c #BBD628",
"'@	c #B8D323",
")@	c #A6ADBA",
"!@	c #9293D5",
"~@	c #A1ABC9",
"{@	c #A0D71E",
"]@	c #68E755",
"^@	c #8B1575",
"/@	c #C78E39",
"(@	c #EAD415",
"_@	c #84077C",
":@	c #DB24A1",
"<@	c #ADB8A4",
"[@	c #A7ABDB",
"}@	c #9092D2",
"|@	c #B9D911",
"1@	c #A0DC11",
"2@	c #6BEA55",
"3@	c #860C7A",
"4@	c #83057D",
"    . + + + @ # $ $ $ $ $ $ $ # @ + % & * * ",
"  . + + + = - ; > , , , , ' ) ! ~ { ] * * * ",
". + + + $ ^ / ( _ : < < < [ } | 1 2 3 * * * ",
"+ + + + 4 5 6 7 8 9 9 9 0 a b c d e f * * * ",
"+ + + + g h i j k l l l m n o p q r s * * * ",
"+ + + + t u v w x y z z A B C D E F G * * * ",
"+ + + + t H I J K L L L L M N O P Q G * * * ",
"+ + + + t R S T U V W W X Y Z `  .Q G * * * ",
"+ + + + ..+.@.#.$.%.&.&.*.=.-.;.>.,.G * * * ",
"+ '.).!.~.{.].^./.(._.:.<.[.}.|.1.2.G * * * ",
"3.4.5.6.7.8.9.0.a.b.c.d.e.f.g.h.i.j.G * * * ",
"k.l.m.n.o.p.q.r.s.t.u.v.w.x.y.z.A.B.G * C.D.",
"k.E.F.G.H.I.J.K.L.M.N.O.P.Q.R.S.T.U.G V.W.X.",
"Y.Z.`. +.+++@+#+$+%+&+*+=+-+;+>+,+'+)+!+~+~+",
"+ {+]+^+/+(+_+:+<+M.[+}+|+1+2+3+4+4+4+4+4+4+",
"+ + 5+6+7+8+9+0+a+b+c+d+e+f+g+h+i+i+i+j+k+i+",
"+ + l+m+n+o+p+q+r+s+t+u+v+w+g+h+i+i+i+x+y+i+",
"+ z+A+B+C+D+E+F+G+H+I+J+K+L+M+h+i+i+i+x+y+i+",
"% ] * * N+O+P+Q+R+S+T+U+V+W+X+h+Y+Z+i+x+y+i+",
"& * * * * `+ @.@+@@@#@$@%@&@*@h+=@-@i+x+y+i+",
"* * * * * * ;@>@,@'@)@!@~@{@]@h+^@/@(@Y+_@i+",
":@* * * * * * * <@[@}@|@1@X.2@h+i+3@^@4@i+i+"};
