/* XPM */
static char * TUIBDataBase_xpm[] = {
"22 22 263 2",
"  	c #E0C000",
". 	c #E0CA00",
"+ 	c #E0E000",
"@ 	c #DFDF00",
"# 	c #DEDE00",
"$ 	c #DDDD00",
"% 	c #DEE000",
"& 	c #C7E000",
"* 	c #C0E000",
"= 	c #DCDC00",
"- 	c #C0CB12",
"; 	c #AABC1F",
"> 	c #BBC225",
", 	c #C0C329",
"' 	c #BCC127",
") 	c #B5BB17",
"! 	c #C0C000",
"~ 	c #D2D200",
"{ 	c #DADD00",
"] 	c #C9E000",
"^ 	c #B9C617",
"/ 	c #3F8B7D",
"( 	c #167CBB",
"_ 	c #A6CED1",
": 	c #D6EAD8",
"< 	c #D7EAD8",
"[ 	c #C3DFD4",
"} 	c #83AC99",
"| 	c #7F8C1E",
"1 	c #A9AC00",
"2 	c #BBD000",
"3 	c #BEDE00",
"4 	c #D9D900",
"5 	c #689F5B",
"6 	c #0070B8",
"7 	c #187FBE",
"8 	c #94C5CF",
"9 	c #B9DAD5",
"0 	c #B9DAD4",
"a 	c #AFD5D2",
"b 	c #70B0C8",
"c 	c #3A716E",
"d 	c #6A7600",
"e 	c #9EB900",
"f 	c #BBDA00",
"g 	c #D4D400",
"h 	c #629A5D",
"i 	c #0072BB",
"j 	c #147FC0",
"k 	c #7CB9CE",
"l 	c #9BCBD2",
"m 	c #9BCAD2",
"n 	c #93C5D0",
"o 	c #5EA7C7",
"p 	c #235E6F",
"q 	c #445000",
"r 	c #8CA400",
"s 	c #B8D700",
"t 	c #D1D100",
"u 	c #5F985E",
"v 	c #0074BD",
"w 	c #117EC2",
"x 	c #64ACCC",
"y 	c #7EBBCF",
"z 	c #7EBBD0",
"A 	c #7EBACF",
"B 	c #77B6CD",
"C 	c #4C9EC6",
"D 	c #1A576F",
"E 	c #374000",
"F 	c #849A00",
"G 	c #B6D400",
"H 	c #5F985F",
"I 	c #0276BF",
"J 	c #0F7EC3",
"K 	c #4EA1CB",
"L 	c #61ACCE",
"M 	c #5CA8CB",
"N 	c #3B95C5",
"O 	c #165570",
"P 	c #353E00",
"Q 	c #829700",
"R 	c #609A60",
"S 	c #0679C1",
"T 	c #0C7EC5",
"U 	c #3092CA",
"V 	c #429DCD",
"W 	c #449ECE",
"X 	c #449DCC",
"Y 	c #3F99CA",
"Z 	c #278BC5",
"` 	c #135471",
" .	c #363F01",
"..	c #629B61",
"+.	c #0B7CC3",
"@.	c #0D7FC6",
"#.	c #1685C9",
"$.	c #1F8BCB",
"%.	c #218CCC",
"&.	c #218ACA",
"*.	c #1F88C8",
"=.	c #1581C4",
"-.	c #125473",
";.	c #384003",
">.	c #829701",
",.	c #669D61",
"'.	c #1280C4",
").	c #1483C7",
"!.	c #1686C9",
"~.	c #1988CC",
"{.	c #1A88CC",
"].	c #1987CA",
"^.	c #1785C8",
"/.	c #1582C5",
"(.	c #165775",
"_.	c #3A4205",
":.	c #839801",
"<.	c #6B9F62",
"[.	c #1C85C5",
"}.	c #1F89C8",
"|.	c #228BCA",
"1.	c #248DCC",
"2.	c #248ECD",
"3.	c #248DCD",
"4.	c #238CCB",
"5.	c #208AC9",
"6.	c #1D86C7",
"7.	c #1E5C78",
"8.	c #3E4709",
"9.	c #839902",
"0.	c #70A363",
"a.	c #288CC6",
"b.	c #2C8FC9",
"c.	c #2F92CB",
"d.	c #3294CD",
"e.	c #3395CD",
"f.	c #3194CC",
"g.	c #2E90CA",
"h.	c #2A8CC7",
"i.	c #27627B",
"j.	c #424A0D",
"k.	c #849904",
"l.	c #BEE000",
"m.	c #A2E000",
"n.	c #D1D101",
"o.	c #75A563",
"p.	c #3190C5",
"q.	c #3794C9",
"r.	c #3B98CB",
"s.	c #3F9ACD",
"t.	c #409CCE",
"u.	c #3E99CC",
"v.	c #3A97CA",
"w.	c #3592C7",
"x.	c #30687D",
"y.	c #454E11",
"z.	c #859A05",
"A.	c #BCE000",
"B.	c #A4E000",
"C.	c #A0E000",
"D.	c #79A662",
"E.	c #3A93C4",
"F.	c #3F98C8",
"G.	c #449CCA",
"H.	c #489FCC",
"I.	c #4BA1CD",
"J.	c #4AA1CD",
"K.	c #479ECB",
"L.	c #439BC9",
"M.	c #389FCB",
"N.	c #28919E",
"O.	c #367C4F",
"P.	c #64B444",
"Q.	c #88DF40",
"R.	c #7EE840",
"S.	c #78E840",
"T.	c #CED101",
"U.	c #77A862",
"V.	c #3E95C3",
"W.	c #4499C6",
"X.	c #4A9EC9",
"Y.	c #4EA1CA",
"Z.	c #51A3CB",
"`.	c #4EA0CA",
" +	c #489DC8",
".+	c #2DBBD9",
"++	c #12DCED",
"@+	c #2BAAD5",
"#+	c #DCE000",
"$+	c #BFD201",
"%+	c #6FA761",
"&+	c #3E94C1",
"*+	c #4599C4",
"=+	c #4B9DC7",
"-+	c #50A0C8",
";+	c #52A2C9",
">+	c #4A9CC6",
",+	c #2EBBD8",
"'+	c #3595CA",
")+	c #800080",
"!+	c #A85058",
"~+	c #891277",
"{+	c #CBE000",
"]+	c #B6D401",
"^+	c #7FA633",
"/+	c #498F99",
"(+	c #4296C1",
"_+	c #489AC4",
":+	c #4D9EC5",
"<+	c #509FC6",
"[+	c #489AC3",
"}+	c #2DB9D6",
"|+	c #DFBF20",
"1+	c #952A6B",
"2+	c #DDE000",
"3+	c #CAE000",
"4+	c #BAD800",
"5+	c #9BB404",
"6+	c #678836",
"7+	c #48705D",
"8+	c #416764",
"9+	c #436768",
"0+	c #45696A",
"a+	c #436769",
"b+	c #406466",
"c+	c #299797",
"d+	c #BDDD00",
"e+	c #AFCC01",
"f+	c #90A606",
"g+	c #6D7D0D",
"h+	c #5B6714",
"i+	c #576118",
"j+	c #576119",
"k+	c #566018",
"l+	c #566016",
"m+	c #3A9663",
"n+	c #AA5555",
"o+	c #A3475C",
"p+	c #BCDB00",
"q+	c #B1CF01",
"r+	c #A2BC03",
"s+	c #97AF05",
"t+	c #93AA06",
"u+	c #92AA06",
"v+	c #92AA07",
"w+	c #8EAA06",
"x+	c #55C858",
"y+	c #BF7F40",
"z+	c #B56A4B",
"A+	c #BFDE00",
"B+	c #BDDC00",
"C+	c #BBDA01",
"D+	c #B7DA01",
"E+	c #9FDA00",
"F+	c #68E755",
"G+	c #8B1575",
"H+	c #C78E39",
"I+	c #EAD415",
"J+	c #84077C",
"K+	c #DB24A1",
"L+	c #6BEA55",
"M+	c #860C7A",
"N+	c #83057D",
"    . + + + @ # $ $ $ $ $ $ $ # @ + % & * * ",
"  . + + + = - ; > , , , , ' ) ! ~ { ] * * * ",
". + + + $ ^ / ( _ : < < < [ } | 1 2 3 * * * ",
"+ + + + 4 5 6 7 8 9 9 9 0 a b c d e f * * * ",
"+ + + + g h i j k l l l m n o p q r s * * * ",
"+ + + + t u v w x y z z A B C D E F G * * * ",
"+ + + + t H I J K L L L L M N O P Q G * * * ",
"+ + + + t R S T U V W W X Y Z `  .Q G * * * ",
"+ + + + t ..+.@.#.$.%.%.&.*.=.-.;.>.G * * * ",
"+ + + + t ,.'.).!.~.{.{.].^./.(._.:.G * * * ",
"+ + + + t <.[.}.|.1.2.3.4.5.6.7.8.9.G * * * ",
"+ + + + t 0.a.b.c.d.e.e.f.g.h.i.j.k.G * l.m.",
"+ + + + n.o.p.q.r.s.t.t.u.v.w.x.y.z.G A.B.C.",
"+ + + + n.D.E.F.G.H.I.J.K.L.M.N.O.P.Q.R.S.S.",
"+ + + + T.U.V.W.X.Y.Z.Z.`. +.+++@+@+@+@+@+@+",
"+ + + #+$+%+&+*+=+-+;+;+-+>+,+'+)+)+)+!+~+)+",
"+ + #+{+]+^+/+(+_+:+<+<+:+[+}+'+)+)+)+|+1+)+",
"+ 2+3+* 4+5+6+7+8+9+0+0+a+b+c+'+)+)+)+|+1+)+",
"% ] * * d+e+f+g+h+i+j+j+k+l+m+'+n+o+)+|+1+)+",
"& * * * * p+q+r+s+t+u+v+u+w+x+'+y+z+)+|+1+)+",
"* * * * * * A+B+p+f C+C+D+E+F+'+G+H+I+n+J+)+",
"K+* * * * * * * * * * l.m.C.L+'+)+M+G+N+)+)+"};
