/* XPM */
static char * TUIBScript_xpm[] = {
"22 22 357 2",
"  	c #E0C000",
". 	c #DFC900",
"+ 	c #D9DA07",
"@ 	c #CDD013",
"# 	c #C4C712",
"$ 	c #BFC212",
"% 	c #BEC112",
"& 	c #BEC011",
"* 	c #BEBF10",
"= 	c #C4C60B",
"- 	c #CFCF00",
"; 	c #D9D900",
"> 	c #DDDF00",
", 	c #C7E000",
"' 	c #C0E000",
") 	c #E0CA00",
"! 	c #DEDE00",
"~ 	c #C1CF4F",
"{ 	c #94B9E8",
"] 	c #96B3E1",
"^ 	c #96B3E0",
"/ 	c #95B2E0",
"( 	c #94B2DF",
"_ 	c #94B1DE",
": 	c #94B0DE",
"< 	c #94B0DC",
"[ 	c #92AFDC",
"} 	c #8BA4D2",
"| 	c #7C8EC1",
"1 	c #92A890",
"2 	c #ACAF13",
"3 	c #C3C500",
"4 	c #C2D800",
"5 	c #BFDF00",
"6 	c #E0E000",
"7 	c #DCDC00",
"8 	c #BDCB4F",
"9 	c #B6D4F4",
"0 	c #E8F1FB",
"a 	c #E7EFF7",
"b 	c #E3ECF4",
"c 	c #E1EAF2",
"d 	c #DFE5EF",
"e 	c #DDE3EF",
"f 	c #DBDFE6",
"g 	c #D3DBE6",
"h 	c #BCC5D9",
"i 	c #7E91C2",
"j 	c #8CB2E4",
"k 	c #8CA690",
"l 	c #93A517",
"m 	c #A8C400",
"n 	c #B9D800",
"o 	c #BAC74E",
"p 	c #BED6F2",
"q 	c #FEFEFE",
"r 	c #FDFDFE",
"s 	c #FDFDFC",
"t 	c #FCFCFD",
"u 	c #F7F9FD",
"v 	c #F3F8FD",
"w 	c #EEF7FE",
"x 	c #CFD9EB",
"y 	c #8296C5",
"z 	c #87BFF0",
"A 	c #66B0F1",
"B 	c #739B89",
"C 	c #8EA518",
"D 	c #A9C600",
"E 	c #BADA00",
"F 	c #DBDB00",
"G 	c #B8C44C",
"H 	c #BCD1EE",
"I 	c #FEFEFD",
"J 	c #FCFDFD",
"K 	c #FBFCFD",
"L 	c #F7F8FB",
"M 	c #F2F7FC",
"N 	c #EDF5FC",
"O 	c #EBF4FC",
"P 	c #CDD7EA",
"Q 	c #7E8DBE",
"R 	c #769ED6",
"S 	c #4C95DA",
"T 	c #6793CE",
"U 	c #768743",
"V 	c #92AA00",
"W 	c #B3D100",
"X 	c #B7C24A",
"Y 	c #BBCEEC",
"Z 	c #FBFBFC",
"` 	c #F6F8FA",
" .	c #F2F4F8",
"..	c #ECEFF5",
"+.	c #E5EAF1",
"@.	c #E3E9F2",
"#.	c #E1EAF4",
"$.	c #D5DFEF",
"%.	c #AAB5D7",
"&.	c #9EA7D5",
"*.	c #9196D0",
"=.	c #7F86BF",
"-.	c #5B673C",
";.	c #7C9000",
">.	c #ACC800",
",.	c #B7C14A",
"'.	c #B9CCE9",
").	c #F7F7F9",
"!.	c #EEEDF1",
"~.	c #E6E6EC",
"{.	c #E1E2EA",
"].	c #D8DAE2",
"^.	c #DED58B",
"/.	c #A1A2AE",
"(.	c #D0D4E1",
"_.	c #D5DBE7",
":.	c #D4DCEB",
"<.	c #C4CEEE",
"[.	c #B8BEF4",
"}.	c #8F96CB",
"|.	c #525B39",
"1.	c #728500",
"2.	c #A7C300",
"3.	c #BFDE00",
"4.	c #B7C24B",
"5.	c #B9CBE8",
"6.	c #EFEEF2",
"7.	c #E3DAA6",
"8.	c #BEB682",
"9.	c #AFACB1",
"0.	c #B6B3C2",
"a.	c #DDCA46",
"b.	c #5B5966",
"c.	c #B4B3BC",
"d.	c #CDC796",
"e.	c #C1BA81",
"f.	c #9EA8BD",
"g.	c #BDCAEF",
"h.	c #939BC7",
"i.	c #505837",
"j.	c #708300",
"k.	c #A6C200",
"l.	c #BEDE00",
"m.	c #DBDB01",
"n.	c #B7BF48",
"o.	c #B6C5E1",
"p.	c #E8E9EE",
"q.	c #BFBB91",
"r.	c #C1B349",
"s.	c #A59B59",
"t.	c #BBAE5D",
"u.	c #DDCA3E",
"v.	c #9F9341",
"w.	c #A69D60",
"x.	c #C4B648",
"y.	c #7F7B53",
"z.	c #8F9AAF",
"A.	c #BDCBEB",
"B.	c #959CC6",
"C.	c #DBDB02",
"D.	c #B8BF49",
"E.	c #B5C2DE",
"F.	c #E2E4EC",
"G.	c #B4B2BA",
"H.	c #A29963",
"I.	c #C8B83F",
"J.	c #968A35",
"K.	c #D9C63A",
"L.	c #8E8335",
"M.	c #C8B73C",
"N.	c #7E753B",
"O.	c #64656F",
"P.	c #9FA9C0",
"Q.	c #BCC8E8",
"R.	c #969CC5",
"S.	c #515837",
"T.	c #DBDB03",
"U.	c #BAC04C",
"V.	c #B4C0DC",
"W.	c #DADCE5",
"X.	c #BCB9C8",
"Y.	c #BEB168",
"Z.	c #938837",
"`.	c #4B463E",
" +	c #504C4B",
".+	c #605B5D",
"++	c #9A903F",
"@+	c #9B903E",
"#+	c #5F5F70",
"$+	c #A1A7BF",
"%+	c #B7C1E0",
"&+	c #8C92BC",
"*+	c #4C5433",
"=+	c #BABD48",
"-+	c #B2B8D1",
";+	c #DBD395",
">+	c #D6C340",
",+	c #DBC73C",
"'+	c #D9C63B",
")+	c #565143",
"!+	c #88869C",
"~+	c #9C969E",
"{+	c #DAC73C",
"]+	c #DAC73B",
"^+	c #D2BF3B",
"/+	c #A39D58",
"(+	c #8A93B2",
"_+	c #878EB9",
":+	c #4C5432",
"<+	c #A4C200",
"[+	c #A1DE00",
"}+	c #B9BC46",
"|+	c #B0B7D2",
"1+	c #AFB1BE",
"2+	c #73707F",
"3+	c #A1954E",
"4+	c #988C37",
"5+	c #605B50",
"6+	c #9B948F",
"7+	c #979291",
"8+	c #A09441",
"9+	c #8F8536",
"0+	c #3A3C47",
"a+	c #6D768B",
"b+	c #9FACCE",
"c+	c #878DB9",
"d+	c #6E8300",
"e+	c #8EC200",
"f+	c #9FDE00",
"g+	c #B7B943",
"h+	c #ACB4D1",
"i+	c #D3D9E5",
"j+	c #BCBBC0",
"k+	c #AEA568",
"l+	c #C0B13C",
"m+	c #9D913B",
"n+	c #DAC63B",
"o+	c #9F933F",
"p+	c #C0AF39",
"q+	c #867D3E",
"r+	c #5C737A",
"s+	c #70BACF",
"t+	c #81CCE7",
"u+	c #66ABCC",
"v+	c #397E65",
"w+	c #48A240",
"x+	c #68D140",
"y+	c #77E640",
"z+	c #B3B63F",
"A+	c #A5AFD0",
"B+	c #D6DDEA",
"C+	c #D0CB9D",
"D+	c #C0B24B",
"E+	c #80783F",
"F+	c #928743",
"G+	c #847A34",
"H+	c #7D7643",
"I+	c #B5A740",
"J+	c #65B380",
"K+	c #12DCED",
"L+	c #2BAAD5",
"M+	c #B2B53E",
"N+	c #A3AFD1",
"O+	c #D5DFEE",
"P+	c #BDBA92",
"Q+	c #84805C",
"R+	c #6C6E78",
"S+	c #6D6C7E",
"T+	c #D6C441",
"U+	c #31343D",
"V+	c #6D717F",
"W+	c #878667",
"X+	c #70C08C",
"Y+	c #3595CA",
"Z+	c #800080",
"`+	c #A85058",
" @	c #891277",
".@	c #D8DB00",
"+@	c #A7B33B",
"@@	c #9FAACD",
"#@	c #D1E0F2",
"$@	c #ABB7CA",
"%@	c #97A2B8",
"&@	c #A2ADC5",
"*@	c #A6ADC4",
"=@	c #9F9B62",
"-@	c #656F82",
";@	c #96A5C1",
">@	c #8D9EB8",
",@	c #52B6C7",
"'@	c #DFBF20",
")@	c #952A6B",
"!@	c #DDE000",
"~@	c #C6DB00",
"{@	c #9DB137",
"]@	c #9EA8C9",
"^@	c #CFE3F8",
"/@	c #C4DAF2",
"(@	c #C0D5EE",
"_@	c #BFD2EA",
":@	c #B5C9E4",
"<@	c #90A3BD",
"[@	c #9FB5D1",
"}@	c #A9C3E2",
"|@	c #A5C7EA",
"1@	c #6DDBF3",
"2@	c #DEE000",
"3@	c #C9E000",
"4@	c #BCDB00",
"5@	c #9CB137",
"6@	c #99A2C9",
"7@	c #CBDBFC",
"8@	c #C8D9FB",
"9@	c #C7D8FA",
"0@	c #C7D6F8",
"a@	c #C1D2F5",
"b@	c #BACAF3",
"c@	c #B9CAF3",
"d@	c #B8CCF5",
"e@	c #B1CEF8",
"f@	c #76DFFC",
"g@	c #AA5555",
"h@	c #A3475C",
"i@	c #BCDC00",
"j@	c #9CB237",
"k@	c #7D82AD",
"l@	c #8990BA",
"m@	c #898FBA",
"n@	c #898FB9",
"o@	c #868DB9",
"p@	c #858EBA",
"q@	c #58B4D1",
"r@	c #BF7F40",
"s@	c #B56A4B",
"t@	c #BDDC00",
"u@	c #A7C209",
"v@	c #7C8E1B",
"w@	c #56611B",
"x@	c #424A1B",
"y@	c #3E451B",
"z@	c #3D451B",
"A@	c #36451B",
"B@	c #248367",
"C@	c #8B1575",
"D@	c #C78E39",
"E@	c #EAD415",
"F@	c #84077C",
"G@	c #DB24A1",
"H@	c #B0CD00",
"I@	c #728600",
"J@	c #627200",
"K@	c #5E6E00",
"L@	c #5D6E00",
"M@	c #4F6E00",
"N@	c #349F55",
"O@	c #860C7A",
"P@	c #83057D",
"    . + @ # $ % % % % % % & * = - ; > , ' ' ",
"  ) ! ~ { ] ^ / ( _ : < [ } | 1 2 3 4 5 ' ' ",
") 6 7 8 9 0 a b c d e f g h i j k l m n 5 ' ",
"6 6 7 o p q q r s t u v w x y z A B C D E ' ",
"6 6 F G H I q J K L M N O P Q R S T U V W 5 ",
"6 6 F X Y t Z `  ...+.@.#.$.%.&.*.=.-.;.>.5 ",
"6 6 F ,.'.).!.~.{.].^./.(._.:.<.[.}.|.1.2.3.",
"6 6 F 4.5.6.7.8.9.0.a.b.c.d.e.f.g.h.i.j.k.l.",
"6 6 m.n.o.p.q.r.s.t.u.v.w.x.y.z.A.B.i.j.k.l.",
"6 6 C.D.E.F.G.H.I.J.K.L.M.N.O.P.Q.R.S.j.k.l.",
"6 6 T.U.V.W.X.Y.Z.`. +.+++@+#+$+%+&+*+j.k.l.",
"6 6 T.=+-+;+>+,+'+)+!+~+{+]+^+/+(+_+:+j.<+[+",
"6 6 T.}+|+1+2+3+4+5+6+7+8+9+0+a+b+c+:+d+e+f+",
"6 6 C.g+h+i+j+k+l+m+n+o+p+q+r+s+t+u+v+w+x+y+",
"6 6 m.z+A+B+C+D+E+F+{+G+H+I+J+K+L+L+L+L+L+L+",
"6 6 F M+N+O+P+Q+R+S+T+U+V+W+X+Y+Z+Z+Z+`+ @Z+",
"6 6 .@+@@@#@$@%@&@*@=@-@;@>@,@Y+Z+Z+Z+'@)@Z+",
"6 !@~@{@]@^@/@(@_@:@<@[@}@|@1@Y+Z+Z+Z+'@)@Z+",
"2@3@4@5@6@7@8@9@0@a@b@c@d@e@f@Y+g@h@Z+'@)@Z+",
", ' i@j@k@l@l@m@m@n@c+c+o@p@q@Y+r@s@Z+'@)@Z+",
"' ' t@u@v@w@x@y@y@y@y@y@z@A@B@Y+C@D@E@g@F@Z+",
"G@' l.H@V I@J@K@K@K@K@L@M@M@N@Y+Z+O@C@P@Z+Z+"};
