/* XPM */
static char * TUIBQuery_xpm[] = {
"22 22 318 2",
"  	c #E0C000",
". 	c #E0CA00",
"+ 	c #E0E000",
"@ 	c #DFDF00",
"# 	c #DEDE00",
"$ 	c #DEE000",
"% 	c #C7E000",
"& 	c #C0E000",
"* 	c #DCDC01",
"= 	c #D7D709",
"- 	c #CFCF10",
"; 	c #CACA14",
"> 	c #C5C516",
", 	c #C5C513",
"' 	c #C6C60A",
") 	c #CDCD01",
"! 	c #D7D700",
"~ 	c #DDDD00",
"{ 	c #DCDF00",
"] 	c #C9E000",
"^ 	c #D6D60D",
"/ 	c #CBCB1F",
"( 	c #C8C850",
"_ 	c #CCCC80",
": 	c #D3D39B",
"< 	c #D5D5A4",
"[ 	c #CECE95",
"} 	c #BEBE68",
"| 	c #B3B331",
"1 	c #B6B60F",
"2 	c #C1C500",
"3 	c #C1D600",
"4 	c #BEDE00",
"5 	c #D1D115",
"6 	c #C7C749",
"7 	c #CACA7F",
"8 	c #E0E0B8",
"9 	c #F6F6EC",
"0 	c #FDFDFC",
"a 	c #FEFEFD",
"b 	c #FAFAF4",
"c 	c #E3E3C8",
"d 	c #B5B56B",
"e 	c #94A01A",
"f 	c #9BB502",
"g 	c #B3D100",
"h 	c #BDDD00",
"i 	c #D1D116",
"j 	c #C5C552",
"k 	c #C6C679",
"l 	c #E1E1B9",
"m 	c #FAFAF3",
"n 	c #FFFFFF",
"o 	c #FEFEFC",
"p 	c #EAEAD7",
"q 	c #ADB171",
"r 	c #808F18",
"s 	c #96AE00",
"t 	c #D5D50F",
"u 	c #C6C649",
"v 	c #C4C474",
"w 	c #CCCC82",
"x 	c #EAEACB",
"y 	c #FCFCF9",
"z 	c #F7F7ED",
"A 	c #D7D7AD",
"B 	c #90954C",
"C 	c #76860C",
"D 	c #9CB600",
"E 	c #B8D700",
"F 	c #DBDB01",
"G 	c #CBCB26",
"H 	c #C3C36E",
"I 	c #C8C879",
"J 	c #CECE80",
"K 	c #E2E2B1",
"L 	c #F5F5E3",
"M 	c #F9F9ED",
"N 	c #F9F9EE",
"O 	c #F8F8EC",
"P 	c #F0F0D8",
"Q 	c #DBDBA5",
"R 	c #B5B672",
"S 	c #6A7223",
"T 	c #798D01",
"U 	c #A9C600",
"V 	c #BEDD00",
"W 	c #D5D50C",
"X 	c #C4C449",
"Y 	c #CCCC7C",
"Z 	c #D1D181",
"` 	c #DADA91",
" .	c #E9E9B8",
"..	c #F1F1D1",
"+.	c #F3F3D5",
"@.	c #F2F2D4",
"#.	c #EEEECD",
"$.	c #E4E4B2",
"%.	c #D6D68F",
"&.	c #C9C97D",
"*.	c #7C7F42",
"=.	c #616F0A",
"-.	c #94AD00",
";.	c #D0D017",
">.	c #C3C367",
",.	c #CACA7C",
"'.	c #D0D080",
").	c #D4D484",
"!.	c #DADA89",
"~.	c #E0E095",
"{.	c #E7E7A8",
"].	c #ECECB6",
"^.	c #EEEEBB",
"/.	c #EDEDBA",
"(.	c #EBEBB4",
"_.	c #E5E5A7",
":.	c #DCDC94",
"<.	c #D5D586",
"[.	c #CFCF80",
"}.	c #99995D",
"|.	c #545D14",
"1.	c #7D9100",
"2.	c #AECB00",
"3.	c #CACA1B",
"4.	c #C3C372",
"5.	c #CDCD80",
"6.	c #D2D284",
"7.	c #D7D788",
"8.	c #DCDC8B",
"9.	c #E1E18F",
"0.	c #E4E494",
"a.	c #E7E79A",
"b.	c #E9E99E",
"c.	c #E8E89C",
"d.	c #E5E59A",
"e.	c #E1E193",
"f.	c #DDDD8D",
"g.	c #ABAB6B",
"h.	c #4D541B",
"i.	c #6A7C01",
"j.	c #A4BF00",
"k.	c #DCDC00",
"l.	c #C5C51C",
"m.	c #C2C276",
"n.	c #CFCF83",
"o.	c #D4D487",
"p.	c #D9D98C",
"q.	c #DEDE90",
"r.	c #E2E294",
"s.	c #E5E596",
"t.	c #E8E899",
"u.	c #E5E597",
"v.	c #E3E394",
"w.	c #DFDF90",
"x.	c #D9D98D",
"y.	c #D4D488",
"z.	c #AFAF70",
"A.	c #494E1E",
"B.	c #607003",
"C.	c #9EB800",
"D.	c #C3C319",
"E.	c #BEBE70",
"F.	c #CFCF86",
"G.	c #D4D48B",
"H.	c #DADA90",
"I.	c #DFDF94",
"J.	c #E3E398",
"K.	c #E6E69B",
"L.	c #E8E89D",
"M.	c #E6E69D",
"N.	c #E4E499",
"O.	c #E0E096",
"P.	c #DBDB91",
"Q.	c #D5D58C",
"R.	c #A1A16A",
"S.	c #464C1F",
"T.	c #607104",
"U.	c #85B800",
"V.	c #C5C510",
"W.	c #B6B657",
"X.	c #CECE87",
"Y.	c #D4D48D",
"Z.	c #D9D992",
"`.	c #DEDE97",
" +	c #E3E39B",
".+	c #E6E69F",
"++	c #E9E9A1",
"@+	c #E9E9A2",
"#+	c #E8E8A2",
"$+	c #E6E6A0",
"%+	c #E4E49D",
"&+	c #E0E099",
"*+	c #DBDB95",
"=+	c #D4D48E",
"-+	c #828257",
";+	c #414818",
">+	c #5C7D04",
",+	c #89C000",
"'+	c #C9C903",
")+	c #AEAE2F",
"!+	c #C6C681",
"~+	c #D3D38F",
"{+	c #D8D894",
"]+	c #DDDD9A",
"^+	c #E1E19E",
"/+	c #E5E5A2",
"(+	c #E6E6A4",
"_+	c #E7E7A5",
":+	c #E6E6A3",
"<+	c #D0E5A8",
"[+	c #A7E7B4",
"}+	c #A3E3B0",
"|+	c #9ADAA8",
"1+	c #488870",
"2+	c #2B764C",
"3+	c #4DAA43",
"4+	c #6BD640",
"5+	c #D3D300",
"6+	c #B3B316",
"7+	c #B0B05E",
"8+	c #CDCD8C",
"9+	c #D6D695",
"0+	c #DBDB9A",
"a+	c #DFDFA0",
"b+	c #E3E3A3",
"c+	c #E4E4A6",
"d+	c #E3E3A5",
"e+	c #96EBC1",
"f+	c #12DCED",
"g+	c #2BAAD5",
"h+	c #DBDB00",
"i+	c #BCC002",
"j+	c #979F25",
"k+	c #AFB26C",
"l+	c #CECE90",
"m+	c #D8D89A",
"n+	c #DCDC9F",
"o+	c #DFDFA3",
"p+	c #E2E2A6",
"q+	c #E2E2A7",
"r+	c #E0E0A5",
"s+	c #94E9C1",
"t+	c #3595CA",
"u+	c #800080",
"v+	c #A85058",
"w+	c #891277",
"x+	c #DBDF00",
"y+	c #BFD300",
"z+	c #97AF06",
"A+	c #879329",
"B+	c #A4A766",
"C+	c #C8C88E",
"D+	c #D7D79C",
"E+	c #DCDCA1",
"F+	c #DEDEA4",
"G+	c #DEDEA5",
"H+	c #DCDCA2",
"I+	c #8FE4BE",
"J+	c #DFBF20",
"K+	c #952A6B",
"L+	c #DDE000",
"M+	c #CAE000",
"N+	c #B0CD01",
"O+	c #91A806",
"P+	c #7E8B21",
"Q+	c #838947",
"R+	c #9D9E6D",
"S+	c #B7B787",
"T+	c #C3C391",
"U+	c #C3C393",
"V+	c #B7B78B",
"W+	c #9A9B76",
"X+	c #55AA95",
"Y+	c #BDDC00",
"Z+	c #B0CE01",
"`+	c #97B004",
" @	c #7A8C0E",
".@	c #6E7924",
"+@	c #6D7438",
"@@	c #6D7243",
"#@	c #6A6E46",
"$@	c #646741",
"%@	c #575C33",
"&@	c #348D6D",
"*@	c #AA5555",
"=@	c #A3475C",
"-@	c #B6D400",
";@	c #A6C202",
">@	c #93AB06",
",@	c #80930C",
"'@	c #728211",
")@	c #6A7915",
"!@	c #6B7A14",
"~@	c #708410",
"{@	c #48B55E",
"]@	c #BF7F40",
"^@	c #B56A4B",
"/@	c #BFDF00",
"(@	c #BCDC00",
"_@	c #B7D601",
":@	c #AFCC01",
"<@	c #A7C203",
"[@	c #A1BC04",
"}@	c #9EBD04",
"|@	c #8EC302",
"1@	c #60DC56",
"2@	c #8B1575",
"3@	c #C78E39",
"4@	c #EAD415",
"5@	c #84077C",
"6@	c #DB24A1",
"7@	c #BFDE00",
"8@	c #BCDE00",
"9@	c #A0DE00",
"0@	c #9FDE00",
"a@	c #6AEA55",
"b@	c #860C7A",
"c@	c #83057D",
"    . + + + + + + @ # # # # @ + + + $ % & & ",
"  . + + + + @ * = - ; > , ' ) ! ~ { ] & & & ",
". + + + + ~ ^ / ( _ : < [ } | 1 2 3 4 & & & ",
"+ + + + * 5 6 7 8 9 0 a a b c d e f g h & & ",
"+ + + ~ i j k l m n n n n n o p q r s g 4 & ",
"+ + @ t u v w x y a a a a a a z A B C D E & ",
"+ + F G H I J K L M M N M M O P Q R S T U V ",
"+ @ W X k Y Z `  ...+.+.+.@.#.$.%.&.*.=.-.E ",
"+ # ;.>.,.'.).!.~.{.].^./.(._.:.<.[.}.|.1.2.",
"+ ~ 3.4.5.6.7.8.9.0.a.b.c.d.e.f.7.6.g.h.i.j.",
"+ k.l.m.n.o.p.q.r.s.t.t.t.u.v.w.x.y.z.A.B.C.",
"+ k.D.E.F.G.H.I.J.K.L.b.b.M.N.O.P.Q.R.S.T.U.",
"+ ~ V.W.X.Y.Z.`. +.+++@+#+$+%+&+*+=+-+;+>+,+",
"+ # '+)+!+~+{+]+^+/+(+_+_+:+<+[+}+|+1+2+3+4+",
"+ @ 5+6+7+8+9+0+a+b+c+_._.d+e+f+g+g+g+g+g+g+",
"+ + h+i+j+k+l+m+n+o+p+q+p+r+s+t+u+u+u+v+w+u+",
"+ + x+y+z+A+B+C+D+E+F+G+G+H+I+t+u+u+u+J+K+u+",
"+ L+M+h N+O+P+Q+R+S+T+U+V+W+X+t+u+u+u+J+K+u+",
"$ ] & & Y+Z+`+ @.@+@@@#@$@%@&@t+*@=@u+J+K+u+",
"% & & & & h -@;@>@,@'@)@!@~@{@t+]@^@u+J+K+u+",
"& & & & & & /@(@_@:@<@[@}@|@1@t+2@3@4@*@5@u+",
"6@& & & & & & & & /@7@8@9@0@a@t+u+b@2@c@u+u+"};
