/* XPM */
static char * TUIBDataSet_xpm[] = {
"22 22 317 2",
"  	c #E0C000",
". 	c #E0CA00",
"+ 	c #E0E000",
"@ 	c #DEE000",
"# 	c #C7E000",
"$ 	c #C0E000",
"% 	c #E0C900",
"& 	c #DFDF00",
"* 	c #DEDE00",
"= 	c #DDDD00",
"- 	c #DADD00",
"; 	c #C6DD00",
"> 	c #BDDD00",
", 	c #D8D805",
"' 	c #C2C220",
") 	c #BDBD20",
"! 	c #BBBB20",
"~ 	c #BABA20",
"{ 	c #ADBA20",
"] 	c #A4BA20",
"^ 	c #A4BF03",
"/ 	c #C8C815",
"( 	c #8B8B8B",
"_ 	c #AAAAAA",
": 	c #999999",
"< 	c #959595",
"[ 	c #878787",
"} 	c #6C7D0B",
"| 	c #C3C315",
"1 	c #A0A0A0",
"2 	c #F9F8F7",
"3 	c #C0BFBD",
"4 	c #B7B6B4",
"5 	c #EDEBE8",
"6 	c #929291",
"7 	c #32380B",
"8 	c #BFBF15",
"9 	c #909090",
"0 	c #B8B8B6",
"a 	c #989795",
"b 	c #939290",
"c 	c #A6A4A0",
"d 	c #A4A29E",
"e 	c #A3A19D",
"f 	c #A5A39F",
"g 	c #A8A6A2",
"h 	c #A9A7A3",
"i 	c #AAA8A4",
"j 	c #878786",
"k 	c #12130B",
"l 	c #BEBE15",
"m 	c #929292",
"n 	c #BFBEBD",
"o 	c #9A9993",
"p 	c #989882",
"q 	c #ACAC87",
"r 	c #ADAD88",
"s 	c #ABAB8A",
"t 	c #A3A385",
"u 	c #9B9B90",
"v 	c #747474",
"w 	c #BBBBBB",
"x 	c #C5C5C5",
"y 	c #C9C9C9",
"z 	c #CACACA",
"A 	c #8C8C8C",
"B 	c #0B0B0B",
"C 	c #9C9C9B",
"D 	c #E6E5D5",
"E 	c #C6C592",
"F 	c #D3D3A5",
"G 	c #ECECCF",
"H 	c #F0F0DA",
"I 	c #F0F0DD",
"J 	c #EBEBD9",
"K 	c #E1E1D4",
"L 	c #A1A187",
"M 	c #A5A5AF",
"N 	c #52529A",
"O 	c #5555A5",
"P 	c #5555AA",
"Q 	c #D5D5EA",
"R 	c #BCBC14",
"S 	c #939383",
"T 	c #DADA99",
"U 	c #E2E2A6",
"V 	c #F4F4DE",
"W 	c #FBFBF5",
"X 	c #FCFCF8",
"Y 	c #FCFCF9",
"Z 	c #FBFBF4",
"` 	c #E8E8D8",
" .	c #B4B49F",
"..	c #71718B",
"+.	c #9F9FBD",
"@.	c #B8B8D7",
"#.	c #BEBEDE",
"$.	c #BFBFDF",
"%.	c #EFEFF7",
"&.	c #C1C114",
"*.	c #BBBB7D",
"=.	c #DADA88",
"-.	c #E7E7AB",
";.	c #F5F5DC",
">.	c #F8F8E5",
",.	c #F7F7E5",
"'.	c #F5F5E0",
").	c #D9D9B0",
"!.	c #757568",
"~.	c #232365",
"{.	c #292985",
"].	c #2A2A93",
"^.	c #2B2B95",
"/.	c #B8B8DC",
"(.	c #FFFFFF",
"_.	c #DBDB02",
":.	c #C0C027",
"<.	c #D5D583",
"[.	c #DEDE89",
"}.	c #E4E498",
"|.	c #EEEEBB",
"1.	c #F3F3CE",
"2.	c #F4F4D0",
"3.	c #F3F3D0",
"4.	c #F3F3CF",
"5.	c #F2F2CE",
"6.	c #F0F0C6",
"7.	c #E2E2A2",
"8.	c #B1B176",
"9.	c #676766",
"0.	c #ACACB5",
"a.	c #DCDCE6",
"b.	c #E9E9F4",
"c.	c #F8F8FB",
"d.	c #D6D608",
"e.	c #CACA63",
"f.	c #DCDC88",
"g.	c #E0E08C",
"h.	c #E3E390",
"i.	c #E8E898",
"j.	c #EDEDA9",
"k.	c #F0F0B4",
"l.	c #F1F1B7",
"m.	c #F0F0B5",
"n.	c #EDEDAF",
"o.	c #E7E79F",
"p.	c #E0E090",
"q.	c #C4C47C",
"r.	c #545449",
"s.	c #0B0B4F",
"t.	c #111178",
"u.	c #151588",
"v.	c #15158B",
"w.	c #C5C5E2",
"x.	c #CFCF0A",
"y.	c #CECE78",
"z.	c #DFDF8C",
"A.	c #E3E38F",
"B.	c #E6E693",
"C.	c #E9E996",
"D.	c #EBEB98",
"E.	c #EDED9C",
"F.	c #EDED9E",
"G.	c #EBEB9C",
"H.	c #E9E999",
"I.	c #E7E794",
"J.	c #E3E391",
"K.	c #D0D084",
"L.	c #82825C",
"M.	c #63636B",
"N.	c #ACACBC",
"O.	c #CFCFE3",
"P.	c #F1F1F8",
"Q.	c #C9C90A",
"R.	c #CFCF7D",
"S.	c #E0E08E",
"T.	c #E3E392",
"U.	c #E6E696",
"V.	c #EAEA99",
"W.	c #ECEC9C",
"X.	c #ECEC9D",
"Y.	c #EBEB9B",
"Z.	c #E5E594",
"`.	c #D4D488",
" +	c #758A69",
".+	c #044468",
"++	c #014088",
"@+	c #00409C",
"#+	c #80BFDF",
"$+	c #BFFFFF",
"%+	c #70B0B0",
"&+	c #084848",
"*+	c #C7C709",
"=+	c #C6C672",
"-+	c #E0E091",
";+	c #E4E495",
">+	c #E7E799",
",+	c #EDEDA0",
"'+	c #EEEEA1",
")+	c #EEEEA2",
"!+	c #EBEB9F",
"~+	c #E8E89C",
"{+	c #E5E597",
"]+	c #CECE87",
"^+	c #61B696",
"/+	c #12DCED",
"(+	c #2BAAD5",
"_+	c #CACA05",
":+	c #B3B34E",
"<+	c #DEDE91",
"[+	c #E3E396",
"}+	c #E7E79A",
"|+	c #EAEA9F",
"1+	c #ECECA2",
"2+	c #EDEDA3",
"3+	c #EEEEA4",
"4+	c #EBEBA1",
"5+	c #E8E89E",
"6+	c #E4E499",
"7+	c #BEBE7F",
"8+	c #3D9280",
"9+	c #3595CA",
"0+	c #800080",
"a+	c #A85058",
"b+	c #891277",
"c+	c #D0D001",
"d+	c #A9A920",
"e+	c #CBCB81",
"f+	c #E1E196",
"g+	c #E5E59B",
"h+	c #E8E8A0",
"i+	c #EAEAA3",
"j+	c #ECECA5",
"k+	c #DCDC95",
"l+	c #909063",
"m+	c #1C7269",
"n+	c #DFBF20",
"o+	c #952A6B",
"p+	c #D9D900",
"q+	c #B3B508",
"r+	c #9EA645",
"s+	c #D1D18B",
"t+	c #E3E39A",
"u+	c #E6E69F",
"v+	c #E8E8A2",
"w+	c #EAEAA4",
"x+	c #EAEAA5",
"y+	c #E9E9A5",
"z+	c #E2E29C",
"A+	c #AFAF79",
"B+	c #4A4C30",
"C+	c #227B61",
"D+	c #DCDE00",
"E+	c #B5CA01",
"F+	c #8DA10F",
"G+	c #959C47",
"H+	c #C6C785",
"I+	c #E0E09B",
"J+	c #E5E5A0",
"K+	c #E6E6A2",
"L+	c #E7E7A3",
"M+	c #E1E19D",
"N+	c #A3A375",
"O+	c #525437",
"P+	c #404714",
"Q+	c #3C9A5C",
"R+	c #AA5555",
"S+	c #A3475C",
"T+	c #BAD900",
"U+	c #A5C001",
"V+	c #84970E",
"W+	c #77812E",
"X+	c #8E9159",
"Y+	c #B1B17B",
"Z+	c #C2C28A",
"`+	c #BCBC87",
" @	c #A3A376",
".@	c #6F7051",
"+@	c #494B2E",
"@@	c #444B15",
"#@	c #64790A",
"$@	c #50C057",
"%@	c #BF7F40",
"&@	c #B56A4B",
"*@	c #BFDF00",
"=@	c #B9D800",
"-@	c #A5C101",
";@	c #879C07",
">@	c #6D7B14",
",@	c #5E6722",
"'@	c #565C2A",
")@	c #51562C",
"!@	c #4D5227",
"~@	c #484F1B",
"{@	c #586410",
"]@	c #738908",
"^@	c #83B402",
"/@	c #61DC55",
"(@	c #8B1575",
"_@	c #C78E39",
":@	c #EAD415",
"<@	c #84077C",
"[@	c #DB24A1",
"}@	c #BBDA00",
"|@	c #B0CD00",
"1@	c #9DB602",
"2@	c #889D06",
"3@	c #788A09",
"4@	c #70810B",
"5@	c #73840B",
"6@	c #7F9308",
"7@	c #92AB04",
"8@	c #8EC501",
"9@	c #99D600",
"0@	c #69E855",
"a@	c #860C7A",
"b@	c #83057D",
"    . + + + + + + + + + + + + + + + @ # $ $ ",
"  % & * = = = = = = = = = = = = = - ; > > > ",
". , ' ) ! ~ ~ ~ ~ ~ ~ ~ ~ ~ ~ ~ ~ { ] ] ] ^ ",
"& / ( _ : < _ _ _ _ _ _ _ _ _ _ _ _ _ _ [ } ",
"& | 1 2 3 4 5 5 5 5 5 5 5 5 5 5 5 5 5 5 6 7 ",
"* 8 9 0 a b c d e e f g h i i i i i i i j k ",
"* l m n o p q r s t u v w x y z z z z z A B ",
"* l C D E F G H I J K L M N O P P P P Q < B ",
"* R S T U V W X Y X Z `  ...+.@.#.$.$.%.< B ",
"* &.*.=.-.;.>.,.,.,.,.'.).!.~.{.].^./.(.< B ",
"_.:.<.[.}.|.1.2.3.4.5.6.7.8.9.0.a.b.c.(.< B ",
"d.e.f.g.h.i.j.k.l.m.n.o.p.q.r.s.t.u.v.w.< B ",
"x.y.z.A.B.C.D.E.F.G.H.I.J.K.L.M.N.O.P.(.< B ",
"Q.R.S.T.U.V.W.F.F.X.Y.i.Z.`. +.+++@+#+$+%+&+",
"*+=+-+;+>+G.,+'+)+,+!+~+{+]+^+/+(+(+(+(+(+(+",
"_+:+<+[+}+|+1+2+3+2+4+5+6+7+8+9+0+0+0+a+b+0+",
"c+d+e+f+g+h+i+j+j+j+i+o.k+l+m+9+0+0+0+n+o+0+",
"p+q+r+s+t+u+v+w+x+y+v+z+A+B+C+9+0+0+0+n+o+0+",
"D+E+F+G+H+I+J+K+L+K+M+N+O+P+Q+9+R+S+0+n+o+0+",
"# T+U+V+W+X+Y+Z+`+ @.@+@@@#@$@9+%@&@0+n+o+0+",
"$ *@=@-@;@>@,@'@)@!@~@{@]@^@/@9+(@_@:@R+<@0+",
"[@$ *@}@|@1@2@3@4@5@6@7@8@9@0@9+0+a@(@b@0+0+"};
