/* XPM */
static char * TUIBTransaction_xpm[] = {
"22 22 255 2",
"  	c #E0C000",
". 	c #E0CA00",
"+ 	c #E0E000",
"@ 	c #DEE000",
"# 	c #C7E000",
"$ 	c #C0E000",
"% 	c #DDDD00",
"& 	c #DAC900",
"* 	c #D6D600",
"= 	c #D9D900",
"- 	c #DDE000",
"; 	c #C9E000",
"> 	c #DFDF00",
", 	c #D5CA00",
"' 	c #CE650D",
") 	c #C1B417",
"! 	c #BFBF03",
"~ 	c #D2D200",
"{ 	c #DEDE00",
"] 	c #DCE000",
"^ 	c #CAE000",
"/ 	c #DBDB00",
"( 	c #CA8702",
"_ 	c #D77656",
": 	c #CEA075",
"< 	c #99981B",
"[ 	c #BBBB03",
"} 	c #DBE000",
"| 	c #CBE000",
"1 	c #D2C600",
"2 	c #CD6726",
"3 	c #E8AE9F",
"4 	c #E4B8A9",
"5 	c #99884F",
"6 	c #9D9D13",
"7 	c #C6CB01",
"8 	c #C9DD00",
"9 	c #CF9814",
"0 	c #DD8A68",
"a 	c #E9A898",
"b 	c #E7A999",
"c 	c #BE8F76",
"d 	c #84842D",
"e 	c #A5B509",
"f 	c #B8D700",
"g 	c #D2C700",
"h 	c #D5863E",
"i 	c #E28D77",
"j 	c #E5937E",
"k 	c #D58B76",
"l 	c #8C7545",
"m 	c #869917",
"n 	c #ACC903",
"o 	c #BDDD00",
"p 	c #DCDC00",
"q 	c #CF980D",
"r 	c #D9774C",
"s 	c #E17B62",
"t 	c #E37D63",
"u 	c #DE7B62",
"v 	c #AF6D4D",
"w 	c #707721",
"x 	c #98B008",
"y 	c #B7D600",
"z 	c #BFDF00",
"A 	c #D4CB00",
"B 	c #CF741A",
"C 	c #D95C3B",
"D 	c #DE6244",
"E 	c #E06345",
"F 	c #DE6345",
"G 	c #C85D3F",
"H 	c #7F5A27",
"I 	c #7C8E0C",
"J 	c #AAC601",
"K 	c #D09603",
"L 	c #D14A10",
"M 	c #D8411C",
"N 	c #DA441F",
"O 	c #DC4621",
"P 	c #D6431F",
"Q 	c #9F4017",
"R 	c #606209",
"S 	c #92AB02",
"T 	c #B6D500",
"U 	c #D5D100",
"V 	c #CF7309",
"W 	c #D63C14",
"X 	c #DA3E18",
"Y 	c #DC401A",
"Z 	c #DF421B",
"` 	c #DE411B",
" .	c #DC3F1A",
"..	c #C03916",
"+.	c #76440C",
"@.	c #738603",
"#.	c #A8C400",
"$.	c #D09A05",
"%.	c #D24D14",
"&.	c #DA421E",
"*.	c #DE4520",
"=.	c #E14822",
"-.	c #E24924",
";.	c #E24A25",
">.	c #E14924",
",.	c #DF4822",
"'.	c #DB4420",
").	c #A33E18",
"!.	c #645C0A",
"~.	c #8EA502",
"{.	c #B4D200",
"].	c #BEE000",
"^.	c #A2E000",
"/.	c #D6CE01",
"(.	c #CF7D0E",
"_.	c #D7441F",
":.	c #DD4925",
"<.	c #E14D28",
"[.	c #E34F2B",
"}.	c #E4512D",
"|.	c #E5512D",
"1.	c #E24F2B",
"2.	c #DF4C28",
"3.	c #C94322",
"4.	c #7F4815",
"5.	c #728006",
"6.	c #A4C001",
"7.	c #B8DC00",
"8.	c #A4E000",
"9.	c #A0E000",
"0.	c #D2A806",
"a.	c #D2571A",
"b.	c #DB4A27",
"c.	c #DF4F2C",
"d.	c #E35330",
"e.	c #E55633",
"f.	c #E65836",
"g.	c #E65837",
"h.	c #E65835",
"i.	c #E45633",
"j.	c #CF6141",
"k.	c #A5795F",
"l.	c #747056",
"m.	c #4E8949",
"n.	c #6EC041",
"o.	c #77E040",
"p.	c #78E740",
"q.	c #78E840",
"r.	c #D8CF01",
"s.	c #CF850F",
"t.	c #D64925",
"u.	c #DC4F2C",
"v.	c #E05432",
"w.	c #E35837",
"x.	c #E65C3A",
"y.	c #E75E3D",
"z.	c #E75F3E",
"A.	c #E75D3D",
"B.	c #E55C3A",
"C.	c #97917A",
"D.	c #12DCED",
"E.	c #2BAAD5",
"F.	c #D2B006",
"G.	c #CF581B",
"H.	c #D84D2B",
"I.	c #DC5231",
"J.	c #E05837",
"K.	c #E35C3B",
"L.	c #E56040",
"M.	c #E66242",
"N.	c #E76343",
"O.	c #E5603F",
"P.	c #97937D",
"Q.	c #3595CA",
"R.	c #800080",
"S.	c #A85058",
"T.	c #891277",
"U.	c #D8D201",
"V.	c #C88A0D",
"W.	c #D24824",
"X.	c #D84E2C",
"Y.	c #DC5433",
"Z.	c #DF5A39",
"`.	c #E15E3E",
" +	c #E46242",
".+	c #E56445",
"++	c #E56545",
"@+	c #97957F",
"#+	c #DFBF20",
"$+	c #952A6B",
"%+	c #DCDF00",
"&+	c #C5BF03",
"*+	c #C16112",
"=+	c #C64523",
"-+	c #C4492A",
";+	c #C44E32",
">+	c #C75337",
",+	c #CA583C",
"'+	c #CC5B40",
")+	c #CE5E43",
"!+	c #CE5F44",
"~+	c #CC5C41",
"{+	c #88907E",
"]+	c #C8DF00",
"^+	c #B5C802",
"/+	c #9E8909",
"(+	c #7E5E12",
"_+	c #68481B",
":+	c #634322",
"<+	c #644527",
"[+	c #67482A",
"}+	c #694A2D",
"|+	c #6A4C2E",
"1+	c #6B4D30",
"2+	c #458572",
"3+	c #AA5555",
"4+	c #A3475C",
"5+	c #B6D400",
"6+	c #9EB802",
"7+	c #7E9206",
"8+	c #68780B",
"9+	c #616F0F",
"0+	c #616F11",
"a+	c #627013",
"b+	c #647114",
"c+	c #647216",
"d+	c #647115",
"e+	c #617114",
"f+	c #3AA062",
"g+	c #BF7F40",
"h+	c #B56A4B",
"i+	c #BCDB00",
"j+	c #B3D100",
"k+	c #A9C501",
"l+	c #A0BB02",
"m+	c #9DB803",
"n+	c #9DB804",
"o+	c #9EB804",
"p+	c #9FB805",
"q+	c #9BB805",
"r+	c #87B804",
"s+	c #58D058",
"t+	c #8B1575",
"u+	c #C78E39",
"v+	c #EAD415",
"w+	c #84077C",
"x+	c #DB24A1",
"y+	c #BFDE00",
"z+	c #BEDE00",
"A+	c #BCDE00",
"B+	c #A0DE00",
"C+	c #9EDE00",
"D+	c #6AE955",
"E+	c #860C7A",
"F+	c #83057D",
"    . + + + + + + + + + + + + + + + @ # $ $ ",
"  . + + + + + + + % & * = % + + + - ; $ $ $ ",
". + + + + + + + > , ' ) ! ~ { + ] ^ $ $ $ $ ",
"+ + + + + + + + / ( _ : < [ = } | $ $ $ $ $ ",
"+ + + + + + + > 1 2 3 4 5 6 7 8 $ $ $ $ $ $ ",
"+ + + + + + + / 9 0 a b c d e f $ $ $ $ $ $ ",
"+ + + + + + > g h i j j k l m n o $ $ $ $ $ ",
"+ + + + + + p q r s t t u v w x y z $ $ $ $ ",
"+ + + + + > A B C D E E F G H I J o $ $ $ $ ",
"+ + + + + p K L M N O O O P Q R S T z $ $ $ ",
"+ + + + > U V W X Y Z Z `  ...+.@.#.o $ $ $ ",
"+ + + + p $.%.&.*.=.-.;.>.,.'.).!.~.{.z ].^.",
"+ + + > /.(._.:.<.[.}.|.}.1.2.3.4.5.6.7.8.9.",
"+ + + % 0.a.b.c.d.e.f.g.h.i.j.k.l.m.n.o.p.q.",
"+ + > r.s.t.u.v.w.x.y.z.A.B.C.D.E.E.E.E.E.E.",
"+ + % F.G.H.I.J.K.L.M.N.M.O.P.Q.R.R.R.S.T.R.",
"+ + U.V.W.X.Y.Z.`. +.+++.+ +@+Q.R.R.R.#+$+R.",
"+ %+&+*+=+-+;+>+,+'+)+!+)+~+{+Q.R.R.R.#+$+R.",
"@ ]+^+/+(+_+:+<+[+}+|+1+|+}+2+Q.3+4+R.#+$+R.",
"# z 5+6+7+8+9+0+a+b+b+c+d+e+f+Q.g+h+R.#+$+R.",
"$ $ i+j+k+l+m+n+o+o+o+p+q+r+s+Q.t+u+v+3+w+R.",
"x+$ $ z y+z+z+z+z+z+z+A+B+C+D+Q.R.E+t+F+R.R."};
