/* XPM */
static char * TUIBRestore_xpm[] = {
"22 22 265 2",
"  	c #E0C000",
". 	c #E0CA00",
"+ 	c #E0E000",
"@ 	c #DFDF00",
"# 	c #DEDE00",
"$ 	c #DDDD00",
"% 	c #DEE000",
"& 	c #C7E000",
"* 	c #C0E000",
"= 	c #DCDC00",
"- 	c #C0CB12",
"; 	c #AABC1F",
"> 	c #BBC225",
", 	c #C0C329",
"' 	c #BCC127",
") 	c #B5BB17",
"! 	c #C0C000",
"~ 	c #D2D200",
"{ 	c #DADD00",
"] 	c #C9E000",
"^ 	c #B9C617",
"/ 	c #3F8B7D",
"( 	c #167CBB",
"_ 	c #A6CED1",
": 	c #D6EAD8",
"< 	c #D7EAD8",
"[ 	c #C3DFD4",
"} 	c #83AC99",
"| 	c #7F8C1E",
"1 	c #A9AC00",
"2 	c #BBD000",
"3 	c #BEDE00",
"4 	c #D9D900",
"5 	c #689F5B",
"6 	c #0070B8",
"7 	c #187FBE",
"8 	c #94C5CF",
"9 	c #B9DAD5",
"0 	c #B9DAD4",
"a 	c #AFD5D2",
"b 	c #70B0C8",
"c 	c #3A716E",
"d 	c #6A7600",
"e 	c #9EB900",
"f 	c #BBDA00",
"g 	c #D4D400",
"h 	c #629A5D",
"i 	c #0072BB",
"j 	c #147FC0",
"k 	c #7CB9CE",
"l 	c #9BCBD2",
"m 	c #9BCAD2",
"n 	c #93C5D0",
"o 	c #5EA7C7",
"p 	c #235E6F",
"q 	c #445000",
"r 	c #8CA400",
"s 	c #B8D700",
"t 	c #D1D100",
"u 	c #5F985E",
"v 	c #0074BD",
"w 	c #117EC2",
"x 	c #64ACCC",
"y 	c #7EBBCF",
"z 	c #7EBBD0",
"A 	c #7EBACF",
"B 	c #77B6CD",
"C 	c #4C9EC6",
"D 	c #1A576F",
"E 	c #374000",
"F 	c #849A00",
"G 	c #B6D400",
"H 	c #5F985F",
"I 	c #0276BF",
"J 	c #0F7EC3",
"K 	c #4EA1CB",
"L 	c #61ACCE",
"M 	c #5CA8CB",
"N 	c #3B95C5",
"O 	c #165570",
"P 	c #353E00",
"Q 	c #829700",
"R 	c #609A60",
"S 	c #0679C1",
"T 	c #0C7EC5",
"U 	c #3092CA",
"V 	c #429DCD",
"W 	c #449ECE",
"X 	c #449DCC",
"Y 	c #3F99CA",
"Z 	c #278BC5",
"` 	c #135471",
" .	c #363F01",
"..	c #629B61",
"+.	c #0B7CC3",
"@.	c #0D7FC6",
"#.	c #1685C9",
"$.	c #1F8BCB",
"%.	c #218CCC",
"&.	c #218ACA",
"*.	c #1F88C8",
"=.	c #1581C4",
"-.	c #125473",
";.	c #384003",
">.	c #829701",
",.	c #669D61",
"'.	c #1280C4",
").	c #1483C7",
"!.	c #1686C9",
"~.	c #1988CC",
"{.	c #1A88CC",
"].	c #1987CA",
"^.	c #1785C8",
"/.	c #1582C5",
"(.	c #165775",
"_.	c #3A4205",
":.	c #839801",
"<.	c #D8D800",
"[.	c #C4C400",
"}.	c #63945A",
"|.	c #197BB6",
"1.	c #1C7EB8",
"2.	c #1F80BB",
"3.	c #2082BC",
"4.	c #2183BE",
"5.	c #2186C2",
"6.	c #2289C6",
"7.	c #2088C8",
"8.	c #1D86C7",
"9.	c #1E5C78",
"0.	c #3E4709",
"a.	c #839902",
"b.	c #E2E240",
"c.	c #FFFFFF",
"d.	c #F4F4F4",
"e.	c #EAEAEA",
"f.	c #FBFBFB",
"g.	c #27739D",
"h.	c #2C85B7",
"i.	c #2C8DC5",
"j.	c #2A8CC7",
"k.	c #27627B",
"l.	c #424A0D",
"m.	c #849904",
"n.	c #BEE000",
"o.	c #A2E000",
"p.	c #DDDD40",
"q.	c #959595",
"r.	c #121212",
"s.	c #000000",
"t.	c #D4D4D4",
"u.	c #21536E",
"v.	c #317AA2",
"w.	c #3790C1",
"x.	c #3592C7",
"y.	c #30687D",
"z.	c #454E11",
"A.	c #859A05",
"B.	c #BCE000",
"C.	c #A4E000",
"D.	c #A0E000",
"E.	c #DBDB40",
"F.	c #DFDFDF",
"G.	c #505050",
"H.	c #1D3F50",
"I.	c #347395",
"J.	c #3F91BD",
"K.	c #389FCB",
"L.	c #28919E",
"M.	c #367C4F",
"N.	c #64B444",
"O.	c #88DF40",
"P.	c #7EE840",
"Q.	c #78E840",
"R.	c #DADA40",
"S.	c #DCDCDC",
"T.	c #555555",
"U.	c #393939",
"V.	c #151515",
"W.	c #1C3A48",
"X.	c #377290",
"Y.	c #4392BB",
"Z.	c #2DBBD9",
"`.	c #12DCED",
" +	c #2BAAD5",
".+	c #3E3E3E",
"++	c #CDCDCD",
"@+	c #8F8F8F",
"#+	c #E6E6E6",
"$+	c #1D3947",
"%+	c #38728F",
"&+	c #4592BA",
"*+	c #2EBBD8",
"=+	c #3595CA",
"-+	c #800080",
";+	c #A85058",
">+	c #891277",
",+	c #404040",
"'+	c #CACACA",
")+	c #1C3846",
"!+	c #37708D",
"~+	c #4490B7",
"{+	c #2DB9D6",
"]+	c #DFBF20",
"^+	c #952A6B",
"/+	c #CDDA40",
"(+	c #D3D3D3",
"_+	c #808080",
":+	c #C1C1C1",
"<+	c #182425",
"[+	c #30494A",
"}+	c #3C5D5F",
"|+	c #299797",
"1+	c #C6DD00",
"2+	c #C4DA40",
"3+	c #222609",
"4+	c #3F4611",
"5+	c #515A14",
"6+	c #3A9663",
"7+	c #AA5555",
"8+	c #A3475C",
"9+	c #B3CE10",
"0+	c #A4B540",
"a+	c #849040",
"b+	c #727A40",
"c+	c #6C7440",
"d+	c #6A7140",
"e+	c #686F40",
"f+	c #676E40",
"g+	c #6D7440",
"h+	c #4E5B02",
"i+	c #748704",
"j+	c #87A205",
"k+	c #55C858",
"l+	c #BF7F40",
"m+	c #B56A4B",
"n+	c #BFDF00",
"o+	c #B5D300",
"p+	c #9FBA00",
"q+	c #869D00",
"r+	c #798D00",
"s+	c #758900",
"t+	c #748800",
"u+	c #798E00",
"v+	c #8DA500",
"w+	c #A2C200",
"x+	c #9BD400",
"y+	c #68E755",
"z+	c #8B1575",
"A+	c #C78E39",
"B+	c #EAD415",
"C+	c #84077C",
"D+	c #DB24A1",
"E+	c #BCDC00",
"F+	c #B7D500",
"G+	c #B0CE00",
"H+	c #ADCA00",
"I+	c #ACC800",
"J+	c #ADCB00",
"K+	c #B0D100",
"L+	c #9DD900",
"M+	c #9EDE00",
"N+	c #6BEA55",
"O+	c #860C7A",
"P+	c #83057D",
"    . + + + @ # $ $ $ $ $ $ $ # @ + % & * * ",
"  . + + + = - ; > , , , , ' ) ! ~ { ] * * * ",
". + + + $ ^ / ( _ : < < < [ } | 1 2 3 * * * ",
"+ + + + 4 5 6 7 8 9 9 9 0 a b c d e f * * * ",
"+ + + + g h i j k l l l m n o p q r s * * * ",
"+ + + + t u v w x y z z A B C D E F G * * * ",
"+ + + + t H I J K L L L L M N O P Q G * * * ",
"+ + + + t R S T U V W W X Y Z `  .Q G * * * ",
"+ + + + t ..+.@.#.$.%.%.&.*.=.-.;.>.G * * * ",
"+ + + + t ,.'.).!.~.{.{.].^./.(._.:.G * * * ",
"+ + $ <.[.}.|.1.2.3.4.5.6.7.8.9.0.a.G * * * ",
"+ @ b.c.c.d.e.e.e.f.c.g.h.i.j.k.l.m.G * n.o.",
"+ # p.c.c.q.r.s.s.t.c.u.v.w.x.y.z.A.G B.C.D.",
"+ $ E.c.c.F.G.s.s.t.c.H.I.J.K.L.M.N.O.P.Q.Q.",
"+ $ R.c.S.T.s.U.V.t.c.W.X.Y.Z.`. + + + + + +",
"+ $ R.c.q.s..+++@+#+c.$+%+&+*+=+-+-+-+;+>+-+",
"+ $ R.c.q.,+'+c.c.c.c.)+!+~+{+=+-+-+-+]+^+-+",
"+ { /+c.(+_+:+c.c.c.c.<+[+}+|+=+-+-+-+]+^+-+",
"% 1+2+c.c.t.S.c.c.c.c.3+4+5+6+=+7+8+-+]+^+-+",
"& 3 9+0+a+b+c+d+e+f+g+h+i+j+k+=+l+m+-+]+^+-+",
"* n+o+p+q+r+s+s+t+t+u+v+w+x+y+=+z+A+B+7+C+-+",
"D+* E+F+G+H+I+I+I+I+J+K+L+M+N+=+-+O+z+P+-+-+"};
