/* XPM */
static char * TUIBRepair_xpm[] = {
"22 22 318 2",
"  	c #E0C000",
". 	c #E0CA00",
"+ 	c #E0E000",
"@ 	c #DFDF00",
"# 	c #DEDE00",
"$ 	c #DDDD00",
"% 	c #DEE000",
"& 	c #C7E000",
"* 	c #C0E000",
"= 	c #DCDC00",
"- 	c #C0CB12",
"; 	c #AABC1F",
"> 	c #BBC225",
", 	c #C0C329",
"' 	c #BCC127",
") 	c #B5BB17",
"! 	c #C0C000",
"~ 	c #D2D200",
"{ 	c #DADD00",
"] 	c #C9E000",
"^ 	c #B9C617",
"/ 	c #3F8B7D",
"( 	c #167CBB",
"_ 	c #A6CED1",
": 	c #D6EAD8",
"< 	c #D7EAD8",
"[ 	c #C3DFD4",
"} 	c #83AC99",
"| 	c #7F8C1E",
"1 	c #A9AC00",
"2 	c #BBD000",
"3 	c #BEDE00",
"4 	c #D9D900",
"5 	c #689F5B",
"6 	c #0070B8",
"7 	c #187FBE",
"8 	c #94C5CF",
"9 	c #B9DAD5",
"0 	c #B9DAD4",
"a 	c #AFD5D2",
"b 	c #70B0C8",
"c 	c #3A716E",
"d 	c #6A7600",
"e 	c #9EB900",
"f 	c #BBDA00",
"g 	c #D4D400",
"h 	c #629A5D",
"i 	c #0072BB",
"j 	c #147FC0",
"k 	c #7CB9CE",
"l 	c #9BCBD2",
"m 	c #9BCAD2",
"n 	c #93C5D0",
"o 	c #5EA7C7",
"p 	c #235E6F",
"q 	c #445000",
"r 	c #8CA400",
"s 	c #B8D700",
"t 	c #D1D100",
"u 	c #5F985E",
"v 	c #0074BD",
"w 	c #117EC2",
"x 	c #64ACCC",
"y 	c #7EBBCF",
"z 	c #7EBBD0",
"A 	c #7EBACF",
"B 	c #77B6CD",
"C 	c #4C9EC6",
"D 	c #1A576F",
"E 	c #374000",
"F 	c #849A00",
"G 	c #B6D400",
"H 	c #DEDD08",
"I 	c #BAB95D",
"J 	c #929134",
"K 	c #9B9B45",
"L 	c #568E8C",
"M 	c #0276BF",
"N 	c #0F7EC3",
"O 	c #4EA1CB",
"P 	c #61ACCE",
"Q 	c #5CA8CB",
"R 	c #3B95C5",
"S 	c #165570",
"T 	c #353E00",
"U 	c #829700",
"V 	c #DEDE05",
"W 	c #B9B83F",
"X 	c #6D6C6D",
"Y 	c #A7A5A7",
"Z 	c #8E8D8E",
"` 	c #546773",
" .	c #1D6FA2",
"..	c #0C7DC4",
"+.	c #3092CA",
"@.	c #429DCD",
"#.	c #449ECE",
"$.	c #449DCC",
"%.	c #3F99CA",
"&.	c #278BC5",
"*.	c #135471",
"=.	c #363F01",
"-.	c #83823E",
";.	c #CACA17",
">.	c #868586",
",.	c #969596",
"'.	c #CCCBCC",
").	c #8E8C8E",
"!.	c #6B7A85",
"~.	c #3184B9",
"{.	c #1684C8",
"].	c #1F8BCB",
"^.	c #218CCC",
"/.	c #218ACA",
"(.	c #1F88C8",
"_.	c #1581C4",
":.	c #125473",
"<.	c #384003",
"[.	c #829701",
"}.	c #5C5B59",
"|.	c #818063",
"1.	c #C8C7C8",
"2.	c #868486",
"3.	c #9E9D9E",
"4.	c #CDCCCD",
"5.	c #898789",
"6.	c #2E7098",
"7.	c #1580C1",
"8.	c #1987CB",
"9.	c #1A88CC",
"0.	c #1987CA",
"a.	c #1785C8",
"b.	c #1582C5",
"c.	c #165775",
"d.	c #3A4205",
"e.	c #839801",
"f.	c #646364",
"g.	c #C1C1C1",
"h.	c #797979",
"i.	c #BFC0BF",
"j.	c #CBCBCB",
"k.	c #848484",
"l.	c #2E6282",
"m.	c #1D7BB2",
"n.	c #238BC9",
"o.	c #248ECD",
"p.	c #248DCD",
"q.	c #238CCB",
"r.	c #208AC9",
"s.	c #1D86C7",
"t.	c #1E5C78",
"u.	c #3E4709",
"v.	c #839902",
"w.	c #605F60",
"x.	c #ACAAAC",
"y.	c #C9CAC9",
"z.	c #C5C5C5",
"A.	c #B8B6B5",
"B.	c #817A78",
"C.	c #415F75",
"D.	c #2C7BA9",
"E.	c #3192C9",
"F.	c #3395CD",
"G.	c #3194CC",
"H.	c #2E90CA",
"I.	c #2A8CC7",
"J.	c #27627B",
"K.	c #424A0D",
"L.	c #849904",
"M.	c #BEE000",
"N.	c #A2E000",
"O.	c #6B6A4C",
"P.	c #636363",
"Q.	c #9B9C9B",
"R.	c #BCBABC",
"S.	c #B9B4B4",
"T.	c #B58075",
"U.	c #D67054",
"V.	c #E4623E",
"W.	c #757380",
"X.	c #4295C4",
"Y.	c #409CCE",
"Z.	c #3E99CC",
"`.	c #3A97CA",
" +	c #3592C7",
".+	c #30687D",
"++	c #454E11",
"@+	c #859A05",
"#+	c #BCE000",
"$+	c #A4E000",
"%+	c #A0E000",
"&+	c #C2C206",
"*+	c #6A6947",
"=+	c #6A686A",
"-+	c #949294",
";+	c #A37C78",
">+	c #E15C41",
",+	c #EA320F",
"'+	c #E35F4A",
")+	c #E36545",
"!+	c #7F7F8B",
"~+	c #4D9EC7",
"{+	c #4AA1CD",
"]+	c #479ECB",
"^+	c #439BC9",
"/+	c #389FCB",
"(+	c #28919E",
"_+	c #367C4F",
":+	c #64B444",
"<+	c #88DF40",
"[+	c #7EE840",
"}+	c #78E840",
"|+	c #CFCF00",
"1+	c #A5A50A",
"2+	c #6F6F3C",
"3+	c #69683C",
"4+	c #814A29",
"5+	c #CB4F38",
"6+	c #F96746",
"7+	c #E93310",
"8+	c #E46747",
"9+	c #867F86",
"0+	c #50A2CA",
"a+	c #4EA0CA",
"b+	c #489DC8",
"c+	c #2DBBD9",
"d+	c #12DCED",
"e+	c #2BAAD5",
"f+	c #C8C800",
"g+	c #A8A800",
"h+	c #8E9100",
"i+	c #6F710A",
"j+	c #763815",
"k+	c #CA5039",
"l+	c #E15D48",
"m+	c #E56B4D",
"n+	c #877D83",
"o+	c #4F9FC7",
"p+	c #4A9CC6",
"q+	c #2EBBD8",
"r+	c #3595CA",
"s+	c #800080",
"t+	c #A85058",
"u+	c #891277",
"v+	c #DBDB00",
"w+	c #C6CA00",
"x+	c #A5B700",
"y+	c #8DA500",
"z+	c #646B0D",
"A+	c #713116",
"B+	c #FA6B4A",
"C+	c #EB300C",
"D+	c #DF5844",
"E+	c #E0755C",
"F+	c #89777B",
"G+	c #4898C2",
"H+	c #2DB9D6",
"I+	c #DFBF20",
"J+	c #952A6B",
"K+	c #DDE000",
"L+	c #C7DD00",
"M+	c #B9D800",
"N+	c #AFCC00",
"O+	c #889E03",
"P+	c #555810",
"Q+	c #6C2D18",
"R+	c #CD4C34",
"S+	c #FB7252",
"T+	c #EC2F07",
"U+	c #DC5745",
"V+	c #D88170",
"W+	c #86655E",
"X+	c #299697",
"Y+	c #BDDC00",
"Z+	c #AAC601",
"`+	c #7F9304",
" @	c #575C0E",
".@	c #6A2F19",
"+@	c #D1472E",
"@@	c #EE6B5A",
"#@	c #CF220C",
"$@	c #D88680",
"%@	c #BA4A17",
"&@	c #348F61",
"*@	c #AA5555",
"=@	c #A3475C",
"-@	c #BBDB00",
";@	c #ACC901",
">@	c #8FA602",
",@	c #6F7A09",
"'@	c #67321B",
")@	c #985D77",
"!@	c #C87F90",
"~@	c #CC8996",
"{@	c #BF5413",
"]@	c #41AC58",
"^@	c #BF7F40",
"/@	c #B56A4B",
"(@	c #A4C000",
"_@	c #839406",
":@	c #513733",
"<@	c #8F6186",
"[@	c #8A6570",
"}@	c #718003",
"|@	c #48BA55",
"1@	c #8B1575",
"2@	c #C78E39",
"3@	c #EAD415",
"4@	c #84077C",
"5@	c #DB24A1",
"6@	c #A8C400",
"7@	c #869A03",
"8@	c #74830A",
"9@	c #608009",
"0@	c #668F00",
"a@	c #4EC255",
"b@	c #860C7A",
"c@	c #83057D",
"    . + + + @ # $ $ $ $ $ $ $ # @ + % & * * ",
"  . + + + = - ; > , , , , ' ) ! ~ { ] * * * ",
". + + + $ ^ / ( _ : < < < [ } | 1 2 3 * * * ",
"+ + + + 4 5 6 7 8 9 9 9 0 a b c d e f * * * ",
"+ + + + g h i j k l l l m n o p q r s * * * ",
"+ + + + t u v w x y z z A B C D E F G * * * ",
"H I J J K L M N O P P P P Q R S T U G * * * ",
"V W X Y Z `  ...+.@.#.#.$.%.&.*.=.U G * * * ",
"-.;.>.,.'.).!.~.{.].^.^./.(._.:.<.[.G * * * ",
"}.|.1.2.3.4.5.6.7.8.9.9.0.a.b.c.d.e.G * * * ",
"f.g.f.h.i.j.k.l.m.n.o.p.q.r.s.t.u.v.G * * * ",
"w.x.y.z.1.A.B.C.D.E.F.F.G.H.I.J.K.L.G * M.N.",
"O.P.Q.R.S.T.U.V.W.X.Y.Y.Z.`. +.+++@+G #+$+%+",
"&+*+=+-+;+>+,+'+)+!+~+{+]+^+/+(+_+:+<+[+}+}+",
"|+1+2+3+4+5+6+7+'+8+9+0+a+b+c+d+e+e+e+e+e+e+",
"= f+g+h+i+j+k+6+,+l+m+n+o+p+q+r+s+s+s+t+u+s+",
"+ v+w+x+y+z+A+5+B+C+D+E+F+G+H+r+s+s+s+I+J+s+",
"+ K+L+M+N+O+P+Q+R+S+T+U+V+W+X+r+s+s+s+I+J+s+",
"% ] * * Y+Z+`+ @.@+@@@#@$@%@&@r+*@=@s+I+J+s+",
"& * * * * -@;@>@,@'@)@!@~@{@]@r+^@/@s+I+J+s+",
"* * * * * * 3 s (@_@:@<@[@}@|@r+1@2@3@*@4@s+",
"5@* * * * * * * -@6@7@8@9@0@a@r+s+b@1@c@s+s+"};
