/* XPM */
static char * TUIBConfig_xpm[] = {
"22 22 317 2",
"  	c #E0C000",
". 	c #E0CA00",
"+ 	c #E0E000",
"@ 	c #DFDF00",
"# 	c #DEDE00",
"$ 	c #DDDD00",
"% 	c #DEE000",
"& 	c #C7E000",
"* 	c #C0E000",
"= 	c #DCDC00",
"- 	c #C0CB12",
"; 	c #AABC1F",
"> 	c #BBC225",
", 	c #C0C329",
"' 	c #BCC127",
") 	c #B5BB17",
"! 	c #C0C000",
"~ 	c #D2D200",
"{ 	c #DADD00",
"] 	c #C9E000",
"^ 	c #B9C617",
"/ 	c #3F8B7D",
"( 	c #167CBB",
"_ 	c #A6CED1",
": 	c #D6EAD8",
"< 	c #D7EAD8",
"[ 	c #C3DFD4",
"} 	c #83AC99",
"| 	c #7F8C1E",
"1 	c #A9AC00",
"2 	c #BBD000",
"3 	c #BEDE00",
"4 	c #D9D900",
"5 	c #689F5B",
"6 	c #0070B8",
"7 	c #187FBE",
"8 	c #94C5CF",
"9 	c #B9DAD5",
"0 	c #B9DAD4",
"a 	c #AFD5D2",
"b 	c #70B0C8",
"c 	c #3A716E",
"d 	c #6A7600",
"e 	c #9EB900",
"f 	c #BBDA00",
"g 	c #D4D400",
"h 	c #629A5D",
"i 	c #0072BB",
"j 	c #147FC0",
"k 	c #7CB9CE",
"l 	c #9BCBD2",
"m 	c #9BCAD2",
"n 	c #93C5D0",
"o 	c #5EA7C7",
"p 	c #235E6F",
"q 	c #445000",
"r 	c #8CA400",
"s 	c #B8D700",
"t 	c #D1D100",
"u 	c #5F985E",
"v 	c #0074BD",
"w 	c #117EC2",
"x 	c #64ACCC",
"y 	c #7EBBCF",
"z 	c #7EBBD0",
"A 	c #7EBACF",
"B 	c #77B6CD",
"C 	c #4C9EC6",
"D 	c #1A576F",
"E 	c #374000",
"F 	c #849A00",
"G 	c #B6D400",
"H 	c #5F985F",
"I 	c #0276BF",
"J 	c #0F7EC3",
"K 	c #4EA1CB",
"L 	c #61ACCE",
"M 	c #5CA8CB",
"N 	c #3B95C5",
"O 	c #165570",
"P 	c #353E00",
"Q 	c #829700",
"R 	c #C5C529",
"S 	c #869986",
"T 	c #677E88",
"U 	c #677171",
"V 	c #757271",
"W 	c #4C96BE",
"X 	c #449ECE",
"Y 	c #449DCC",
"Z 	c #3F99CA",
"` 	c #278BC5",
" .	c #135471",
"..	c #363F01",
"+.	c #CCCC24",
"@.	c #B29B66",
"#.	c #C98351",
"$.	c #A35C36",
"%.	c #85472B",
"&.	c #8F4225",
"*.	c #74423C",
"=.	c #2786C1",
"-.	c #218CCC",
";.	c #218ACA",
">.	c #1F88C8",
",.	c #1581C4",
"'.	c #125473",
").	c #384003",
"!.	c #829701",
"~.	c #C7C732",
"{.	c #A47B67",
"].	c #A34C24",
"^.	c #526172",
"/.	c #2778AC",
"(.	c #573D41",
"_.	c #6F2014",
":.	c #7A624B",
"<.	c #8D6F5B",
"[.	c #5D7E93",
"}.	c #1785C8",
"|.	c #1582C5",
"1.	c #165775",
"2.	c #3A4205",
"3.	c #839801",
"4.	c #D5D517",
"5.	c #999986",
"6.	c #94846B",
"7.	c #B16D3D",
"8.	c #CA712F",
"9.	c #C48951",
"0.	c #D8AE6D",
"a.	c #EABC73",
"b.	c #F0D084",
"c.	c #F0C377",
"d.	c #F7D274",
"e.	c #DCB464",
"f.	c #546065",
"g.	c #1D86C7",
"h.	c #1E5C78",
"i.	c #3E4709",
"j.	c #839902",
"k.	c #D9D90C",
"l.	c #998E85",
"m.	c #CD9059",
"n.	c #F1C996",
"o.	c #F6D9AB",
"p.	c #F2C793",
"q.	c #F1BF87",
"r.	c #EEB169",
"s.	c #E9A155",
"t.	c #EA9140",
"u.	c #E68A3B",
"v.	c #E6893A",
"w.	c #D1803A",
"x.	c #5A615C",
"y.	c #2A8CC7",
"z.	c #27627B",
"A.	c #424A0D",
"B.	c #849904",
"C.	c #BEE000",
"D.	c #A2E000",
"E.	c #8E8783",
"F.	c #8A5A3D",
"G.	c #B5713C",
"H.	c #D47D40",
"I.	c #EFBD67",
"J.	c #FEDF7C",
"K.	c #F5B45D",
"L.	c #D07F41",
"M.	c #CB7A3E",
"N.	c #C2753F",
"O.	c #6F6462",
"P.	c #3592C7",
"Q.	c #30687D",
"R.	c #454E11",
"S.	c #859A05",
"T.	c #BCE000",
"U.	c #A4E000",
"V.	c #A0E000",
"W.	c #978B84",
"X.	c #A26440",
"Y.	c #8C5940",
"Z.	c #C17146",
"`.	c #BC6F45",
" +	c #B86E43",
".+	c #CDA162",
"++	c #E4C774",
"@+	c #DD9F57",
"#+	c #B2703E",
"$+	c #A96E37",
"%+	c #A76B3A",
"&+	c #4A575E",
"*+	c #389FCB",
"=+	c #28919E",
"-+	c #367C4F",
";+	c #64B444",
">+	c #88DF40",
",+	c #7EE840",
"'+	c #78E840",
")+	c #958B82",
"!+	c #9D6638",
"~+	c #87573E",
"{+	c #9D5F46",
"]+	c #9A5E45",
"^+	c #9F6142",
"/+	c #A26441",
"(+	c #B06D3F",
"_+	c #BB733E",
":+	c #D98439",
"<+	c #F19136",
"[+	c #D1882D",
"}+	c #455A65",
"|+	c #2DBBD9",
"1+	c #12DCED",
"2+	c #2BAAD5",
"3+	c #928A81",
"4+	c #9E6A32",
"5+	c #A3673D",
"6+	c #955E41",
"7+	c #AB6742",
"8+	c #CA7742",
"9+	c #D57E3F",
"0+	c #DE843C",
"a+	c #E7893A",
"b+	c #F09037",
"c+	c #F99634",
"d+	c #D58B2B",
"e+	c #465B65",
"f+	c #2EBBD8",
"g+	c #3595CA",
"h+	c #800080",
"i+	c #A85058",
"j+	c #891277",
"k+	c #918B80",
"l+	c #A3702E",
"m+	c #CC7942",
"n+	c #C17245",
"o+	c #CC7842",
"p+	c #D57E40",
"q+	c #DE843D",
"r+	c #E88A3A",
"s+	c #F08F37",
"t+	c #F99635",
"u+	c #FE9932",
"v+	c #D68B2C",
"w+	c #465B66",
"x+	c #2DB9D6",
"y+	c #DFBF20",
"z+	c #952A6B",
"A+	c #908A7F",
"B+	c #9C6E2E",
"C+	c #CE7A41",
"D+	c #F99535",
"E+	c #FF9933",
"F+	c #D48B2A",
"G+	c #454E4E",
"H+	c #299797",
"I+	c #9B6D2E",
"J+	c #CF7A41",
"K+	c #F69532",
"L+	c #EF952B",
"M+	c #CB852C",
"N+	c #A27225",
"O+	c #836337",
"P+	c #5A5C49",
"Q+	c #3A9663",
"R+	c #AA5555",
"S+	c #A3475C",
"T+	c #C3D90C",
"U+	c #996C2F",
"V+	c #CD7942",
"W+	c #DF843C",
"X+	c #E48C33",
"Y+	c #CD852B",
"Z+	c #A6702D",
"`+	c #89642D",
" @	c #725B3B",
".@	c #726450",
"+@	c #716B5C",
"@@	c #7D7D62",
"#@	c #8EA816",
"$@	c #55C858",
"%@	c #BF7F40",
"&@	c #B56A4B",
"*@	c #BFDF02",
"=@	c #ACC124",
"-@	c #786755",
";@	c #966635",
">@	c #89652D",
",@	c #6A5638",
"'@	c #64594A",
")@	c #6D665D",
"!@	c #76736D",
"~@	c #838382",
"{@	c #ACC51A",
"]@	c #B3CD13",
"^@	c #B2D212",
"/@	c #9FDA00",
"(@	c #68E755",
"_@	c #8B1575",
":@	c #C78E39",
"<@	c #EAD415",
"[@	c #84077C",
"}@	c #DB24A1",
"|@	c #BFDE01",
"1@	c #AEC328",
"2@	c #86837F",
"3@	c #797773",
"4@	c #868584",
"5@	c #8E8E8E",
"6@	c #AABE35",
"7@	c #BAD70A",
"8@	c #BCD90C",
"9@	c #C0DF01",
"0@	c #6BEA55",
"a@	c #860C7A",
"b@	c #83057D",
"    . + + + @ # $ $ $ $ $ $ $ # @ + % & * * ",
"  . + + + = - ; > , , , , ' ) ! ~ { ] * * * ",
". + + + $ ^ / ( _ : < < < [ } | 1 2 3 * * * ",
"+ + + + 4 5 6 7 8 9 9 9 0 a b c d e f * * * ",
"+ + + + g h i j k l l l m n o p q r s * * * ",
"+ + + + t u v w x y z z A B C D E F G * * * ",
"+ + + + t H I J K L L L L M N O P Q G * * * ",
"+ + + + R S T U V W X X Y Z `  ...Q G * * * ",
"+ + + +.@.#.$.%.&.*.=.-.;.>.,.'.).!.G * * * ",
"+ + + ~.{.].^./.(._.:.<.[.}.|.1.2.3.G * * * ",
"+ 4.5.6.7.8.9.0.a.b.c.d.e.f.g.h.i.j.G * * * ",
"k.l.m.n.o.p.q.r.s.t.u.v.w.x.y.z.A.B.G * C.D.",
"k.E.F.G.H.H.H.I.J.K.L.M.N.O.P.Q.R.S.G T.U.V.",
"k.W.X.Y.Z.`. +.+++@+#+$+%+&+*+=+-+;+>+,+'+'+",
"k.)+!+~+{+]+^+/+(+_+:+<+[+}+|+1+2+2+2+2+2+2+",
"k.3+4+5+6+7+8+9+0+a+b+c+d+e+f+g+h+h+h+i+j+h+",
"k.k+l+m+n+o+p+q+r+s+t+u+v+w+x+g+h+h+h+y+z+h+",
"k.A+B+C+o+p+q+a+s+D+E+u+F+G+H+g+h+h+h+y+z+h+",
"k.A+I+J+p+q+a+s+K+L+M+N+O+P+Q+g+R+S+h+y+z+h+",
"T+A+U+V+W+X+Y+Z+`+ @.@+@@@#@$@g+%@&@h+y+z+h+",
"*@=@-@;@>@,@'@)@!@~@{@]@^@/@(@g+_@:@<@R+[@h+",
"}@|@1@2@3@4@5@6@7@8@9@C.D.V.0@g+h+a@_@b@h+h+"};
