/* XPM */
static char *tmp22[] = {
/* width height ncolors chars_per_pixel */
"22 22 307 2",
/* colors */
"   c #DCDC2F",
" . c #C05767",
" X c #C0DF06",
" o c #ECE9CD",
" O c #AD836B",
" + c #D8DA81",
" @ c #A1B737",
" # c #9FA974",
" $ c #EAEAEC",
" % c #DFDF6A",
" & c #A1232E",
" * c #C5899D",
" = c #A03B44",
" - c #44D0DD",
" ; c #BDA7AC",
" : c #C88096",
" > c #B38E95",
" , c #D5AEBD",
" < c #7AB78E",
" 1 c #9F4850",
" 2 c #995F6B",
" 3 c #BD505D",
" 4 c #C3B3B5",
" 5 c #A3414A",
" 6 c #965968",
" 7 c #C1959C",
" 8 c #C35D70",
" 9 c #CDBFC2",
" 0 c #D5B8C0",
" q c #B3B9A5",
" w c #E3CAD1",
" e c #D5D3CD",
" r c #C7BDBC",
" t c #D1B2BC",
" y c #9A636F",
" u c #BEE000",
" i c #DFDF1A",
" p c #DDDE4D",
" a c #BD9CA5",
" s c #D4A9B5",
" d c #A22B35",
" f c #E6DD38",
" g c #9CEB91",
" h c #C0A35F",
" j c #9F2932",
" k c #B94C5C",
" l c #CEA3AF",
" z c #DCD1D7",
" x c #88EB91",
" c c #E7E8B0",
" v c #A8BB47",
" b c #D5B2C3",
" n c #BDDB0C",
" m c #B68D94",
" M c #DEDE51",
" N c #DFDF1D",
" B c #8D9D3D",
" V c #C2687F",
" C c #91E87C",
" Z c #DFDF48",
" A c #CFC9CA",
" S c #B99EA4",
" D c #A72A33",
" F c #EAEFEB",
" G c #DFDF09",
" H c #BFD85A",
" J c #D9DBD7",
" K c #B598A0",
" L c #9DA3A6",
" P c #E0E000",
" I c #A03A43",
" U c #D9DA63",
" Y c #C05A69",
" T c #A6656D",
" R c #BDDB0F",
" E c #E4C7CE",
" W c #DFDF20",
" Q c #B3CC23",
" ! c #C2A3A6",
" ~ c #E0CA00",
" ^ c #BEDC06",
" / c #D3D592",
" ( c #CFCFCD",
" ) c #B9BCBE",
" _ c #E0C000",
" ` c #E1DED8",
" ' c #A52C34",
" ] c #89CACA",
" [ c #C6D68F",
" { c #9E434E",
" } c #DFDF0C",
" | c #9E5B65",
".  c #C692A0",
".. c #A4E000",
".X c #ECEDB1",
".o c #DDE000",
".O c #DEDE2C",
".+ c #C9C0BD",
".@ c #CAD0AA",
".# c #C9E000",
".$ c #D1BD51",
".% c #9B3641",
".& c #45C8D6",
".* c #DDDD4C",
".= c #B68A90",
".- c #800180",
".; c #E4D8DE",
".: c #A2424B",
".> c #E6D7D6",
"., c #A12A33",
".< c #851E7E",
".1 c #C05E6F",
".2 c #A6515C",
".3 c #ADB2B5",
".4 c #BFDE0D",
".5 c #C28B95",
".6 c #8DDC95",
".7 c #BEDC0C",
".8 c #C7BABE",
".9 c #A04B56",
".0 c #49E5EA",
".q c #A66269",
".w c #DEDE46",
".e c #A8D1D4",
".r c #EBEAEB",
".t c #BD7E86",
".y c #DBE004",
".u c #CED0B4",
".i c #DAD4D7",
".p c #E7E8E7",
".a c #C0A9AD",
".s c #C5BEBF",
".d c #ADADAE",
".f c #B8D513",
".g c #DFDF15",
".h c #C46479",
".j c #BDC4A3",
".k c #D9D8D9",
".l c #9BAF32",
".z c #9E232C",
".x c #D4D2D4",
".c c #8D3A7B",
".v c #C0E000",
".b c #4EC2D4",
".n c #B8D3D6",
".m c #BD9EA3",
".M c #EFE92B",
".N c #BA8689",
".B c #9AAE3E",
".V c #A58488",
".C c #975460",
".Z c #BDDA14",
".A c #B2626A",
".S c #B59166",
".D c #C6C8B2",
".F c #BEBCBE",
".G c #A9B867",
".H c #C27F8A",
".J c #C0B3B6",
".K c #DFDF07",
".L c #EBEBEA",
".P c #C6ACB2",
".I c #9EA3A5",
".U c #84177F",
".Y c #CE9DB0",
".T c #E4E7E3",
".R c #9DA29A",
".E c #C6BDBF",
".W c #E0E054",
".Q c #DEDF87",
".! c #BDE003",
".~ c #9DDF7F",
".^ c #A92E36",
"./ c #BAE000",
".( c #892E7D",
".) c #C1DA5D",
"._ c #DFDF0A",
".` c #E0E001",
".' c #B1666F",
".] c #CCBCBE",
".[ c #44CFDD",
".{ c #CBE000",
".} c #E2C5CD",
".| c #B4CF1B",
"X  c #E1E179",
"X. c #ABADA4",
"XX c #4EC1D3",
"Xo c #98C6C6",
"XO c #C4B6B6",
"X+ c #C37B91",
"X@ c #E1E26F",
"X# c #BC4F5C",
"X$ c #E2D4DA",
"X% c #A3E000",
"X& c #E0E004",
"X* c #B8979D",
"X= c #DCE000",
"X- c #C15C6E",
"X; c #EAE2E5",
"X: c #81EB91",
"X> c #C8E000",
"X, c #A32E36",
"X< c #AF9FAB",
"X1 c #D2C6CA",
"X2 c #C0D758",
"X3 c #C35E73",
"X4 c #A0E000",
"X5 c #909F4A",
"X6 c #DDDE2F",
"X7 c #C9A4AA",
"X8 c #EEEFCE",
"X9 c #C0DF05",
"X0 c #DEDF51",
"Xq c #A6303C",
"Xw c #B9D512",
"Xe c #E3E477",
"Xr c #D9D921",
"Xt c #DB53AF",
"Xy c #E8E9C8",
"Xu c #BB838F",
"Xi c #C4AFB2",
"Xp c #B4BAAC",
"Xa c #BA4856",
"Xs c #E5E4E6",
"Xd c #C1596A",
"Xf c #C0DF08",
"Xg c #B28C68",
"Xh c #E0CB00",
"Xj c #E2E279",
"Xk c #CECECC",
"Xl c #4EC0D2",
"Xz c #C36479",
"Xx c #B98190",
"Xc c #E1E16E",
"Xv c #A34149",
"Xb c #9DA574",
"Xn c #CECAB8",
"Xm c #C25D6E",
"XM c #D7BAC1",
"XN c #BF5B6B",
"XB c #B34452",
"XV c #B24451",
"XC c #C0E001",
"XZ c #46C9D7",
"XA c #A0323C",
"XS c #60B59E",
"XD c #800080",
"XF c #949796",
"XG c #BFD560",
"XH c #A02932",
"XJ c #BCBD71",
"XK c #9F535F",
"XL c #E8E5E5",
"XP c #9D6374",
"XI c #D0D19F",
"XU c #C46A80",
"XY c #BF5664",
"XT c #BCE000",
"XR c #BCA2A6",
"XE c #CAB357",
"XW c #BA525F",
"XQ c #C3D232",
"X! c #C3DD53",
"X~ c #A0A5A8",
"X^ c #DADCCD",
"X/ c #8F417A",
"X( c #C7A3AA",
"X) c #C05868",
"X_ c #AAACAB",
"X` c #767A6E",
"X' c #A95C65",
"X] c #DEDE14",
"X[ c #4EBFD1",
"X{ c #A5E000",
"X} c #CBDE15",
"X| c #E0E002",
"o  c #A1262F",
"o. c #DEE000",
"oX c #A13C46",
"oo c #C4BDC1",
"oO c #C0C3BD",
"o+ c #DBDB5D",
"o@ c #E9E0E2",
"o# c #BA5865",
"o$ c #D6D958",
"o% c #A22A33",
"o& c #E0E005",
"o* c #C0D956",
"o= c #A2E000",
"o- c #BFAEB2",
"o; c #C1D08C",
"o: c #C78D99",
"o> c #AEB2B5",
"o, c #B6ABB3",
"o< c #EBE9DD",
"o1 c #8D9B45",
"o2 c #BAD711",
"o3 c #A76069",
"o4 c #AE757D",
"o5 c #A32E37",
"o6 c #89E87C",
"o7 c #9B5B67",
"o8 c #C4788C",
"o9 c #A8878E",
"o0 c #B5B5B5",
"oq c #D2D24D",
"ow c #C4C5C7",
/* pixels */
" _ _Xh P P P P P P P P P P P P P P Po.X>.v.v",
" _ ~ P P P P._ i.wX0 M pX6 GX| P P.o.#.v.v.v",
"Xh P P PX& N.*.QX^.k.xXkXI U   }X=.{.v.v.v.v",
" P P Po&.OX  co<.;XMX7 !XOXn /o$X}.v.v.v.v.v",
" P P.` WXjX8X; b *.5.N TXK.=.+.@X2XC.v.v.v.v",
" P P } Z.Xo@.YX+ 0.i A.s.V.%o4 r [.4XC.v.v.v",
" P P.gXe o , V l.p.8 >.] (.CXA m.DXGXf.v.v.v",
" P P.WXy.> :X3. .P.'XqX(.T y.zX' 4o;.ZXC.v.v",
" P PXc.L wXU 8.1o#XV.tXL.E {o  5.aXp.jX!.v.v",
" P PX@ $.}.hXm .Xa.H.roo | do%oX ;o>o0.).v.v",
" P P %Xs EXzX-X) k t F 2 DX,XHXvXi.3.d H.v.v",
" P Po+ JX$o8Xd Y 3XxX<.:.^o5 jo3 9X_X.o* uX%",
" P PX] + ` sXNXYX#Xuo,.9 '., I.mow #.|.!X{X4",
" P P.Koq.u zo:XWXB a e 6 & =o9.nXo <.~ Co6o6",
" P P PXrXJoOX1 7.A.2o7 1.qX*.e.0.&XZ.[ - - -",
" P P P.yXQ.G q.Fo- S KXR.J ) ]X[.-.-XDXg.cXD",
" P PX=.{XC n vXb.R LX~.IXFX`XSXl.-XDXD fXPXD",
" P.o.{.v.vXC R Q @.BX5o1 B.l.6XXXDXDXD fXPXD",
"o..#.v.v.v.v.v XX9 ^Xw.fo2.7 g.b.S OXD fXPXD",
"X>.v.v.v.v.v.v.v.v.v.v.v.v./ x.bXE hXD fXPXD",
".v.v.v.v.v.v.v.v.v.v.v.vXT..X:.bX/.$.M.S.<XD",
"Xt.v.v.v.v.v.v.v.v.v.v uo=X4X:.bXD.(X/.UXDXD"
};
