<?xml version="1.0" ?>
<!-- Uploaded to: SVG Repo, www.svgrepo.com, Generator: SVG Repo Mixer Tools -->
<svg width="800px" height="800px" viewBox="0 0 64 64" xmlns="http://www.w3.org/2000/svg">
<defs>
<style>.cls-1{fill:#f57c00;}.cls-2{fill:#999;}.cls-3{fill:#666;}</style>
</defs>
<title/>
<g data-name="outline color" id="outline_color">
<path class="cls-1" d="M35.45,57H27a1,1,0,0,1-1-1V40a1,1,0,0,1,1-1h8.45a1,1,0,0,1,0,2H28V55h7.45a1,1,0,0,1,0,2Z"/>
<path class="cls-1" d="M59,57H50.55a1,1,0,0,1,0-2H58V41H50.55a1,1,0,0,1,0-2H59a1,1,0,0,1,1,1V56A1,1,0,0,1,59,57Z"/>
<path class="cls-1" d="M43,60A12,12,0,1,1,55,48,12,12,0,0,1,43,60Zm0-22A10,10,0,1,0,53,48,10,10,0,0,0,43,38Z"/>
<path class="cls-1" d="M43,56a8,8,0,1,1,8-8A8,8,0,0,1,43,56Zm0-14a6,6,0,1,0,6,6A6,6,0,0,0,43,42Z"/>
<path class="cls-1" d="M30,41a1,1,0,0,1-1-1V38a1,1,0,0,1,2,0v2A1,1,0,0,1,30,41Z"/>
<path class="cls-2" d="M21.77,55.1a5,5,0,0,1-4.56-3L4.56,23.84a5,5,0,0,1,2.52-6.61L28.62,7.61a1,1,0,1,1,.82,1.82L7.9,19.05a3,3,0,0,0-1.52,4L19,51.32A3,3,0,0,0,22.69,53a1,1,0,1,1,.62,1.9A4.85,4.85,0,0,1,21.77,55.1Z"/>
<path class="cls-3" d="M22.21,24.76a1,1,0,0,1-1-.85,7.36,7.36,0,0,1-.07-2.52v0a7.55,7.55,0,0,1,3.68-5.44,1.06,1.06,0,0,1,.5-.13,1,1,0,0,1,.43,1.91,5.49,5.49,0,0,0-2.62,3.9.13.13,0,0,0,0,.06,5.52,5.52,0,0,0,.06,1.9,1.49,1.49,0,0,1,0,.21A1,1,0,0,1,22.21,24.76Z"/>
<path class="cls-3" d="M16.56,37a1,1,0,0,1-.91-.59l-4.49-10a1,1,0,0,1,0-.77,1,1,0,0,1,.52-.55l10.05-4.49a1,1,0,0,1,1.24.36,1.08,1.08,0,0,1,.19.58,1,1,0,0,1-.87,1l-8.88,4,3.8,8.5a1,1,0,0,1,.54.52,1,1,0,0,1-.52,1.31l-.25.12A1.1,1.1,0,0,1,16.56,37Z"/>
<path class="cls-2" d="M23,43.85a1,1,0,0,1-.41-.09l-4.11-1.84a5,5,0,0,1-2.62-6.35.71.71,0,0,1,.08-.21l5.33-11.93a.41.41,0,0,1,0-.08l3.12-7,.06-.12L28.61,7a5,5,0,0,1,6.6-2.52l21.91,9.79a5,5,0,0,1,2.52,6.61l-6.9,15.43a1,1,0,1,1-1.82-.82l6.9-15.43a3,3,0,0,0-1.52-4L34.39,6.31a3,3,0,0,0-2.29-.06,3,3,0,0,0-1.67,1.58l-4.18,9.36-.06.12-3,6.79a.41.41,0,0,1,0,.08l-5.34,12a.45.45,0,0,1,0-.06,1.21,1.21,0,0,1-.05.18A3,3,0,0,0,19.3,40.1l4.11,1.84A1,1,0,0,1,23,43.85Z"/>
<path class="cls-3" d="M39,34.56a1,1,0,0,1-.41-.09l-8.49-3.8A1,1,0,0,1,29.9,29l5.24-3.8.09-.06,4.38-3.18a1,1,0,0,1,1-.08,1,1,0,0,1,.55.89L42.27,33a1,1,0,1,1-2,.2l-.9-8.65-3.06,2.22-.1.06-3.75,2.72,6.91,3.1A1,1,0,0,1,39,34.56Z"/>
<path class="cls-3" d="M35.6,27a7.44,7.44,0,0,1-3-.65,7.5,7.5,0,1,1,10.48-7.9,7.34,7.34,0,0,1-.57,4.12,7.2,7.2,0,0,1-1.43,2.12,1,1,0,1,1-1.44-1.38,5.49,5.49,0,0,0,1-1.56,5.38,5.38,0,0,0,.41-3,5.5,5.5,0,1,0-7.68,5.79,5.23,5.23,0,0,0,2.33.47,1,1,0,0,1,1,1,1,1,0,0,1-1,1Z"/>
<path class="cls-3" d="M40.2,23.73a1,1,0,0,1-1-1h0a1,1,0,1,1,1,1Z"/>
<path class="cls-3" d="M47.64,34a1,1,0,0,1-.41-.09l-6.68-3a1,1,0,0,1,.82-1.82l5.77,2.57,3.67-8.22-9-4-.24-.09a1,1,0,0,1-.45-1.32l0,0a1,1,0,0,1,1.3-.46l10,4.49a1,1,0,0,1,.52.55,1,1,0,0,1,0,.77l-4.49,10A1,1,0,0,1,47.64,34Z"/>
</g>
</svg>