<?xml version="1.0" encoding="UTF-8" standalone="no"?>
<!-- Uploaded to: SVG Repo, www.svgrepo.com, Generator: SVG Repo Mixer Tools -->
<svg width="800px" height="800px" viewBox="0 -0.5 21 21" xmlns="http://www.w3.org/2000/svg">
  <title>edit_text_bar [#1372]</title>
  <g stroke="none" stroke-width="1" fill="none" fill-rule="evenodd">
    <!-- Center rectangle in white -->
    <rect x="325.1" y="646" width="16.8" height="8" fill="none"
          transform="translate(-379,-800) translate(56,160)"/>
    <!-- Outer shape in gray -->
    <path fill="#787878" d="M327.2,654 L325.1,654 L325.1,646 L327.2,646 L327.2,644 L323,644 L323,656 L327.2,656 L327.2,654 Z M333.5,644 L333.5,646 L341.9,646 L341.9,654 L333.5,654 L333.5,656 L344,656 L344,644 L333.5,644 Z M331.4,658 L333.5,658 L333.5,660 L327.2,660 L327.2,658 L329.3,658 L329.3,642 L327.2,642 L327.2,640 L333.5,640 L333.5,642 L331.4,642 L331.4,658 Z"
          transform="translate(-379,-800) translate(56,160)"/>
  </g>
</svg>