<?xml version="1.0" ?>
<!-- Uploaded to: SVG Repo, www.svgrepo.com, Generator: SVG Repo Mixer Tools -->
<svg width="800px" height="800px" viewBox="0 0 64 64" xmlns="http://www.w3.org/2000/svg">
<defs>
<style>.cls-1{fill:#f57c00;}.cls-2{fill:#999;}.cls-3{fill:#666;}</style>
</defs>
<title/>
<g data-name="outline color" id="outline_color">
<path class="cls-1" d="M37,60a5,5,0,1,1,5-5A5,5,0,0,1,37,60Zm0-8a3,3,0,1,0,3,3A3,3,0,0,0,37,52Z"/>
<path class="cls-1" d="M52,50a4,4,0,1,1,4-4A4,4,0,0,1,52,50Zm0-6a2,2,0,1,0,2,2A2,2,0,0,0,52,44Z"/>
<path class="cls-2" d="M21.78,55.1a5,5,0,0,1-4.57-3L4.56,23.84a5,5,0,0,1,2.52-6.61L28.62,7.61a1,1,0,1,1,.82,1.82L7.9,19.05a3,3,0,0,0-1.52,4L19,51.32a3,3,0,0,0,4,1.52L29.32,50a1,1,0,1,1,.82,1.82l-6.33,2.83A4.89,4.89,0,0,1,21.78,55.1Z"/>
<path class="cls-3" d="M22.21,24.76a1,1,0,0,1-1-.85,7.36,7.36,0,0,1-.07-2.52v0a7.55,7.55,0,0,1,3.68-5.44,1.06,1.06,0,0,1,.5-.13,1,1,0,0,1,.43,1.91,5.49,5.49,0,0,0-2.62,3.9.13.13,0,0,0,0,.06,5.52,5.52,0,0,0,.06,1.9,1.49,1.49,0,0,1,0,.21A1,1,0,0,1,22.21,24.76Z"/>
<path class="cls-3" d="M16.56,37a1,1,0,0,1-.91-.59l-4.49-10a1,1,0,0,1,0-.77,1,1,0,0,1,.52-.55l10.05-4.49a1,1,0,0,1,1.24.36,1.08,1.08,0,0,1,.19.58,1,1,0,0,1-.87,1l-8.88,4,3.8,8.5a1,1,0,0,1,.54.52,1,1,0,0,1-.52,1.31l-.25.12A1.1,1.1,0,0,1,16.56,37Z"/>
<path class="cls-2" d="M29,46.53a1,1,0,0,1-.41-.09L18.48,41.92a5,5,0,0,1-2.62-6.35.71.71,0,0,1,.08-.21l5.33-11.93a.41.41,0,0,1,0-.08l3.12-7,.06-.12L28.61,7a5,5,0,0,1,6.6-2.52l21.91,9.79a5,5,0,0,1,2.52,6.61L54.93,31.43a1,1,0,1,1-1.82-.82l4.71-10.54a3,3,0,0,0-1.52-4L34.39,6.31a3,3,0,0,0-2.29-.06,3,3,0,0,0-1.67,1.58l-4.18,9.36-.06.12-3,6.79a.41.41,0,0,1,0,.08l-5.34,12a.45.45,0,0,1,0-.06,1.21,1.21,0,0,1-.05.18A3,3,0,0,0,19.3,40.1l10.12,4.52A1,1,0,0,1,29,46.53Z"/>
<path class="cls-3" d="M36,33.24a1,1,0,0,1-.41-.09l-5.55-2.48A1,1,0,0,1,29.9,29l5.24-3.8.09-.06,4.38-3.18a1,1,0,0,1,1-.08,1,1,0,0,1,.55.89l.72,7a1,1,0,1,1-2,.2l-.55-5.33-3.06,2.22-.1.06-3.75,2.72,4,1.78A1,1,0,0,1,36,33.24Z"/>
<path class="cls-3" d="M35.6,27a7.44,7.44,0,0,1-3-.65,7.5,7.5,0,1,1,10.48-7.9,7.34,7.34,0,0,1-.57,4.12,7.2,7.2,0,0,1-1.43,2.12,1,1,0,1,1-1.44-1.38,5.49,5.49,0,0,0,1-1.56,5.38,5.38,0,0,0,.41-3,5.5,5.5,0,1,0-7.68,5.79,5.23,5.23,0,0,0,2.33.47,1,1,0,0,1,1,1,1,1,0,0,1-1,1Z"/>
<path class="cls-3" d="M40.2,23.73a1,1,0,0,1-1-1h0a1,1,0,1,1,1,1Z"/>
<path class="cls-3" d="M49.3,30.33a1,1,0,0,1-.41-.09,1,1,0,0,1-.5-1.32l2.42-5.42-9-4-.24-.09a1,1,0,0,1-.45-1.32l0,0a1,1,0,0,1,1.3-.46l10,4.49a1,1,0,0,1,.52.55,1,1,0,0,1,0,.77l-2.83,6.33A1,1,0,0,1,49.3,30.33Z"/>
<path class="cls-1" d="M45,59a1,1,0,0,1,1-1h0a1,1,0,0,1,1,1h0a1,1,0,0,1-1,1h0A1,1,0,0,1,45,59Zm4.07-.33a1,1,0,0,1,.64-1.26h0a1,1,0,0,1,1.26.64h0a1,1,0,0,1-.64,1.26h0a.87.87,0,0,1-.31,0h0A1,1,0,0,1,49.08,58.67Zm3.76-1.57a1,1,0,0,1,.22-1.39h0a1,1,0,0,1,1.4.22h0a1,1,0,0,1-.22,1.39h0a1,1,0,0,1-.59.19h0A1,1,0,0,1,52.84,57.1Zm3.09-2.65a1,1,0,0,1-.22-1.4h0a1,1,0,0,1,1.4-.22h0a1,1,0,0,1,.22,1.4h0a1,1,0,0,1-.81.41h0A1,1,0,0,1,55.93,54.45ZM58.06,51a1,1,0,0,1-.64-1.26h0a1,1,0,0,1,1.26-.64h0a1,1,0,0,1,.64,1.26h0a1,1,0,0,1-1,.69h0A1.12,1.12,0,0,1,58.06,51ZM32,46a1,1,0,0,1,1-1h0a1,1,0,0,1,1,1h0a1,1,0,0,1-1,1h0A1,1,0,0,1,32,46Zm26,0V46h0a1,1,0,0,1,1-1h0a1,1,0,0,1,1,1h0v0h0v0h0a1,1,0,0,1-1,1h0A1,1,0,0,1,58,46ZM33.32,43a1,1,0,0,1-.65-1.26h0a1,1,0,0,1,1.26-.64h0a1,1,0,0,1,.65,1.26h0a1,1,0,0,1-1,.69h0A1,1,0,0,1,33.32,43Zm24.08-.71A1,1,0,0,1,58,41h0a1,1,0,0,1,1.26.63h0a1,1,0,0,1-.63,1.27h0a1.19,1.19,0,0,1-.32,0h0A1,1,0,0,1,57.4,42.25ZM34.88,39.19a1,1,0,0,1-.23-1.39h0a1,1,0,0,1,1.4-.23h0a1,1,0,0,1,.22,1.4h0a1,1,0,0,1-.81.41h0A1,1,0,0,1,34.88,39.19Zm20.8-.28a1,1,0,0,1,.22-1.4h0a1,1,0,0,1,1.4.22h0a1,1,0,0,1-.22,1.4h0a1,1,0,0,1-.59.19h0A1,1,0,0,1,55.68,38.91ZM37.52,36.09a1,1,0,0,1,.22-1.4h0a1,1,0,0,1,1.4.22h0a1,1,0,0,1-.22,1.4h0a1,1,0,0,1-.59.19h0A1,1,0,0,1,37.52,36.09Zm15.5.18a1,1,0,0,1-.23-1.4h0a1,1,0,0,1,1.4-.22h0A1,1,0,0,1,54.42,36h0a1,1,0,0,1-.82.42h0A1,1,0,0,1,53,36.27ZM41,34a1,1,0,0,1,.64-1.26h0a1,1,0,0,1,1.26.64h0a1,1,0,0,1-.64,1.26h0a.84.84,0,0,1-.31,0h0A1,1,0,0,1,41,34Zm8.67.62A1,1,0,0,1,49,33.31h0a1,1,0,0,1,1.26-.64h0a1,1,0,0,1,.64,1.26h0a1,1,0,0,1-1,.69h0A1.12,1.12,0,0,1,49.67,34.57ZM45,33a1,1,0,0,1,1-1h0a1,1,0,0,1,1,1h0a1,1,0,0,1-1,1h0A1,1,0,0,1,45,33Z"/>
<path class="cls-1" d="M46.07,52.08a1,1,0,0,1,.81-1.16h0a1,1,0,0,1,1.16.81h0a1,1,0,0,1-.81,1.16h0l-.17,0h0A1,1,0,0,1,46.07,52.08Zm-3.55,0a1,1,0,0,1-.37-1.37h0a1,1,0,0,1,1.37-.37h0a1,1,0,0,1,.37,1.37h0a1,1,0,0,1-.87.5h0A1,1,0,0,1,42.52,52.08Zm-3.09-3.65A1,1,0,0,1,40,47.14h0a1,1,0,0,1,1.29.59h0A1,1,0,0,1,40.72,49h0a1.12,1.12,0,0,1-.35.06h0A1,1,0,0,1,39.43,48.43ZM40,44.92a1,1,0,0,1-.6-1.27h0A1,1,0,0,1,40.68,43h0a1,1,0,0,1,.61,1.28h0a1,1,0,0,1-.94.66h0A1,1,0,0,1,40,44.92Zm2.09-3.59A1,1,0,0,1,42.45,40h0a1,1,0,0,1,1.37.36h0a1,1,0,0,1-.35,1.37h0a1.06,1.06,0,0,1-.51.14h0A1,1,0,0,1,42.1,41.33Zm4.72-.26h0A1,1,0,0,1,46,39.92h0a1,1,0,0,1,1.15-.83h0A1,1,0,0,1,48,40.25h0a1,1,0,0,1-1,.83h-.17Z"/>
</g>
</svg>