<?xml version="1.0" encoding="iso-8859-1"?>
<!-- Uploaded to: SVG Repo, www.svgrepo.com, Generator: SVG Repo Mixer Tools -->
<svg height="800px" width="800px" version="1.1" id="Layer_1" xmlns="http://www.w3.org/2000/svg" xmlns:xlink="http://www.w3.org/1999/xlink" 
	 viewBox="0 0 368 368" xml:space="preserve">
<g transform="translate(22 26)">
	<path style="fill:#9CE0FF;" d="M306,14c17.6,0,32,14.4,32,32v224c0,17.6-14.4,32-32,32H18c-17.6,0-32-14.4-32-32V46
		c0-17.6,14.4-32,32-32H306L306,14z"/>
	<path style="fill:#80D440;" d="M334,178.8l-47.6-47.6c-3.2-3.2-8-3.2-11.2,0l-96.8,95.2l-60-56.4L-0.8,296.8h336L334,178.8z"/>
	<path style="fill:#62C418;" d="M177.2,222.8l-52.4-50.4c-3.2-3.2-8-3.2-11.2,0L-10,294h120L177.2,222.8z"/>
	<g>
		<path style="fill:#5F961D;" d="M132,278c-2,0-4-0.8-5.6-2.4c-3.2-3.2-3.2-8,0-11.2l8-8c3.2-3.2,8-3.2,11.2,0c3.2,3.2,3.2,8,0,11.2
			l-8,8C136,277.2,134,278,132,278z"/>
		<path style="fill:#5F961D;" d="M-1.2,293.2c-2,0-4-0.8-5.6-2.4c-3.2-3.2-3.2-8.4,0-11.2L108.8,166c3.2-3.2,7.2-4.8,11.2-4.8
			s8.4,1.6,11.2,4.8l46.4,46.4c3.2,3.2,3.2,8,0,11.2s-8,3.2-11.2,0L120,177.2L4.4,290.8C2.8,292.4,0.8,293.2-1.2,293.2z"/>
	</g>
	<path style="fill:#5F971D;" d="M156.8,252.8c-2,0-4-0.8-5.6-2.4c-3.2-3.2-3.2-8,0-11.2l118.4-117.6c6.4-6.4,16-6.4,22.4,0
		l47.6,47.6c3.2,3.2,3.2,8,0,11.2s-8,3.2-11.2,0l-47.6-47.6L162.4,250.4C160.8,252,158.8,252.8,156.8,252.8z"/>
	<path style="fill:#62A2DD;" d="M306,310H18c-22,0-40-18-40-40V46C-22,24-4,6,18,6h288c22,0,40,18,40,40v224
		C346,292,328,310,306,310z M18,22C4.8,22-6,32.8-6,46v224c0,13.2,10.8,24,24,24h288c13.2,0,24-10.8,24-24V46c0-13.2-10.8-24-24-24
		H18z"/>
	<circle style="fill:#FFE53C;" cx="66" cy="94" r="24"/>
	<path style="fill:#F3D933;" d="M66,118c13.2,0,24-10.8,24-24S79.2,70,66,70C66,94,66,99.6,66,118z"/>
	<path style="fill:#C39215;" d="M66,126c-17.6,0-32-14.4-32-32s14.4-32,32-32s32,14.4,32,32S83.6,126,66,126z M66,78
		c-8.8,0-16,7.2-16,16s7.2,16,16,16s16-7.2,16-16S74.8,78,66,78z"/>
</g>
</svg>