<?xml version="1.0" encoding="iso-8859-1"?>
<!-- Uploaded to: SVG Repo, www.svgrepo.com, Generator: SVG Repo Mixer Tools -->
<svg version="1.1" id="Layer_1" xmlns="http://www.w3.org/2000/svg" xmlns:xlink="http://www.w3.org/1999/xlink" 
	 viewBox="0 0 512 512" xml:space="preserve">
<rect x="180.706" y="143.638" style="fill:#FF4181;" width="282.643" height="356.778"/>
<rect x="136.688" y="99.62" style="fill:#FF755C;" width="282.643" height="356.778"/>
<rect x="92.67" y="55.602" style="fill:#FF9356;" width="282.643" height="356.778"/>
<polygon style="fill:#FFCE47;" points="331.295,368.362 48.652,368.362 48.652,11.584 245.575,11.584 331.295,97.303 "/>
<polygon style="fill:#FFEBB4;" points="245.575,11.584 245.575,97.303 331.295,97.303 "/>
<g>
	<path style="fill:#01121C;" d="M463.467,131.972H451.89c-6.397,0-11.584,5.187-11.584,11.584c0,6.395,5.184,11.58,11.577,11.584
		v333.693H192.09c-0.003-6.394-5.188-11.577-11.584-11.577c-6.397,0-11.584,5.187-11.584,11.584v11.577
		c0,6.397,5.187,11.584,11.584,11.584h282.96c6.397,0,11.584-5.187,11.584-11.584V143.556
		C475.051,137.158,469.864,131.972,463.467,131.972z"/>
	<path style="fill:#01121C;" d="M431.059,456.425V99.564c0-6.397-5.187-11.584-11.584-11.584H407.9
		c-6.397,0-11.584,5.187-11.584,11.584c0,6.395,5.183,11.579,11.576,11.584v333.693H148.099
		c-0.005-6.394-5.188-11.576-11.584-11.576c-6.397,0-11.584,5.187-11.584,11.584v11.576c0,6.397,5.187,11.584,11.584,11.584h282.96
		C425.872,468.009,431.059,462.823,431.059,456.425z"/>
	<path style="fill:#01121C;" d="M387.069,412.436V55.575c0-6.397-5.187-11.584-11.584-11.584h-38.386
		c-6.397,0-11.584,5.187-11.584,11.584s5.187,11.584,11.584,11.584h26.802v333.693H104.109c-0.003-6.395-5.188-11.577-11.584-11.577
		c-6.397,0-11.584,5.187-11.584,11.584v11.577c0,6.397,5.187,11.584,11.584,11.584h282.96
		C381.883,424.019,387.069,418.832,387.069,412.436z"/>
	<path style="fill:#01121C;" d="M343.079,368.444V96.273c0-0.388-0.02-0.774-0.058-1.156c-0.028-0.28-0.076-0.555-0.124-0.829
		c-0.017-0.097-0.025-0.197-0.045-0.294c-0.066-0.331-0.152-0.656-0.246-0.977c-0.012-0.039-0.019-0.08-0.03-0.118
		c-0.1-0.326-0.217-0.644-0.343-0.957c-0.014-0.036-0.024-0.073-0.039-0.108c-0.123-0.295-0.262-0.58-0.408-0.863
		c-0.028-0.054-0.05-0.11-0.079-0.163c-0.136-0.254-0.287-0.496-0.441-0.738c-0.05-0.079-0.093-0.16-0.145-0.237
		c-0.145-0.217-0.305-0.42-0.463-0.626c-0.073-0.095-0.138-0.193-0.214-0.286c-0.175-0.212-0.364-0.411-0.553-0.609
		c-0.071-0.074-0.133-0.154-0.205-0.227l-84.69-84.692c-0.073-0.073-0.153-0.134-0.227-0.205c-0.199-0.189-0.397-0.378-0.609-0.553
		c-0.093-0.076-0.192-0.141-0.286-0.214c-0.205-0.159-0.41-0.319-0.626-0.463c-0.078-0.051-0.16-0.095-0.237-0.145
		c-0.242-0.154-0.484-0.306-0.738-0.441c-0.053-0.029-0.11-0.051-0.163-0.079c-0.281-0.146-0.568-0.285-0.863-0.408
		c-0.036-0.015-0.073-0.025-0.108-0.039c-0.313-0.126-0.631-0.243-0.957-0.343c-0.039-0.012-0.079-0.019-0.118-0.03
		c-0.321-0.094-0.645-0.18-0.977-0.246c-0.097-0.02-0.197-0.028-0.294-0.045c-0.275-0.047-0.549-0.096-0.829-0.124
		C247.582,0.02,247.196,0,246.808,0H48.534C42.137,0,36.95,5.187,36.95,11.584v356.861c0,6.397,5.187,11.584,11.584,11.584h282.96
		C337.892,380.028,343.079,374.842,343.079,368.444z M258.389,39.55l45.141,45.141h-45.141L258.389,39.55L258.389,39.55z
		 M60.118,356.861V23.167h175.103v73.106c0,6.397,5.187,11.584,11.584,11.584h73.106v249.003H60.118z"/>
</g>
</svg>