<?xml version="1.0" encoding="UTF-8"?>
<!-- Uploaded to: SVG Repo, www.svgrepo.com, Generator: SVG Repo Mixer Tools -->
<svg width="800px" height="800px" viewBox="0 0 24 24"
     xmlns="http://www.w3.org/2000/svg">
  <!-- Switch track -->
  <path fill="#787878" fill-rule="nonzero"
        d="M3,12 C3,14.2046438 4.78852545,16 6.9947834,16 L17.0052166,16 C19.2082844,16 21,14.209139 21,12 C21,9.79535615 19.2114745,8 17.0052166,8 L6.9947834,8 C4.79171562,8 3,9.790861 3,12 Z
           M1,12 C1,8.68773136 3.68570682,6 6.9947834,6 L17.0052166,6 C20.3154275,6 23,8.69016475 23,12 C23,15.3122686 20.3142932,18 17.0052166,18 L6.9947834,18 C3.68457248,18 1,15.3098352 1,12 Z"/>
  
  <!-- Toggle circle -->
  <circle cx="17" cy="12" r="3" fill="#cb4c32"/>
</svg>