<?xml version="1.0" ?>
<!-- Uploaded to: SVG Repo, www.svgrepo.com, Generator: SVG Repo Mixer Tools -->
<svg width="800px" height="800px" viewBox="0 0 64 64" xmlns="http://www.w3.org/2000/svg">
<defs>
<style>.cls-1{fill:#f57c00;}.cls-2{fill:#999;}.cls-3{fill:#666;}</style>
</defs>
<title/>
<g data-name="outline color" id="outline_color">
<path class="cls-1" d="M37,58.06a.86.86,0,0,1-.35-.06A1,1,0,0,1,36,57l1.27-14.1a1,1,0,0,1,.55-.8,1,1,0,0,1,1,0L50.9,49.43a1,1,0,0,1-.54,1.86l-8-.17-4.58,6.52A1,1,0,0,1,37,58.06Zm2.12-13.41-.79,8.78,2.73-3.9a1,1,0,0,1,.84-.42l4.76.1Z"/>
<path class="cls-1" d="M57,56.11a1,1,0,0,1-1-.93A18.57,18.57,0,0,0,39.07,38.05a1,1,0,0,1,.16-2A20.61,20.61,0,0,1,58,55,1,1,0,0,1,57,56.11Z"/>
<path class="cls-1" d="M18.09,55.84H18a1,1,0,0,1-.92-1.08A20.52,20.52,0,0,1,35,36.14a1,1,0,0,1,.24,2,18.5,18.5,0,0,0-16.18,16.8A1,1,0,0,1,18.09,55.84Z"/>
<path class="cls-1" d="M20,59.85h0l-4,0a1,1,0,0,1-.7-.29,1,1,0,0,1-.29-.71l0-4a1,1,0,0,1,1-1l4,0a1,1,0,0,1,1,1l0,4a1,1,0,0,1-.3.7A1,1,0,0,1,20,59.85Zm-3-2,2,0v-2l-2,0Z"/>
<path class="cls-1" d="M59,60.13h0l-4,0a1,1,0,0,1-1-1l0-4a1,1,0,0,1,.3-.71A1.05,1.05,0,0,1,55,54.1l4,0a1,1,0,0,1,1,1l0,4A1,1,0,0,1,59,60.13Zm-3-2,2,0v-2l-2,0Z"/>
<path class="cls-1" d="M39.14,40h0l-4,0a1,1,0,0,1-1-1l0-4a1,1,0,0,1,.3-.7.94.94,0,0,1,.71-.29l4,0a1,1,0,0,1,1,1l0,4A1,1,0,0,1,39.14,40Zm-3-2h2V36h-2Z"/>
<path class="cls-1" d="M50.16,38.07h0l-11-.08a1,1,0,0,1,0-2h0l11,.08a1,1,0,0,1,0,2Z"/>
<path class="cls-1" d="M35.15,38h0l-11-.08a1,1,0,0,1,0-2h0l11,.08a1,1,0,0,1,0,2Z"/>
<path class="cls-1" d="M22.16,39.87h0A3,3,0,0,1,20,39a3,3,0,0,1,0-4.24,3.21,3.21,0,0,1,2.13-.86,2.94,2.94,0,0,1,2.11.89,3,3,0,0,1-2.13,5.11Zm0-4a1,1,0,0,0-.7.29.92.92,0,0,0-.3.7,1,1,0,0,0,1,1,.89.89,0,0,0,.71-.29,1,1,0,0,0-.7-1.71Z"/>
<path class="cls-1" d="M52.16,40.08h0a3,3,0,0,1-3-3h0A2.94,2.94,0,0,1,50.05,35a3,3,0,0,1,4.24,0,3,3,0,0,1,.87,2.12,3,3,0,0,1-.9,2.12A3,3,0,0,1,52.16,40.08Zm0-4a1,1,0,0,0-1,1h0a1,1,0,0,0,.28.7,1,1,0,0,0,.71.3h0a1,1,0,0,0,1-1,1,1,0,0,0-1-1Zm-2,1h0Z"/>
<path class="cls-2" d="M16,48.14a1,1,0,0,1-.91-.59L4.46,23.84A5,5,0,0,1,7,17.23L28,7.82a1,1,0,1,1,.82,1.82L7.8,19.05a3,3,0,0,0-1.52,4l10.6,23.71a1,1,0,0,1-.5,1.32A1,1,0,0,1,16,48.14Z"/>
<path class="cls-3" d="M16.19,37.29a1,1,0,0,1-.63-.22,6.8,6.8,0,0,1-1.94-2.54,7,7,0,0,1,6-9.85,1,1,0,1,1,.12,2,5,5,0,0,0-4.31,7,4.8,4.8,0,0,0,1.38,1.8,1,1,0,0,1-.63,1.78Z"/>
<path class="cls-3" d="M20.91,29.46a1,1,0,0,1-.82-.43,7.69,7.69,0,0,1-.8-1.42,9.18,9.18,0,0,1-.57-1.7,9,9,0,0,1,5.11-10.19,8.88,8.88,0,0,1,1.55-.53,1,1,0,0,1,.46,1.94,7.31,7.31,0,0,0-1.19.41,7,7,0,0,0-4,7.92,6.82,6.82,0,0,0,.45,1.34,6.55,6.55,0,0,0,.61,1.09,1,1,0,0,1-.82,1.57Z"/>
<path class="cls-2" d="M54.05,32.39a.92.92,0,0,1-.36-.07A1,1,0,0,1,53.12,31l4.69-12.26a3,3,0,0,0-1.74-3.87L33.65,6.33a3,3,0,0,0-3.88,1.74l-9,23.61a1,1,0,0,1-1,.67,1,1,0,0,1-1-1h0a.92.92,0,0,1,.07-.36l9-23.64a5,5,0,0,1,6.46-2.88L56.79,13a5,5,0,0,1,2.89,6.44L55,31.75A1,1,0,0,1,54.05,32.39Z"/>
<path class="cls-3" d="M33.35,30.88a7,7,0,1,1,2.52-13.53,6.6,6.6,0,0,1,2.2,1.36,1,1,0,1,1-1.36,1.46,5,5,0,1,0,.12,7.33,1,1,0,0,1,1.38,1.44A7,7,0,0,1,33.35,30.88Z"/>
<path class="cls-3" d="M44.15,32.73a7.69,7.69,0,0,1-1.07-.07,1,1,0,1,1,.24-2A7,7,0,1,0,38.24,20a6.79,6.79,0,0,0-.65,1.26,7,7,0,0,0,.76,6.43,6.85,6.85,0,0,0,2.88,2.43,1,1,0,1,1-.82,1.82,8.83,8.83,0,0,1-3.72-3.13,9,9,0,0,1-1-8.27,8.21,8.21,0,0,1,.83-1.62,9,9,0,1,1,7.59,13.84Z"/>
</g>
</svg>