<svg id="Layer_1" data-name="Layer 1" xmlns="http://www.w3.org/2000/svg" viewBox="0 0 159.45 344.03"><defs><style>.cls-1{fill:#fdfdfd;}.cls-2{fill:silver;}.cls-3{fill:#bb9f9f;}.cls-4{fill:#dfcece;}.cls-5{fill:#e24728;}.cls-6{fill:#e43328;}.cls-7{fill:#e42928;}.cls-8{fill:#181818;}.cls-9{fill:#1f1f1f;}.cls-10{fill:#171717;}.cls-11{fill:#917272;}.cls-12{fill:#bda1a1;}.cls-13{fill:#8f7171;}.cls-14{fill:#fafafa;}</style></defs><path class="cls-1" d="M259.47,632.82a6,6,0,0,0-.05-3.33c-.95-2.89-1.81-5.81-2.75-8.86.94.32,1.19,1.12,1.79,1.52s.83,1,1.46.64.44-1,.29-1.55c-.2-.8-.4-1.6-.63-2.39-2.25-7.56-4.58-15.09-6.73-22.67-2.37-8.38-1.17-16.29,3.16-23.89a59.88,59.88,0,0,1,25.45-24,85.41,85.41,0,0,1,21.71-8.06c.2.06.24.14.22.33a59.34,59.34,0,0,0-12.73,7.88c-.52.4-1.39.79-1,1.63s1.22.24,1.83.1c6-1.39,11.51-4,17.39-5.74A146,146,0,0,1,331,540.22a31,31,0,0,1,6.53.19c-2.23,1.33-4.2,2.44-6.11,3.65-3,1.89-3,3.41.16,5,13.85,7.09,23.49,17.83,28.5,32.66a20.28,20.28,0,0,1-.43,14.68c-3.09,7.74-4.77,16-7.33,23.89a.62.62,0,0,0,0,.19c.05.89-.89,2.09.2,2.6.84.39,1.43-.8,2.08-1.37l.9-.82c-.66,2.34-.91,4.41-1.81,6.15a6.28,6.28,0,0,0,.59,7.29,6.87,6.87,0,0,1,.62,1.11c1.33,4.39,2.79,8.61,4.4,12.77,2.34,6,1.95,12.13.67,18.25-1.89,9-5.9,17.19-10.45,25.13a2.92,2.92,0,0,1-.88.93.74.74,0,0,1-.56.07c-1-1.89-.4-3.83-.6-5.7-.07-.68.07-1.36,0-1.78a54.11,54.11,0,0,1-4.14,10,94.77,94.77,0,0,1-7.28,12.31,4.19,4.19,0,0,1-1.68,1.69.8.8,0,0,1-.53-.05c-.77-1.19-.16-2.28-.07-3.41-3.64,5.34-7.41,10.55-12.71,14.37-4.1,3-8.53,5.12-13.71,5.25-6.19.15-11.31-2.53-16-6.21a48.44,48.44,0,0,1-9.5-10.65c-.65-.92-1.24-1.89-2-2.78,0,.16.06.28.07.4.09,1,1.09,2.38-.13,2.92-1,.45-1.61-1-2.19-1.79-1.45-2-2.71-4.16-4-6.29a2.21,2.21,0,0,1-.32-2.11c1.05-.67.4-1.32.11-1.88a58.64,58.64,0,0,1-3.94-9.27,68.57,68.57,0,0,1-2.09-10.06,15.53,15.53,0,0,0,.05,5.09c.16,1.11.67,2.22,0,3.44-.47.09-.68-.15-1-.46,0,1.72,0,3.35,0,5,0,.73.13,1.73-.79,1.93-.77.16-1.14-.7-1.49-1.28a83.28,83.28,0,0,1-4.78-9.12c-2.45-5.45-4.78-10.94-5.92-16.88s-1.17-12,1.21-17.8C256.61,642.72,258,637.82,259.47,632.82Z" transform="translate(-226.83 -387.99)"/><path class="cls-2" d="M348.06,692.38c3.57-5,6.05-10.7,8.44-16.46a57.41,57.41,0,0,0,3.75-14.75c.75-5.85-.76-11.33-2.92-16.73-1.13-2.8-2.42-5.59-2.51-8.78,4.49,5.85,9.34,11.47,12.22,18.71-1.28-.35-2-.72-2.34-1.79a5.83,5.83,0,0,0-.9-1.66c-.24-.34-.46-.89-1-.71s-.3.74-.28,1.15c.18,5,.47,9.91.53,14.87a79.87,79.87,0,0,1-3.84,25.34c-.5,1.57-1.22,3.07-1.9,4.72a.47.47,0,0,1-.47.18c1.34-5,2.74-10,2.84-15.2,0-2,.15-4-.84-6.11-.69.6-.61,1.32-.72,1.94-1.94,11.85-6.19,22.71-14,32a58.52,58.52,0,0,1-14.63,12.47,21.73,21.73,0,0,1-2.05,1c-.34.16-.75.36-1,0s0-.73.19-1c.62-1,1.28-1.91,1.89-2.88A27.77,27.77,0,0,0,330,716c.33-.7,1.13-1.65.25-2.21s-1.26.63-1.69,1.19a72.84,72.84,0,0,1-9.28,10.65,29.8,29.8,0,0,1-8.73,5.38c-4,1.61-7.84,1.41-11.4-1.24-5.59-4.16-11.06-8.44-14.57-14.67a4.34,4.34,0,0,0-.41-.64c-.38-.48-.7-1.28-1.46-.84s-.21,1.09,0,1.56c.55,1.35,1.22,2.66,1.85,4,.27.56.77,1.12.17,1.72s-1.2.3-1.79,0a28.27,28.27,0,0,1-6.43-4.09c-11.54-9.38-18.11-21.65-20.91-36.09a14.43,14.43,0,0,0-1.29-3.89c-2.32,6.94-.62,13.13,1.4,19.45,0,.18-.13.21-.35.15-5-10.82-6.33-22.2-6-33.85a106.26,106.26,0,0,1,1.22-11.39c.07-.5.49-1.24-.26-1.5s-1,.47-1.28.93c-.89,1.56-1.75,3.1-3.74,3.68a6.37,6.37,0,0,1,1-2.91c2-4.38,5.13-8,8.22-11.7a42.67,42.67,0,0,0,4.94-6.93c.23,3.49-1.2,6.71-2.32,10-1.23,3.6-2.9,7.06-3.47,10.87-.94,6.34.34,12.42,2.33,18.35a106.73,106.73,0,0,0,8.88,19.2c.21.37.5.7,1,1.36.29-3-.16-5.71.37-8.57.81.59.57,1.55,1.34,2a1.33,1.33,0,0,1,.94,1,34.26,34.26,0,0,0,4.71,10.08,2.43,2.43,0,0,1,.4,1.19,2.11,2.11,0,0,0,0,.71,49.61,49.61,0,0,0,6.45,10.28c0-2-1-3.4-.5-5.27,1.57,2.21,3,4.23,4.42,6.19a41,41,0,0,0,9.94,9.95c9.5,6.34,18.27,6.08,27.36-.86,4.89-3.72,8.49-8.57,11.93-13.57a5.25,5.25,0,0,1,1.59-1.68c-.27,1.52-.55,3.05-.83,4.74a3.62,3.62,0,0,1-.06.44c0,.09-.17.2-.09.16s.15-.22.24-.26a63.06,63.06,0,0,0,7-10.7,100.63,100.63,0,0,0,6.61-14.7C348.39,686.78,347.9,689.52,348.06,692.38Z" transform="translate(-226.83 -387.99)"/><path class="cls-3" d="M253.72,613.35c-.92,2.35-.45,4.56,0,6.74.54,2.61,1.22,5.2,1.94,7.77a6.29,6.29,0,0,1-.19,4.66,30.74,30.74,0,0,1-5.8,7.3,1.5,1.5,0,0,1-.48.3c-2.63,1.08-9.38-.4-11.27-2.61a59.35,59.35,0,0,1-10.54-17,8,8,0,0,1,0-5.76,34.6,34.6,0,0,1,6.17-10.17c1.81-1.78,4-1.7,6-1.2a25.73,25.73,0,0,1,13.75,8.74A2.06,2.06,0,0,1,253.72,613.35Z" transform="translate(-226.83 -387.99)"/><path class="cls-3" d="M379,604.19A29.3,29.3,0,0,1,386,615.8a6.26,6.26,0,0,1-.09,4.12c-2.38,6.85-6.45,12.68-11.24,18-3.15,3.51-10.4,3.26-13.63-.2a29.59,29.59,0,0,1-4.09-6,5.19,5.19,0,0,1-.18-4.26,72.57,72.57,0,0,0,2.62-10.14,4.49,4.49,0,0,0-.19-2.94c-.42-1.19.32-1.83.88-2.48a26.7,26.7,0,0,1,12.6-8.29C374.74,603,376.91,602.78,379,604.19Z" transform="translate(-226.83 -387.99)"/><path class="cls-4" d="M379.1,604.15c-6.46-1.6-11.27,1.86-16,5.52a15.51,15.51,0,0,0-4,4.48c-1,.14-.84-.34-.67-1a16.32,16.32,0,0,1,14-12.43C375.52,600.34,377.25,602.18,379.1,604.15Z" transform="translate(-226.83 -387.99)"/><path class="cls-4" d="M253.83,613.43a29.81,29.81,0,0,0-12.72-9,9.56,9.56,0,0,0-7.33.13c3.17-4.23,5.59-4.8,10.39-2.44,1.65.82,3.29,1.67,4.93,2.49A9.06,9.06,0,0,1,253.83,613.43Z" transform="translate(-226.83 -387.99)"/><path class="cls-5" d="M370.65,532.3a2.85,2.85,0,0,0-.23-.26.81.81,0,0,1,.2.21C370.63,532.32,370.64,532.31,370.65,532.3Z" transform="translate(-226.83 -387.99)"/><path class="cls-6" d="M335.45,443.16c0-.12.16-.17.29-.23a1,1,0,0,1,0,.35C335.63,443.32,335.57,443.27,335.45,443.16Z" transform="translate(-226.83 -387.99)"/><path class="cls-7" d="M322.84,388.08l-.24-.08a.22.22,0,0,1,.2,0C322.82,388.11,322.84,388.09,322.84,388.08Z" transform="translate(-226.83 -387.99)"/><path class="cls-8" d="M340.85,640.79a10.57,10.57,0,0,0,1.56,3.49,11,11,0,0,1,.7,8.74c-1.69,5.28-2.89,10.58-5.47,15.39a17,17,0,0,0-1,2,30.85,30.85,0,0,1-12.19,15.26c-2.27,1.52-3.81,3.92-5.67,5.92-2.91,3.12-6.49,4.25-10.57,4.59-7.07.59-12.8-1.89-17.64-7-4.12-4.35-8.43-8.49-11.83-13.48a55.49,55.49,0,0,1-6.7-12.84,29.93,29.93,0,0,0-2.61-5.73,6.59,6.59,0,0,1-1.19-3.52c-1.14-3.85.1-7.11,1.89-10.28a25.38,25.38,0,0,0,1.14-2.33,2.33,2.33,0,0,1,.27-1.61c1-2,.29-3.53-1.19-4.91-.94-.87-2.08-1.46-3.07-2.25-2.77-2.21-5.15-4.7-5.82-8.48A14.47,14.47,0,0,1,263,612.3c.63-1,0-1.44-.47-2.07-3.81-4.69-5.12-9.92-3.05-15.71a12.89,12.89,0,0,1,8.86-8.29,24.19,24.19,0,0,1,18,1.44,7.66,7.66,0,0,0,6.15.25c9-2.84,18.06-3.74,27,.27a5.07,5.07,0,0,0,4.24-.11,47.62,47.62,0,0,1,11.43-3.59c8.29-1.19,16.54,4.44,18,12.39a12.24,12.24,0,0,1-3.45,11c-.41.44-1,.66-.44,1.5,3.15,4.51,3.21,9.36,1.39,14.53-.07,2.23-1.56,3.55-2.72,5A22.24,22.24,0,0,1,343.5,633C340.78,635,339.49,637.33,340.85,640.79Z" transform="translate(-226.83 -387.99)"/><path class="cls-2" d="M268.08,653.62c3.17,4.79,4.68,10.37,7.31,15.43A63.1,63.1,0,0,0,288.27,686c1.25,1.18,2.37,2.49,3.57,3.72,5.92,6.07,13.12,7,21,5.16a10.61,10.61,0,0,0,5.08-3.27c3.14-3.22,6.06-6.63,9.85-9.2a17.65,17.65,0,0,0,5.72-6.83c2.83-5.75,6.08-11.33,7.44-17.7.36-1.64,1.36-3,2.07-4.61,1.15,2.17.42,4.44,0,6.61-2.39,13.13-8.06,24.6-17.73,33.92A26.7,26.7,0,0,1,309,701c-12.69,1.31-22.07-4.2-29.25-14.27a63.94,63.94,0,0,1-11.94-30.37A4.33,4.33,0,0,1,268.08,653.62Z" transform="translate(-226.83 -387.99)"/><path class="cls-2" d="M341,640.92c-2-2.88-1.84-4.51.53-6.86a24.13,24.13,0,0,1,2.88-2.46,19.69,19.69,0,0,0,6.18-7.45c1.14,1.3.42,2.74.17,4.09a17.69,17.69,0,0,1-7.54,11.81A9.7,9.7,0,0,1,341,640.92Z" transform="translate(-226.83 -387.99)"/><path class="cls-2" d="M261.33,623.77a21.46,21.46,0,0,0,8.54,9.71c3,1.88,3.39,4,1.49,7.38-5.58-1.77-8.06-6.19-9.64-11.26C261.15,627.78,260.62,625.83,261.33,623.77Z" transform="translate(-226.83 -387.99)"/><path class="cls-9" d="M275.23,693.5c-1.09-2.82-2.25-5.47-1.85-8.54,2.07,4.15,3.63,8.51,6,12.49s5.23,7.6,7.68,11.52C281.6,705,278,699.67,275.23,693.5Z" transform="translate(-226.83 -387.99)"/><path class="cls-9" d="M302.8,559.12c.1.71.1.72-.42,1-1.94,1.08-3.93,2.08-5.83,3.24A50.75,50.75,0,0,0,285,573.29c-.43.48-.88.92-1.34,1.36-.23.22-.52.43-.83.15s-.16-.57,0-.86a5.32,5.32,0,0,1,.37-.66C288.13,566.41,294.25,561.2,302.8,559.12Z" transform="translate(-226.83 -387.99)"/><path class="cls-9" d="M273.62,698.53a34.53,34.53,0,0,1-6-12.37,26.45,26.45,0,0,1-.93-9c.06-.49-.05-1.35.73-1.31.56,0,.58.75.61,1.24.42,7.44,2.94,14.23,6.37,20.75.25.47.69.93.48,1.57C274.28,699.49,274.09,698.93,273.62,698.53Z" transform="translate(-226.83 -387.99)"/><path class="cls-9" d="M345,664.14c.22-1.17,0-3,.87-2.94,1.32.13.7,1.88.71,2.91a31.6,31.6,0,0,1-3,14,4.92,4.92,0,0,1-2.14,2.67A86.66,86.66,0,0,0,345,664.14Z" transform="translate(-226.83 -387.99)"/><path class="cls-9" d="M284,700a21.3,21.3,0,0,1-.89-2.46c-.12-.5-.49-1.25.25-1.5s.78.52,1,.94c.78,1.39,1.5,2.81,2.31,4.18a68.53,68.53,0,0,0,6.27,8.41,4.37,4.37,0,0,1,1.32,2C291.41,711,286.72,705.75,284,700Z" transform="translate(-226.83 -387.99)"/><path class="cls-9" d="M302.64,564.46a52.51,52.51,0,0,0-8.37,5.85c-.44.36-1,1.12-1.59.42-.44-.52.19-1,.56-1.45a20.77,20.77,0,0,1,10.52-6.84,8,8,0,0,1,1.3-.21c.16,0,.33.1.77.24C304.9,563.48,303.73,563.79,302.64,564.46Z" transform="translate(-226.83 -387.99)"/><path class="cls-9" d="M345.64,678.21c.51-1.39.94-2.64,1.42-3.88.14-.35.43-.68.88-.55a.64.64,0,0,1,.43.76c-.88,4.16-1.61,8.37-4.66,11.66a1.17,1.17,0,0,1-1.28.43A81.37,81.37,0,0,0,345.64,678.21Z" transform="translate(-226.83 -387.99)"/><path class="cls-9" d="M307.43,564.77c.55-.18,1-.42,1.36,0s-.12.81-.39,1.08a17.07,17.07,0,0,1-3.48,2.62c-.5.28-1.09.61-1.56,0s.15-1,.52-1.37A10.52,10.52,0,0,1,307.43,564.77Z" transform="translate(-226.83 -387.99)"/><path class="cls-1" d="M333.64,709.72a1.15,1.15,0,0,1,.11-.7c.08-.09.16,0,.21,0A1.7,1.7,0,0,1,333.64,709.72Z" transform="translate(-226.83 -387.99)"/><path class="cls-1" d="M348.07,692.56l-.09.16s0-.12.06-.13S348.08,692.56,348.07,692.56Z" transform="translate(-226.83 -387.99)"/><path class="cls-1" d="M280.17,709.55Z" transform="translate(-226.83 -387.99)"/><path class="cls-1" d="M333.54,709.77s-.08,0-.05,0S333.54,709.78,333.54,709.77Z" transform="translate(-226.83 -387.99)"/><path class="cls-10" d="M238,631.43c-2.84-4.4-5.44-8.83-8.24-13.15-2.41-3.73,1.91-10.28,4.93-10.92a3.78,3.78,0,0,1,1.89,0,67.41,67.41,0,0,1,12,4.82,4.45,4.45,0,0,1,2.14,2.36c1.87,4.74,2.95,9.59,2.1,14.72a10.27,10.27,0,0,1-1.83,4.56,2.43,2.43,0,0,1-3.41.93c-.2-.07-.27,0-.33-.08-6-2.74-8.67-10.81-5.48-16.43a19.56,19.56,0,0,0,1.06-2c.9-2.09.4-3.07-1.86-3.57-2.78-.62-5.15.35-7.3,2a2.13,2.13,0,0,0-.53,2.76,29.25,29.25,0,0,0,2,3.5,30.52,30.52,0,0,1,3.4,7.66C238.8,629.59,239.18,630.62,238,631.43Z" transform="translate(-226.83 -387.99)"/><path class="cls-11" d="M237.91,631.55c.79-.92.34-1.79.12-2.62a32.54,32.54,0,0,0-4.18-9,23,23,0,0,1-1.29-2.33,2.68,2.68,0,0,1,1-3.67,9.44,9.44,0,0,1,8.65-1.66c1.86.56,2.48,1.74,1.66,3.5-.67,1.44-1.52,2.8-2.29,4.19a7,7,0,0,0,.29,7.75,46.6,46.6,0,0,0,5.63,6.87c-2.42,1.84-4.74.51-7-.33A3.88,3.88,0,0,1,237.91,631.55Z" transform="translate(-226.83 -387.99)"/><path class="cls-10" d="M365.42,634.75c-1.49,1-2.44.54-3.44-.67a11.89,11.89,0,0,1-2.81-10.46,56.5,56.5,0,0,1,2.31-8.45,6,6,0,0,1,3.09-3.44,93,93,0,0,1,11.07-4.62,4.38,4.38,0,0,1,2.63-.11c3.43.94,6.84,7.32,5.2,10.42-2.56,4.88-5.56,9.53-8.5,14.32-1-.82-.68-1.86-.47-2.83a26.67,26.67,0,0,1,3.05-7.58c.44-.77.93-1.52,1.36-2.3,1.67-3,1.2-4.48-1.89-5.92a8.6,8.6,0,0,0-6.33-.21c-1.43.43-1.78,1.27-1.2,2.66a34.2,34.2,0,0,0,1.91,3.52c1.9,3.29,1.91,6.56-.36,9.66C369.43,630.93,367.94,633.25,365.42,634.75Z" transform="translate(-226.83 -387.99)"/><path class="cls-11" d="M365.36,634.89c1.56-2.29,3.58-4.14,5.17-6.37a7.65,7.65,0,0,0,.39-9.08c-.71-1.2-1.43-2.4-2.05-3.66-.84-1.69-.38-2.86,1.37-3.44a9.33,9.33,0,0,1,8.87,1.28,3.1,3.1,0,0,1,1.24,3.83,23.44,23.44,0,0,1-2.08,3.85c-1.75,3.18-3.4,6.39-3.44,10.32a1.65,1.65,0,0,1-.74,1.77C371.45,635.22,368.62,636.1,365.36,634.89Z" transform="translate(-226.83 -387.99)"/><path class="cls-12" d="M299,599.29c1.05.13,1.62,1.18,2.91,1-2.06-2.73-4.74-4.53-7.33-6.6a2.33,2.33,0,0,1,2-1.38,36.63,36.63,0,0,1,18.31.24,3.93,3.93,0,0,1,2.26,1.26c-2,2.06-4.3,3.67-6.13,6,.8.42,1.22-.18,1.85-.41a42.18,42.18,0,0,0,7.2-2.79c2.75-1.33,5.45-2.77,8.2-4.08a19.23,19.23,0,0,1,9.79-2.1c5.33.41,9.66,4.55,11.09,10.25a9.28,9.28,0,0,1-2.71,6.42,2.35,2.35,0,0,0-.31,3.23c3.26,5.75,2.54,11-2.18,15.78a24,24,0,0,1-12.28,6.52c-3.07.66-3.39,1.17-2.64,4.17a44.27,44.27,0,0,1,1.14,12.67c0,.65-.4,1.72.3,1.89.91.23.92-1,1.3-1.56.1-.16.18-.33.33-.62,2.36-1.79,4.56-1.08,5.33,1.61a7.36,7.36,0,0,1-.51,5c-.29.7-.58,1.41-.91,2.28-1.9,3.77-4.77,6.62-7.1,10.06a1,1,0,0,1,0,.68c-2.95,3.79-6.14,7.07-10.75,8.53a17.35,17.35,0,0,0-1.68.79c-7.85.44-15.55.66-23.11-1.35a7,7,0,0,1-1.74-.68c-2.25-2.1-4.82-3.58-6.93-5.62a4.38,4.38,0,0,1-1.34-1.5c-3.47-4.13-7.13-7.95-9.39-12.95-.21-1.29-.8-2.39-.47-3.64.37-1.41.92-2.68,2.5-3s2.37.55,3.16,1.84a10,10,0,0,0,1.82,3.46,3.18,3.18,0,0,0,.46-2.59,40.49,40.49,0,0,1,1.39-15.48c.64-2,.29-2.53-1.87-3.09a30.3,30.3,0,0,1-7.19-2.48c-4.46-2.48-7.82-5.89-8.7-11.15a8.46,8.46,0,0,1,1.49-6.17c1.43-2.16,1.37-3.23-.34-5.06a14,14,0,0,1-3.7-7.33,13.46,13.46,0,0,1,4.74-8.18,10.88,10.88,0,0,1,8.84-2.66,26.48,26.48,0,0,1,9.22,2.9C289.63,595.59,294,598,299,599.29Z" transform="translate(-226.83 -387.99)"/><path class="cls-13" d="M283.12,668.9c2.71,2,5.33,4,8,6.24-.27,1.12.53,1.32,1.13,1.61a20.49,20.49,0,0,0,4.52,1.43c7.05,1.63,14.09,1.19,21.44,0a1.73,1.73,0,0,1-1.44-.47c0-.55.3-.71.71-.81,4.78-1.27,7.89-4.76,11.06-8.37a2,2,0,0,0,.34-.37c.08-.1.07-.07.06-.08,1,.09,1.56-.76,2.46-1.21a.39.39,0,0,1,.42.13c-1.21,2.76-2.33,5.47-3.76,8-2.66,4.75-7.27,6.61-12.28,7.53a60.79,60.79,0,0,1-20.14-.2,15,15,0,0,1-11.82-8.94c-.52-1.09-1-2.2-1.6-3.25S282.2,669,283.12,668.9Z" transform="translate(-226.83 -387.99)"/><path class="cls-4" d="M349.18,600.58c-.89,0-.77-.77-1-1.3-2-4.39-4.86-7.84-10-8.32a19,19,0,0,0-9.75,2c-3.86,1.79-7.52,4-11.49,5.54a8.84,8.84,0,0,1-3.92.87,103.25,103.25,0,0,1,12.23-7.66,30.1,30.1,0,0,1,11.24-3.34C344,587.86,349.29,592.83,349.18,600.58Z" transform="translate(-226.83 -387.99)"/><path class="cls-4" d="M299,599.18c-1,.9-2,.07-2.94-.19-3.59-1-6.73-3-10-4.62a32.43,32.43,0,0,0-9.68-3.3c-5.58-.83-9.23,2.14-11.47,5.47a37.29,37.29,0,0,0-2.33,4.5c-.78-6.61,3.27-11.46,10-12.09,5.6-.53,10.63,1.38,15.55,3.69A88.88,88.88,0,0,1,299,599.18Z" transform="translate(-226.83 -387.99)"/><path class="cls-13" d="M336,658.11c-.32-1.33.59-2.49.72-3.81.06-.69.27-1.38.26-2.06,0-3-1.27-3.9-4.71-3.25a37,37,0,0,0-.09-9.46,1.94,1.94,0,0,1,1.25-2.32c1-.34,1.54.51,1.92,1.21a82.44,82.44,0,0,1,4.3,9.12,5.35,5.35,0,0,1-.25,4.08A29.63,29.63,0,0,1,336,658.11Z" transform="translate(-226.83 -387.99)"/><path class="cls-13" d="M279.18,651.13a1.6,1.6,0,0,1-1-.36c-2-1.69-3.49-1.2-4.18,1.38-.31,1.19,0,2.35-.07,3.61-2.28-3-3.12-6.1-1.05-9.61,1.21-2.08,2.15-4.32,3.28-6.44.48-.89,1.12-1.9,2.36-1.45s.82,1.6.66,2.49A30.65,30.65,0,0,0,279.18,651.13Z" transform="translate(-226.83 -387.99)"/><path class="cls-4" d="M317.28,593.87a36.27,36.27,0,0,0-22.66-.37c-.74-.22-1.42-.46-1.46-1.18s.62-.77,1.08-.9c7.6-2.18,15.22-3,22.84-.08C319,592.06,319,592.48,317.28,593.87Z" transform="translate(-226.83 -387.99)"/><path class="cls-13" d="M331.58,666.89c.14-.27.38-.5.33.14C331.79,667.06,331.73,667,331.58,666.89Z" transform="translate(-226.83 -387.99)"/><path class="cls-8" d="M340.52,622.45a12,12,0,0,1-10.13,3.14c-1.18-.13-2-.06-2,1.43,0,.61.1,1.66-.87,1.62s-.66-1.06-.8-1.69-.12-1-.26-1.65c-4.56-1.89-8.36-4.5-10.9-8.71-.28-.45-.59-1.17-1.28-.8s-.43,1-.31,1.56a2.74,2.74,0,0,0,2.28,2.44c3.82.75,6.13,3.3,7.6,6.87,1.34,2.88,1.54,6,2.85,8.77.73,1.53,0,2.61-1.51,3.12-1.33.46-2.67.86-4,1.2-2.8.7-5.81.44-8.47,2,2.18-2.81,5.23-4.45,7.85-6.77.38-1.49,1.69-2.66,1-4.24a13.8,13.8,0,0,0-4.1-5.88,4.49,4.49,0,0,0-5.2-.21,12.83,12.83,0,0,0-4.49,4.59c-1.44,2.25-2.29,2.22-3.52-.21a9.83,9.83,0,0,0-4-4.45c-1.57-.85-3.31-1.12-4.69,0-2.66,2.26-4.87,4.88-4.36,8.91,1.42,2.26,3.78,3.27,5.68,4.83a13.94,13.94,0,0,1,3.32,3.1c-3.95-1.52-8.28-1.11-12.17-2.75-2.06-.86-2.68-1.67-1.73-3.63,1.24-2.56.68-5.57,2.3-8.13a10.52,10.52,0,0,1,6.51-6.89,5.12,5.12,0,0,0,3.14-3.53.74.74,0,0,0-.15-.89c-.39-.29-.73-.06-1,.2a7.84,7.84,0,0,0-1.16,1.52,22.78,22.78,0,0,1-7.22,7,5,5,0,0,1-2.4,1c-3.29.81-6.45,1.6-9.73.74a6.57,6.57,0,0,1-4-2.21,2,2,0,0,1,2.14-.57,25.27,25.27,0,0,0,8.26-.21c-6.23-.09-11.82-5.58-11.53-11.23.09-1.68.43-3.29,2.12-4.38a2.21,2.21,0,0,1,2.38,1.06,19.29,19.29,0,0,0,3.24,3.21c3.49,2.58,7.41,2.73,11.45,1.85,1.46-.32,1.72-1.17.64-1.89-3.74-2.47-7.3-5.31-11.89-6.19a7.77,7.77,0,0,0-5.13.55,7.62,7.62,0,0,0-3,1.85c-.57.56-1.09,1.29-2.17,1-1-1.24-.06-2.07.53-2.77,3.27-3.88,7.39-5.5,12.43-4.38a23.62,23.62,0,0,1,8,3.87c2.47,1.68,4.81,3.58,7.57,4.81,3.13,1.39,4.87.26,5-3.21a3.72,3.72,0,0,1,0-.58c.15-.75-.47-2,.51-2.13.81-.12.91,1.2,1.26,1.92.08.17.11.37.22.68a5.23,5.23,0,0,1,.6,2.31,1.42,1.42,0,0,0,1.53,1.35c1,0,1.28-.62,1.35-1.47a4.16,4.16,0,0,1,.49-2.3c.57-1.38.53-2.9,1.94-3.88.66,1.48.23,2.95.41,4.35.43,3.31,1.67,4.09,4.54,2.41,3.25-1.88,6.37-4,9.54-6a2.72,2.72,0,0,0,1.28-2.59c0-1.4,0-2.8.13-4.19,0-.45,0-1.17.71-1.15.51,0,.57.64.64,1a19.53,19.53,0,0,1,.39,3.22c0,1.68.49,2.29,2.29,1.8,4-1.07,7.74-.47,10.85,2.44,1.24,1.16,2.51,2.42,2.16,4.54-.86.71-1.31,0-1.81-.39a15.15,15.15,0,0,0-2.5-2.12,9.52,9.52,0,0,0-8.05-.64c-3.78,1.16-6.87,3.56-10.13,5.64-.42.27-.9.66-.71,1.24s.84.73,1.39.88a14,14,0,0,0,13.07-2.79c1.35-1,2.49-2.37,4.23-3.11,1.57.16,1.94,1.3,2.23,2.41a8.88,8.88,0,0,1-1.89,8.06,11.38,11.38,0,0,1-8.51,4.71,24.84,24.84,0,0,0,8.25-1.23C339.58,621.41,340.43,621.23,340.52,622.45Z" transform="translate(-226.83 -387.99)"/><path class="cls-4" d="M291.22,633.56a3,3,0,0,1-.31-3.82,21.48,21.48,0,0,1,2.87-4.48c2.09-2.27,4.36-2.6,7-1a10.4,10.4,0,0,1,3.79,4.18c.4.74.48,2,1.47,2s1.05-1.28,1.51-2a11.49,11.49,0,0,1,5.3-4.76,4.45,4.45,0,0,1,4.37.28,13.3,13.3,0,0,1,5,7.21c.47,1.39-.5,2.54-1.53,3.61-.5-1.59.19-3.5-1.4-4.93-1.17-.85-1.2-2.62-2.89-3-.93-1.45-2.06-.87-3.07-.46a7.76,7.76,0,0,0-3.18,2.94,17,17,0,0,1-1.29,1.65c-2,2.18-3.83,2-5.59-.44a21.53,21.53,0,0,0-3.26-4.22c-1.6-1.35-2.77-1.37-4.35.13-.73,1.15-1.71,2-2.2,3.31C291.75,630.52,292,632.25,291.22,633.56Z" transform="translate(-226.83 -387.99)"/><path class="cls-11" d="M274.13,607.3c-2.31,1.87-2.49,4.23-1.93,6.69,1,4.62,5.65,8.24,10.75,8.57a6.21,6.21,0,0,1,1.56.19,10.41,10.41,0,0,1-4.64,1.37c-2.37.28-4.69-.2-7.2-.47-.47-.4-.7-.88-1.06-1.2-4-3.53-4.84-7.76-2.85-12.63a3.45,3.45,0,0,0,.15-.89c1.25-.37,1.74-1.57,2.66-2.23a4.19,4.19,0,0,1,2.11-1.06C274.34,606.07,274.36,606.59,274.13,607.3Z" transform="translate(-226.83 -387.99)"/><path class="cls-11" d="M339.18,606.16c1.9.26,2.37,2.29,4.06,2.93,2.38,2.4,2.08,5.32,1.51,8.08-.48,2.28-1.59,4.43-4.16,5.42-.6-1.41-1.44-.35-1.94-.17a14.87,14.87,0,0,1-9.83.29c4.14-.41,7.33-1.72,9.68-4.59a8.64,8.64,0,0,0,2-8.18,2.53,2.53,0,0,0-1.54-2C338.45,607.31,338.68,606.77,339.18,606.16Z" transform="translate(-226.83 -387.99)"/><path class="cls-8" d="M316.26,626.83c2.36-.25,2.6,0,2.91,2.83a8.55,8.55,0,0,1-3.56,4.91c-1.81,1.29-3.55,2.66-5.33,4-.4.29-.85.68-1.38.3a1.34,1.34,0,0,1-.44-1.54,3.76,3.76,0,0,1,.27-.9C310.83,633,312.83,629.41,316.26,626.83Z" transform="translate(-226.83 -387.99)"/><path class="cls-8" d="M293.45,629.93c.13-1.46-.08-3.09,2.06-3.36,4.22,2.31,6.23,6.31,8.45,10.12a1.59,1.59,0,0,1-.22,2.11c-.74.57-1.29-.17-1.82-.56q-2.84-2.07-5.62-4.22A7.82,7.82,0,0,1,293.45,629.93Z" transform="translate(-226.83 -387.99)"/><path class="cls-8" d="M299.14,657.37c-1,0-1.84,0-2.67,0-.5,0-1.1-.08-1.12-.76s.46-.74.9-.83a23.76,23.76,0,0,1,2.63-.47,32.78,32.78,0,0,1,19.44,3.53,5.55,5.55,0,0,1,2.77,2.59C314,659,306.84,657.15,299.14,657.37Z" transform="translate(-226.83 -387.99)"/><path class="cls-11" d="M297.34,661.59a47.59,47.59,0,0,1,17,.79c1.07.25,2.91.33,2.81,1.41-.12,1.33-1.89.88-2.93.79a7.37,7.37,0,0,0-6.17,2.35c-1.49,1.49-3,1.67-4.18.28a10.12,10.12,0,0,0-6.81-3.38c-.66-.07-1.57-.27-1.58-1.09S296.36,661.6,297.34,661.59Z" transform="translate(-226.83 -387.99)"/><path class="cls-9" d="M316.5,677.6c1.07.3,2.09,0,3.19.63a14.58,14.58,0,0,1-5.36,1.09c-6.87.79-13.72.83-20.4-1.29a30.71,30.71,0,0,1-3.51-1.48c-.37-.17-.94-.38-.76-.93s.75-.24,1.31-.32a43,43,0,0,0,13.55,2.42A114.48,114.48,0,0,0,316.5,677.6Z" transform="translate(-226.83 -387.99)"/><path class="cls-13" d="M286.16,625.39a27.92,27.92,0,0,0,10.37-9.93c.4-.66,1-1.21,1.91-.65s.64,1.15.34,1.86c-.77,1.82-1.44,3.59-3.86,4-1.9.31-3.11,1.91-4.27,3.35-.68.84-1.25,1.77-2,2.73A5.48,5.48,0,0,1,286.16,625.39Z" transform="translate(-226.83 -387.99)"/><path class="cls-13" d="M324,626.74c-1-1.06-1.76-2.2-2.64-3.29-1.49-1.86-3.3-3.2-5.81-3.19-1.43,0-1.48-1.21-1.88-2.06a3,3,0,0,1,0-3.1.91.91,0,0,1,1.61,0c2.39,4.77,6.69,7.33,11.11,9.95A5,5,0,0,0,324,626.74Z" transform="translate(-226.83 -387.99)"/><path class="cls-13" d="M308.47,606.88a19.82,19.82,0,0,1,.29,2.44c.17,1.6-.64,2.24-2.12,2.18s-2.34-.57-2.11-2.22c.08-.57,0-1.15.06-1.89C305.92,608,307.14,607.61,308.47,606.88Z" transform="translate(-226.83 -387.99)"/><path class="cls-9" d="M320.11,643.68c2,2.8,3.42,5.68,3.41,9.09-1.51-3.11-3-6.2-4.68-9.2-.16-.29-.3-.71.05-.81C319.51,642.57,319.69,643.23,320.11,643.68Z" transform="translate(-226.83 -387.99)"/><path class="cls-9" d="M291.13,646.32c.7-1.39,1-2.88,2.52-3.63a67,67,0,0,1-3.77,10C289.58,650.88,289.79,650,291.13,646.32Z" transform="translate(-226.83 -387.99)"/><path class="cls-9" d="M311.22,642.66c.37-.23.71-.21.71.07a63.54,63.54,0,0,1-.28,7.92A10.33,10.33,0,0,1,311.22,642.66Z" transform="translate(-226.83 -387.99)"/><path class="cls-9" d="M301.55,647.65c-.1,1.4-.19,2.62-.28,3.84l-.56,0a12.78,12.78,0,0,1,.34-8c.11-.29.28-.63.67-.54s.34.47.31.79C301.87,645,301.72,646.22,301.55,647.65Z" transform="translate(-226.83 -387.99)"/><path class="cls-8" d="M328.83,668c.12.17.07.27-.12.38A.31.31,0,0,1,328.83,668Z" transform="translate(-226.83 -387.99)"/><path class="cls-14" d="M339.23,606a11.35,11.35,0,0,1-.4,1.83c-1.15,1.15-2.25,2.21-3.42,3.18a14.76,14.76,0,0,1-15,2.86c-1.17-.39-2-1.15-.72-2.08,4.19-2.94,8.24-6.23,13.56-7A8.28,8.28,0,0,1,339.23,606Z" transform="translate(-226.83 -387.99)"/><path class="cls-14" d="M274.14,607.53c-.12-.59-.15-1.08-.25-1.72,2-1.61,4.31-1.3,6.51-.71,4.51,1.21,8.22,4,11.94,6.65,1.46,1,.22,1.68-.78,2.09a13.77,13.77,0,0,1-15.27-4A10.82,10.82,0,0,0,274.14,607.53Z" transform="translate(-226.83 -387.99)"/><path class="cls-8" d="M307.3,666.48a4.27,4.27,0,0,1-4.85-2.59c-.36-.85-.32-1.5.77-1.64a22.5,22.5,0,0,1,2.44-.28c1.06,0,2.63-.2,2.82.91S308.8,665.55,307.3,666.48Z" transform="translate(-226.83 -387.99)"/></svg>