<svg version="1.1" id="Layer_1" xmlns="http://www.w3.org/2000/svg" xmlns:xlink="http://www.w3.org/1999/xlink" x="0px" y="0px"
	 width="100%" viewBox="0 0 1600 1200" enable-background="new 0 0 1600 1200" xml:space="preserve">
<path fill="#151515" opacity="1.000000" stroke="none" 
	d="
M1095.000000,1201.000000 
	C731.500061,1201.000000 368.500122,1200.993164 5.500221,1201.093018 
	C1.751665,1201.093994 0.906043,1200.249756 0.906980,1196.500244 
	C1.006205,799.500305 1.006180,402.500366 0.907097,5.500433 
	C0.906161,1.752352 1.749549,0.906418 5.499606,0.907108 
	C535.832825,1.004638 1066.166016,1.004625 1596.499268,0.907313 
	C1600.246582,0.906625 1601.093994,1.748453 1601.093140,5.499326 
	C1600.993774,402.499237 1600.993896,799.499207 1601.092896,1196.499146 
	C1601.093872,1200.246094 1600.252197,1201.096436 1596.500732,1201.093994 
	C1429.500610,1200.985352 1262.500244,1201.000000 1095.000000,1201.000000 
z"/>
<path fill="#FDFDFD" opacity="1.000000" stroke="none" 
	d="
M678.350281,685.803467 
	C679.077271,682.630127 679.147644,679.935608 678.214966,677.091125 
	C675.739624,669.541504 673.494446,661.916382 671.042419,653.946533 
	C673.485352,654.766174 674.154358,656.851685 675.718445,657.906860 
	C676.901001,658.704773 677.880859,660.477478 679.516663,659.583618 
	C681.053101,658.744263 680.685120,657.023621 680.298523,655.541199 
	C679.753479,653.450867 679.251770,651.347168 678.636902,649.277344 
	C672.768860,629.525879 666.664124,609.841614 661.056458,590.016724 
	C654.856812,568.098694 657.987671,547.434265 669.319214,527.548462 
	C685.155029,499.758026 707.547729,479.357483 735.837952,464.836578 
	C753.834656,455.599152 772.337769,447.983032 792.593140,443.765442 
	C793.121704,443.920410 793.234375,444.121338 793.169434,444.618713 
	C780.948059,450.036469 770.129883,457.166595 759.886475,465.215729 
	C758.540222,466.273621 756.274048,467.289215 757.323364,469.487122 
	C758.495972,471.943298 760.515442,470.122711 762.126709,469.746674 
	C777.722534,466.106689 792.221191,459.158630 807.581665,454.735962 
	C826.544800,449.276001 845.903320,446.202087 865.399353,443.715363 
	C870.820435,443.023926 876.210510,443.660309 882.475220,444.220398 
	C876.642822,447.686066 871.501526,450.594025 866.510620,453.740631 
	C858.668579,458.684784 858.777344,462.673523 866.926697,466.847687 
	C903.139099,485.395813 928.348694,513.451660 941.438171,552.224243 
	C945.843628,565.273743 945.497131,577.652954 940.319397,590.615723 
	C932.232910,610.860657 927.849121,632.341980 921.161865,653.076477 
	C921.111328,653.233032 921.076660,653.406860 921.087341,653.569153 
	C921.241516,655.902527 918.774109,659.031006 921.627991,660.361450 
	C923.824646,661.385437 925.370422,658.285950 927.045959,656.787842 
	C927.530701,656.354553 928.009888,655.915039 929.407532,654.647949 
	C927.688538,660.753052 927.028015,666.170044 924.682190,670.717712 
	C921.069458,677.721497 921.691650,683.732300 926.217041,689.770447 
	C926.812439,690.564941 927.246338,691.480408 927.843262,692.677368 
	C931.332092,704.167419 935.132812,715.199280 939.338867,726.056091 
	C945.458252,741.851807 944.448914,757.786804 941.104126,773.774963 
	C936.167175,797.373779 925.664490,818.729797 913.789856,839.480713 
	C913.292419,840.350037 912.611938,841.093445 911.472961,841.919739 
	C910.869995,842.168396 910.611938,842.216614 910.008301,842.083862 
	C907.352600,837.152893 908.958618,832.081604 908.454712,827.183533 
	C908.272522,825.412598 908.630554,823.634155 908.504761,822.535034 
	C906.196411,831.328064 901.928284,840.005615 897.678284,848.598999 
	C892.153015,859.771057 885.805420,870.527588 878.652039,880.771912 
	C877.513367,882.402588 876.501221,884.156616 874.257690,885.204224 
	C873.648865,885.303833 873.399963,885.293457 872.853271,885.060913 
	C870.846680,881.949280 872.453491,879.101746 872.691711,876.146240 
	C863.165344,890.129211 853.299072,903.730164 839.440918,913.720337 
	C828.744934,921.430969 817.145081,927.123047 803.620911,927.454407 
	C787.429382,927.851074 774.033081,920.843262 761.669495,911.214050 
	C751.691711,903.443054 744.071838,893.586487 736.835083,883.381592 
	C735.125854,880.971375 733.594177,878.434448 731.667603,876.115845 
	C731.677063,876.511047 731.811157,876.829651 731.839111,877.154846 
	C732.066528,879.799133 734.686829,883.369995 731.509460,884.796143 
	C728.939392,885.949646 727.289368,882.194458 725.790344,880.116028 
	C721.991272,874.848694 718.703735,869.240967 715.403687,863.650208 
	C714.464783,862.059509 713.673279,860.389954 714.571045,858.154846 
	C717.318604,856.381226 715.603088,854.684631 714.862061,853.228088 
	C710.870972,845.383301 707.142151,837.440979 704.545105,828.998718 
	C701.902100,820.407349 700.426697,811.591248 699.084900,802.703369 
	C698.277588,807.145081 698.572937,811.553772 699.208984,816.005005 
	C699.621155,818.889099 700.964417,821.807129 699.155884,824.994873 
	C697.939087,825.217102 697.374634,824.593140 696.651245,823.799011 
	C696.575317,828.280579 696.763062,832.555298 696.568054,836.818970 
	C696.481445,838.713928 696.919861,841.335571 694.496887,841.849670 
	C692.504944,842.272522 691.536865,840.028259 690.607666,838.503967 
	C685.928406,830.827942 681.797607,822.841064 678.114563,814.659424 
	C671.700012,800.409790 665.617676,786.065186 662.640198,770.536011 
	C659.594360,754.650085 659.587585,739.150330 665.816589,724.001526 
	C670.880737,711.685669 674.423279,698.869934 678.350281,685.803467 
z"/>
<path fill="#E43E28" opacity="1.000000" stroke="none" 
	d="
M919.714233,325.687469 
	C932.758728,342.876495 941.962585,361.002838 940.056335,382.995667 
	C939.018677,394.967987 934.841309,406.010620 929.645691,416.676971 
	C925.768738,424.636230 922.411499,432.758820 919.924438,441.651489 
	C919.072632,442.773285 919.006836,443.785217 918.699707,445.011658 
	C918.659973,445.303375 918.621033,445.526093 918.526611,445.588257 
	C910.808167,448.847137 903.164062,449.081848 895.242004,445.401855 
	C892.439941,436.273285 890.865173,435.199738 881.336060,434.051422 
	C865.757812,432.174194 850.426941,434.414001 835.086304,436.510773 
	C831.911743,436.944672 829.445129,437.170380 826.517883,434.739105 
	C823.012451,431.827545 818.001404,432.184479 813.519897,432.223877 
	C791.185852,432.420044 770.054565,437.943909 749.369202,446.970459 
	C743.571350,447.883179 738.101746,447.958557 732.611511,447.950989 
	C698.694275,447.904205 664.776917,447.974579 630.859924,447.873230 
	C627.211670,447.862335 622.943665,448.705566 621.006592,443.460510 
	C630.197815,415.158020 644.963989,390.483002 663.698181,368.075745 
	C665.298035,366.162201 666.961426,364.301788 668.875977,362.233032 
	C670.421265,361.099976 671.849976,360.882782 673.403931,360.934509 
	C684.399048,361.300385 695.399231,360.981720 706.395874,361.143280 
	C709.033691,361.182007 711.798340,360.986725 714.052063,363.670410 
	C711.166260,370.107483 706.469543,375.193848 704.107056,381.588348 
	C699.917053,392.929504 698.438171,403.992493 706.550720,414.606323 
	C713.400391,423.567932 722.248291,427.162079 732.898010,424.371765 
	C759.520752,417.396454 775.949646,399.607910 783.920471,373.782928 
	C788.783508,358.027252 786.441284,342.635437 779.771606,327.381042 
	C782.460999,324.397888 785.941895,325.086151 789.191101,325.081909 
	C828.767029,325.030518 868.343018,325.024231 907.918884,325.094208 
	C911.702271,325.100891 915.535828,324.202698 919.714233,325.687469 
z"/>
<path fill="#E43328" opacity="1.000000" stroke="none" 
	d="
M920.042053,325.615204 
	C915.426086,327.167145 910.616699,327.010742 905.809570,327.009003 
	C864.102539,326.993927 822.395508,327.001099 780.194641,327.004089 
	C770.063782,309.301910 758.046936,293.061066 748.069702,275.564758 
	C735.961304,254.331024 731.528015,231.863022 737.221375,207.385712 
	C738.914795,204.579910 741.377197,204.203262 743.915039,204.185532 
	C763.150269,204.051086 782.385986,204.044876 801.620972,204.199997 
	C804.071777,204.219757 806.711792,204.264893 808.162964,207.532074 
	C808.551270,223.431046 810.817688,238.464081 817.068604,252.744171 
	C825.679504,272.415558 838.755188,288.426178 856.412048,301.401764 
	C857.101746,299.084045 855.991333,297.560638 855.464539,296.010742 
	C849.501953,278.468994 843.744812,260.847717 844.940369,241.966415 
	C846.372864,219.344482 856.143250,201.538712 876.446655,189.851013 
	C876.983032,189.821625 877.179565,189.868439 877.488037,190.196808 
	C872.561584,200.674057 868.828064,211.240707 867.943054,222.702209 
	C866.544678,240.811752 871.752991,257.137909 880.974121,272.455811 
	C889.917725,287.312592 901.141724,300.480988 911.672241,314.165192 
	C914.488892,317.825287 917.190735,321.573761 920.042053,325.615204 
z"/>
<path fill="#C0C0C0" opacity="1.000000" stroke="none" 
	d="
M909.950317,841.528931 
	C919.295410,828.470032 925.789124,813.535767 932.024841,798.479919 
	C937.147949,786.110291 940.143616,773.150330 941.833252,759.928101 
	C943.789001,744.622925 939.839172,730.288696 934.187683,716.193481 
	C931.250000,708.866638 927.874939,701.566956 927.645996,693.241089 
	C939.367920,708.512085 952.057068,723.217102 959.589966,742.154968 
	C956.231445,741.230530 954.252502,740.257141 953.469055,737.460083 
	C953.034058,735.906860 952.026123,734.477234 951.099854,733.111694 
	C950.496521,732.222290 949.904846,730.785095 948.505676,731.271973 
	C947.055176,731.776733 947.721741,733.196716 947.761719,734.275940 
	C948.241638,747.232239 949.001099,760.185120 949.155334,773.145203 
	C949.424500,795.749817 945.996094,817.862732 939.117065,839.402161 
	C937.808472,843.499695 935.921265,847.412415 934.144409,851.725525 
	C933.747253,852.153015 933.506653,852.265381 932.903809,852.211914 
	C936.420654,839.106873 940.086670,826.111816 940.345032,812.475891 
	C940.444336,807.235657 940.738220,801.894165 938.155701,796.493408 
	C936.346008,798.057373 936.539307,799.947266 936.273926,801.561401 
	C931.180115,832.547180 920.088928,860.945190 899.614014,885.123108 
	C888.675415,898.040039 875.916443,908.983459 861.367615,917.737732 
	C859.663818,918.763000 857.805176,919.536072 855.996948,920.380432 
	C855.101257,920.798706 854.032166,921.341370 853.269714,920.364685 
	C852.543335,919.434143 853.229065,918.468018 853.770203,917.638184 
	C855.407593,915.127380 857.120483,912.664856 858.718323,910.129639 
	C860.138062,907.876831 861.600830,905.627502 862.748230,903.234436 
	C863.620789,901.414612 865.707092,898.924255 863.390991,897.473511 
	C861.331787,896.183594 860.103882,899.103394 858.987671,900.564575 
	C851.497925,910.368530 844.020020,920.161621 834.731873,928.405457 
	C827.928711,934.443787 820.302917,939.121887 811.886780,942.494202 
	C801.407898,946.692871 791.388855,946.181458 782.088379,939.246948 
	C767.483765,928.357605 753.185425,917.167786 744.011658,900.887634 
	C743.685059,900.308167 743.342346,899.727905 742.931885,899.207397 
	C741.942566,897.953064 741.094116,895.874084 739.101868,897.030518 
	C737.417908,898.008118 738.570557,899.862488 739.079834,901.097229 
	C740.535339,904.626099 742.263428,908.043457 743.913025,911.490906 
	C744.615112,912.958252 745.945251,914.424194 744.359253,915.999634 
	C742.932373,917.417175 741.234924,916.777954 739.687439,916.103760 
	C733.527405,913.419861 728.066650,909.612488 722.884644,905.400024 
	C692.716797,880.876038 675.522217,848.810303 668.215088,811.047485 
	C667.614258,807.942688 666.828735,804.968079 664.828308,800.878357 
	C658.775574,819.044800 663.219666,835.222534 668.503784,851.738159 
	C668.423706,852.196838 668.168579,852.276917 667.583496,852.128845 
	C654.366028,823.834290 651.021790,794.097046 651.776245,763.636292 
	C652.024292,753.620361 653.611511,743.755798 654.957703,733.859375 
	C655.135803,732.549927 656.247009,730.613892 654.274231,729.940613 
	C652.565063,729.357239 651.608521,731.165710 650.924805,732.368774 
	C648.614136,736.434753 646.364075,740.475159 641.151550,741.993469 
	C641.042114,739.132202 642.570435,736.784363 643.694031,734.378723 
	C649.043030,722.926086 657.108521,713.346558 665.166748,703.799194 
	C669.911011,698.178162 674.382812,692.406921 678.083740,685.661133 
	C678.702759,694.802185 674.951660,703.216858 672.025024,711.808594 
	C668.815918,721.229858 664.451111,730.276306 662.961121,740.247559 
	C660.486572,756.807007 663.842041,772.701965 669.043640,788.212830 
	C674.926575,805.755371 683.045288,822.346436 692.249817,838.393677 
	C692.807556,839.366028 693.558655,840.227539 694.806885,841.951477 
	C695.547852,834.107666 694.369934,827.028442 695.759399,819.547424 
	C697.880249,821.085693 697.262634,823.609436 699.267456,824.799438 
	C700.869690,825.327576 701.435974,826.385742 701.728821,827.494690 
	C704.245972,837.025940 708.651855,845.662231 714.047607,853.844482 
	C714.591248,854.668762 714.964783,855.600952 715.078186,856.967407 
	C715.013489,857.830933 714.785217,858.409546 714.959412,858.815430 
	C719.020691,868.280640 724.891235,876.571899 731.820740,885.686951 
	C731.769653,880.421692 729.181091,876.814514 730.501526,871.916992 
	C734.612122,877.686707 738.238342,882.967896 742.061646,888.102356 
	C749.452393,898.027649 757.644958,907.161377 768.048157,914.107910 
	C792.895630,930.699524 815.818481,930.002747 839.580933,911.879272 
	C852.354858,902.136658 861.780762,889.461243 870.759216,876.388306 
	C871.851257,874.798157 872.964050,873.222290 874.937988,871.992310 
	C874.217407,875.984436 873.496765,879.976624 872.762573,884.379211 
	C872.718567,884.955505 872.688171,885.121277 872.597778,885.530029 
	C872.537720,885.773071 872.146362,886.075439 872.369507,885.970581 
	C872.592712,885.865723 872.757080,885.397400 872.981750,885.291931 
	C880.509949,876.707581 885.843994,866.941589 891.367859,857.306580 
	C898.218384,845.357361 903.444580,832.649597 908.645264,818.887817 
	C910.815918,826.878723 909.531616,834.035095 909.950317,841.528931 
z"/>
<path fill="#E06929" opacity="1.000000" stroke="none" 
	d="
M650.818970,839.817017 
	C653.401123,844.238098 655.497986,848.639038 657.933228,852.843994 
	C663.592834,862.616211 670.004883,871.700378 681.386230,875.580261 
	C683.185608,876.193542 683.821777,877.767273 684.774231,879.078186 
	C692.137451,889.213257 700.077637,898.841675 709.400513,907.259827 
	C717.999390,915.024170 727.224731,922.306152 738.266357,925.718140 
	C752.163147,930.012268 763.697815,937.914795 774.855408,946.538391 
	C786.157043,955.273560 798.240295,957.004639 811.585876,952.888855 
	C821.107239,949.952576 829.693909,945.298462 837.432129,939.080933 
	C839.547485,937.381348 841.748474,935.915344 844.339539,935.186462 
	C875.356812,926.461182 896.678162,905.051331 915.637207,880.607300 
	C917.618652,878.052673 919.742920,876.331360 922.751587,874.914734 
	C933.371643,869.913940 939.521606,860.562317 945.044800,850.298157 
	C947.037048,848.636780 949.088623,848.005493 951.310791,848.132019 
	C957.723206,848.497070 964.256470,846.921692 970.903076,849.656982 
	C963.088806,867.363464 952.875916,883.398621 940.099121,897.747681 
	C913.469849,927.653625 881.702881,950.053528 844.067566,964.137390 
	C811.690125,976.253723 780.030518,974.295410 748.858948,960.248596 
	C709.409058,942.471375 679.393127,913.728760 654.970154,878.646973 
	C647.266663,867.581482 640.359253,856.015686 634.700928,843.325806 
	C636.654663,841.591064 637.963623,843.013306 639.145447,844.365967 
	C640.447510,845.856079 642.063477,846.349426 643.925171,846.402649 
	C647.168152,846.495422 650.510071,846.750793 649.389771,841.708984 
	C649.206238,840.883179 649.682129,840.135803 650.818970,839.817017 
z"/>
<path fill="#E24728" opacity="1.000000" stroke="none" 
	d="
M620.695435,443.240112 
	C622.637329,445.731171 625.209717,446.057098 628.221497,446.050964 
	C666.304565,445.973450 704.387878,445.993317 742.471130,446.019012 
	C744.442749,446.020325 746.414246,446.297760 748.694519,446.726593 
	C736.884888,453.376953 724.058960,458.699799 712.782104,466.316193 
	C680.220154,488.308594 655.946716,516.930054 646.677551,556.169434 
	C644.143799,566.895508 642.424500,576.903564 651.272705,599.828247 
	C644.734314,596.799927 638.933472,594.226990 632.920288,592.248535 
	C632.410034,592.080566 632.058777,590.880188 631.952026,590.115051 
	C628.715942,566.928345 620.671082,544.910950 615.497070,522.212402 
	C609.441284,495.645477 611.165039,469.260773 620.695435,443.240112 
z"/>
<path fill="#E42928" opacity="1.000000" stroke="none" 
	d="
M808.482971,207.558014 
	C806.738403,206.789383 805.171204,205.926849 802.959290,205.938477 
	C782.809937,206.044449 762.659790,205.983841 742.510071,206.037094 
	C741.052917,206.040955 739.597107,206.555954 737.756958,206.916916 
	C741.308044,188.672913 751.344116,173.753586 763.664734,160.145432 
	C775.756714,146.789825 789.598328,135.278732 802.878296,123.175529 
	C814.199951,112.857101 825.454834,102.455170 834.276062,89.795151 
	C836.456055,86.666405 838.414734,83.354073 840.183472,79.973526 
	C845.712341,69.406143 847.842041,58.408112 843.920471,46.399055 
	C859.460205,63.431255 863.796875,83.217369 856.479797,105.370728 
	C853.211731,115.265343 847.692444,124.028313 841.917358,132.615494 
	C836.432129,140.771835 830.818970,148.843124 825.401978,157.044266 
	C815.367920,172.235596 809.555237,188.871704 808.482971,207.558014 
z"/>
<path fill="#E24728" opacity="1.000000" stroke="none" 
	d="
M894.791199,445.269989 
	C902.492126,446.702454 910.025818,446.264587 917.999451,445.479614 
	C918.356079,452.237030 916.761475,459.258026 918.497559,465.326172 
	C923.118286,481.477295 939.964050,490.265503 955.275146,480.297394 
	C966.264526,473.142944 969.961304,461.940002 971.000916,449.548218 
	C971.729248,440.866455 970.668701,432.319946 968.926758,423.448364 
	C970.876526,423.786560 971.373962,425.714325 972.281860,427.212311 
	C991.364868,458.696381 994.259094,492.105743 982.848083,526.658081 
	C975.990906,547.421448 970.148987,568.373718 966.232178,589.860291 
	C965.716003,592.691650 964.657776,594.140564 961.975342,595.178345 
	C957.389648,596.952332 953.004150,599.243652 947.559387,601.770264 
	C948.993042,597.252869 949.988220,593.614502 951.294128,590.091431 
	C956.194702,576.870972 955.595520,563.773010 951.354370,550.462036 
	C939.017212,511.741425 915.513611,482.287842 879.620789,462.924286 
	C878.453308,462.294495 877.334961,461.569122 876.226257,460.838806 
	C875.992615,460.684906 875.902283,460.313477 875.683960,459.934784 
	C881.731934,454.807434 890.597900,453.339508 894.791199,445.269989 
z"/>
<path fill="#E05F29" opacity="1.000000" stroke="none" 
	d="
M971.496521,849.761353 
	C962.891235,850.003723 954.519775,850.003784 945.697144,850.005737 
	C957.403809,821.398010 961.697998,791.551880 959.189941,760.690186 
	C960.807373,759.815186 961.255859,761.342651 962.081726,761.949219 
	C964.047668,763.393250 965.862122,765.858643 968.585144,764.456177 
	C971.114807,763.153320 970.893860,760.266296 971.000183,757.772827 
	C971.214539,752.743774 970.429382,747.820496 969.407471,742.923035 
	C967.384583,733.227905 963.521790,724.283691 957.646667,715.496521 
	C963.632385,714.712769 969.069153,714.746094 974.328003,713.441284 
	C976.379944,712.932190 976.497803,715.148865 976.954102,716.434998 
	C986.394897,743.043335 990.213806,770.348145 986.661926,798.474854 
	C984.415283,816.264587 979.482300,833.315979 971.496521,849.761353 
z"/>
<path fill="#E05F29" opacity="1.000000" stroke="none" 
	d="
M651.135681,839.516479 
	C650.386597,840.482483 650.260803,841.135071 650.546143,842.068176 
	C652.260986,847.675476 651.979126,847.348572 646.418152,848.168518 
	C641.192932,848.939026 638.445068,846.057617 634.977905,843.015137 
	C622.038818,816.070557 614.715271,787.945190 615.184570,758.104858 
	C615.408936,743.846008 618.023315,730.006470 623.833191,716.843628 
	C625.210205,713.723755 626.612305,712.642883 630.212585,713.629150 
	C634.169189,714.713074 638.425415,714.703430 643.160034,715.239136 
	C640.888000,719.474609 638.800293,723.523926 636.566956,727.491394 
	C633.533875,732.879517 630.825989,738.406616 629.447632,744.461243 
	C628.936768,746.704956 628.547607,749.102966 628.772461,751.364014 
	C629.474976,758.427429 634.585632,760.413757 642.294861,756.357361 
	C641.874573,761.056396 641.305481,765.451233 641.116455,769.862366 
	C640.173279,791.874878 643.123413,813.360352 650.123413,834.269470 
	C650.651428,835.846497 651.347473,837.378662 651.135681,839.516479 
z"/>
<path fill="#E23828" opacity="1.000000" stroke="none" 
	d="
M714.516357,363.899994 
	C712.313477,362.969788 710.175049,362.983124 708.012512,362.988800 
	C698.267029,363.014404 688.521118,362.953644 678.776123,363.027740 
	C675.786865,363.050476 672.857788,362.867310 669.567932,362.051270 
	C677.614746,351.560120 687.302185,342.129822 695.467896,331.383270 
	C702.975952,321.502289 709.518799,311.106934 712.550171,298.923523 
	C715.754211,286.046661 715.137451,273.511871 708.006775,261.673004 
	C709.600769,260.950439 710.304321,262.113739 711.105835,262.702515 
	C729.544067,276.248077 737.452759,300.680450 731.437805,325.393066 
	C728.096069,339.122894 721.917236,351.615723 714.516357,363.899994 
z"/>
<path fill="#BB9F9F" opacity="1.000000" stroke="none" 
	d="
M663.312012,634.905273 
	C660.921875,641.034119 662.147034,646.831848 663.335022,652.510803 
	C664.764648,659.344604 666.544312,666.113586 668.411560,672.844299 
	C669.571838,677.026611 669.880249,681.163513 667.908691,685.019897 
	C664.152893,692.366272 658.490906,698.284180 652.748047,704.095886 
	C652.410095,704.437866 651.946289,704.694458 651.495422,704.880066 
	C644.622803,707.709473 626.975769,703.845154 622.041443,698.061096 
	C610.634766,684.690125 600.898987,670.257568 594.490723,653.734070 
	C592.506287,648.617188 592.580566,643.758667 594.363281,638.665344 
	C597.832886,628.752625 603.777832,620.360718 610.477661,612.088623 
	C615.219971,607.435547 620.916260,607.639282 626.194824,608.933533 
	C640.656982,612.479492 652.554626,620.406982 662.137207,631.794800 
	C662.782837,632.562012 663.185669,633.484741 663.312012,634.905273 
z"/>
<path fill="#BB9F9F" opacity="1.000000" stroke="none" 
	d="
M990.938354,610.951660 
	C999.639404,619.786499 1005.311035,629.984436 1009.078735,641.315491 
	C1010.285034,644.943237 1010.067200,648.499329 1008.827942,652.067810 
	C1002.606506,669.982910 991.972412,685.233276 979.460510,699.135437 
	C971.211243,708.301208 952.256531,707.664551 943.814819,698.608215 
	C939.487366,693.965698 936.179565,688.548401 933.111938,683.024170 
	C931.141357,679.475525 931.458252,675.688049 932.644836,671.894897 
	C935.373474,663.172485 938.055847,654.433472 939.491272,645.376343 
	C939.881287,642.915649 940.391357,640.437805 939.012695,637.695435 
	C937.904846,634.595703 939.849548,632.910522 941.296204,631.204651 
	C950.151306,620.763062 961.289856,613.650940 974.259277,609.536804 
	C979.708069,607.808411 985.387268,607.273438 990.938354,610.951660 
z"/>
<path fill="#DFCECE" opacity="1.000000" stroke="none" 
	d="
M991.099365,610.859985 
	C974.216492,606.663696 961.647827,615.715942 949.398132,625.268372 
	C945.387573,628.395752 941.824341,632.192871 939.034851,636.997986 
	C936.532776,637.372437 936.846375,636.098999 937.270447,634.403809 
	C941.710938,616.652466 955.714417,604.330688 973.974915,601.918579 
	C981.740845,600.892761 986.278137,605.711975 991.099365,610.859985 
z"/>
<path fill="#DFCECE" opacity="1.000000" stroke="none" 
	d="
M663.597046,635.121216 
	C654.401611,624.536560 643.717529,616.243469 630.361877,611.586975 
	C624.007812,609.371704 617.795227,609.054688 611.178955,611.929443 
	C619.473389,600.852234 625.802429,599.367493 638.351929,605.546021 
	C642.674133,607.673950 646.945068,609.905945 651.254578,612.059998 
	C659.265930,616.064575 664.515625,625.572998 663.597046,635.121216 
z"/>
<path fill="#917272" opacity="1.000000" stroke="none" 
	d="
M932.316162,852.260864 
	C932.782776,852.050964 933.023865,852.055969 933.626465,852.050781 
	C933.480347,854.313293 932.243469,856.174744 929.884338,858.962891 
	C930.896057,855.988281 931.493408,854.232056 932.316162,852.260864 
z"/>
<path fill="#BB9F9F" opacity="1.000000" stroke="none" 
	d="
M793.321045,444.931702 
	C792.988770,444.715820 792.985657,444.516479 792.995728,444.018311 
	C794.312378,442.450623 795.985718,443.023804 797.614990,443.052887 
	C796.293396,443.684692 794.971802,444.316467 793.321045,444.931702 
z"/>
<path fill="#8F7171" opacity="1.000000" stroke="none" 
	d="
M667.307251,852.222656 
	C667.497864,851.891113 667.742249,851.881470 668.332703,851.994324 
	C669.365906,853.656616 670.052917,855.196472 670.739990,856.736389 
	C670.486694,856.848511 670.233459,856.960632 669.980225,857.072754 
	C669.107117,855.563354 668.234070,854.053955 667.307251,852.222656 
z"/>
<path fill="#E24728" opacity="1.000000" stroke="none" 
	d="
M918.900391,445.138550 
	C917.963867,444.149170 917.719482,443.059265 919.439819,442.103516 
	C919.565674,442.995392 919.353210,443.984589 918.900391,445.138550 
z"/>
<path fill="#E24728" opacity="1.000000" stroke="none" 
	d="
M969.007935,423.008240 
	C968.825378,422.769012 968.622681,422.543915 968.420044,422.318817 
	C968.586670,422.450989 968.753296,422.583130 968.937988,422.887512 
	C968.956055,423.059784 968.987915,423.022369 969.007935,423.008240 
z"/>
<path fill="#E43328" opacity="1.000000" stroke="none" 
	d="
M876.981201,189.960785 
	C877.104004,189.639740 877.421387,189.504684 877.738831,189.369614 
	C877.787109,189.601547 877.835388,189.833496 877.741821,190.271896 
	C877.458618,190.367828 877.317261,190.257294 876.981201,189.960785 
z"/>
<path fill="#E42928" opacity="1.000000" stroke="none" 
	d="
M844.034119,45.969830 
	C843.835083,45.882233 843.616821,45.815502 843.398499,45.748779 
	C843.553589,45.722702 843.708618,45.696613 843.922180,45.853333 
	C843.980652,46.036140 844.014832,45.990696 844.034119,45.969830 
z"/>
<path fill="#181818" opacity="1.000000" stroke="none" 
	d="
M891.107300,706.639038 
	C891.619629,710.298645 893.736389,712.903503 895.190430,715.775024 
	C898.882874,723.067139 899.624512,730.463318 897.030884,738.603394 
	C892.599548,752.409058 889.471313,766.271606 882.722168,778.837097 
	C881.776123,780.598450 880.707214,782.306519 880.008057,784.182617 
	C873.749268,800.977722 863.087280,814.122009 848.131409,824.086060 
	C842.184387,828.048096 838.169312,834.328857 833.302490,839.556641 
	C825.699646,847.723389 816.344604,850.672668 805.666199,851.560608 
	C787.188049,853.097290 772.197693,846.626709 759.565002,833.322815 
	C748.787537,821.972717 737.503662,811.128723 728.615723,798.099426 
	C721.436462,787.575012 715.339844,776.528259 711.117676,764.510498 
	C709.285339,759.294983 707.163818,754.263306 704.276550,749.546875 
	C702.616089,746.834351 701.203613,744.002930 701.170166,740.337952 
	C698.193481,730.269287 701.443298,721.745361 706.121399,713.470398 
	C707.177185,711.602783 708.087341,709.652710 709.109558,707.377686 
	C708.766663,705.633484 709.198303,704.351746 709.802795,703.173706 
	C712.473816,697.968384 710.568420,693.923401 706.689575,690.316528 
	C704.241089,688.039673 701.249512,686.508728 698.661438,684.443726 
	C691.432922,678.676086 685.196289,672.165344 683.460938,662.283081 
	C680.793213,651.480713 681.808167,641.429626 687.501221,632.151733 
	C689.149841,629.465149 687.620605,628.386475 686.276367,626.732361 
	C676.315369,614.475342 672.883484,600.811279 678.293396,585.668335 
	C682.245239,574.606567 690.257202,567.365967 701.469727,564.008911 
	C717.614685,559.175049 733.479004,560.430237 748.608337,567.762756 
	C754.133484,570.440613 758.910461,570.243591 764.667480,568.425964 
	C788.223328,560.988586 811.902710,558.645325 835.361023,569.135986 
	C839.098633,570.807556 842.724182,570.399841 846.465088,568.846802 
	C856.140503,564.829834 865.866028,560.946533 876.351135,559.441162 
	C898.008972,556.331726 919.591187,571.053711 923.403809,591.837585 
	C925.438965,602.931824 922.007324,612.529541 914.371521,620.688416 
	C913.296082,621.837463 911.687378,622.394653 913.222717,624.593811 
	C921.459229,636.391541 921.633484,649.078308 916.868042,662.585266 
	C916.689819,668.429749 912.796021,671.856506 909.760864,675.651245 
	C906.445862,679.795898 902.319824,683.220886 898.044739,686.304810 
	C890.925232,691.440552 887.549133,697.584595 891.107300,706.639038 
z"/>
<path fill="#C0C0C0" opacity="1.000000" stroke="none" 
	d="
M700.862915,740.182739 
	C709.160583,752.700378 713.088135,767.290894 719.972107,780.521179 
	C728.656372,797.211609 739.966492,811.862122 753.655579,824.739258 
	C756.919739,827.809814 759.840759,831.242310 762.975586,834.453552 
	C778.460693,850.316345 797.292603,852.757812 817.838989,847.945618 
	C823.195190,846.691101 827.343628,843.267273 831.102417,839.409851 
	C839.308472,830.988281 846.954773,822.075562 856.858459,815.341492 
	C863.335327,810.937622 868.332642,804.531677 871.806702,797.481750 
	C879.206665,782.464783 887.722961,767.877319 891.280396,751.225464 
	C892.196350,746.938232 894.819092,743.360718 896.677368,739.165161 
	C899.680176,744.843323 897.787903,750.765503 896.752380,756.452576 
	C890.503540,790.769958 875.694885,820.770691 850.411743,845.126953 
	C838.613831,856.492432 824.049988,862.319946 807.879028,863.989319 
	C774.700745,867.414612 750.169312,853.012268 731.406982,826.683472 
	C714.384216,802.795776 703.458069,776.554260 700.189392,747.293457 
	C699.935791,745.023499 699.523315,742.656494 700.862915,740.182739 
z"/>
<path fill="#C0C0C0" opacity="1.000000" stroke="none" 
	d="
M891.430542,706.983398 
	C886.254517,699.440063 886.607117,695.182800 892.816528,689.051086 
	C895.161194,686.735718 897.659729,684.517700 900.343262,682.615295 
	C907.413452,677.603149 912.493896,671.032593 916.497437,663.133911 
	C919.489685,666.535583 917.606506,670.292297 916.934143,673.820068 
	C914.485046,686.670227 908.207397,697.243652 897.241516,704.693359 
	C895.647034,705.776611 893.623718,706.228638 891.430542,706.983398 
z"/>
<path fill="#C0C0C0" opacity="1.000000" stroke="none" 
	d="
M683.226196,662.137085 
	C688.035645,672.946228 695.442749,681.257019 705.542542,687.527100 
	C713.461975,692.443542 714.400940,698.107483 709.439087,706.814758 
	C694.852783,702.193665 688.376709,690.628479 684.231995,677.393433 
	C682.736267,672.617065 681.348816,667.517151 683.226196,662.137085 
z"/>
<path fill="#1F1F1F" opacity="1.000000" stroke="none" 
	d="
M719.563843,844.446777 
	C716.712708,837.081543 713.673157,830.137085 714.720276,822.114075 
	C720.124146,832.959656 724.204163,844.355835 730.327393,854.780945 
	C736.451111,865.206848 744.009094,874.632629 750.413269,884.892700 
	C736.218750,874.585205 726.837830,860.569031 719.563843,844.446777 
z"/>
<path fill="#1F1F1F" opacity="1.000000" stroke="none" 
	d="
M791.632446,493.127747 
	C791.884399,494.992706 791.898010,495.017273 790.535522,495.772583 
	C785.454102,498.589447 780.254700,501.211182 775.297180,504.230621 
	C763.843933,511.206360 754.061279,520.169739 745.191467,530.172852 
	C744.090332,531.414734 742.905945,532.588074 741.699158,533.728638 
	C741.105591,534.289673 740.347656,534.838196 739.525085,534.128113 
	C738.736206,533.447083 739.101013,532.632568 739.483093,531.879700 
	C739.783325,531.288025 740.058167,530.671692 740.441101,530.135559 
	C753.271667,512.172852 769.275085,498.562347 791.632446,493.127747 
z"/>
<path fill="#1F1F1F" opacity="1.000000" stroke="none" 
	d="
M715.337708,857.590332 
	C708.096436,847.658447 702.661804,837.260681 699.775146,825.267578 
	C697.879272,817.341187 696.503113,809.664795 697.344238,801.805664 
	C697.481018,800.527710 697.202759,798.281494 699.246948,798.370789 
	C700.703308,798.434326 700.756226,800.334656 700.830322,801.629028 
	C701.943909,821.078003 708.521362,838.834167 717.502686,855.866699 
	C718.150452,857.095032 719.283081,858.309937 718.734619,859.972107 
	C717.067261,860.112854 716.577637,858.641052 715.337708,857.590332 
z"/>
<path fill="#1F1F1F" opacity="1.000000" stroke="none" 
	d="
M901.818909,767.685730 
	C902.413208,764.624084 901.724487,759.735474 904.109192,759.987000 
	C907.546204,760.349487 905.942871,764.902466 905.958252,767.603210 
	C906.031128,780.405273 903.585083,792.729370 898.018616,804.330566 
	C896.749817,806.974854 895.549866,809.742798 892.417297,811.324829 
	C896.591858,797.107300 900.449829,782.872742 901.818909,767.685730 
z"/>
<path fill="#1F1F1F" opacity="1.000000" stroke="none" 
	d="
M742.429810,861.549683 
	C741.515137,859.187988 740.632385,857.193359 740.112915,855.108215 
	C739.786682,853.798706 738.823486,851.849915 740.758911,851.195190 
	C742.306396,850.671814 742.786987,852.555969 743.407349,853.658875 
	C745.444641,857.280701 747.313782,861.000916 749.444824,864.565369 
	C754.157898,872.448486 759.979248,879.518311 765.835327,886.560974 
	C767.174072,888.171021 768.927673,889.576721 769.287048,891.909424 
	C761.849487,890.313660 749.601135,876.481201 742.429810,861.549683 
z"/>
<path fill="#1F1F1F" opacity="1.000000" stroke="none" 
	d="
M791.208191,507.087769 
	C783.088989,511.429535 776.159973,516.825134 769.338562,522.387878 
	C768.180847,523.331970 766.722412,525.298279 765.176575,523.472046 
	C764.019348,522.105103 765.681396,520.754700 766.636597,519.678711 
	C774.160828,511.203308 782.920105,504.603302 794.134583,501.804596 
	C795.251465,501.525879 796.404724,501.357941 797.551514,501.251862 
	C797.968994,501.213257 798.417175,501.505371 799.553772,501.875000 
	C797.120361,504.522217 794.052856,505.335388 791.208191,507.087769 
z"/>
<path fill="#1F1F1F" opacity="1.000000" stroke="none" 
	d="
M903.638672,804.478210 
	C904.958313,800.844910 906.093567,797.563293 907.356018,794.331360 
	C907.712708,793.418335 908.466431,792.545776 909.644226,792.893066 
	C910.520142,793.151367 910.947754,794.015137 910.765015,794.880371 
	C908.470642,805.740356 906.570007,816.770508 898.593323,825.353027 
	C897.955261,826.039368 897.247620,826.850647 895.236450,826.488831 
	C898.208496,819.244141 901.403809,812.233276 903.638672,804.478210 
z"/>
<path fill="#1F1F1F" opacity="1.000000" stroke="none" 
	d="
M803.743164,507.885925 
	C805.184021,507.414673 806.407104,506.810333 807.304932,507.918060 
	C808.369751,509.231934 806.984741,510.038818 806.263672,510.742279 
	C803.530212,513.409119 800.491638,515.711975 797.166870,517.599182 
	C795.878845,518.330322 794.325989,519.187439 793.101501,517.729553 
	C791.647095,515.998047 793.485718,515.085266 794.460266,514.142212 
	C797.089050,511.598450 799.959717,509.369293 803.743164,507.885925 
z"/>
<path fill="#FDFDFD" opacity="1.000000" stroke="none" 
	d="
M872.254395,886.862488 
	C872.126953,886.428223 872.227051,885.834045 872.538086,885.014771 
	C872.748962,884.789673 872.976868,884.985413 873.091675,885.085938 
	C872.965027,885.691833 872.723511,886.197144 872.254395,886.862488 
z"/>
<path fill="#FDFDFD" opacity="1.000000" stroke="none" 
	d="
M909.990601,841.983643 
	C909.978271,841.967896 909.749695,842.394470 909.749695,842.394470 
	C909.749695,842.394470 909.786133,842.089355 909.910034,842.057129 
	C910.033997,842.024841 910.002930,841.999451 909.990601,841.983643 
z"/>
<path fill="#FDFDFD" opacity="1.000000" stroke="none" 
	d="
M732.475708,886.410889 
	C732.534241,886.368042 732.417114,886.453735 732.475708,886.410889 
z"/>
<path fill="#FDFDFD" opacity="1.000000" stroke="none" 
	d="
M871.992920,886.989685 
	C871.892822,887.007568 871.802551,887.037537 871.869568,887.044983 
	C872.026855,887.022461 872.002808,887.001770 871.992920,886.989685 
z"/>
<path fill="#171717" opacity="1.000000" stroke="none" 
	d="
M622.320374,682.174561 
	C614.913757,670.677368 608.093079,659.075562 600.789734,647.786011 
	C594.487854,638.044556 605.786621,620.903992 613.684265,619.231506 
	C615.355225,618.877625 616.987366,618.892212 618.609436,619.372681 
	C629.473755,622.590820 639.965698,626.741089 650.018677,631.980286 
	C652.631958,633.342163 654.536987,635.433228 655.605286,638.137085 
	C660.499573,650.524231 663.326050,663.224731 661.091919,676.635376 
	C660.372620,680.953125 658.986938,685.000061 656.325500,688.548767 
	C654.084473,691.536865 651.431763,693.030762 647.392212,690.968506 
	C646.877136,690.808960 646.689331,690.845459 646.547852,690.780640 
	C630.907776,683.615906 623.867798,662.503967 632.221130,647.818909 
	C633.209900,646.080627 634.190491,644.336365 634.979553,642.499084 
	C637.322510,637.043457 636.021790,634.495544 630.109497,633.181274 
	C622.853638,631.568237 616.651794,634.097534 611.035645,638.421082 
	C608.563171,640.324524 608.508911,642.943054 609.653198,645.659058 
	C611.018005,648.898376 612.996826,651.797729 614.783264,654.800110 
	C618.547119,661.125793 621.751465,667.701355 623.651611,674.836487 
	C624.322632,677.356445 625.309387,680.051208 622.320374,682.174561 
z"/>
<path fill="#917272" opacity="1.000000" stroke="none" 
	d="
M621.979492,682.491333 
	C624.061279,680.090698 622.872498,677.807068 622.303833,675.641113 
	C620.082581,667.179199 615.993835,659.578308 611.385437,652.217102 
	C610.153442,650.249023 608.986755,648.220703 608.004822,646.119690 
	C606.214539,642.289124 606.962036,639.113708 610.521973,636.531433 
	C617.413025,631.533081 624.840393,629.698120 633.131592,632.188416 
	C637.989319,633.647461 639.596069,636.738892 637.463623,641.344299 
	C635.720825,645.108032 633.488159,648.644165 631.488525,652.289917 
	C627.705933,659.186157 627.824646,665.904236 632.239319,672.539795 
	C636.497131,678.939514 641.348206,684.827637 646.941345,690.508423 
	C640.624023,695.313354 634.571472,691.850220 628.660095,689.649048 
	C625.661194,688.532288 622.958252,686.346252 621.979492,682.491333 
z"/>
<path fill="#171717" opacity="1.000000" stroke="none" 
	d="
M955.344849,690.855164 
	C951.439148,693.395996 948.954468,692.273438 946.351318,689.088074 
	C939.752808,681.013672 936.821106,672.177246 939.008728,661.753723 
	C940.580933,654.262451 942.325134,646.847229 945.038940,639.672180 
	C946.583923,635.587708 949.159302,632.654175 953.123657,630.667725 
	C962.500610,625.969360 972.177917,622.035217 982.070984,618.591736 
	C984.349365,617.798706 986.641602,617.665955 988.931946,618.295105 
	C997.913879,620.762390 1006.830261,637.426086 1002.547791,645.553406 
	C995.831970,658.298889 988.009277,670.461060 980.326721,682.986816 
	C977.746704,680.837158 978.543701,678.130066 979.085449,675.581970 
	C980.586304,668.523254 983.530090,662.015259 987.070496,655.766907 
	C988.217590,653.742371 989.492249,651.789856 990.626831,649.757263 
	C994.968384,641.979553 993.748535,638.028748 985.682068,634.281250 
	C980.277893,631.770508 974.650818,632.026489 969.112244,633.717896 
	C965.387512,634.855347 964.472839,637.038574 965.999939,640.668030 
	C967.354370,643.886902 969.250244,646.842712 970.990479,649.869690 
	C975.945740,658.488953 975.984253,667.023438 970.032166,675.134827 
	C965.837097,680.851624 961.943604,686.917419 955.344849,690.855164 
z"/>
<path fill="#917272" opacity="1.000000" stroke="none" 
	d="
M955.179810,691.216064 
	C959.272705,685.220093 964.553284,680.387329 968.708740,674.554504 
	C974.269409,666.749084 974.588440,658.971252 969.737244,650.817078 
	C967.869568,647.677734 965.979980,644.536499 964.364563,641.265686 
	C962.176575,636.835510 963.367065,633.779846 967.948120,632.273682 
	C976.176270,629.568298 983.968506,630.373535 991.131348,635.605103 
	C994.694153,638.207397 995.748657,641.416504 994.369629,645.616516 
	C993.155945,649.313171 990.784912,652.341919 988.949036,655.677307 
	C984.370178,663.996155 980.060913,672.398010 979.943604,682.660461 
	C980.317627,684.970337 979.408997,686.325195 978.002380,687.302246 
	C971.110535,692.089600 963.722961,694.372192 955.179810,691.216064 
z"/>
<path fill="#BDA1A1" opacity="1.000000" stroke="none" 
	d="
M781.591064,598.142822 
	C784.341003,598.482483 785.830872,601.222107 789.198120,600.624573 
	C783.805908,593.490845 776.815125,588.791626 770.044617,583.369873 
	C770.939819,580.886963 773.073120,580.262939 775.164917,579.768677 
	C791.168884,575.987061 807.142090,576.060242 823.043335,580.381592 
	C825.121094,580.946350 827.212646,581.602417 828.952637,583.697388 
	C823.799194,589.070190 817.695129,593.269043 812.919617,599.342102 
	C815.012390,600.451782 816.102295,598.866943 817.759399,598.270142 
	C824.493530,596.401428 830.622009,593.879822 836.588074,590.983948 
	C843.768066,587.498962 850.815613,583.741821 858.018738,580.304565 
	C866.096558,576.449829 874.705811,574.151489 883.599670,574.828247 
	C897.550171,575.889832 908.875610,586.719116 912.607422,601.632935 
	C912.440735,608.357056 909.883972,613.856995 905.507751,618.417786 
	C902.860718,621.176514 902.870789,623.580872 904.716248,626.842224 
	C913.227722,641.884521 911.337341,655.681274 899.013916,668.108276 
	C890.116150,677.080750 879.224548,682.486938 866.895081,685.144165 
	C858.876221,686.872314 858.047180,688.211609 859.992126,696.040955 
	C862.700378,706.943359 863.482727,717.992737 862.982727,729.184631 
	C862.907104,730.877930 861.926453,733.661560 863.772583,734.122925 
	C866.142212,734.715027 866.169067,731.595764 867.158691,730.040833 
	C867.425171,729.622070 867.629456,729.163696 868.027832,728.410706 
	C874.200195,723.735657 879.952698,725.601562 881.969910,732.616150 
	C883.272705,737.146484 882.395996,741.487061 880.632202,745.728577 
	C879.868164,747.566040 879.104980,749.405701 878.258362,751.683472 
	C873.278625,761.532715 865.790833,768.990051 859.696411,777.993042 
	C859.882751,778.930847 859.830383,779.174072 859.635925,779.762329 
	C851.924927,789.669800 843.568726,798.245728 831.516785,802.075745 
	C830.067810,802.536194 828.854797,803.359253 827.135254,804.131775 
	C806.604065,805.283447 786.484436,805.854248 766.718872,800.614258 
	C765.265564,800.229004 763.853088,799.740295 762.167969,798.827087 
	C756.281067,793.324097 749.579651,789.459229 744.060608,784.138000 
	C742.871460,782.991516 741.358337,782.168335 740.549438,780.198120 
	C731.488281,769.403992 721.911316,759.432739 716.005859,746.361084 
	C715.442383,742.973511 713.900879,740.092834 714.768372,736.834351 
	C715.748108,733.154114 717.184631,729.818359 721.299561,728.940857 
	C725.104736,728.129395 727.500793,730.387024 729.559814,733.757507 
	C730.916687,736.988770 731.724426,740.047363 734.325195,742.809021 
	C736.177063,740.487122 735.712402,738.179993 735.541565,736.031799 
	C734.452332,722.327271 735.018616,708.807739 739.165222,695.547852 
	C740.825623,690.238342 739.913574,688.951416 734.280273,687.481628 
	C727.835022,685.800049 721.320679,684.241577 715.471680,680.992126 
	C703.814331,674.515625 695.045410,665.590271 692.738037,651.830566 
	C691.762146,646.011047 693.391052,640.637695 696.630005,635.723267 
	C700.361877,630.061035 700.200623,627.257141 695.742859,622.482422 
	C690.736084,617.119751 687.383301,610.938171 686.070068,603.324219 
	C687.438049,594.289246 692.095093,587.596191 698.468018,581.929077 
	C705.085571,576.044373 712.829773,574.001404 721.573242,574.967529 
	C730.136658,575.913818 738.040710,578.658630 745.678894,582.573914 
	C757.206421,588.482849 768.585754,594.777832 781.591064,598.142822 
z"/>
<path fill="#8F7171" opacity="1.000000" stroke="none" 
	d="
M740.190369,780.141479 
	C747.259460,785.283752 754.121826,790.702881 761.040161,796.456055 
	C760.335510,799.361023 762.427734,799.883911 763.987122,800.653198 
	C767.734802,802.502197 771.783752,803.459534 775.828918,804.393127 
	C794.240601,808.641968 812.654419,807.492188 831.866455,804.366455 
	C830.023254,804.432434 829.124146,804.053040 828.112061,803.133911 
	C828.130798,801.699036 828.898132,801.290894 829.953796,801.011353 
	C842.458008,797.700684 850.575500,788.574768 858.877808,779.140991 
	C859.297180,778.782227 859.433899,778.609375 859.777588,778.178833 
	C859.984436,777.921021 859.942566,777.986267 859.909912,777.965393 
	C862.541809,778.188904 863.996643,775.963928 866.350159,774.792480 
	C866.878418,774.718872 867.090698,774.781067 867.441772,775.144531 
	C864.288208,782.344604 861.356873,789.445923 857.625366,796.098328 
	C850.660706,808.514771 838.613586,813.383423 825.515137,815.781128 
	C807.991455,818.989014 790.383545,817.922852 772.873535,815.266602 
	C758.414246,813.073303 748.262573,804.994019 741.973083,791.896240 
	C740.603821,789.044739 739.329346,786.135681 737.766174,783.392761 
	C736.062378,780.403015 737.772583,780.307007 740.190369,780.141479 
z"/>
<path fill="#DFCECE" opacity="1.000000" stroke="none" 
	d="
M912.892944,601.516846 
	C910.564880,601.624451 910.869873,599.499817 910.239197,598.113647 
	C905.020264,586.642944 897.537842,577.615051 884.126465,576.369873 
	C875.267395,575.547363 866.717590,577.906921 858.632202,581.661377 
	C848.548706,586.343689 838.987488,592.112671 828.594910,596.148010 
	C825.379761,597.396362 822.157471,598.708740 818.347900,598.427551 
	C828.702698,591.389404 838.951538,583.990417 850.314758,578.404602 
	C859.619446,573.830688 869.249695,570.404541 879.708801,569.664551 
	C899.385925,568.272095 913.166260,581.252808 912.892944,601.516846 
z"/>
<path fill="#DFCECE" opacity="1.000000" stroke="none" 
	d="
M781.707397,597.858765 
	C779.130310,600.202759 776.519653,598.051208 774.013123,597.366028 
	C764.623291,594.799255 756.411621,589.532532 747.764404,585.277710 
	C739.684998,581.302246 731.567383,577.998779 722.452454,576.646912 
	C707.873596,574.484558 698.327209,582.236755 692.470947,590.955078 
	C690.043762,594.568481 688.416321,598.561890 686.384155,602.715210 
	C684.343079,585.435547 694.937195,572.770630 712.642334,571.111145 
	C727.297485,569.737488 740.453735,574.713501 753.296204,580.753601 
	C763.227539,585.424377 772.279663,591.647949 781.707397,597.858765 
z"/>
<path fill="#8F7171" opacity="1.000000" stroke="none" 
	d="
M878.363525,751.926880 
	C877.527466,748.434814 879.905701,745.419312 880.229309,741.954712 
	C880.397583,740.153137 880.939148,738.363342 880.923889,736.571594 
	C880.856384,728.659058 877.586914,726.377441 868.589355,728.088196 
	C869.383240,719.851440 869.686890,711.614929 868.355530,703.334839 
	C867.928650,700.680237 868.953979,698.181580 871.639954,697.268494 
	C874.219604,696.391479 875.662720,698.624390 876.663391,700.437927 
	C880.914734,708.142822 884.608887,716.129150 887.898193,724.290649 
	C889.348145,727.888245 888.591675,731.490356 887.236511,734.959351 
	C884.937500,740.844238 882.195374,746.511963 878.363525,751.926880 
z"/>
<path fill="#8F7171" opacity="1.000000" stroke="none" 
	d="
M729.879639,733.676208 
	C728.953674,733.648865 727.996582,733.332336 727.281189,732.729065 
	C722.038208,728.307983 718.161377,729.604980 716.377014,736.329834 
	C715.551392,739.441528 716.439453,742.479492 716.173706,745.787109 
	C710.211670,738.040649 708.017517,729.842224 713.426392,720.640564 
	C716.612854,715.219727 719.058716,709.368652 722.025696,703.811462 
	C723.270752,701.479553 724.932007,698.851746 728.172424,700.037903 
	C731.376770,701.210754 730.317078,704.209412 729.906372,706.531860 
	C728.328003,715.457214 728.359009,724.349976 729.879639,733.676208 
z"/>
<path fill="#DFCECE" opacity="1.000000" stroke="none" 
	d="
M829.482056,583.985168 
	C809.780212,577.393372 790.269043,576.941101 770.242920,582.997925 
	C768.323669,582.438538 766.537231,581.804810 766.436584,579.913879 
	C766.351318,578.312134 768.044189,577.914368 769.264038,577.564209 
	C789.136658,571.858826 809.039978,569.700562 828.957214,577.355042 
	C833.872803,579.244263 833.985962,580.348816 829.482056,583.985168 
z"/>
<path fill="#8F7171" opacity="1.000000" stroke="none" 
	d="
M866.885132,774.865112 
	C867.253235,774.179810 867.881592,773.559631 867.746948,775.230469 
	C867.421753,775.321777 867.262939,775.197754 866.885132,774.865112 
z"/>
<path fill="#181818" opacity="1.000000" stroke="none" 
	d="
M890.260193,658.705811 
	C882.605347,666.021362 873.593018,667.951416 863.768127,666.902954 
	C860.688538,666.574463 858.589844,666.751160 858.519897,670.642273 
	C858.491150,672.242737 858.771545,674.988525 856.244202,674.868103 
	C853.869385,674.754944 854.500793,672.105652 854.155090,670.446289 
	C853.885376,669.151428 853.819397,667.814087 853.453735,666.152161 
	C841.546753,661.195251 831.612610,654.375183 824.962524,643.377075 
	C824.247925,642.195129 823.430176,640.303406 821.620300,641.268188 
	C820.112915,642.071777 820.485657,643.921692 820.822693,645.363220 
	C821.577087,648.589111 822.939758,650.987915 826.782104,651.739746 
	C836.753418,653.690796 842.795593,660.376099 846.641785,669.705811 
	C850.149658,677.228271 850.663757,685.396362 854.101501,692.637390 
	C855.992188,696.619995 854.060669,699.437927 850.132446,700.795471 
	C846.679199,701.988892 843.160461,703.025879 839.616516,703.916321 
	C832.299866,705.754578 824.426941,705.071838 817.467896,709.092834 
	C823.160645,701.744324 831.128967,697.476501 837.995544,691.410034 
	C838.973389,687.502991 842.402527,684.434082 840.609375,680.302734 
	C838.078125,674.470825 835.109619,668.858398 829.889343,664.937439 
	C825.566284,661.690247 820.919373,661.850647 816.287292,664.402100 
	C811.177429,667.216675 807.631226,671.546387 804.546387,676.381958 
	C800.786316,682.276062 798.562683,682.193237 795.337952,675.847595 
	C792.854858,670.961487 789.676331,666.848999 784.812622,664.209229 
	C780.716736,661.986084 776.148132,661.290466 772.561707,664.324646 
	C765.593384,670.219788 759.815308,677.069946 761.160461,687.619141 
	C764.852844,693.523071 771.032043,696.146118 776.006958,700.230530 
	C779.049805,702.728577 782.438965,704.838745 784.679321,708.337891 
	C774.354309,704.367065 763.020325,705.447144 752.856140,701.160400 
	C747.489014,698.896851 745.861938,696.781311 748.333801,691.672668 
	C751.573853,684.976074 750.118103,677.109680 754.354004,670.410034 
	C757.447510,661.611145 762.972412,655.358887 771.370117,652.388855 
	C776.160522,650.694519 778.043518,647.271606 779.594727,643.155640 
	C779.892883,642.364563 779.908936,641.424500 779.177307,640.848999 
	C778.181519,640.065613 777.289734,640.691284 776.531677,641.371887 
	C775.279541,642.495972 774.439148,643.953674 773.494019,645.321045 
	C768.418945,652.663696 762.403992,659.035950 754.617249,663.565430 
	C752.759155,664.646240 750.974915,665.943909 748.350952,666.062073 
	C739.745605,668.181213 731.480835,670.248352 722.898254,668.000366 
	C719.019043,666.984253 715.165771,665.872620 712.405640,662.216431 
	C714.002441,660.193359 716.048950,660.423218 718.003662,660.734131 
	C725.117371,661.865601 732.172485,661.441162 739.600220,660.171143 
	C723.319397,659.948669 708.716309,645.597046 709.471130,630.824646 
	C709.695618,626.431519 710.587524,622.210327 715.001587,619.368530 
	C718.080566,618.648376 719.701355,620.334595 721.228149,622.146179 
	C723.799927,625.197510 726.476990,628.149780 729.696167,630.531189 
	C738.826721,637.285767 749.076538,637.683350 759.627625,635.376770 
	C763.455872,634.539856 764.143188,632.308655 761.311096,630.439270 
	C751.527344,623.981140 742.233215,616.541321 730.219360,614.257690 
	C725.650391,613.389282 721.332947,613.457886 716.797729,615.689209 
	C713.577759,616.777161 711.158325,618.409607 708.990845,620.535583 
	C707.505981,621.991943 706.146545,623.891113 703.309326,623.193481 
	C700.742249,619.955933 703.159241,617.783875 704.706665,615.944153 
	C713.244995,605.793640 724.037476,601.581177 737.214294,604.493713 
	C744.999939,606.214661 751.724915,610.202087 758.242859,614.620056 
	C764.714844,619.006836 770.830566,623.972595 778.041382,627.185852 
	C786.231995,630.835632 790.779236,627.869019 791.018738,618.784607 
	C791.031921,618.285034 790.940613,617.768433 791.036865,617.287659 
	C791.429260,615.327820 789.801941,612.078918 792.378296,611.703186 
	C794.486389,611.395813 794.748901,614.848450 795.666077,616.732178 
	C795.881531,617.174683 795.951111,617.688232 796.222290,618.515259 
	C797.523193,620.579468 797.538452,622.590393 797.792725,624.538147 
	C798.099731,626.890076 799.538269,628.011230 801.798950,628.067200 
	C804.356934,628.130493 805.140930,626.462524 805.328125,624.240662 
	C805.492004,622.295166 805.233215,620.258484 806.618286,618.209229 
	C808.094543,614.618347 808.003662,610.640869 811.674988,608.088318 
	C813.415344,611.951721 812.285828,615.797668 812.757202,619.461975 
	C813.869995,628.111938 817.132141,630.131226 824.637207,625.761780 
	C833.112061,620.827637 841.271423,615.351746 849.571960,610.117737 
	C852.074890,608.539490 852.977234,606.283325 852.916138,603.350403 
	C852.839966,599.696838 852.984314,596.028809 853.256714,592.383667 
	C853.343567,591.220520 853.358887,589.338440 855.120117,589.384460 
	C856.441895,589.419006 856.602112,591.065430 856.781372,592.131104 
	C857.249817,594.916138 857.798950,597.736511 857.791321,600.541382 
	C857.779480,604.936890 859.085205,606.527344 863.796326,605.261658 
	C874.249390,602.453186 884.018372,604.019104 892.151428,611.636414 
	C895.387756,614.667542 898.706543,617.949402 897.804871,623.504761 
	C895.547607,625.353149 894.373657,623.534363 893.081848,622.491821 
	C890.945129,620.767456 889.332520,618.430908 886.528931,616.934204 
	C879.549011,612.812805 872.587891,613.114075 865.482300,615.279846 
	C855.595032,618.293579 847.524902,624.574524 838.996704,630.023376 
	C837.908142,630.718933 836.652588,631.744202 837.150269,633.243713 
	C837.672974,634.818665 839.343079,635.166443 840.780273,635.566711 
	C853.442871,639.093933 864.753052,636.289978 874.961548,628.264282 
	C878.471802,625.504517 881.461365,622.052917 886.016174,620.128540 
	C890.113708,620.553528 891.081604,623.532654 891.844299,626.424744 
	C893.915894,634.278870 891.764099,641.362427 886.896057,647.499084 
	C881.260559,654.603394 874.055237,659.308044 864.658447,659.810974 
	C871.963928,659.526672 879.265198,659.324585 886.234070,656.593384 
	C887.786682,655.984924 890.015198,655.493347 890.260193,658.705811 
z"/>
<path fill="#DFCECE" opacity="1.000000" stroke="none" 
	d="
M761.364319,687.746521 
	C758.481262,684.685974 758.644409,681.276489 760.561157,677.746887 
	C762.780151,673.660889 764.875427,669.493774 768.057190,666.033020 
	C773.514893,660.096741 779.461060,659.236145 786.370911,663.372681 
	C790.773254,666.008057 793.871582,669.797302 796.286682,674.292725 
	C797.333252,676.240967 797.530457,679.594116 800.124634,679.593079 
	C802.634033,679.592041 802.883789,676.239441 804.083252,674.368469 
	C807.573669,668.924194 811.840820,664.419922 817.937134,661.941345 
	C821.841064,660.354248 825.763245,660.234680 829.371887,662.657410 
	C836.170349,667.221680 839.942444,674.068420 842.457581,681.528687 
	C843.679199,685.152283 841.162598,688.163635 838.459961,690.960327 
	C837.156067,686.787842 838.947205,681.815613 834.805542,678.052307 
	C831.732300,675.841736 831.650391,671.213745 827.237061,670.174683 
	C824.808594,666.375610 821.857483,667.901611 819.225830,668.975708 
	C815.564514,670.469910 813.167664,673.528748 810.894592,676.642639 
	C809.817810,678.117859 808.774841,679.637268 807.541626,680.975403 
	C802.299500,686.663513 797.523621,686.269836 792.924622,679.805359 
	C790.229370,676.016846 788.012451,671.873840 784.385071,668.794861 
	C780.207397,665.248779 777.149536,665.213806 773.010620,669.131836 
	C771.108826,672.126099 768.559753,674.325012 767.262329,677.770508 
	C762.740356,679.796265 763.354980,684.311584 761.364319,687.746521 
z"/>
<path fill="#917272" opacity="1.000000" stroke="none" 
	d="
M716.673096,619.085693 
	C710.639893,623.974731 710.178223,630.146606 711.632996,636.576782 
	C714.365845,648.655884 726.399048,658.105408 739.731140,658.989624 
	C741.048584,659.077026 742.376831,659.001404 743.811707,659.465149 
	C740.136963,661.900879 735.915710,662.543518 731.675293,663.051025 
	C725.492798,663.791077 719.429443,662.543335 712.856384,661.821045 
	C711.621460,660.775452 711.033508,659.536621 710.088684,658.701416 
	C699.639771,649.464355 697.443298,638.415039 702.641479,625.666443 
	C702.884827,625.069641 702.924561,624.389893 703.044678,623.351929 
	C706.305481,622.380615 707.586487,619.245117 709.977417,617.529236 
	C711.598145,616.366028 713.066772,614.971191 715.504395,614.747192 
	C717.237976,615.866211 717.280518,617.232849 716.673096,619.085693 
z"/>
<path fill="#917272" opacity="1.000000" stroke="none" 
	d="
M886.752563,616.117432 
	C891.721436,616.789795 892.946411,622.083862 897.360413,623.760071 
	C903.571716,630.046875 902.793579,637.662048 901.296021,644.876465 
	C900.054443,650.857422 897.145142,656.459839 890.432129,659.060730 
	C888.871094,655.367493 886.665222,658.138062 885.349609,658.622681 
	C877.305603,661.585999 869.270569,662.163696 859.664185,659.380432 
	C870.487549,658.290405 878.811218,654.865234 884.960449,647.379150 
	C890.083618,641.142029 892.445374,634.090393 890.164429,625.978394 
	C889.563782,623.842102 888.776794,621.857117 886.143066,620.842407 
	C884.839600,619.109558 885.434326,617.694641 886.752563,616.117432 
z"/>
<path fill="#181818" opacity="1.000000" stroke="none" 
	d="
M826.828247,670.138062 
	C832.991760,669.487427 833.622925,670.110046 834.435547,677.534180 
	C832.916931,683.269714 829.579773,687.205994 825.120178,690.390076 
	C820.404480,693.756836 815.848145,697.346008 811.180786,700.781860 
	C810.148987,701.541504 808.972351,702.551331 807.592590,701.571533 
	C806.213867,700.592529 806.040894,699.109558 806.429077,697.552124 
	C806.629211,696.749268 806.734192,695.866638 807.148926,695.181702 
	C812.627991,686.134094 817.852783,676.877563 826.828247,670.138062 
z"/>
<path fill="#181818" opacity="1.000000" stroke="none" 
	d="
M767.196777,678.253296 
	C767.522888,674.419312 766.968384,670.178955 772.569214,669.457275 
	C783.598328,675.492310 788.860352,685.959351 794.671814,695.919434 
	C795.620422,697.545227 795.970276,699.977112 794.101196,701.426147 
	C792.164185,702.927979 790.713196,700.986755 789.343689,699.986755 
	C784.396057,696.374451 779.516113,692.668152 774.651001,688.944519 
	C771.138672,686.256409 768.581421,682.868103 767.196777,678.253296 
z"/>
<path fill="#181818" opacity="1.000000" stroke="none" 
	d="
M782.071289,749.996521 
	C779.421997,749.958191 777.252258,749.986023 775.091736,749.858154 
	C773.777344,749.780334 772.218933,749.648010 772.149963,747.865112 
	C772.094971,746.442078 773.366394,745.942749 774.510254,745.696838 
	C776.783752,745.208008 779.073059,744.712402 781.382080,744.481934 
	C799.194336,742.704041 816.289001,745.020569 832.196411,753.710327 
	C835.045471,755.266663 837.903381,756.918274 839.441406,760.459900 
	C820.906067,754.158020 802.200745,749.417969 782.071289,749.996521 
z"/>
<path fill="#917272" opacity="1.000000" stroke="none" 
	d="
M777.364502,761.020874 
	C792.601318,759.081726 807.297241,759.699097 821.844910,763.080017 
	C824.661621,763.734619 829.451172,763.948792 829.203064,766.779907 
	C828.899048,770.248718 824.263062,769.060425 821.553528,768.842590 
	C815.077942,768.321838 809.950562,770.401917 805.405212,774.969116 
	C801.511169,778.882019 797.674438,779.342163 794.481445,775.705688 
	C789.627380,770.177612 783.698853,767.719727 776.691589,766.888550 
	C774.945801,766.681519 772.569214,766.177856 772.556946,764.014648 
	C772.542908,761.542236 774.790649,761.053345 777.364502,761.020874 
z"/>
<path fill="#1F1F1F" opacity="1.000000" stroke="none" 
	d="
M827.457642,802.879089 
	C830.251404,803.670776 832.920471,802.798645 835.798340,804.524170 
	C831.064026,806.904907 826.311340,806.864868 821.768616,807.384094 
	C803.805115,809.437561 785.918640,809.553711 768.437927,804.008301 
	C765.289673,803.009521 762.291199,801.513245 759.278625,800.126953 
	C758.293701,799.673767 756.820496,799.126526 757.271301,797.693726 
	C757.738464,796.208679 759.246094,797.061279 760.700439,796.853271 
	C772.330872,801.332031 784.171021,802.594177 796.121460,803.191589 
	C806.415833,803.706299 816.709167,803.458862 827.457642,802.879089 
z"/>
<path fill="#8F7171" opacity="1.000000" stroke="none" 
	d="
M748.140625,666.377258 
	C759.401611,659.990784 768.515381,651.506287 775.232300,640.429565 
	C776.290466,638.684509 777.922485,637.242615 780.223999,638.725647 
	C782.170227,639.979797 781.905029,641.737061 781.121521,643.581055 
	C779.099609,648.339661 777.355957,652.967285 771.035767,653.993347 
	C766.059387,654.801208 762.903870,658.974915 759.864075,662.752869 
	C758.094666,664.951904 756.602600,667.374146 754.729797,669.869873 
	C752.248779,669.220825 750.098877,668.259033 748.140625,666.377258 
z"/>
<path fill="#8F7171" opacity="1.000000" stroke="none" 
	d="
M846.930359,669.896301 
	C844.419983,667.134521 842.314453,664.151855 840.034546,661.308960 
	C836.138489,656.450806 831.386536,652.954102 824.842712,652.959839 
	C821.089844,652.963135 820.955261,649.815918 819.928162,647.576965 
	C818.732056,644.969543 818.107788,642.084839 819.896118,639.484924 
	C821.079956,637.763855 823.267456,637.782715 824.099426,639.442566 
	C830.348938,651.909912 841.596375,658.624451 853.155884,665.470886 
	C850.682007,666.255249 848.758789,667.675842 846.930359,669.896301 
z"/>
<path fill="#8F7171" opacity="1.000000" stroke="none" 
	d="
M806.457886,617.988037 
	C806.942627,620.066895 806.987244,622.228943 807.215576,624.371399 
	C807.661621,628.555176 805.544006,630.218384 801.670959,630.060730 
	C798.033691,629.912720 795.547302,628.579224 796.165344,624.250610 
	C796.375000,622.782166 796.236389,621.264038 796.306885,619.315002 
	C799.800720,620.984436 802.980713,619.888550 806.457886,617.988037 
z"/>
<path fill="#1F1F1F" opacity="1.000000" stroke="none" 
	d="
M836.885010,714.206787 
	C842.096619,721.525024 845.817444,729.033081 845.795105,737.968201 
	C841.861755,729.841858 837.982605,721.740234 833.562744,713.912537 
	C833.137512,713.159485 832.772705,712.060669 833.703430,711.783569 
	C835.321106,711.301941 835.799316,713.027710 836.885010,714.206787 
z"/>
<path fill="#1F1F1F" opacity="1.000000" stroke="none" 
	d="
M761.134644,721.108765 
	C762.949829,717.466492 763.657349,713.568848 767.707886,711.616211 
	C764.940857,720.230835 762.326721,728.874634 757.867798,737.775452 
	C757.084900,733.007385 757.608826,730.577820 761.134644,721.108765 
z"/>
<path fill="#1F1F1F" opacity="1.000000" stroke="none" 
	d="
M813.657227,711.520020 
	C814.610840,710.931030 815.490540,710.969971 815.499084,711.718201 
	C815.578369,718.612305 815.545837,725.507690 814.778809,732.410950 
	C811.530212,725.696594 811.283875,718.839478 813.657227,711.520020 
z"/>
<path fill="#1F1F1F" opacity="1.000000" stroke="none" 
	d="
M788.359314,724.587036 
	C788.091919,728.229736 787.868164,731.424133 787.644409,734.618591 
	C787.156677,734.589050 786.668884,734.559448 786.181152,734.529907 
	C784.224915,727.540161 784.494263,720.552246 787.065979,713.587158 
	C787.340759,712.842957 787.799072,711.937439 788.805054,712.186890 
	C789.846313,712.445129 789.711731,713.411499 789.611694,714.240417 
	C789.213623,717.540466 788.806641,720.839417 788.359314,724.587036 
z"/>
<path fill="#181818" opacity="1.000000" stroke="none" 
	d="
M859.678833,777.827515 
	C860.006287,778.271606 859.865234,778.534973 859.360779,778.833008 
	C859.231323,778.548035 859.302307,778.141052 859.678833,777.827515 
z"/>
<path fill="#FAFAFA" opacity="1.000000" stroke="none" 
	d="
M886.876465,615.607056 
	C886.690552,617.279724 886.297241,618.661499 885.840149,620.395874 
	C882.817688,623.402832 879.947327,626.164124 876.884949,628.692871 
	C865.231323,638.315552 852.220459,641.062439 837.762634,636.191406 
	C834.700989,635.159851 832.410400,633.172913 835.873413,630.740845 
	C846.821594,623.052307 857.415894,614.450012 871.332031,612.521851 
	C876.703247,611.777588 881.924683,612.367920 886.876465,615.607056 
z"/>
<path fill="#FAFAFA" opacity="1.000000" stroke="none" 
	d="
M716.706177,619.678101 
	C716.388550,618.153625 716.321289,616.850403 716.059082,615.200195 
	C721.297668,610.989258 727.325256,611.779602 733.076355,613.326111 
	C744.868408,616.497009 754.551208,623.786255 764.282043,630.727966 
	C768.092957,633.446472 764.859558,635.101196 762.260132,636.170105 
	C748.919861,641.655762 732.280640,637.294312 722.323181,625.763245 
	C720.591614,623.757996 719.261169,621.381165 716.706177,619.678101 
z"/>
<path fill="#181818" opacity="1.000000" stroke="none" 
	d="
M803.402710,773.813110 
	C797.212830,774.538269 792.811768,772.029907 790.720215,767.035645 
	C789.785767,764.804138 789.872681,763.118652 792.733765,762.732178 
	C794.855957,762.445557 796.984070,762.071289 799.116150,762.022339 
	C801.886353,761.958801 805.996704,761.501160 806.472900,764.386963 
	C806.939331,767.213745 807.326965,771.364319 803.402710,773.813110 
z"/>
</svg>